<svg xmlns="http://www.w3.org/2000/svg" xmlns:xlink="http://www.w3.org/1999/xlink" width="120" height="120" viewBox="0 0 120 120">
  <defs>
    <linearGradient id="linear-gradient" x1="0.5" x2="0.5" y2="1" gradientUnits="objectBoundingBox">
      <stop offset="0" stop-color="#3dcde6"/>
      <stop offset="1" stop-color="#68dcb6"/>
    </linearGradient>
  </defs>
  <g id="coordinator" transform="translate(14.999 -5.727)">
    <rect id="長方形_3099" data-name="長方形 3099" width="120" height="120" transform="translate(-14.999 5.727)" fill="rgba(255,255,255,0)"/>
    <path id="パス_9353" data-name="パス 9353" d="M155.818,83.775c10.432,1.807,34.434,15.389,31.226,25.313l-.917,4.3s4.345,12.923,20.4,12.47c-3.211,10.374-12.019,13.51-22.8,14.137-16.293-.937-14.085-5.6-14.085-5.6s13.442-7.141-28.26-11.835Z" transform="translate(-116.522 -47.845)" fill="url(#linear-gradient)"/>
    <path id="パス_9354" data-name="パス 9354" d="M4.225,106.682a4.224,4.224,0,0,1-3.958-5.7L27.274,28.473a4.221,4.221,0,1,1,7.91,2.947l-27,72.513A4.22,4.22,0,0,1,4.225,106.682Z" transform="translate(0)" fill="url(#linear-gradient)"/>
  </g>
</svg>
