<svg xmlns="http://www.w3.org/2000/svg" xmlns:xlink="http://www.w3.org/1999/xlink" width="540" height="311.365" viewBox="0 0 540 311.365">
  <defs>
    <clipPath id="clip-path">
      <rect id="長方形_3909" data-name="長方形 3909" width="85.231" height="95.107" fill="#4fe0b0"/>
    </clipPath>
  </defs>
  <g id="図" transform="translate(-599.714 -1050)">
    <rect id="長方形_3321" data-name="長方形 3321" width="540" height="310" transform="translate(599.714 1050)" fill="#fff"/>
    <g id="STEP2" transform="translate(1011.606 1230.622)">
      <path id="パス_9427" data-name="パス 9427" d="M0,0H117.568V130.743H0Z" fill="rgba(255,255,255,0)"/>
      <g id="グループ_5450" data-name="グループ 5450" transform="translate(17.453 14.742)">
        <g id="グループ_5449" data-name="グループ 5449" clip-path="url(#clip-path)">
          <path id="パス_9428" data-name="パス 9428" d="M3.247,127.5c0-11.794,10.295-21.389,22.949-21.389H59.035c12.654,0,22.949,9.6,22.949,21.389v26.13h3.247V127.5c0-13.462-11.751-24.415-26.2-24.415H26.2C11.751,103.081,0,114.033,0,127.5v26.13H3.247Z" transform="translate(0 -58.519)" fill="#4fe0b0"/>
          <path id="パス_9429" data-name="パス 9429" d="M68.584,39.754c11.111,0,20.151-8.425,20.151-18.781V18.781C88.734,8.425,79.695,0,68.584,0S48.433,8.425,48.433,18.781v2.193c0,10.356,9.039,18.781,20.151,18.781M51.68,18.781c0-8.687,7.583-15.755,16.9-15.755s16.9,7.067,16.9,15.755v2.193c0,8.687-7.583,15.755-16.9,15.755s-16.9-7.067-16.9-15.755Z" transform="translate(-25.968)" fill="#4fe0b0"/>
        </g>
      </g>
      <text id="お客様" transform="translate(59.108 125.379)" fill="#0ac385" font-size="16" font-family="YuGothicUI-Bold, Yu Gothic UI" font-weight="700"><tspan x="-22.609" y="0">お客様</tspan></text>
    </g>
    <g id="STEP1" transform="translate(611.269 1230.622)">
      <path id="パス_9430" data-name="パス 9430" d="M0,0H117.568V117.568H0Z" transform="translate(0 0)" fill="rgba(255,255,255,0)"/>
      <path id="パス_9240" data-name="パス 9240" d="M80.728,138.261a21.79,21.79,0,1,0-21.874-21.789A21.857,21.857,0,0,0,80.728,138.261Zm0-39.972a18.182,18.182,0,1,1-18.267,18.183A18.246,18.246,0,0,1,80.728,98.289Zm22.159,43.875H96.765a1.8,1.8,0,0,0-1.658,1.1l-6.929,16.226-2.415-8.626,2.775-6.15a1.8,1.8,0,0,0-1.644-2.546H74.562a1.8,1.8,0,0,0-1.644,2.546l2.775,6.15-2.415,8.626L66.35,143.26a1.8,1.8,0,0,0-1.659-1.1H58.569a20.045,20.045,0,0,0-20.061,19.984v25.509h3.607V162.149a16.434,16.434,0,0,1,16.454-16.377H63.5l15.569,36.463a1.8,1.8,0,0,0,3.318,0l15.569-36.463h4.932a16.434,16.434,0,0,1,16.453,16.377v25.509h3.607V162.149A20.045,20.045,0,0,0,102.888,142.165ZM80.728,176.933l-5.187-12.147,3.8-13.584a1.805,1.805,0,0,0-.093-1.228l-1.9-4.2H84.1l-1.9,4.2a1.805,1.805,0,0,0-.093,1.228l3.8,13.584Z" transform="translate(-21.655 -81.636)" fill="#00a9c6"/>
      <text id="事業者" transform="translate(58.445 125.379)" fill="#00a9c6" font-size="16" font-family="YuGothicUI-Bold, Yu Gothic UI" font-weight="700"><tspan x="-24" y="0">事業者</tspan></text>
    </g>
    <g id="グループ_5343" data-name="グループ 5343" transform="translate(817.591 1060.062)">
      <path id="パス_1" data-name="パス 1" d="M78.2,35.911H35.56V34.857q0-11.184,0-22.369A12.314,12.314,0,0,1,48.022.017q9-.028,18,0A12.208,12.208,0,0,1,78.243,11.98c.092,7.776.023,15.553.022,23.329C78.266,35.452,78.237,35.6,78.2,35.911ZM68.6,23.374c.02-.306.049-.561.05-.816,0-3.32.008-6.64,0-9.96a2.717,2.717,0,0,0-2.988-2.966q-8.737-.009-17.475,0a2.75,2.75,0,0,0-3,3.064q-.005,4.892,0,9.786c0,.305.027.609.041.891Z" transform="translate(-5.341 0)" fill="#979797"/>
      <path id="パス_2" data-name="パス 2" d="M39.142,77.628c-1.835.139-3.538.247-5.236.4-1.6.147-2.524-.416-2.532-1.633a1.474,1.474,0,0,1,1.438-1.654c4.028-.325,8.06-.612,12.092-.9a1.553,1.553,0,0,1,1.876,1.58c.065,1.158-.681,1.655-1.74,1.762-.776.079-1.555.131-2.37.2l-.623,2.793c1.293,0,2.5,0,3.714,0,1.318.005,2.077.639,2.07,1.716-.006,1.024-.754,1.629-2.033,1.633-1.477,0-2.954,0-4.483,0-.347,1.559-.668,3.029-1,4.495a5.861,5.861,0,0,1-5.705,4.745c-.959.04-1.921.029-2.882.019a1.544,1.544,0,0,1-1.691-1.613,1.6,1.6,0,0,1,1.692-1.725c1.127-.08,2.267-.037,3.385-.183A2.183,2.183,0,0,0,37,87.354c.256-1.215.526-2.427.83-3.826H35.293c-1.572,0-3.144-.005-4.716,0a1.555,1.555,0,0,1-1.779-1.6,1.584,1.584,0,0,1,1.758-1.735c2.328-.037,4.659-.012,6.988-.012h1.027Z" transform="translate(-4.325 -11.091)" fill="#979797"/>
      <path id="パス_3" data-name="パス 3" d="M78.578,57.8c0,1.2.017,2.187,0,3.17a5.389,5.389,0,0,1-4.355,5.485,18.738,18.738,0,0,1-6.4.014c-3.3-.625-4.885-3.856-4.255-7.6a18.451,18.451,0,0,1,3.122-6.855c.156-.242.3-.49.557-.91-.819,0-1.5.009-2.176,0A1.662,1.662,0,0,1,65,47.777c1.775-.06,3.556-.071,5.33,0a1.693,1.693,0,0,1,1.261,2.77c-1.175,1.909-2.522,3.732-3.5,5.737a14.754,14.754,0,0,0-1.223,4.561A2.264,2.264,0,0,0,69.3,63.325q1.7.038,3.408,0a2.463,2.463,0,0,0,2.515-2.559c.014-2.068-.068-4.141.05-6.2a2.324,2.324,0,0,1,.957-1.729,2.378,2.378,0,0,1,1.96.326c1.321.894,2.523,1.967,3.759,2.984a1.694,1.694,0,1,1-2.164,2.587C79.457,58.456,79.105,58.2,78.578,57.8Z" transform="translate(-9.521 -7.169)" fill="#979797"/>
      <path id="パス_4" data-name="パス 4" d="M30.345,40.157H17.828V27.629H30.345Z" transform="translate(-2.678 -4.15)" fill="#172f66"/>
      <path id="パス_5" data-name="パス 5" d="M89.012,27.6h12.494V40.114H89.012Z" transform="translate(-13.37 -4.146)" fill="#e4021f"/>
      <path id="パス_6" data-name="パス 6" d="M119.293,80.987V93.521H106.787V80.987Z" transform="translate(-16.04 -12.165)" fill="#e7391b"/>
      <path id="パス_7" data-name="パス 7" d="M53.438,98.782h12.48v12.511H53.438Z" transform="translate(-8.027 -14.838)" fill="#ed6b12"/>
      <path id="パス_8" data-name="パス 8" d="M12.533,93.5H.021V80.993H12.533Z" transform="translate(-0.003 -12.166)" fill="#427936"/>
      <path id="パス_9" data-name="パス 9" d="M.04,45.385h12.5V57.868H.04Z" transform="translate(-0.006 -6.817)" fill="#2ba63b"/>
      <path id="パス_10" data-name="パス 10" d="M106.783,45.375h12.5V57.888h-12.5Z" transform="translate(-16.04 -6.816)" fill="#0e973d"/>
      <path id="パス_11" data-name="パス 11" d="M.007,75.717v-12.5H12.532v12.5Z" transform="translate(-0.001 -9.496)" fill="#0273b8"/>
      <path id="パス_12" data-name="パス 12" d="M119.314,63.22V75.708H106.8V63.22Z" transform="translate(-16.043 -9.496)" fill="#c40d28"/>
      <path id="パス_13" data-name="パス 13" d="M30.358,111.3H17.9V98.8H30.358Z" transform="translate(-2.689 -14.841)" fill="#f4a10d"/>
      <path id="パス_14" data-name="パス 14" d="M48.117,111.314H35.62V98.8h12.5Z" transform="translate(-5.35 -14.84)" fill="#db007b"/>
      <path id="パス_15" data-name="パス 15" d="M101.55,111.3H89.033V98.813H101.55Z" transform="translate(-13.373 -14.843)" fill="#fbbd02"/>
      <path id="パス_16" data-name="パス 16" d="M71.217,98.808H83.688v12.466H71.217Z" transform="translate(-10.697 -14.842)" fill="#970931"/>
      <path id="パス_17" data-name="パス 17" d="M85.826,78.267H79.518A28.488,28.488,0,0,1,77.7,81.69a5.033,5.033,0,0,1-3.951,1.93,1.686,1.686,0,1,1-.388-3.349c1.844-.329,2.238-.8,2.589-2.933.369-2.245.6-2.442,2.865-2.444q4.41,0,8.821,0c1.494,0,2.22.872,1.909,2.3-.687,3.15-1.37,6.3-2.089,9.443a7.532,7.532,0,0,1-7.853,6.309c-1.049.01-2.1-.008-3.144.007A1.627,1.627,0,0,1,74.6,91.317c-.079-.993.737-1.7,1.894-1.711s2.329.013,3.493-.025a3.935,3.935,0,0,0,3.762-2.5,10.39,10.39,0,0,0,.558-1.83C84.823,82.962,85.307,80.667,85.826,78.267Z" transform="translate(-10.788 -11.25)" fill="#979797"/>
      <path id="パス_18" data-name="パス 18" d="M106.781,40.124V27.685c6.046-.461,12.684,5.2,12.511,12.438Z" transform="translate(-16.039 -4.155)" fill="#d7a611"/>
      <path id="パス_19" data-name="パス 19" d="M.014,39.979c-.388-6.336,6.96-13.647,12.5-12.251V39.979Z" transform="translate(0 -4.139)" fill="#044b88"/>
      <path id="パス_20" data-name="パス 20" d="M106.777,111.322v-12.5h12.432C119.765,104.252,114.589,111.365,106.777,111.322Z" transform="translate(-16.039 -14.844)" fill="#02a7d8"/>
      <path id="パス_21" data-name="パス 21" d="M.081,98.806H12.525q0,6.224,0,12.432C6.252,111.645-.192,105.79.081,98.806Z" transform="translate(-0.011 -14.842)" fill="#d39116"/>
      <path id="パス_22" data-name="パス 22" d="M61.772,87.686c-2.087,0-4.178.011-6.269,0-1.235-.008-1.948-.642-1.881-1.677s.694-1.467,1.693-1.464c2.383.006,4.766,0,7.126,0a1.979,1.979,0,0,0-1.938-2.6c-1.251-.037-2.505-.005-3.758-.014-1.066-.008-1.87-.416-1.864-1.6s.8-1.569,1.881-1.551c1.224.02,2.447-.007,3.671.008A5.253,5.253,0,0,1,65.7,84.946a42.55,42.55,0,0,1-1.031,4.675,5.187,5.187,0,0,1-5.107,3.868c-1.836.016-3.671,0-5.506.005-1.094,0-1.769-.551-1.751-1.616.019-1.02.7-1.541,1.745-1.536,1.777.009,3.554.014,5.331,0A2.278,2.278,0,0,0,61.772,87.686Z" transform="translate(-7.857 -11.834)" fill="#979797"/>
      <path id="パス_23" data-name="パス 23" d="M39.38,52.088c-1.4-.125-3.343.341-3.143-1.8.235-2.491,2.495-1.231,3.946-1.7.433-1.124.3-3.007,2.385-2.611,1.441.274,1.432,1.462,1.124,2.726,2.17,0,4.261,0,6.352,0,1.336,0,2.072.606,2.073,1.7s-.711,1.66-2.084,1.658c-2.351,0-4.7,0-7.12,0-.738,3.248-1.459,6.413-2.179,9.58-.232,1.019-.444,2.044-.7,3.056s-.89,1.6-1.972,1.366a1.625,1.625,0,0,1-1.284-2.193c.8-3.63,1.633-7.254,2.451-10.881C39.287,52.719,39.32,52.439,39.38,52.088Z" transform="translate(-5.441 -6.899)" fill="#979797"/>
      <path id="パス_24" data-name="パス 24" d="M52.336,68.441c-1.74.09-3.849.047-5.522-1.523a7.64,7.64,0,0,1-1.871-2.263,2.17,2.17,0,0,1,.387-2.023c.423-.351,1.827-.336,2.028-.008,1.605,2.623,4.075,2.49,6.613,2.4,1.968-.071,2.8.478,2.83,1.669s-.859,1.749-2.856,1.749Z" transform="translate(-6.735 -9.369)" fill="#979797"/>
      <path id="パス_25" data-name="パス 25" d="M51.8,55.523c1.074,0,2.149-.023,3.223.008a1.523,1.523,0,0,1,1.624,1.578,1.544,1.544,0,0,1-1.576,1.731q-3.263.1-6.533,0a1.566,1.566,0,0,1-1.586-1.734,1.518,1.518,0,0,1,1.623-1.581C49.651,55.5,50.726,55.523,51.8,55.523Z" transform="translate(-7.053 -8.339)" fill="#979797"/>
      <path id="パス_26" data-name="パス 26" d="M77.843,50.82a1.714,1.714,0,1,1,.152-3.418,1.68,1.68,0,0,1,1.7,1.737A1.743,1.743,0,0,1,77.843,50.82Z" transform="translate(-11.431 -7.119)" fill="#979797"/>
      <path id="パス_27" data-name="パス 27" d="M83.509,47.389a1.75,1.75,0,0,1,1.784,1.748A1.641,1.641,0,0,1,83.535,50.8,1.674,1.674,0,0,1,81.7,49.114,1.747,1.747,0,0,1,83.509,47.389Z" transform="translate(-12.271 -7.118)" fill="#979797"/>
    </g>
    <path id="パス_9382" data-name="パス 9382" d="M109.565,0,107.87,1.94l8.064,7.038C61.4,10.758,32.809,40.247,18.406,64.9A147.384,147.384,0,0,0,0,119.426l2.561.229A144.65,144.65,0,0,1,20.673,66.116c14.088-24.071,42.063-52.87,95.471-54.572L108.41,19.2l1.812,1.827L121.2,10.16Z" transform="translate(672.477 1105.403)" fill="#b1b1b1"/>
    <path id="パス_9383" data-name="パス 9383" d="M311.786,64.9c-14.4-24.651-42.99-54.141-97.532-55.92l8.068-7.042L220.628,0,209,10.156l10.975,10.866,1.812-1.828-7.728-7.649c53.4,1.7,81.379,30.5,95.466,54.572a144.65,144.65,0,0,1,18.112,53.538l2.561-.228A147.365,147.365,0,0,0,311.786,64.9" transform="translate(736.756 1105.403)" fill="#b1b1b1"/>
    <path id="パス_9384" data-name="パス 9384" d="M301.332,167.361l-1.754,1.884,7.9,7.344H39.54l7.9-7.344-1.754-1.884L34.377,177.878l11.309,10.513,1.754-1.882-7.907-7.349H307.485l-7.907,7.349,1.754,1.882,11.309-10.513Z" transform="translate(696.487 1133.343)" fill="#b1b1b1"/>
    <rect id="長方形_3323" data-name="長方形 3323" width="397.907" height="241.074" transform="translate(670.76 1095.895)" fill="none"/>
    <g id="パス_9385" data-name="パス 9385" transform="translate(627.857 1150.225)" fill="#fff">
      <path d="M 131.9285736083984 49.64286041259766 L 0.500003457069397 49.64286041259766 L 0.500003457069397 0.4999949634075165 L 131.9285736083984 0.4999949634075165 L 131.9285736083984 49.64286041259766 Z" stroke="none"/>
      <path d="M 1 0.9999923706054688 L 1 49.14284515380859 L 131.4285736083984 49.14284515380859 L 131.4285736083984 0.9999923706054688 L 1 0.9999923706054688 M 0 -7.62939453125e-06 L 132.4285736083984 -7.62939453125e-06 L 132.4285736083984 50.14284515380859 L 0 50.14284515380859 L 0 -7.62939453125e-06 Z" stroke="none" fill="#00a9c6"/>
    </g>
    <g id="長方形_3326" data-name="長方形 3326" transform="translate(985.714 1149.795)" fill="#fff" stroke="#00a9c6" stroke-width="1">
      <rect width="132" height="51" stroke="none"/>
      <rect x="0.5" y="0.5" width="131" height="50" fill="none"/>
    </g>
    <g id="長方形_3325" data-name="長方形 3325" transform="translate(775.714 1265)" fill="#fff" stroke="#0ac385" stroke-width="1">
      <rect width="188" height="95.27" stroke="none"/>
      <rect x="0.5" y="0.5" width="187" height="94.27" fill="none"/>
    </g>
    <text id="登録_精算" data-name="登録・精算" transform="translate(693.714 1183.837)" fill="#00a9c6" font-size="20" font-family="YuGothicUI-Bold, Yu Gothic UI" font-weight="700"><tspan x="-45" y="0">登録・精算</tspan></text>
    <text id="登録_精算-2" data-name="登録・精算" transform="translate(1050.714 1183.837)" fill="#00a9c6" font-size="20" font-family="YuGothicUI-Bold, Yu Gothic UI" font-weight="700"><tspan x="-45" y="0">登録・精算</tspan></text>
    <text id="マッチング_旅コンテンツ_旅行相談" data-name="マッチング
旅コンテンツ
旅行相談" transform="translate(869.715 1293.999)" fill="#0ac385" font-size="20" font-family="YuGothicUI-Bold, Yu Gothic UI" font-weight="700"><tspan x="-38.271" y="0">マッチング</tspan><tspan y="0" font-family="SegoeUI-Bold, Segoe UI"></tspan><tspan x="-47.764" y="27">旅コンテンツ</tspan><tspan y="27" font-family="SegoeUI-Bold, Segoe UI"></tspan><tspan x="-40" y="54">旅行相談</tspan></text>
  </g>
</svg>
