<svg xmlns="http://www.w3.org/2000/svg" xmlns:xlink="http://www.w3.org/1999/xlink" width="120" height="120" viewBox="0 0 120 120">
  <defs>
    <linearGradient id="linear-gradient" x1="0.5" x2="0.5" y2="1" gradientUnits="objectBoundingBox">
      <stop offset="0" stop-color="#3dcde6"/>
      <stop offset="1" stop-color="#68dcb6"/>
    </linearGradient>
  </defs>
  <g id="trunk" transform="translate(15 -17.564)">
    <rect id="長方形_2588" data-name="長方形 2588" width="120" height="120" transform="translate(-15 17.564)" fill="rgba(255,255,255,0)"/>
    <path id="合体_21" data-name="合体 21" d="M10649.2,19675.656v-61.34h7.669a6.131,6.131,0,0,1,6.138,6.133v49.068a6.139,6.139,0,0,1-6.138,6.139Zm-56.248,0v-61.34h7.748v-9.742a5.011,5.011,0,0,1,5.012-5.008h24.591a5.014,5.014,0,0,1,5.012,5.008v9.742h7.748v61.34Zm7.367-51.666v7.6a2.056,2.056,0,0,0,.6,1.451l11.772,11.771a2.055,2.055,0,0,0,2.9,0l7.595-7.6a2.051,2.051,0,0,0,0-2.9l-11.768-11.777a2.063,2.063,0,0,0-1.456-.6h-7.595A2.056,2.056,0,0,0,10600.314,19623.99Zm6.519-9.674h22.339v-8.611h-22.339Zm-27.692,61.34a6.143,6.143,0,0,1-6.143-6.139v-49.068a6.134,6.134,0,0,1,6.143-6.133h7.669v61.34Zm25.4-47.316a1.548,1.548,0,1,1,1.088.447A1.538,1.538,0,0,1,10604.542,19628.34Z" transform="translate(-10573 -19560)" fill="url(#linear-gradient)"/>
  </g>
</svg>
