<svg xmlns="http://www.w3.org/2000/svg" xmlns:xlink="http://www.w3.org/1999/xlink" width="210" height="210" viewBox="0 0 210 210">
  <defs>
    <linearGradient id="linear-gradient" x1="0.241" y1="-0.119" x2="0.802" y2="1.108" gradientUnits="objectBoundingBox">
      <stop offset="0" stop-color="#3dcde6"/>
      <stop offset="1" stop-color="#68dcb6"/>
    </linearGradient>
    <filter id="長方形_2524" x="0" y="0" width="210" height="210" filterUnits="userSpaceOnUse">
      <feOffset input="SourceAlpha"/>
      <feGaussianBlur stdDeviation="5" result="blur"/>
      <feFlood flood-color="#333" flood-opacity="0.161"/>
      <feComposite operator="in" in2="blur"/>
      <feComposite in="SourceGraphic"/>
    </filter>
  </defs>
  <g id="point3" transform="translate(-283 -3045)">
    <g transform="matrix(1, 0, 0, 1, 283, 3045)" filter="url(#長方形_2524)">
      <rect id="長方形_2524-2" data-name="長方形 2524" width="180" height="180" rx="90" transform="translate(15 15)" fill="url(#linear-gradient)"/>
    </g>
    <g id="グループ_3640" data-name="グループ 3640" transform="translate(178.87 2590.15)">
      <path id="パス_8860" data-name="パス 8860" d="M212.65,543.7c.013.019.027.038.041.056a3.779,3.779,0,0,0,3.113,1.626,6.383,6.383,0,0,0,2.417-.573l17.239-7.124-3.133,15.356-1.506,1.794a1.5,1.5,0,0,0-.324.68,2.68,2.68,0,0,0,3.792,2.933l4.4-2.105a4.184,4.184,0,0,0,1.889-1.806l13.8-24.788,11.992-4.866c1.1-.467,6.619-2.963,6.77-6.179a2.969,2.969,0,0,0-1.776-2.815,1.525,1.525,0,0,0-.332-.131l-3.519-.926c-5.267-1.909-7.949-.755-12.379,1.152-.029.012-.056.025-.084.039l-10.381,5.249-19.652-4.9a5.823,5.823,0,0,0-2.756,0l-3.395.832a2.018,2.018,0,0,0-1.655,2.208c.2,1.32,1.51,1.964,3.9,1.907l9.944,6.835-14.75,7.459-5.45-3.694a1.5,1.5,0,0,0-1.979.259L207.289,534a1.5,1.5,0,0,0-.1,1.845Zm10.722-24.472a2.789,2.789,0,0,1,.928.064l16.266,4.055-6.453,3.263ZM215.348,538.6a1.505,1.505,0,0,0,1.522.1l39.5-19.971c4.238-1.823,6.009-2.573,10.181-1.046.044.016.089.03.134.042l3.384.89.049.034c-.218.628-1.909,2.191-4.9,3.457L250.9,527.91a1.493,1.493,0,0,0-.371,2.562l-12.6,22.632a1.19,1.19,0,0,1-.54.522l-2.728,1.3.212-.251a1.511,1.511,0,0,0,.322-.666l3.614-17.717,8.281-3.422a1.5,1.5,0,1,0-1.148-2.779l-28.868,11.929c-1.43.587-1.666.332-1.977-.074l-4.637-6.665Z" transform="translate(-16.777)" fill="#fff"/>
      <path id="パス_8861" data-name="パス 8861" d="M259.483,582.522c-1.9-1.145-4.473-.516-6.871,1.684-.512.469-1.013.941-1.508,1.406-2.319,2.18-4.51,4.24-6.753,5.049a4.4,4.4,0,0,1-1.274.262,1.382,1.382,0,0,0,.167,2.759,7.215,7.215,0,0,0,2.047-.421c2.78-1,5.173-3.254,7.707-5.635.487-.457.98-.92,1.484-1.382,1.7-1.561,2.964-1.721,3.579-1.353a1.452,1.452,0,0,1,.543,1.581c-.863,1.467-8.087,9.734-10.259,11.133-2.079,1.339-17.269,6.776-23.581,7.82-4.126.684-14.317-.64-20.159-1.695a27.069,27.069,0,0,0-6.326-.308,1.336,1.336,0,0,0-.26.042L190.976,592.2c2.379-1.41,5.729-3.367,7.506-3.78a25.063,25.063,0,0,1,8.738-.82c1.462.165,3.079.406,4.643.639,1.957.292,3.806.567,5.281.689,1.606.132,6.194-.055,10.243-.219,2.524-.1,5.13-.211,5.7-.172,2.861.186,4.641,1.121,5.292,2.778a.5.5,0,1,1-.256.953,5.1,5.1,0,0,1-2.354.74,43.278,43.278,0,0,1-5.145.52c-.371.01-.945.018-1.624.028a56.28,56.28,0,0,0-7.083.3,36.81,36.81,0,0,0-7.449,3.065l-.188.095a1.386,1.386,0,0,0,.56,2.652,1.866,1.866,0,0,0,.877-.282,33.208,33.208,0,0,1,6.819-2.837c.665-.148,4.755-.207,6.5-.232.691-.01,1.276-.019,1.654-.028a46.5,46.5,0,0,0,5.521-.556,6.949,6.949,0,0,0,3.882-1.532,1.382,1.382,0,0,0-.019-1.954,1.4,1.4,0,0,0-.117-.094,1.326,1.326,0,0,0,.21-.059,1.382,1.382,0,0,0,.781-1.792c-.74-1.884-2.673-4.2-7.683-4.526-.681-.046-2.622.031-6,.168-3.772.154-8.469.345-9.9.226-1.385-.114-3.191-.383-5.1-.668-1.587-.236-3.228-.481-4.738-.652a27.449,27.449,0,0,0-9.677.874c-2.2.513-5.564,2.479-8.345,4.129l-.332-.531a2.739,2.739,0,0,0-3.813-.848l-1.585.987a1.382,1.382,0,1,0,1.462,2.346l1.593-1.02,11.6,18.51-3.5,2.063-14.3-23.835a1.381,1.381,0,0,0-1.958-.435c-.064.044-6.674,4.484-20.874,12.861a1.382,1.382,0,0,0,1.4,2.38c10.835-6.391,17.286-10.512,19.8-12.148l13.577,22.629c-3.289,1.9-12.919,7.465-24.832,14.364a1.382,1.382,0,0,0,1.385,2.392c14.781-8.561,26.045-15.067,26.045-15.067a1.378,1.378,0,0,0,.505-.516,1.357,1.357,0,0,0,.524-.168l3.625-2.138a2.74,2.74,0,0,0,.932-3.814l-1.083-1.732a22.809,22.809,0,0,1,4.421.31,118.3,118.3,0,0,0,17.707,1.922,21.588,21.588,0,0,0,3.395-.22c6.343-1.049,22.112-6.6,24.626-8.223,2.371-1.528,11.01-11.107,11.412-12.654A4.212,4.212,0,0,0,259.483,582.522Z" transform="translate(0 -22.95)" fill="#fff"/>
    </g>
  </g>
</svg>
