<svg xmlns="http://www.w3.org/2000/svg" xmlns:xlink="http://www.w3.org/1999/xlink" width="120" height="120" viewBox="0 0 120 120">
  <defs>
    <linearGradient id="linear-gradient" x1="0.5" x2="0.5" y2="1" gradientUnits="objectBoundingBox">
      <stop offset="0" stop-color="#3dcde6"/>
      <stop offset="1" stop-color="#68dcb6"/>
    </linearGradient>
  </defs>
  <g id="ryuugaku" transform="translate(14.911 15.002)">
    <rect id="長方形_3102" data-name="長方形 3102" width="120" height="120" transform="translate(-14.911 -15.002)" fill="rgba(255,255,255,0)"/>
    <path id="合体_12" data-name="合体 12" d="M31.75,90.032H0c0-14.443,8.474-26.345,24.669-29a22.312,22.312,0,0,0,14.167,0C55.03,63.688,63.5,75.589,63.5,90.032ZM14.371,39.658V34.729a17.381,17.381,0,1,1,34.762,0v4.929a17.381,17.381,0,0,1-34.762,0ZM58.652,31.9a18.491,18.491,0,0,1-5.421-5.5,16.193,16.193,0,0,1-.944-15.73,17.733,17.733,0,0,1,4.273-5.613A20.814,20.814,0,0,1,70.342,0,21.242,21.242,0,0,1,81.213,2.942,18.281,18.281,0,0,1,88.4,10.676,16.108,16.108,0,0,1,90,17.689a16.418,16.418,0,0,1-3.573,10.174,19.5,19.5,0,0,1-8.832,6.26A77.37,77.37,0,0,1,57.737,39.85l-2.382.292ZM60.766,5.646a15.372,15.372,0,0,0-6.061,6.474,12.825,12.825,0,0,0,.77,12.52,15.886,15.886,0,0,0,5.571,5.242l1.16.664-2.36,5.889A78.586,78.586,0,0,0,76.6,31.267l.045-.021.04-.012a16.835,16.835,0,0,0,7.681-5.388,13.161,13.161,0,0,0,2.894-8.156,12.883,12.883,0,0,0-1.277-5.569,14.715,14.715,0,0,0-3.558-4.651,18.227,18.227,0,0,0-12.08-4.4A18.658,18.658,0,0,0,60.766,5.646ZM76.919,18.12a2.15,2.15,0,1,1,4.273,0,2.15,2.15,0,1,1-4.273,0Zm-8.233,0a2.15,2.15,0,1,1,4.273,0,2.15,2.15,0,1,1-4.273,0Zm-8.229,0a2.148,2.148,0,1,1,4.27,0,2.148,2.148,0,1,1-4.27,0Z" transform="translate(0.089 -0.002)" fill="url(#linear-gradient)"/>
  </g>
</svg>
