<svg xmlns="http://www.w3.org/2000/svg" xmlns:xlink="http://www.w3.org/1999/xlink" width="120" height="120" viewBox="0 0 120 120">
  <defs>
    <linearGradient id="linear-gradient" x1="0.5" x2="0.5" y2="1" gradientUnits="objectBoundingBox">
      <stop offset="0" stop-color="#3dcde6"/>
      <stop offset="1" stop-color="#68dcb6"/>
    </linearGradient>
  </defs>
  <g id="shisatu" transform="translate(18 27)">
    <rect id="長方形_3103" data-name="長方形 3103" width="120" height="120" transform="translate(-18 -27)" fill="rgba(255,255,255,0)"/>
    <path id="パス_9250" data-name="パス 9250" d="M84.437,100.213a19.115,19.115,0,0,0-.418-2.078l.121-.016S77.153,79.595,75.7,73.054A15.366,15.366,0,0,0,66.4,62.44c-.115-.412-.211-.784-.282-1.1a8.145,8.145,0,0,0-16.047,2.273c.034.534.077,1.22.126,2A15.349,15.349,0,0,0,45.432,77.34c.008.126.016.256.024.39H39.168c.008-.134.016-.263.024-.39a15.347,15.347,0,0,0-4.766-11.728c.049-.78.093-1.467.127-2a8.146,8.146,0,0,0-16.047-2.273c-.071.318-.167.689-.282,1.1a15.366,15.366,0,0,0-9.3,10.614C7.471,79.595.483,98.12.483,98.12l.121.016a19,19,0,0,0-.417,2.078,18.7,18.7,0,1,0,37.034,5.246,19.059,19.059,0,0,0,.176-2.112l.121.019s.032-.5.089-1.366h9.408c.057.866.089,1.366.089,1.366l.121-.019a19.059,19.059,0,0,0,.176,2.112,18.7,18.7,0,0,0,37.035-5.246ZM31.05,104.585a12.468,12.468,0,1,1-10.6-14.094A12.47,12.47,0,0,1,31.05,104.585Zm36.618,10.6a12.468,12.468,0,1,1,10.6-14.094A12.47,12.47,0,0,1,67.668,115.182Z" transform="translate(0 -55.146)" fill="url(#linear-gradient)"/>
  </g>
</svg>
