<svg xmlns="http://www.w3.org/2000/svg" width="840" height="2" viewBox="0 0 840 2">
  <g id="Path_9267" data-name="Path 9267" fill="none" stroke-dasharray="2 8">
    <path d="M0,0H840V2H0Z" stroke="none"/>
    <path d="M 0 0 L 2 0 L 2 1 L 1.96624755859375 1 L 1.96624755859375 2 C 0.66900634765625 2 0 2 0 2 L 0 0 Z M 10 0 L 12 0 L 12 1 L 11.9779052734375 1 L 11.9779052734375 2 C 11.276123046875 2 10.60333251953125 2 9.9600830078125 2 L 9.9600830078125 1 L 10 1 L 10 0 Z M 20 0 L 22 0 L 22 1 L 21.978759765625 1 L 21.978759765625 2 C 21.29254150390625 2 20.62109375 2 19.96453857421875 2 L 19.96453857421875 1 L 20 1 L 20 0 Z M 30 0 L 32 0 L 32 1 L 31.96563720703125 1 L 31.96563720703125 2 C 31.29534912109375 2 30.63458251953125 2 29.98333740234375 2 L 29.98333740234375 1 L 30 1 L 30 0 Z M 40 0 L 42 0 L 42 1 L 41.97064208984375 1 L 41.97064208984375 2 C 41.29766845703125 2 40.63165283203125 2 39.972900390625 2 L 39.972900390625 1 L 40 1 L 40 0 Z M 50 0 L 52 0 L 52 1 L 51.96868896484375 1 L 51.96868896484375 2 C 51.30010986328125 2 50.6370849609375 2 49.97967529296875 2 L 49.97967529296875 1 L 50 1 L 50 0 Z M 60 0 L 62 0 L 62 1 L 61.9749755859375 1 L 61.9749755859375 2 C 61.3106689453125 2 60.65069580078125 2 59.9952392578125 2 L 59.9952392578125 1 L 60 1 L 60 0 Z M 70 0 L 72 0 L 72 1 L 71.99078369140625 1 L 71.99078369140625 2 C 71.31390380859375 2 70.640869140625 2 69.97186279296875 2 L 69.97186279296875 1 L 70 1 L 70 0 Z M 80 0 L 82 0 L 82 1 L 81.9730224609375 1 L 81.9730224609375 2 C 81.30755615234375 2 80.64544677734375 2 79.986572265625 2 L 79.986572265625 1 L 80 1 L 80 0 Z M 90 0 L 92 0 L 92 1 L 91.9903564453125 1 L 91.9903564453125 2 C 91.3155517578125 2 90.6436767578125 2 89.97479248046875 2 L 89.97479248046875 1 L 90 1 L 90 0 Z M 100 0 L 102 0 L 102 1 L 101.9795532226562 1 L 101.9795532226562 2 C 101.3165283203125 2 100.6561279296875 2 99.99810791015625 2 L 100 0 Z M 110 0 L 112 0 L 112 1 L 111.9779052734375 1 L 111.9779052734375 2 C 111.3088989257812 2 110.6422119140625 2 109.9776611328125 2 L 109.9776611328125 1 L 110 1 L 110 0 Z M 120 0 L 122 0 L 122 1 L 121.9945678710938 1 L 121.9945678710938 2 C 121.3209838867188 2 120.6494140625 2 119.9798583984375 2 L 119.9798583984375 1 L 120 1 L 120 0 Z M 130 0 L 132 0 L 132 1 L 131.986572265625 1 L 131.986572265625 2 C 131.3211059570312 2 130.6575317382812 2 129.9956665039062 2 L 129.9956665039062 1 L 130 1 L 130 0 Z M 140 0 L 142 0 L 142 1 L 141.9801025390625 1 L 141.9801025390625 2 C 141.314453125 2 140.6503295898438 2 139.98779296875 2 L 139.98779296875 1 L 140 1 L 140 0 Z M 150 0 L 152 0 L 152 1 L 151.9817504882812 1 L 151.9817504882812 2 C 151.3135375976562 2 150.6467895507812 2 149.9815673828125 2 L 149.9815673828125 1 L 150 1 L 150 0 Z M 160 0 L 162 0 L 162 1 L 161.9880981445312 1 L 161.9880981445312 2 C 161.3179931640625 2 160.6492309570312 2 159.9817504882812 2 L 159.9817504882812 1 L 160 1 L 160 0 Z M 170 0 L 172 0 L 172 1 L 171.99658203125 1 L 171.99658203125 2 C 171.3251342773438 2 170.65478515625 2 169.9857788085938 2 L 169.9857788085938 1 L 170 1 L 170 0 Z M 180 0 L 182 0 L 182 1 L 181.995361328125 1 L 181.995361328125 2 C 181.3263549804688 2 180.658447265625 2 179.9916381835938 2 L 179.9916381835938 1 L 180 1 L 180 0 Z M 190 0 L 192 0 L 192 1 L 191.9906616210938 1 L 191.9906616210938 2 C 191.3255615234375 2 190.6613159179688 2 189.9981079101562 2 L 190 0 Z M 200 0 L 202 0 L 202 1 L 201.9884643554688 1 L 201.9884643554688 2 C 201.3235473632812 2 200.659423828125 2 199.9964599609375 2 L 199.9964599609375 1 L 200 1 L 200 0 Z M 210 0 L 212 0 L 212 1 L 211.9876708984375 1 L 211.9876708984375 2 C 211.322021484375 2 210.6572265625 2 209.9931030273438 2 L 209.9931030273438 1 L 210 1 L 210 0 Z M 220 0 L 222 0 L 222 1 L 221.98779296875 1 L 221.98779296875 2 C 221.321533203125 2 220.6561279296875 2 219.991455078125 2 L 219.991455078125 1 L 220 1 L 220 0 Z M 230 0 L 232 0 L 232 1 L 231.9884643554688 1 L 231.9884643554688 2 C 231.3218994140625 2 230.656005859375 2 229.9907836914062 2 L 229.9907836914062 1 L 230 1 L 230 0 Z M 240 0 L 242 0 L 242 1 L 241.9894409179688 1 L 241.9894409179688 2 C 241.3225708007812 2 240.6563110351562 2 239.9906616210938 2 L 239.9906616210938 1 L 240 1 L 240 0 Z M 250 0 L 252 0 L 252 1 L 251.9904174804688 1 L 251.9904174804688 2 C 251.3234252929688 2 250.6568603515625 2 249.9910278320312 2 L 249.9910278320312 1 L 250 1 L 250 0 Z M 260 0 L 262 0 L 262 1 L 261.991455078125 1 L 261.991455078125 2 C 261.3243408203125 2 260.6576538085938 2 259.9915771484375 2 L 259.9915771484375 1 L 260 1 L 260 0 Z M 270 0 L 272 0 L 272 1 L 271.992431640625 1 L 271.992431640625 2 C 271.3253173828125 2 270.6585693359375 2 269.9922485351562 2 L 269.9922485351562 1 L 270 1 L 270 0 Z M 280 0 L 282 0 L 282 1 L 281.9933471679688 1 L 281.9933471679688 2 C 281.3262329101562 2 280.659423828125 2 279.9931030273438 2 L 279.9931030273438 1 L 280 1 L 280 0 Z M 290 0 L 292 0 L 292 1 L 291.9942016601562 1 L 291.9942016601562 2 C 291.3270874023438 2 290.6603393554688 2 289.993896484375 2 L 289.993896484375 1 L 290 1 L 290 0 Z M 300 0 L 302 0 L 302 1 L 301.9951171875 1 L 301.9951171875 2 C 301.3280029296875 2 300.6611938476562 2 299.9947509765625 2 L 299.9947509765625 1 L 300 1 L 300 0 Z M 310 0 L 312 0 L 312 1 L 311.9959106445312 1 L 311.9959106445312 2 C 311.3289184570312 2 310.662109375 2 309.9956665039062 2 L 309.9956665039062 1 L 310 1 L 310 0 Z M 320 0 L 322 0 L 322 1 L 321.9966430664062 1 L 321.9966430664062 2 C 321.3297729492188 2 320.6630249023438 2 319.9964599609375 2 L 319.9964599609375 1 L 320 1 L 320 0 Z M 330 0 L 332 0 L 332 1 L 331.9974365234375 1 L 331.9974365234375 2 C 331.3306579589844 2 330.6638793945312 2 329.9973449707031 2 L 329.9973449707031 1 L 330 1 L 330 0 Z M 340 0 L 342 0 L 341.9983215332031 2 C 341.33154296875 2 340.6648864746094 2 339.9982299804688 2 L 340 0 Z M 350 0 L 352 0 L 351.9991149902344 2 C 351.3324584960938 2 350.665771484375 2 349.9991149902344 2 L 350 0 Z M 360 0 L 362 0 L 362 2 C 361.3333435058594 2 360.6666564941406 2 359.9998779296875 2 L 360 0 Z M 370 0 L 372 0 L 372.0008850097656 2 C 371.334228515625 2 370.6675415039062 2 370.0007629394531 2 L 370 0 Z M 380 0 L 382 0 L 382.0017700195312 2 C 381.3351135253906 2 380.6683349609375 2 380.0015563964844 2 L 380 0 Z M 390 0 L 392 0 L 392 1 L 392.0026550292969 1 L 392.0026550292969 2 C 391.3359985351562 2 390.6692199707031 2 390.0023193359375 2 L 390 0 Z M 400 0 L 402 0 L 402 1 L 402.0035705566406 1 L 402.0035705566406 2 C 401.3368835449219 2 400.6701049804688 2 400.0031127929688 2 L 400.0031127929688 1 L 400 1 L 400 0 Z M 410 0 L 412 0 L 412 1 L 412.0043334960938 1 L 412.0043334960938 2 C 411.3377685546875 2 410.6708984375 2 410.0038757324219 2 L 410.0038757324219 1 L 410 1 L 410 0 Z M 420 0 L 422 0 L 422 1 L 422.0052185058594 1 L 422.0052185058594 2 C 421.3386535644531 2 420.6717834472656 2 420.0046691894531 2 L 420.0046691894531 1 L 420 1 L 420 0 Z M 430 0 L 432 0 L 432 1 L 432.006103515625 1 L 432.006103515625 2 C 431.3395690917969 2 430.6726684570312 2 430.0054321289062 2 L 430.0054321289062 1 L 430 1 L 430 0 Z M 440 0 L 442 0 L 442 1 L 442.0069885253906 1 L 442.0069885253906 2 C 441.3404541015625 2 440.6735534667969 2 440.0062255859375 2 L 440.0062255859375 1 L 440 1 L 440 0 Z M 450 0 L 452 0 L 452 1 L 452.0079040527344 1 L 452.0079040527344 2 C 451.3414306640625 2 450.6744384765625 2 450.0071105957031 2 L 450.0071105957031 1 L 450 1 L 450 0 Z M 460 0 L 462 0 L 462 1 L 462.0086669921875 1 L 462.0086669921875 2 C 461.3423461914062 2 460.6754455566406 2 460.0081176757812 2 L 460.0081176757812 1 L 460 1 L 460 0 Z M 470 0 L 472 0 L 472 1 L 472.0093383789062 1 L 472.0093383789062 2 C 471.3432312011719 2 470.6764526367188 2 470.0092163085938 2 L 470.0092163085938 1 L 470 1 L 470 0 Z M 480 0 L 482 0 L 482 1 L 482.0098876953125 1 L 482.0098876953125 2 C 481.343994140625 2 480.6774291992188 2 480.0103454589844 2 L 480.0103454589844 1 L 480 1 L 480 0 Z M 490 0 L 492 0 L 492 1 L 492.010009765625 1 L 492.010009765625 2 C 491.3445434570312 2 490.6783447265625 2 490.0114440917969 2 L 490.0114440917969 1 L 490 1 L 490 0 Z M 500 0 L 502 0 L 502 1 L 502.0096740722656 1 L 502.0096740722656 2 C 501.3446655273438 2 500.6788940429688 2 500.0123291015625 2 L 500.0123291015625 1 L 500 1 L 500 0 Z M 510 0 L 512 0 L 512 1 L 512.0084228515625 1 L 512.0084228515625 2 C 511.3441162109375 2 510.6788940429688 2 510.0128784179688 2 L 510.0128784179688 1 L 510 1 L 510 0 Z M 520 0 L 522 0 L 522 1 L 522.0057373046875 1 L 522.0057373046875 2 C 521.3423461914062 2 520.6778564453125 2 520.0125732421875 2 L 520.0125732421875 1 L 520 1 L 520 0 Z M 530 0 L 532 0 L 532.0010986328125 2 C 531.3387451171875 2 530.67529296875 2 530.010986328125 2 L 530.010986328125 1 L 530 1 L 530 0 Z M 540 0 L 542 0 L 542 1 L 542.0056762695312 1 L 542.0056762695312 2 C 541.3406982421875 2 540.6744384765625 2 540.0072021484375 2 L 540.0072021484375 1 L 540 1 L 540 0 Z M 550 0 L 552 0 L 552 1 L 552.0123291015625 1 L 552.0123291015625 2 C 551.3427734375 2 550.672119140625 2 550.0001220703125 2 L 550 0 Z M 560 0 L 562 0 L 562 1 L 562.0174560546875 1 L 562.0174560546875 2 C 561.349365234375 2 560.6799926757812 2 560.0092163085938 2 L 560.0092163085938 1 L 560 1 L 560 0 Z M 570 0 L 572 0 L 572 1 L 572.0192260742188 1 L 572.0192260742188 2 C 571.3532104492188 2 570.685791015625 2 570.0167846679688 2 L 570.0167846679688 1 L 570 1 L 570 0 Z M 580 0 L 582 0 L 582 1 L 582.0150146484375 1 L 582.0150146484375 2 C 581.3516845703125 2 580.686767578125 2 580.0203247070312 2 L 580.0203247070312 1 L 580 1 L 580 0 Z M 590 0 L 592 0 L 592.0009765625 2 C 591.3410034179688 2 590.67919921875 2 590.015869140625 2 L 590.015869140625 1 L 590 1 L 590 0 Z M 600 0 L 602 0 L 602 1 L 602.0153198242188 1 L 602.0153198242188 2 C 601.345458984375 2 600.6737670898438 2 600.0003662109375 2 L 600 0 Z M 610 0 L 612 0 L 612 1 L 612.0198974609375 1 L 612.0198974609375 2 C 611.3538818359375 2 610.6860961914062 2 610.0164794921875 2 L 610.0164794921875 1 L 610 1 L 610 0 Z M 620 0 L 622 0 L 622 1 L 622.0082397460938 1 L 622.0082397460938 2 C 621.3469848632812 2 620.6838989257812 2 620.018798828125 2 L 620.018798828125 1 L 620 1 L 620 0 Z M 630 0 L 632 0 L 632 1 L 632.014892578125 1 L 632.014892578125 2 C 631.3458862304688 2 630.6748046875 2 630.0016479492188 2 L 630 0 Z M 640 0 L 642 0 L 642 1 L 642.0169677734375 1 L 642.0169677734375 2 C 641.3529052734375 2 640.6866455078125 2 640.018310546875 2 L 640.018310546875 1 L 640 1 L 640 0 Z M 650 0 L 652 0 L 652 1 L 652.0087890625 1 L 652.0087890625 2 C 651.3449096679688 2 650.6786499023438 2 650.0103149414062 2 L 650.0103149414062 1 L 650 1 L 650 0 Z M 660 0 L 662 0 L 662 1 L 662.01708984375 1 L 662.01708984375 2 C 661.3526611328125 2 660.6859130859375 2 660.0167846679688 2 L 660.0167846679688 1 L 660 1 L 660 0 Z M 670 0 L 672 0 L 672 1 L 672.01220703125 1 L 672.01220703125 2 C 671.3463134765625 2 670.6778564453125 2 670.0070190429688 2 L 670.0070190429688 1 L 670 1 L 670 0 Z M 680 0 L 682 0 L 682 1 L 682.0098876953125 1 L 682.0098876953125 2 C 681.3485717773438 2 680.6846923828125 2 680.0181274414062 2 L 680.0181274414062 1 L 680 1 L 680 0 Z M 690 0 L 692 0 L 692 1 L 692.0177001953125 1 L 692.0177001953125 2 C 691.3515625 2 690.6825561523438 2 690.0106811523438 2 L 690.0106811523438 1 L 690 1 L 690 0 Z M 700 0 L 702 0 L 702 1 L 702.0144653320312 1 L 702.0144653320312 2 C 701.347412109375 2 700.6774291992188 2 700.0044555664062 2 L 700.0044555664062 1 L 700 1 L 700 0 Z M 710 0 L 712 0 L 712 1 L 712.0081176757812 1 L 712.0081176757812 2 C 711.3461303710938 2 710.680908203125 2 710.0123291015625 2 L 710.0123291015625 1 L 710 1 L 710 0 Z M 720 0 L 722 0 L 722 1 L 722.004638671875 1 L 722.004638671875 2 C 721.3447875976562 2 720.6813354492188 2 720.0145263671875 2 L 720.0145263671875 1 L 720 1 L 720 0 Z M 730 0 L 732 0 L 732 1 L 732.0068969726562 1 L 732.0068969726562 2 C 731.34619140625 2 730.6817626953125 2 730.013671875 2 L 730.013671875 1 L 730 1 L 730 0 Z M 740 0 L 742 0 L 742 1 L 742.0130004882812 1 L 742.0130004882812 2 C 741.3489990234375 2 740.6807861328125 2 740.0084228515625 2 L 740.0084228515625 1 L 740 1 L 740 0 Z M 750 0 L 752 0 L 752 1 L 752.014892578125 1 L 752.014892578125 2 C 751.3499755859375 2 750.6805419921875 2 750.0064697265625 2 L 750.0064697265625 1 L 750 1 L 750 0 Z M 760 0 L 762 0 L 762 1 L 762.003662109375 1 L 762.003662109375 2 C 761.3457641601562 2 760.682861328125 2 760.0147705078125 2 L 760.0147705078125 1 L 760 1 L 760 0 Z M 770 0 L 772 0 L 772 1 L 772.010986328125 1 L 772.010986328125 2 C 771.3495483398438 2 770.6822509765625 2 770.0089111328125 2 L 770.0089111328125 1 L 770 1 L 770 0 Z M 780 0 L 782 0 L 782 1 L 782.0120849609375 1 L 782.0120849609375 2 C 781.3494262695312 2 780.6798706054688 2 780.0033569335938 2 L 780.0033569335938 1 L 780 1 L 780 0 Z M 790 0 L 792 0 L 792 1 L 792.00341796875 1 L 792.00341796875 2 C 791.3471069335938 2 790.6826782226562 2 790.010009765625 2 L 790.010009765625 1 L 790 1 L 790 0 Z M 800 0 L 802 0 L 802 1 L 802.0116577148438 1 L 802.0116577148438 2 C 801.3535766601562 2 800.685302734375 2 800.0066528320312 2 L 800.0066528320312 1 L 800 1 L 800 0 Z M 810 0 L 812 0 L 812.0015869140625 2 C 811.3484497070312 2 810.6817626953125 2 810.00146484375 2 L 810 0 Z M 820 0 L 822 0 L 822 1 L 822.009765625 1 L 822.009765625 2 C 821.3623046875 2 820.694580078125 2 820.005859375 2 L 820.005859375 1 L 820 1 L 820 0 Z M 830 0 L 832 0 L 832.0001220703125 2 C 831.3767700195312 2 830.7123413085938 2 830.0050048828125 2 L 830.0050048828125 1 L 830 1 L 830 0 Z M 839 0 L 840 0 C 840 0 840 2 840 2 L 839 2 L 839 0 Z" stroke="none" fill="#e4e4e4"/>
  </g>
</svg>
