<svg xmlns="http://www.w3.org/2000/svg" xmlns:xlink="http://www.w3.org/1999/xlink" width="280" height="280" viewBox="0 0 280 280">
  <defs>
    <linearGradient id="linear-gradient" x1="0.241" y1="-0.119" x2="0.802" y2="1.108" gradientUnits="objectBoundingBox">
      <stop offset="0" stop-color="#3dcde6"/>
      <stop offset="1" stop-color="#68dcb6"/>
    </linearGradient>
  </defs>
  <g id="_3" data-name="3" transform="translate(-258 -1311)">
    <rect id="Rectangle_1331" data-name="Rectangle 1331" width="280" height="280" transform="translate(258 1311)" fill="#fff"/>
    <g id="summer" transform="translate(288 1334)">
      <rect id="Rectangle_3128" data-name="Rectangle 3128" width="220" height="220" transform="translate(0 7)" fill="rgba(255,255,255,0)"/>
      <path id="Union_10" data-name="Union 10" d="M2409.311,14075.969a86.293,86.293,0,0,1-7.1-172.3c-.184.753-.36,1.51-.486,2.278a69.867,69.867,0,0,0-.827,10.2c-.006.515-.006,1.028-.01,1.545-1.743.2-3.473.436-5.178.755-.354.253-.7.5-1.058.772-4.677,3.633-9.067,9.072-12.788,15.936a80.87,80.87,0,0,0-3.483,7.321h24.862a45.284,45.284,0,0,0,2.348,6.905h-29.8a127.73,127.73,0,0,0-6.082,36.823h36.148v-36.241c.425.933.885,1.858,1.39,2.775a65.811,65.811,0,0,0,5.516,8.379v25.087h36.3c8.97,2.865,18.69,4,27.866,1.924,1.023-.232,2.02-.506,2.994-.811a66.964,66.964,0,0,0,14.982-4.233l.438-.18c.18,2.229.28,4.48.28,6.754a86.311,86.311,0,0,1-86.287,86.31Zm3.451-13.9a73.89,73.89,0,0,0,10.144-1.2c.354-.256.711-.5,1.058-.771,4.68-3.638,9.067-9.076,12.788-15.94a84.963,84.963,0,0,0,5.278-11.923h-29.268Zm-35.952-29.206c4.48,12.247,10.823,21.786,17.844,27.234.354.273.7.516,1.061.771a73.912,73.912,0,0,0,10.141,1.2v-29.835H2376.6C2376.676,14032.442,2376.74,14032.662,2376.81,14032.865Zm71.483,2.379a80.875,80.875,0,0,1-11.485,21.508,72.32,72.32,0,0,0,31.166-24.516h-18.664C2448.975,14033.244,2448.654,14034.266,2448.293,14035.244Zm-90.247,5.677a72.627,72.627,0,0,0,23.778,15.831,69.394,69.394,0,0,1-6.027-9.3,95.6,95.6,0,0,1-6.459-15.213h-18.693A73.1,73.1,0,0,0,2358.046,14040.921Zm93.347-15.586h21.025a72.048,72.048,0,0,0,9.308-32.224H2455.79A138.617,138.617,0,0,1,2451.393,14025.335Zm-38.631,0h31.468a130.532,130.532,0,0,0,4.683-32.224h-36.151Zm-38.355,0h31.449v-32.224h-36.125A130.7,130.7,0,0,0,2374.408,14025.335Zm-28.2,0h21.07a138.214,138.214,0,0,1-4.419-32.224H2336.9A72.012,72.012,0,0,0,2346.2,14025.335Zm-9.308-39.13h25.933a135.821,135.821,0,0,1,5.718-36.823h-19.52A72.038,72.038,0,0,0,2336.9,13986.205Zm21.15-47.81c-1.309,1.306-2.551,2.679-3.753,4.081h16.67a79.322,79.322,0,0,1,10.849-19.905A72.608,72.608,0,0,0,2358.046,13938.4Zm47.81-15.824a58.318,58.318,0,0,1,9.771-32.383l-3.93-2.937a1.718,1.718,0,0,1,.209-2.882l20.543-11.105a1.708,1.708,0,0,1,2.49,1.858l-1.312,6.209a4.643,4.643,0,0,1-.615,2.91l-2.9,13.732a1.716,1.716,0,0,1-2.7,1.017l-4.316-3.223a49.265,49.265,0,1,0,41.337-22.471,4.648,4.648,0,0,1,0-9.3,58.571,58.571,0,1,1-58.573,58.57Zm50.615.989-12.785-9.864a4.065,4.065,0,0,1,4.757-6.493l12.042,8.384a7.758,7.758,0,0,1,7.656-.124l18.413-19.675a3.123,3.123,0,1,1,4.622,4.111l-18.742,22.168c.013.171.052.332.052.5a8.036,8.036,0,0,1-16.014.989Z" transform="translate(-2313.001 -13852.984)" fill="url(#linear-gradient)"/>
    </g>
  </g>
</svg>
