<svg xmlns="http://www.w3.org/2000/svg" xmlns:xlink="http://www.w3.org/1999/xlink" width="280" height="280" viewBox="0 0 280 280">
  <defs>
    <linearGradient id="linear-gradient" x1="0.241" y1="-0.119" x2="0.802" y2="1.108" gradientUnits="objectBoundingBox">
      <stop offset="0" stop-color="#3dcde6"/>
      <stop offset="1" stop-color="#68dcb6"/>
    </linearGradient>
  </defs>
  <g id="_2" data-name="2" transform="translate(-876 -609)">
    <rect id="Rectangle_1330" data-name="Rectangle 1330" width="280" height="280" transform="translate(876 609)" fill="#fff"/>
    <g id="dollar" transform="translate(890 651)">
      <rect id="Rectangle_3127" data-name="Rectangle 3127" width="220" height="220" transform="translate(16 -12)" fill="rgba(255,255,255,0)"/>
      <path id="Union_11" data-name="Union 11" d="M1817.928,14619.723a105.461,105.461,0,0,1-17.3,1.412c-37.346,0-67.625-19.086-67.625-42.64v-20.854c0-23.549,30.279-42.641,67.625-42.641,35.7,0,64.944,17.451,67.443,39.566a105.309,105.309,0,0,1,17.31-1.415c37.343,0,67.622,19.092,67.622,42.644v20.851c0,23.556-30.279,42.643-67.622,42.643C1849.672,14659.288,1820.43,14641.84,1817.928,14619.723Zm8.97-23.928c0,18.152,26.778,33.491,58.478,33.491s58.476-15.339,58.476-33.491-26.778-33.5-58.476-33.5S1826.9,14577.639,1826.9,14595.795Zm-84.753-38.154c0,18.152,26.781,33.491,58.478,33.491a95.472,95.472,0,0,0,17.87-1.671c3.517-14.9,19.251-27.274,40.568-32.959-1.091-17.654-27.4-32.356-58.438-32.356C1768.926,14524.146,1742.145,14539.484,1742.145,14557.641Zm138.764,61.377.008-5.358c-.6-.034-1.207-.083-1.792-.143s-1.175-.12-1.749-.192-1.148-.157-1.708-.253-1.116-.2-1.66-.313a15.14,15.14,0,0,1-2.567-.82c-.861-.356-1.695-.756-2.432-1.146s-1.375-.754-1.846-1.035-.766-.474-.821-.51l-.252-.149-.2-.192-.141-.214-.065-.235-.008-.244.065-.235.133-.218.206-.19,4.251-3.255.214-.139.249-.1.265-.062.262-.021.19.007.182.033.173.052.173.069c.043.027.257.174.6.382s.81.488,1.354.777a18.577,18.577,0,0,0,1.771.855,10.526,10.526,0,0,0,1.868.606c.6.127,1.2.238,1.792.331s1.2.167,1.8.235,1.189.1,1.787.137,1.2.04,1.795.04c.75,0,1.479-.025,2.164-.072s1.338-.127,1.96-.226a15.4,15.4,0,0,0,1.771-.384,12.379,12.379,0,0,0,1.565-.532,6.736,6.736,0,0,0,1.3-.7,4.255,4.255,0,0,0,.923-.867,3.429,3.429,0,0,0,.555-1.038,3.957,3.957,0,0,0,.19-1.221,4.036,4.036,0,0,0-.095-.882,3.367,3.367,0,0,0-.739-1.479,3.653,3.653,0,0,0-.636-.589,4.768,4.768,0,0,0-.853-.488,8.667,8.667,0,0,0-1.1-.388,12.893,12.893,0,0,0-1.357-.288c-.5-.081-1.029-.145-1.605-.2l-7.6-.5c-1.126-.081-2.182-.205-3.181-.365a24.8,24.8,0,0,1-2.795-.6,17.889,17.889,0,0,1-2.407-.835,13.721,13.721,0,0,1-2.023-1.062,8.586,8.586,0,0,1-1.6-1.338,7.4,7.4,0,0,1-1.14-1.643,8.049,8.049,0,0,1-.685-1.949,10.13,10.13,0,0,1-.222-2.252,9.565,9.565,0,0,1,.089-1.289,7.827,7.827,0,0,1,.712-2.354,8.687,8.687,0,0,1,.625-1.075,11.41,11.41,0,0,1,.772-1,12.3,12.3,0,0,1,.9-.926c.322-.291.666-.572,1.023-.837s.753-.521,1.156-.761.831-.456,1.267-.664.9-.4,1.367-.582.956-.344,1.459-.492,1.024-.279,1.552-.394c.233-.057.455-.1.69-.146s.466-.078.7-.115.471-.071.709-.1.479-.063.718-.093l.005-4.659h8.432v4.562c.5.041.983.083,1.462.13s.953.108,1.419.171.926.127,1.375.206.9.157,1.332.248a16.388,16.388,0,0,1,2.188.64c.693.253,1.346.534,1.906.8s1.045.516,1.392.7.557.313.6.338l.268.14.219.186.152.218.081.241.019.248-.06.238-.127.223-.2.2-3.978,3.084-.206.134-.244.1-.26.061-.273.021-.157-.011-.157-.021-.152-.03-.154-.05c-.033-.021-.19-.108-.45-.242s-.614-.3-1.031-.48-.888-.377-1.392-.551a11.049,11.049,0,0,0-1.527-.425c-.506-.1-1.023-.187-1.538-.264s-1.048-.138-1.581-.194-1.072-.089-1.622-.112-1.1-.046-1.673-.046c-.728,0-1.419.026-2.05.087a14.744,14.744,0,0,0-1.771.242,10.262,10.262,0,0,0-1.478.4,6.645,6.645,0,0,0-1.189.559,6.352,6.352,0,0,0-.934.693,4.355,4.355,0,0,0-.658.8,3.791,3.791,0,0,0-.4.894,3.959,3.959,0,0,0-.133.99,4.274,4.274,0,0,0,.092.876,3.153,3.153,0,0,0,.282.77,2.764,2.764,0,0,0,.471.662,3.616,3.616,0,0,0,.655.558,5.077,5.077,0,0,0,.883.456,8.516,8.516,0,0,0,1.135.368c.425.109.894.2,1.4.281s1.056.144,1.646.19l6.644.424q1.852.12,3.479.374a27.791,27.791,0,0,1,3.03.627,19.346,19.346,0,0,1,2.575.881,14.047,14.047,0,0,1,2.131,1.12,8.991,8.991,0,0,1,1.66,1.413,7.8,7.8,0,0,1,1.188,1.688,8.265,8.265,0,0,1,.712,1.982,10.864,10.864,0,0,1,.244,2.257,10.658,10.658,0,0,1-.092,1.4,8.412,8.412,0,0,1-.276,1.308,7.439,7.439,0,0,1-.457,1.21,8.672,8.672,0,0,1-.644,1.128,10.763,10.763,0,0,1-.826,1.045,12.728,12.728,0,0,1-.964.95,13.742,13.742,0,0,1-1.107.868,14.347,14.347,0,0,1-1.246.775,15.151,15.151,0,0,1-1.373.7c-.484.217-.988.419-1.511.6s-1.073.353-1.641.5-1.148.29-1.763.4c-.268.056-.533.1-.8.142s-.555.091-.831.128-.557.074-.836.108l-.848.1.005,5.47Zm-85.5-41.627a31.514,31.514,0,0,1-7.283-2.732,26.221,26.221,0,0,1-5.932-4.238,20.683,20.683,0,0,1-4.11-5.5h-5.829l.016-5.287h4.137l-.092-.6-.062-.576-.035-.565-.014-.55.005-.225.008-.233.016-.227.016-.229h-3.969l.016-5.272h5.174a19.65,19.65,0,0,1,3.9-5.974,25.254,25.254,0,0,1,6-4.647,31.068,31.068,0,0,1,7.562-3.013,34.554,34.554,0,0,1,8.6-1.075c.8,0,1.584.027,2.372.084s1.571.127,2.345.235,1.544.235,2.3.39,1.511.338,2.258.545l.986.285-1.849,6.955-1.378-.442c-.568-.185-1.14-.341-1.717-.481s-1.159-.254-1.741-.346-1.181-.158-1.776-.205-1.194-.065-1.795-.065a23.322,23.322,0,0,0-5.031.547,21.846,21.846,0,0,0-4.562,1.57,18.137,18.137,0,0,0-3.842,2.443,14.524,14.524,0,0,0-2.859,3.194h23.05l-1.411,5.272h-23.518l-.014.226-.011.229-.008.229-.008.231.016.571.041.568.078.568.108.58h22.481l-1.411,5.287h-18.376a15.792,15.792,0,0,0,2.919,2.691,18.907,18.907,0,0,0,3.639,2.017,21.269,21.269,0,0,0,4.183,1.267,23.387,23.387,0,0,0,4.573.444q.792,0,1.592-.059c.528-.038,1.064-.09,1.595-.165s1.056-.17,1.578-.275,1.045-.245,1.562-.391l1.67-.474.016,7.453-.912.2q-.873.179-1.755.313c-.59.089-1.183.167-1.773.229s-1.189.1-1.785.138-1.188.045-1.781.045A34.8,34.8,0,0,1,1795.406,14577.391Z" transform="translate(-1716.999 -14489)" stroke="rgba(0,0,0,0)" stroke-miterlimit="10" stroke-width="1" fill="url(#linear-gradient)"/>
    </g>
  </g>
</svg>
