<svg xmlns="http://www.w3.org/2000/svg" xmlns:xlink="http://www.w3.org/1999/xlink" width="280" height="280" viewBox="0 0 280 280">
  <defs>
    <linearGradient id="linear-gradient" x1="0.241" y1="-0.119" x2="0.802" y2="1.108" gradientUnits="objectBoundingBox">
      <stop offset="0" stop-color="#3dcde6"/>
      <stop offset="1" stop-color="#68dcb6"/>
    </linearGradient>
  </defs>
  <g id="_1" data-name="1" transform="translate(-200 -609)">
    <rect id="Rectangle_1250" data-name="Rectangle 1250" width="280" height="280" transform="translate(200 609)" fill="#fff"/>
    <g id="pass" transform="translate(198.159 639)">
      <rect id="Rectangle_3126" data-name="Rectangle 3126" width="220" height="220" transform="translate(31.841)" fill="rgba(255,255,255,0)"/>
      <path id="Path_9184" data-name="Path 9184" d="M201.352,0H82.342a26.5,26.5,0,0,0-26.5,26.5v167a26.5,26.5,0,0,0,26.5,26.5H201.352a26.5,26.5,0,0,0,26.5-26.5V26.5A26.5,26.5,0,0,0,201.352,0ZM186.775,83.746a6.477,6.477,0,0,1-6.477,6.481,4.6,4.6,0,0,1-.553-.025l-27.3-5.4a1.055,1.055,0,0,1-.969-1.051,1.043,1.043,0,0,1,.962-1.041l27.147-5.394a5.789,5.789,0,0,1,.714-.036A6.468,6.468,0,0,1,186.775,83.746Zm-69.763,30.068c.093-.165.194-.321.3-.475L135.641,92.4a1.053,1.053,0,0,1,1.821,1.045l-8.909,26.2a5.867,5.867,0,0,1-.325.635,6.475,6.475,0,0,1-11.217-6.471Zm-4.627-5.616a7.056,7.056,0,0,1-.6.387,6.477,6.477,0,0,1-6.477-11.218,5.462,5.462,0,0,1,.493-.259l26.345-8.968a1.053,1.053,0,0,1,1.055,1.815Zm23.634-24.452a5.827,5.827,0,1,1,5.828,5.828A5.83,5.83,0,0,1,136.019,83.746Zm-.626,37.9,5.405-27.3a1.051,1.051,0,0,1,2.1-.007l5.392,27.143a6.774,6.774,0,0,1,.039.716,6.476,6.476,0,1,1-12.953,0C135.371,122.009,135.376,121.83,135.392,121.647Zm10.842-28.195a1.054,1.054,0,0,1,1.815-1.059l18.242,20.818a6.476,6.476,0,1,1-10.827,7.073,5.253,5.253,0,0,1-.257-.489Zm4.266-3.495a1.052,1.052,0,0,1,1.042-1.819l26.2,8.907a6.686,6.686,0,0,1,.639.321,6.477,6.477,0,0,1-6.478,11.218c-.163-.095-.318-.2-.469-.3Zm21.41-31.044a6.476,6.476,0,0,1,6.474,11.218c-.164.095-.325.183-.489.26L151.548,79.36a1.057,1.057,0,0,1-1.364-.428,1.044,1.044,0,0,1,.31-1.384l20.815-18.24A6.482,6.482,0,0,1,171.91,58.914Zm-16.446-11.7a6.475,6.475,0,1,1,11.217,6.471c-.095.168-.192.321-.294.467L148.057,75.1a1.056,1.056,0,0,1-1.4.314,1.045,1.045,0,0,1-.425-1.355l8.9-26.205A6.564,6.564,0,0,1,155.464,47.214Zm-13.617-8.392a6.477,6.477,0,0,1,6.477,6.475,5.074,5.074,0,0,1-.026.555l-5.4,27.3a1.051,1.051,0,0,1-2.1.015l-5.39-27.151a6.192,6.192,0,0,1-.037-.716A6.475,6.475,0,0,1,141.847,38.822ZM119.383,44.84a6.474,6.474,0,0,1,8.844,2.374c.093.161.183.325.258.489l8.968,26.344a1.052,1.052,0,0,1-1.809,1.059L117.4,54.283a5.637,5.637,0,0,1-.389-.6A6.474,6.474,0,0,1,119.383,44.84ZM102.939,61.284a6.477,6.477,0,0,1,8.845-2.37c.161.095.321.194.469.3l20.939,18.335a1.042,1.042,0,0,1,.318,1.388,1.055,1.055,0,0,1-1.359.431l-26.208-8.91a6.788,6.788,0,0,1-.636-.321A6.474,6.474,0,0,1,102.939,61.284Zm.457,15.987a5.55,5.55,0,0,1,.555.025l27.3,5.408a1.05,1.05,0,0,1,.009,2.093l-27.151,5.39a5.689,5.689,0,0,1-.71.04,6.478,6.478,0,0,1,0-12.956Zm-1.066,94.438H96.9a.234.234,0,0,0-.266.266v10.181a.424.424,0,0,1-.449.449h-5.7a.424.424,0,0,1-.449-.449v-29.6a.424.424,0,0,1,.449-.449H102.33c6.639,0,10.63,3.991,10.63,9.82C112.959,167.67,108.925,171.709,102.329,171.709Zm39.885,10.9h-5.828a.543.543,0,0,1-.584-.449l-1.749-5.335H123.379l-1.705,5.335a.537.537,0,0,1-.581.449h-5.876c-.314,0-.406-.179-.314-.449l10.5-29.6a.576.576,0,0,1,.581-.449h5.653a.582.582,0,0,1,.584.449l10.313,29.6C142.62,182.427,142.528,182.606,142.214,182.606Zm14.143.493c-4.755,0-9.374-1.884-11.752-4.17a.551.551,0,0,1-.044-.763l3.407-3.9a.447.447,0,0,1,.672-.048,12.931,12.931,0,0,0,7.983,3.14c3.184,0,4.981-1.479,4.981-3.633,0-1.793-1.077-2.914-4.711-3.407l-1.614-.223c-6.19-.855-9.644-3.769-9.644-9.151,0-5.605,4.218-9.327,10.809-9.327A17.231,17.231,0,0,1,166.8,154.8c.27.179.314.358.091.672l-2.735,4.079a.447.447,0,0,1-.628.135,12.62,12.62,0,0,0-7.088-2.33c-2.691,0-4.079,1.388-4.079,3.315,0,1.749,1.256,2.87,4.751,3.367l1.618.223c6.277.851,9.6,3.721,9.6,9.239S164.249,183.1,156.357,183.1Zm26.7,0c-4.755,0-9.374-1.884-11.751-4.17a.551.551,0,0,1-.044-.763l3.407-3.9a.447.447,0,0,1,.672-.048,12.93,12.93,0,0,0,7.983,3.14c3.184,0,4.981-1.479,4.981-3.633,0-1.793-1.078-2.914-4.711-3.407l-1.614-.223c-6.19-.855-9.644-3.769-9.644-9.151,0-5.605,4.218-9.327,10.809-9.327A17.232,17.232,0,0,1,193.5,154.8c.27.179.314.358.091.672l-2.735,4.079a.447.447,0,0,1-.628.135,12.619,12.619,0,0,0-7.088-2.33c-2.692,0-4.079,1.388-4.079,3.315,0,1.749,1.256,2.87,4.751,3.367l1.618.223c6.277.851,9.6,3.721,9.6,9.239S190.947,183.1,183.055,183.1Z" transform="translate(0)" fill="url(#linear-gradient)"/>
      <path id="Path_9185" data-name="Path 9185" d="M220.752,373.626,217.3,384.3h7.041l-3.455-10.674Z" transform="translate(-92.083 -213.083)" fill="url(#linear-gradient)"/>
      <path id="Path_9186" data-name="Path 9186" d="M156.074,367.251h-5.025a.237.237,0,0,0-.266.27v7.669a.237.237,0,0,0,.266.27h5.025c2.779,0,4.44-1.614,4.44-4.083S158.853,367.251,156.074,367.251Z" transform="translate(-54.147 -209.448)" fill="url(#linear-gradient)"/>
    </g>
  </g>
</svg>
