<svg xmlns="http://www.w3.org/2000/svg" xmlns:xlink="http://www.w3.org/1999/xlink" width="280" height="280" viewBox="0 0 280 280">
  <defs>
    <linearGradient id="linear-gradient" x1="0.241" y1="-0.119" x2="0.802" y2="1.108" gradientUnits="objectBoundingBox">
      <stop offset="0" stop-color="#3dcde6"/>
      <stop offset="1" stop-color="#68dcb6"/>
    </linearGradient>
  </defs>
  <g id="_11" data-name="11" transform="translate(-334 -4119)">
    <rect id="Rectangle_2498" data-name="Rectangle 2498" width="280" height="280" transform="translate(334 4119)" fill="#fff"/>
    <g id="bus" transform="translate(373.999 4201)">
      <rect id="Rectangle_3136" data-name="Rectangle 3136" width="220" height="220" transform="translate(-9.999 -52)" fill="rgba(255,255,255,0)"/>
      <path id="Union_5" data-name="Union 5" d="M137.522,97.514a17.6,17.6,0,1,1,17.6,17.6A17.6,17.6,0,0,1,137.522,97.514Zm10.238,0a7.362,7.362,0,1,0,7.362-7.354A7.363,7.363,0,0,0,147.76,97.514Zm-116.751,0a17.6,17.6,0,1,1,17.6,17.6A17.6,17.6,0,0,1,31.009,97.514Zm10.238,0a7.362,7.362,0,1,0,7.362-7.354A7.361,7.361,0,0,0,41.247,97.514Zm137.685.773c.01-.256.04-.511.04-.773a23.851,23.851,0,1,0-47.7,0c0,.262.031.517.04.773H72.42c.007-.256.038-.511.038-.773a23.85,23.85,0,1,0-47.7,0c0,.262.031.517.038.773H0V50.871a31.652,31.652,0,0,1,1.551-9.953L12.408,7.6A11.015,11.015,0,0,1,22.861,0H171.987A28.029,28.029,0,0,1,200,28.015V98.286ZM27.1,16.806,17.874,45.215A17.534,17.534,0,0,0,17,50.693V65.238a2.836,2.836,0,0,0,2.838,2.828H35.609a2.836,2.836,0,0,0,2.835-2.828V17.683a2.838,2.838,0,0,0-2.835-2.835H29.8A2.846,2.846,0,0,0,27.1,16.806Zm124.072.876V41.878a2.842,2.842,0,0,0,2.835,2.835h26.144a2.844,2.844,0,0,0,2.835-2.835v-13.4a13.652,13.652,0,0,0-13.635-13.634H154.009A2.836,2.836,0,0,0,151.173,17.683ZM100.7,16.271V43.291a1.419,1.419,0,0,0,1.417,1.422h33.861a1.419,1.419,0,0,0,1.416-1.422V16.271a1.422,1.422,0,0,0-1.416-1.423H102.114A1.422,1.422,0,0,0,100.7,16.271Zm-47.429,0V43.291a1.418,1.418,0,0,0,1.414,1.422H87.326a1.42,1.42,0,0,0,1.424-1.422V16.271a1.423,1.423,0,0,0-1.424-1.423H54.682A1.421,1.421,0,0,0,53.268,16.271Z" transform="translate(0.001 -0.001)" stroke="rgba(0,0,0,0)" stroke-miterlimit="10" stroke-width="1" fill="url(#linear-gradient)"/>
    </g>
  </g>
</svg>
