<svg xmlns="http://www.w3.org/2000/svg" xmlns:xlink="http://www.w3.org/1999/xlink" width="280" height="280" viewBox="0 0 280 280">
  <defs>
    <linearGradient id="linear-gradient" x1="0.5" x2="0.5" y2="1" gradientUnits="objectBoundingBox">
      <stop offset="0" stop-color="#3dcde6"/>
      <stop offset="1" stop-color="#68dcb6"/>
    </linearGradient>
  </defs>
  <g id="_12" data-name="12" transform="translate(-942 -4119)">
    <rect id="Rectangle_2499" data-name="Rectangle 2499" width="280" height="280" transform="translate(942 4119)" fill="#fff"/>
    <g id="morning" transform="translate(972 4184)">
      <rect id="Rectangle_3137" data-name="Rectangle 3137" width="220" height="220" transform="translate(0 -35.002)" fill="rgba(255,255,255,0)"/>
      <path id="Path_9250" data-name="Path 9250" d="M163.867,142.608a37.1,37.1,0,0,0-.811-4.033l.235-.03S149.731,102.594,146.908,89.9a29.821,29.821,0,0,0-18.046-20.6c-.224-.8-.409-1.522-.547-2.138a15.808,15.808,0,0,0-31.142,4.411c.065,1.036.149,2.368.245,3.882A29.787,29.787,0,0,0,88.17,98.218c.015.245.031.5.046.757h-12.2c.015-.261.03-.511.047-.757a29.783,29.783,0,0,0-9.249-22.761c.1-1.514.181-2.846.246-3.882a15.808,15.808,0,0,0-31.142-4.411c-.138.616-.323,1.337-.547,2.138A29.822,29.822,0,0,0,17.321,89.9C14.5,102.594.938,138.545.938,138.545l.235.03a36.866,36.866,0,0,0-.809,4.033,36.3,36.3,0,1,0,71.873,10.18,36.984,36.984,0,0,0,.341-4.1l.235.036s.063-.972.173-2.652H91.244c.11,1.68.173,2.652.173,2.652l.235-.036a36.988,36.988,0,0,0,.341,4.1,36.3,36.3,0,0,0,71.874-10.18ZM60.259,151.093a24.2,24.2,0,1,1-20.566-27.352A24.2,24.2,0,0,1,60.259,151.093Zm71.064,20.565a24.2,24.2,0,1,1,20.564-27.351A24.2,24.2,0,0,1,131.323,171.657Z" transform="translate(28 -44.148)" fill="url(#linear-gradient)"/>
    </g>
  </g>
</svg>
