<svg xmlns="http://www.w3.org/2000/svg" xmlns:xlink="http://www.w3.org/1999/xlink" width="280" height="280" viewBox="0 0 280 280">
  <defs>
    <linearGradient id="linear-gradient" x1="0.241" y1="-0.119" x2="0.802" y2="1.108" gradientUnits="objectBoundingBox">
      <stop offset="0" stop-color="#3dcde6"/>
      <stop offset="1" stop-color="#68dcb6"/>
    </linearGradient>
  </defs>
  <g id="_10" data-name="10" transform="translate(-977 -3417)">
    <rect id="Rectangle_2501" data-name="Rectangle 2501" width="280" height="280" transform="translate(977 3417)" fill="#fff"/>
    <g id="menu" transform="translate(1029 3447)">
      <rect id="Rectangle_3135" data-name="Rectangle 3135" width="220" height="220" transform="translate(-22)" fill="rgba(255,255,255,0)"/>
      <path id="Union_3" data-name="Union 3" d="M1692.858,12175a21.866,21.866,0,0,1-21.856-21.868v-176.264a21.868,21.868,0,0,1,21.856-21.868l148.819,0v12.338l-148.819,0a9.529,9.529,0,0,0,0,19.058h154.988V12175Zm-9.524-21.868a9.545,9.545,0,0,0,9.524,9.53H1835.5v-163.926H1692.858a21.755,21.755,0,0,1-9.524-2.212Zm101.22-12.705a6.765,6.765,0,0,1-2.212-1.368,6.36,6.36,0,0,1-1.47-2.124,7.016,7.016,0,0,1-.529-2.741v-12.519h3.578v12.391a3.616,3.616,0,0,0,.911,2.622,3.253,3.253,0,0,0,2.457.929,3.294,3.294,0,0,0,2.475-.933,3.541,3.541,0,0,0,.923-2.618v-12.391h3.587v12.519a7.017,7.017,0,0,1-.538,2.741,6.318,6.318,0,0,1-1.482,2.124,6.935,6.935,0,0,1-2.224,1.368,7.949,7.949,0,0,1-5.476,0Zm-12.573.33-7.825-11.916v11.916h-3.581v-19.082h3.159l7.828,11.893v-11.893h3.572v19.082Zm-28.428,0v-19.082h12.485v3.291h-8.913v4.538h7.6v3.269h-7.6v4.69h8.913v3.294Zm-9.038,0v-10.828l-3.554,7.52h-2.56l-3.654-7.562v10.871h-3.581v-19.082h3.431l5.081,10.82,4.984-10.82h3.431v19.082Zm29.092-52.634,6.319-7.492,18.63,22.063-7.385,6.236Zm-30.106,14.6-.122.076s.04-.046.083-.1c1.161-1.372,17.508-20.726,31.57-37.385,13.915-16.472,25.535-30.237,27.979-33.128,5.023-5.948,13.346-1.726,9.38,7.924-2.545,6.2-7.11,17.572-12.225,23.625-6.346,7.96-9.35,7.815-12.262,7.669-2.539-.125-5.014-.253-9.576,4.99l-27.475,32.541Zm16.1-31.172c-4.507-5.342-7.642-4.8-11.917-4.88-5.307-.092-9.035-.764-16.237-9.354l-10.477-12.408c-3.932-4.653,2.056-10,6.087-5.228l11.092,13.132a2.334,2.334,0,0,0,3.263.453l.449-.379a2.338,2.338,0,0,0,.1-3.3l-11.147-13.21c-2.252-2.661-1.311-4.821.245-6.126,1.54-1.311,3.828-1.876,6.08.782l11.153,13.209a2.339,2.339,0,0,0,3.263.449l.452-.382a2.34,2.34,0,0,0,.11-3.294l-11.1-13.139c-4.024-4.764,2.243-9.774,6.178-5.121l10.477,12.411c7.26,8.544,7.294,12.329,6.5,17.569-.639,4.227-1.7,7.232,2.811,12.574l1.424,1.692-6.319,7.486Z" transform="translate(-1671.001 -11955)" stroke="rgba(0,0,0,0)" stroke-miterlimit="10" stroke-width="1" fill="url(#linear-gradient)"/>
    </g>
  </g>
</svg>
