<svg xmlns="http://www.w3.org/2000/svg" width="18" height="20.036" viewBox="0 0 18 20.036">
  <g id="無料で使えるクリップのアイコン" transform="translate(-26.007 0)">
    <path id="パス_9377" data-name="パス 9377" d="M31.159,11.672l5.886-5.886L35.988,4.729,30.1,10.615a3.684,3.684,0,1,0,5.21,5.211l7.218-7.218a5.041,5.041,0,1,0-7.13-7.13l-7.5,7.495a6.481,6.481,0,1,0,9.165,9.165l6.163-6.163-1.056-1.056-6.163,6.163a4.99,4.99,0,0,1-8.148-1.65,5.009,5.009,0,0,1-.274-2.83,4.957,4.957,0,0,1,1.37-2.573l7.495-7.495a3.529,3.529,0,0,1,1.173-.78,3.566,3.566,0,0,1,2.013-.195,3.552,3.552,0,0,1,2.609,2.147,3.565,3.565,0,0,1,.2,2.014,3.529,3.529,0,0,1-.974,1.83l-7.218,7.218a2.19,2.19,0,1,1-3.1-3.1Z" transform="translate(0)" fill="#333"/>
  </g>
</svg>
