<svg id="dl__1" data-name="dl _1" xmlns="http://www.w3.org/2000/svg" width="20" height="21.979" viewBox="0 0 20 21.979">
  <path id="パス_9189" data-name="パス 9189" d="M66.383,200.668a.339.339,0,0,0-.339.339v5.067H47.4v-5.067a.339.339,0,0,0-.678,0v5.406a.339.339,0,0,0,.339.339H66.383a.339.339,0,0,0,.339-.339v-5.406A.339.339,0,0,0,66.383,200.668Z" transform="translate(-46.722 -184.772)" fill="#fff"/>
  <path id="パス_9190" data-name="パス 9190" d="M91.12,52.366a.339.339,0,0,0,.479,0l5.948-5.948a.339.339,0,1,0-.479-.479L91.7,51.309V36.839a.339.339,0,0,0-.678,0v14.47l-5.369-5.369a.339.339,0,1,0-.479.479Z" transform="translate(-81.359 -36.5)" fill="#fff"/>
</svg>
