<svg xmlns="http://www.w3.org/2000/svg" width="25.805" height="41.725" viewBox="0 0 25.805 41.725">
  <g id="グループ_4887" data-name="グループ 4887" transform="translate(-318.139 -23.415)">
    <g id="メニューの無料アイコン5" transform="translate(316 7)">
      <rect id="長方形_2916" data-name="長方形 2916" width="30" height="5.595" rx="2" transform="translate(2.415 37.629) rotate(-45)" fill="#00a9c6"/>
      <rect id="長方形_2994" data-name="長方形 2994" width="30" height="5.595" rx="2" transform="translate(6.371 16.416) rotate(45)" fill="#00a9c6"/>
    </g>
    <path id="パス_9352" data-name="パス 9352" d="M-8.361-.275A3.122,3.122,0,0,1-10,.141a2.716,2.716,0,0,1-2.071-.835,3.026,3.026,0,0,1-.788-2.165,3.326,3.326,0,0,1,.85-2.382,2.972,2.972,0,0,1,2.268-.9,3.156,3.156,0,0,1,1.395.293v.984a2.443,2.443,0,0,0-1.43-.469,1.932,1.932,0,0,0-1.509.659,2.5,2.5,0,0,0-.589,1.731,2.382,2.382,0,0,0,.554,1.664,1.909,1.909,0,0,0,1.485.609,2.408,2.408,0,0,0,1.477-.521ZM-5.947,0h-.961V-8.883h.961Zm4.453.141A2.783,2.783,0,0,1-3.618-.7,3.114,3.114,0,0,1-4.412-2.93a3.244,3.244,0,0,1,.826-2.361,2.97,2.97,0,0,1,2.232-.85,2.691,2.691,0,0,1,2.095.826,3.276,3.276,0,0,1,.753,2.291,3.223,3.223,0,0,1-.812,2.3A2.844,2.844,0,0,1-1.494.141Zm.07-5.473a1.828,1.828,0,0,0-1.465.63,2.587,2.587,0,0,0-.539,1.737,2.447,2.447,0,0,0,.545,1.682,1.852,1.852,0,0,0,1.459.615,1.757,1.757,0,0,0,1.433-.6,2.619,2.619,0,0,0,.5-1.717,2.664,2.664,0,0,0-.5-1.734A1.749,1.749,0,0,0-1.424-5.332ZM2.666-.217V-1.248a2.844,2.844,0,0,0,1.729.58q1.266,0,1.266-.844a.732.732,0,0,0-.108-.407,1.08,1.08,0,0,0-.293-.3,2.255,2.255,0,0,0-.434-.231q-.249-.1-.536-.214a6.9,6.9,0,0,1-.7-.319,2.115,2.115,0,0,1-.5-.363,1.352,1.352,0,0,1-.3-.46,1.627,1.627,0,0,1-.1-.6,1.434,1.434,0,0,1,.193-.747A1.715,1.715,0,0,1,3.387-5.7a2.4,2.4,0,0,1,.735-.331,3.262,3.262,0,0,1,.853-.111,3.442,3.442,0,0,1,1.395.27V-4.9a2.718,2.718,0,0,0-1.523-.434,1.781,1.781,0,0,0-.486.062,1.191,1.191,0,0,0-.372.173.8.8,0,0,0-.24.267.7.7,0,0,0-.085.343.822.822,0,0,0,.085.393A.864.864,0,0,0,4-3.814a1.9,1.9,0,0,0,.4.223q.234.1.533.217a7.421,7.421,0,0,1,.715.313,2.452,2.452,0,0,1,.539.363,1.42,1.42,0,0,1,.343.466,1.5,1.5,0,0,1,.12.627,1.478,1.478,0,0,1-.2.773,1.682,1.682,0,0,1-.524.545,2.4,2.4,0,0,1-.756.322,3.732,3.732,0,0,1-.9.105A3.4,3.4,0,0,1,2.666-.217ZM12.943-2.76H8.707a2.244,2.244,0,0,0,.539,1.547,1.858,1.858,0,0,0,1.418.545,2.948,2.948,0,0,0,1.863-.668v.9a3.482,3.482,0,0,1-2.092.574,2.536,2.536,0,0,1-2-.817,3.346,3.346,0,0,1-.727-2.3A3.281,3.281,0,0,1,8.5-5.259a2.546,2.546,0,0,1,1.972-.882,2.256,2.256,0,0,1,1.822.762,3.176,3.176,0,0,1,.645,2.115Zm-.984-.814a1.955,1.955,0,0,0-.4-1.295,1.368,1.368,0,0,0-1.1-.463A1.552,1.552,0,0,0,9.3-4.846a2.207,2.207,0,0,0-.586,1.271Z" transform="translate(331 65)" fill="#00a9c6"/>
  </g>
</svg>
