<svg xmlns="http://www.w3.org/2000/svg" width="30" height="42.141" viewBox="0 0 30 42.141">
  <g id="グループ_4886" data-name="グループ 4886" transform="translate(-316 -23)">
    <g id="メニューの無料アイコン5" transform="translate(316 7)">
      <rect id="長方形_2915" data-name="長方形 2915" width="30" height="5.595" rx="2" transform="translate(0 16)" fill="#00a9c6"/>
      <rect id="長方形_2916" data-name="長方形 2916" width="30" height="5.595" rx="2" transform="translate(0 26.203)" fill="#00a9c6"/>
      <rect id="長方形_2917" data-name="長方形 2917" width="30" height="5.595" rx="2" transform="translate(0 36.405)" fill="#00a9c6"/>
    </g>
    <path id="パス_9351" data-name="パス 9351" d="M-5.6,0h-.961V-3.445a2.6,2.6,0,0,0-.308-1.441,1.167,1.167,0,0,0-1.034-.445,1.281,1.281,0,0,0-1.046.563,2.152,2.152,0,0,0-.431,1.348V0h-.961V-3.562q0-1.77-1.365-1.77a1.265,1.265,0,0,0-1.043.53,2.192,2.192,0,0,0-.41,1.38V0h-.961V-6h.961v.949h.023a2.038,2.038,0,0,1,1.863-1.09A1.737,1.737,0,0,1-10.2-5.8a1.724,1.724,0,0,1,.627.9A2.141,2.141,0,0,1-7.585-6.141q1.98,0,1.98,2.443ZM1.034-2.76H-3.2a2.244,2.244,0,0,0,.539,1.547,1.858,1.858,0,0,0,1.418.545A2.948,2.948,0,0,0,.618-1.336v.9A3.482,3.482,0,0,1-1.474.141a2.536,2.536,0,0,1-2-.817,3.346,3.346,0,0,1-.727-2.3A3.281,3.281,0,0,1-3.4-5.259a2.546,2.546,0,0,1,1.972-.882A2.256,2.256,0,0,1,.39-5.379a3.176,3.176,0,0,1,.645,2.115ZM.05-3.574a1.955,1.955,0,0,0-.4-1.295,1.368,1.368,0,0,0-1.1-.463A1.552,1.552,0,0,0-2.6-4.846,2.207,2.207,0,0,0-3.19-3.574ZM7.468,0H6.507V-3.422q0-1.91-1.395-1.91A1.513,1.513,0,0,0,3.92-4.79a2.009,2.009,0,0,0-.472,1.368V0H2.487V-6h.961v1h.023A2.166,2.166,0,0,1,5.44-6.141,1.836,1.836,0,0,1,6.946-5.5a2.832,2.832,0,0,1,.521,1.837ZM14.13,0h-.961V-.949h-.023A1.973,1.973,0,0,1,11.294.141q-2.145,0-2.145-2.555V-6H10.1v3.434q0,1.9,1.453,1.9a1.47,1.47,0,0,0,1.157-.519,1.984,1.984,0,0,0,.454-1.356V-6h.961Z" transform="translate(331 65)" fill="#00a9c6"/>
  </g>
</svg>
