<svg xmlns="http://www.w3.org/2000/svg" width="38" height="38" viewBox="0 0 38 38">
  <g id="グループ_3790" data-name="グループ 3790" transform="translate(-360.945 -237.638)">
    <circle id="楕円形_2" data-name="楕円形 2" cx="19" cy="19" r="19" transform="translate(360.945 237.638)" fill="#ea398b"/>
    <g id="グループ_3791" data-name="グループ 3791" transform="translate(368.546 245.238)">
      <path id="パス_8882" data-name="パス 8882" d="M15.479,6.133c3.044,0,3.4.012,4.607.066a6.31,6.31,0,0,1,2.117.393,3.775,3.775,0,0,1,2.164,2.164,6.31,6.31,0,0,1,.393,2.117c.055,1.2.066,1.563.066,4.607s-.012,3.4-.066,4.607a6.31,6.31,0,0,1-.393,2.117A3.775,3.775,0,0,1,22.2,24.366a6.31,6.31,0,0,1-2.117.393c-1.2.055-1.562.066-4.607.066s-3.4-.012-4.607-.066a6.31,6.31,0,0,1-2.117-.393A3.775,3.775,0,0,1,6.592,22.2,6.31,6.31,0,0,1,6.2,20.086c-.055-1.2-.066-1.563-.066-4.607s.012-3.4.066-4.607a6.31,6.31,0,0,1,.393-2.117A3.775,3.775,0,0,1,8.756,6.592,6.31,6.31,0,0,1,10.872,6.2c1.2-.055,1.563-.066,4.607-.066m0-2.054c-3.1,0-3.484.013-4.7.069a8.368,8.368,0,0,0-2.767.53A5.829,5.829,0,0,0,4.678,8.012a8.368,8.368,0,0,0-.53,2.767c-.055,1.216-.069,1.6-.069,4.7s.013,3.484.069,4.7a8.368,8.368,0,0,0,.53,2.767A5.829,5.829,0,0,0,8.012,26.28a8.368,8.368,0,0,0,2.767.53c1.216.055,1.6.069,4.7.069s3.484-.013,4.7-.069a8.368,8.368,0,0,0,2.767-.53,5.829,5.829,0,0,0,3.334-3.334,8.368,8.368,0,0,0,.53-2.767c.055-1.216.069-1.6.069-4.7s-.013-3.484-.069-4.7a8.368,8.368,0,0,0-.53-2.767,5.829,5.829,0,0,0-3.334-3.334,8.368,8.368,0,0,0-2.767-.53c-1.216-.055-1.6-.069-4.7-.069Z" transform="translate(-4.079 -4.079)" fill="#fff"/>
      <path id="パス_8883" data-name="パス 8883" d="M132.489,126.635a5.854,5.854,0,1,0,5.854,5.854A5.854,5.854,0,0,0,132.489,126.635Zm0,9.654a3.8,3.8,0,1,1,3.8-3.8A3.8,3.8,0,0,1,132.489,136.289Z" transform="translate(-121.089 -121.089)" fill="#fff"/>
      <circle id="楕円形_47" data-name="楕円形 47" cx="1.368" cy="1.368" r="1.368" transform="translate(16.117 3.947)" fill="#fff"/>
    </g>
  </g>
</svg>
