<svg xmlns="http://www.w3.org/2000/svg" width="38" height="38" viewBox="0 0 38 38">
  <g id="グループ_418" data-name="グループ 418" transform="translate(-360.945 -237.638)">
    <circle id="楕円形_2" data-name="楕円形 2" cx="19" cy="19" r="19" transform="translate(360.945 237.638)" fill="#06c755"/>
    <g id="TYPE_A" data-name="TYPE A" transform="translate(367.307 245.241)">
      <g id="グループ_417" data-name="グループ 417" transform="translate(0)">
        <path id="パス_544" data-name="パス 544" d="M406.311,271.9c0-5.655-5.669-10.256-12.638-10.256s-12.638,4.6-12.638,10.256c0,5.07,4.5,9.316,10.569,10.119.412.089.972.271,1.113.623a2.6,2.6,0,0,1,.041,1.143s-.148.892-.18,1.082c-.055.32-.254,1.25,1.094.682s7.278-4.286,9.93-7.337h0a9.125,9.125,0,0,0,2.709-6.31" transform="translate(-381.035 -261.648)" fill="#fff"/>
        <g id="グループ_416" data-name="グループ 416" transform="translate(4.146 7.523)">
          <path id="パス_545" data-name="パス 545" d="M410.392,285.4h-.887a.246.246,0,0,0-.246.246v5.507a.246.246,0,0,0,.246.246h.887a.246.246,0,0,0,.246-.246v-5.507a.246.246,0,0,0-.246-.246" transform="translate(-404.467 -285.405)" fill="#06c755"/>
          <path id="パス_546" data-name="パス 546" d="M421.329,285.4h-.886a.246.246,0,0,0-.246.246v3.272l-2.524-3.408a.248.248,0,0,0-.019-.025l0,0-.015-.015,0,0-.013-.011-.006-.005-.013-.008-.008,0-.013-.008-.008,0-.014-.006-.008,0-.015,0-.009,0-.014,0-.01,0-.013,0h-.908a.246.246,0,0,0-.246.246v5.507a.246.246,0,0,0,.246.246h.886a.246.246,0,0,0,.246-.246v-3.271l2.527,3.412a.243.243,0,0,0,.062.06l0,0,.015.009.007,0,.012.006.012.005.008,0,.017.005h0a.238.238,0,0,0,.063.009h.886a.246.246,0,0,0,.246-.246v-5.507a.246.246,0,0,0-.246-.246" transform="translate(-409.302 -285.405)" fill="#06c755"/>
          <path id="パス_547" data-name="パス 547" d="M397.915,290.024h-2.409v-4.373a.246.246,0,0,0-.246-.246h-.887a.246.246,0,0,0-.246.246v5.506h0a.245.245,0,0,0,.069.17l0,0,0,0a.244.244,0,0,0,.17.069h3.542a.246.246,0,0,0,.246-.246v-.887a.246.246,0,0,0-.246-.246" transform="translate(-394.127 -285.405)" fill="#06c755"/>
          <path id="パス_548" data-name="パス 548" d="M439.39,286.784a.246.246,0,0,0,.246-.246v-.886a.246.246,0,0,0-.246-.246h-3.542a.245.245,0,0,0-.171.069l0,0,0,0a.247.247,0,0,0-.068.17h0v5.506h0a.245.245,0,0,0,.069.17l0,0,0,0a.245.245,0,0,0,.17.069h3.542a.246.246,0,0,0,.246-.246v-.887a.246.246,0,0,0-.246-.246h-2.409v-.931h2.409a.246.246,0,0,0,.246-.246v-.886a.246.246,0,0,0-.246-.246h-2.409v-.931Z" transform="translate(-422.469 -285.405)" fill="#06c755"/>
        </g>
      </g>
    </g>
  </g>
</svg>
