<svg xmlns="http://www.w3.org/2000/svg" width="900" height="90" viewBox="0 0 900 90">
  <g id="ステップ" transform="translate(-350 -795)">
    <g id="長方形_3081" data-name="長方形 3081" transform="translate(1050 795)" fill="#fff" stroke="#4fe0b0" stroke-width="2">
      <rect width="200" height="90" rx="10" stroke="none"/>
      <rect x="1" y="1" width="198" height="88" rx="9" fill="none"/>
    </g>
    <g id="長方形_3083" data-name="長方形 3083" transform="translate(817 795)" fill="#fff" stroke="#4fe0b0" stroke-width="2">
      <rect width="200" height="90" rx="10" stroke="none"/>
      <rect x="1" y="1" width="198" height="88" rx="9" fill="none"/>
    </g>
    <g id="長方形_3084" data-name="長方形 3084" transform="translate(583 795)" fill="#fff" stroke="#4fe0b0" stroke-width="2">
      <rect width="200" height="90" rx="10" stroke="none"/>
      <rect x="1" y="1" width="198" height="88" rx="9" fill="none"/>
    </g>
    <g id="長方形_3082" data-name="長方形 3082" transform="translate(350 795)" fill="#fff" stroke="#4fe0b0" stroke-width="2">
      <rect width="200" height="90" rx="10" stroke="none"/>
      <rect x="1" y="1" width="198" height="88" rx="9" fill="none"/>
    </g>
    <path id="パス_9489" data-name="パス 9489" d="M-11.338-16.758q1.3.029,2.2.137.322.039.322.2a1.109,1.109,0,0,1-.1.42,5.549,5.549,0,0,0-.146,1.641v.664h3.525L-2.8-13.74q.166,0,.2.039a.365.365,0,0,1,.029.186l-.039,3.076v2.92l.039,4.541a.294.294,0,0,1-.034.181.294.294,0,0,1-.181.034h-1.68q-.166,0-.2-.039A.336.336,0,0,1-4.7-2.979v-.684H-9.062v1.3l.02,3.7q0,.215-.2.215h-1.787q-.2,0-.2-.215l.039-3.682V-3.662H-15.4V-2.9q0,.156-.039.186a.365.365,0,0,1-.186.029H-17.3q-.156,0-.186-.039A.336.336,0,0,1-17.52-2.9l.039-4.561v-2.6l-.039-3.457q0-.166.039-.2a.365.365,0,0,1,.186-.029l2.734.039h3.379v-.625A15.552,15.552,0,0,0-11.338-16.758ZM-9.062-5.479H-4.7V-7.861H-9.062Zm-6.338,0h4.219V-7.861H-15.4Zm10.7-6.406H-9.062v2.246H-4.7Zm-10.7,0v2.246h4.219v-2.246ZM13.76-.4q.664.059,1.357.059a.889.889,0,0,0,.664-.186.628.628,0,0,0,.117-.43v-.762H11.045v.7l.039,2.373a.309.309,0,0,1-.039.2.365.365,0,0,1-.186.029H9.336q-.156,0-.186-.049a.305.305,0,0,1-.029-.176L9.16-.977V-5.439L9.121-7.617q0-.166.039-.2a.336.336,0,0,1,.176-.029l2.4.039h3.438l2.383-.039a.356.356,0,0,1,.215.039.365.365,0,0,1,.029.186l-.039,2.334v1.768l.02,2.861a2.083,2.083,0,0,1-.5,1.631,3.687,3.687,0,0,1-2.246.449h-.205a.624.624,0,0,1-.42-.1,1,1,0,0,1-.137-.371A4.447,4.447,0,0,0,13.76-.4ZM11.045-3.037H15.9V-4.043H11.045ZM15.9-6.279H11.045v.918H15.9Zm-.586-4.814H14.3v.938h2.041l2.656-.039q.146,0,.176.049a.394.394,0,0,1,.029.2v1.143q0,.2-.205.2l-2.656-.02H10.957l-2.676.02q-.225,0-.225-.2V-9.951a.356.356,0,0,1,.039-.215.365.365,0,0,1,.186-.029l2.676.039h1.4v-.937H11.66l-2.4.039q-.205,0-.205-.225v-1.016q0-.225.205-.225l2.4.039h.693V-13.4h-.977l-2.52.039a.309.309,0,0,1-.2-.039.336.336,0,0,1-.029-.176v-1.1q0-.156.049-.2a.305.305,0,0,1,.176-.029l2.52.049h.977q-.029-1.045-.137-1.963,1.016.029,1.973.137.322.039.322.225,0,.01-.117.479a4.688,4.688,0,0,0-.1,1.123h1.563L18.4-14.9q.156,0,.186.039a.365.365,0,0,1,.029.186v1.1q0,.156-.039.186a.336.336,0,0,1-.176.029L15.859-13.4H14.3v.918h1l2.4-.039q.176,0,.205.039a.287.287,0,0,1,.039.186v1.016q0,.166-.049.2a.394.394,0,0,1-.2.029ZM7.568,1.016a.309.309,0,0,1-.039.2.336.336,0,0,1-.176.029H5.928q-.156,0-.186-.039a.365.365,0,0,1-.029-.186V.479H3.633v.9a.309.309,0,0,1-.039.2.365.365,0,0,1-.186.029H1.992q-.176,0-.215-.049a.305.305,0,0,1-.029-.176l.049-3V-2.9L1.748-4.775q0-.166.049-.2A.394.394,0,0,1,1.992-5l1.816.039h1.7L7.344-5q.166,0,.2.039a.365.365,0,0,1,.029.186L7.529-3.242v1.377ZM5.713-3.3H3.633v2.119h2.08ZM3.32-13.223H5.713l2.148-.039q.156,0,.186.039a.336.336,0,0,1,.029.176v1.426a.332.332,0,0,1-.039.205.336.336,0,0,1-.176.029l-2.148-.039H3.32l-2.148.039q-.137,0-.166-.049a.365.365,0,0,1-.029-.186v-1.426q0-.215.2-.215Zm.537-2.734h1.68L7.334-16a.356.356,0,0,1,.215.039.336.336,0,0,1,.029.176v1.318q0,.166-.049.2a.394.394,0,0,1-.2.029l-1.8-.039H3.857l-1.816.039q-.166,0-.2-.039a.365.365,0,0,1-.029-.186v-1.318q0-.156.039-.186A.365.365,0,0,1,2.041-16Zm.078,5.576H5.459l1.68-.039a.332.332,0,0,1,.205.039.365.365,0,0,1,.029.186v1.3q0,.156-.039.186a.394.394,0,0,1-.2.029l-1.68-.039H3.936l-1.7.039a.309.309,0,0,1-.2-.039A.336.336,0,0,1,2.012-8.9v-1.3q0-.166.049-.2a.305.305,0,0,1,.176-.029Zm0,2.705H5.459l1.68-.049a.332.332,0,0,1,.205.039.365.365,0,0,1,.029.186v1.279q0,.166-.039.2a.394.394,0,0,1-.2.029l-1.68-.039H3.936L2.236-6a.309.309,0,0,1-.2-.039.365.365,0,0,1-.029-.186V-7.5q0-.156.049-.2a.305.305,0,0,1,.176-.029Z" transform="translate(450 863)" fill="#333"/>
    <path id="パス_9488" data-name="パス 9488" d="M-29.082-.43v-2.5a4.8,4.8,0,0,0,1.477.855A4.746,4.746,0,0,0-26-1.789a3.569,3.569,0,0,0,.832-.086,1.949,1.949,0,0,0,.594-.238,1.039,1.039,0,0,0,.355-.359.9.9,0,0,0,.117-.449.971.971,0,0,0-.187-.586,2.018,2.018,0,0,0-.512-.477,5.347,5.347,0,0,0-.77-.422q-.445-.2-.961-.414a4.9,4.9,0,0,1-1.957-1.336,2.917,2.917,0,0,1-.645-1.906,3.036,3.036,0,0,1,.352-1.5A2.986,2.986,0,0,1-27.82-10.6a4.291,4.291,0,0,1,1.4-.6,7.206,7.206,0,0,1,1.688-.191,10.15,10.15,0,0,1,1.551.105,6.1,6.1,0,0,1,1.246.324v2.336a3.768,3.768,0,0,0-.613-.344,4.859,4.859,0,0,0-.684-.246,5.214,5.214,0,0,0-.7-.145,4.949,4.949,0,0,0-.66-.047,3.443,3.443,0,0,0-.781.082,2,2,0,0,0-.594.23,1.147,1.147,0,0,0-.375.355.843.843,0,0,0-.133.465.888.888,0,0,0,.148.5,1.7,1.7,0,0,0,.422.422,4.477,4.477,0,0,0,.664.391q.391.191.883.395a9.837,9.837,0,0,1,1.207.6,4.291,4.291,0,0,1,.918.715,2.785,2.785,0,0,1,.586.91,3.216,3.216,0,0,1,.2,1.191A3.191,3.191,0,0,1-21.8-1.574a2.886,2.886,0,0,1-.965,1.031A4.184,4.184,0,0,1-24.18.023,8.2,8.2,0,0,1-25.887.2,9.492,9.492,0,0,1-27.641.039,5.3,5.3,0,0,1-29.082-.43ZM-11.73-9.148h-3.2V0h-2.531V-9.148h-3.18V-11.2h8.906ZM-3.5,0h-6.719V-11.2h6.461v2.055H-7.7v2.492h3.664v2.047H-7.7v2.563h4.2ZM.816-3.859V0H-1.707V-11.2H2.246q4.234,0,4.234,3.57A3.426,3.426,0,0,1,5.266-4.9,4.813,4.813,0,0,1,2.02-3.859Zm0-5.406v3.492h.992q2.016,0,2.016-1.766,0-1.727-2.016-1.727Zm11.7,9.51q-5,0-5-7.021a9.554,9.554,0,0,1,1.353-5.552,4.506,4.506,0,0,1,3.921-1.909q4.883,0,4.883,7.139A9.407,9.407,0,0,1,16.337-1.65,4.391,4.391,0,0,1,12.514.244Zm.137-12.129q-2,0-2,5.029,0,4.736,1.963,4.736,1.914,0,1.914-4.883T12.65-11.885Zm13.818-2.432V0H23.393V-10.84a3.684,3.684,0,0,1-.6.425,6.2,6.2,0,0,1-.737.361,6.584,6.584,0,0,1-.811.273,5.92,5.92,0,0,1-.83.161v-2.6a12.832,12.832,0,0,0,2.266-.9,12.893,12.893,0,0,0,1.924-1.2Z" transform="translate(450 832)" fill="#3eb250"/>
    <path id="パス_9482" data-name="パス 9482" d="M-7.139-9.941q.2,0,.2.215v1.26q0,.205-.2.205L-8.926-8.3h-.059v1.24H-8.7l2-.039q.156,0,.186.039a.336.336,0,0,1,.029.176v1.221a.318.318,0,0,1-.034.19.294.294,0,0,1-.181.034l-2-.039h-.283v1.172h.879l2.422-.039a.309.309,0,0,1,.2.039.365.365,0,0,1,.029.186v1.3a.318.318,0,0,1-.034.19.318.318,0,0,1-.19.034l-2.422-.049h-.879l.039,1.641A3.735,3.735,0,0,1-9.053.049,1.382,1.382,0,0,1-9.5.7a2.273,2.273,0,0,1-1.084.439A13.082,13.082,0,0,1-12.5,1.26a1.017,1.017,0,0,1-.586-.1A1.59,1.59,0,0,1-13.3.615a4.256,4.256,0,0,0-.645-1.4,20.335,20.335,0,0,0,2.08.117q.879,0,.879-.635V-2.646h-.84l-2.393.049a.356.356,0,0,1-.215-.039.365.365,0,0,1-.029-.186v-1.3q0-.166.049-.2a.394.394,0,0,1,.2-.029l2.393.039h.84V-5.479H-11.2l-2,.039q-.156,0-.186-.039a.365.365,0,0,1-.029-.186V-6.885q0-.156.039-.186A.336.336,0,0,1-13.2-7.1l2,.039h.215V-8.3h-.039l-1.738.039q-.146,0-.176-.039a.4.4,0,0,1-.02-.166v-1.26a.332.332,0,0,1,.029-.186.279.279,0,0,1,.166-.029l1.777.039v-.3a14.121,14.121,0,0,0-.137-2.256l1.182.137a19.114,19.114,0,0,0,2.52-1.738H-13.34l-2.725.039q-.156,0-.186-.039a.336.336,0,0,1-.029-.176v-1.5q0-.156.039-.186a.336.336,0,0,1,.176-.029l2.725.039h7.08A1.729,1.729,0,0,0-5.645-16a.815.815,0,0,1,.283-.059q.2,0,.84.635t.635,1.016q0,.225-.3.322a3.052,3.052,0,0,0-.937.605A32.526,32.526,0,0,1-8.984-10.9v1h.059ZM-.5-1.885a6.349,6.349,0,0,0-1.23,1.24Q-1.982-.3-2.1-.3q-.137,0-.42-.322A16.4,16.4,0,0,1-5.371-5.42a25.588,25.588,0,0,1-1.377-5.6.807.807,0,0,1-.01-.107q0-.127.293-.215l1.221-.361a.88.88,0,0,1,.176-.039q.068,0,.107.205.166,1.23.459,2.471a25.624,25.624,0,0,0,1.6-2,5.508,5.508,0,0,0,.557-.9,9.094,9.094,0,0,1,1.318,1.084q.283.283.283.439a.361.361,0,0,1-.225.3,2.858,2.858,0,0,0-.791.713A28.063,28.063,0,0,1-3.887-7,14.542,14.542,0,0,0-.5-1.885Zm-18.984.166a12.434,12.434,0,0,0,2.559-3.467,20.277,20.277,0,0,0,1.445-4.15h-1.309l-1.8.039q-.176,0-.205-.039a.365.365,0,0,1-.029-.186v-1.455a.356.356,0,0,1,.039-.215.394.394,0,0,1,.2-.029l1.8.039h1.582a1.118,1.118,0,0,0,.479-.078.969.969,0,0,1,.3-.078q.2,0,.723.479.6.547.6.723a.518.518,0,0,1-.156.361,1.136,1.136,0,0,0-.322.6A18.614,18.614,0,0,1-17.568-.547q-.283.322-.439.322-.127,0-.391-.381A5,5,0,0,0-19.482-1.719ZM9.6-12.959q1.064.391,1.836.742A9.045,9.045,0,0,0,11.8-14.16h-.459l-2.52.02q-.225,0-.225-.2v-1.387q0-.156.049-.186a.305.305,0,0,1,.176-.029l2.52.039h4.443l2.529-.039a.216.216,0,0,1,.244.244L18.5-14.2a25.747,25.747,0,0,1-.557,5.576,2.069,2.069,0,0,1-2.266,1.5,7.71,7.71,0,0,1-.937-.059q-.312-.029-.371-.137a1.907,1.907,0,0,1-.127-.547,8.015,8.015,0,0,0-.361-1.162q-.088.137-.166.137a.33.33,0,0,1-.176-.078l-1.221-.771A8.371,8.371,0,0,1,9.16-6.826a1.747,1.747,0,0,1-.5.205q-.156,0-.42-.459a4.1,4.1,0,0,0-.908-1.064,7.621,7.621,0,0,0,3.32-2.471q-.986-.5-1.875-.85-.146-.039-.146-.117a.5.5,0,0,1,.088-.215l.537-1.025q.1-.176.186-.176A.45.45,0,0,1,9.6-12.959Zm6.895-1.2H13.74a11.118,11.118,0,0,1-.625,2.783q.635.322,1.367.762.127.068.127.146a.784.784,0,0,1-.088.244L13.955-9.16a7.9,7.9,0,0,0,1.26.1.835.835,0,0,0,.859-.479A17.977,17.977,0,0,0,16.494-14.16ZM7.314.957q0,.225-.2.225H5.684q-.166,0-.2-.039A.365.365,0,0,1,5.459.957V.42H3.574v.918a.309.309,0,0,1-.039.2.365.365,0,0,1-.186.029H1.934a.356.356,0,0,1-.215-.039.365.365,0,0,1-.029-.186l.049-2.959V-2.9L1.689-4.775q0-.166.049-.2A.394.394,0,0,1,1.934-5l1.826.039H5.254L7.119-5q.2,0,.2.225L7.275-3.242v1.387ZM5.459-3.3H3.574V-1.24H5.459Zm9.453.605a4.711,4.711,0,0,0,1.279.557,1.667,1.667,0,0,1,.4.176.333.333,0,0,1,.078.244q0,.078-.02.283A5.735,5.735,0,0,1,16.3.137a1.745,1.745,0,0,1-.625.742,2.36,2.36,0,0,1-.928.371,8.61,8.61,0,0,1-1.27.068A4.022,4.022,0,0,1,11.4.957a1.648,1.648,0,0,1-.645-1.533V-3.9a15.343,15.343,0,0,0-.078-1.6q1.055.029,1.836.117.381.049.381.205a1.792,1.792,0,0,1-.1.273,2.311,2.311,0,0,0-.1.84V-1.3q0,.5.264.645a1.606,1.606,0,0,0,.732.117q.693,0,.889-.244A3.723,3.723,0,0,0,14.912-2.7ZM3.262-13.223H5.557L7.7-13.262a.309.309,0,0,1,.2.039.336.336,0,0,1,.029.176v1.426a.332.332,0,0,1-.039.205.365.365,0,0,1-.186.029l-2.139-.039H3.262l-2.119.039q-.166,0-.2-.049a.365.365,0,0,1-.029-.186v-1.426q0-.156.039-.186a.365.365,0,0,1,.186-.029ZM3.8-15.957H5.322L7.139-16q.156,0,.186.039a.336.336,0,0,1,.029.176v1.338q0,.166-.039.2a.336.336,0,0,1-.176.029l-1.816-.039H3.8l-1.816.039q-.166,0-.2-.039a.365.365,0,0,1-.029-.186v-1.338q0-.156.039-.186A.365.365,0,0,1,1.982-16Zm.078,5.6H5.2l1.68-.039a.356.356,0,0,1,.215.039.279.279,0,0,1,.029.166v1.3q0,.156-.049.186a.394.394,0,0,1-.2.029L5.2-8.721H3.877l-1.7.039a.309.309,0,0,1-.2-.039A.336.336,0,0,1,1.953-8.9v-1.3q0-.205.225-.205Zm0,2.686H5.2l1.68-.049a.356.356,0,0,1,.215.039.365.365,0,0,1,.029.186v1.279q0,.166-.049.2a.394.394,0,0,1-.2.029L5.2-6.035H3.877L2.178-6a.309.309,0,0,1-.2-.039.365.365,0,0,1-.029-.186V-7.5q0-.156.049-.2a.305.305,0,0,1,.176-.029ZM17.656-4.9A15.68,15.68,0,0,1,19.385-1.26a.687.687,0,0,1,.029.146q0,.107-.254.234l-1.123.557a.707.707,0,0,1-.234.088q-.078,0-.127-.166A13.3,13.3,0,0,0,16-4.219a.261.261,0,0,1-.049-.127q0-.078.254-.2L17.256-5a.539.539,0,0,1,.215-.078Q17.549-5.078,17.656-4.9ZM8.9-4.775l1.1.352q.254.088.254.215a.807.807,0,0,1-.01.107A14.707,14.707,0,0,1,9.2-.137Q9.131.02,9.043.02a.688.688,0,0,1-.225-.078L7.656-.615q-.2-.1-.2-.225a.45.45,0,0,1,.059-.176A13.486,13.486,0,0,0,8.535-4.658q.039-.176.127-.176A.959.959,0,0,1,8.9-4.775Zm4.18-2.9a20.307,20.307,0,0,1,2.383,2.031.3.3,0,0,1,.1.186q0,.059-.176.234l-.82.8q-.2.166-.254.166t-.146-.1a10.8,10.8,0,0,0-2.383-2.207q-.137-.078-.137-.156,0-.059.176-.205l.82-.713a.5.5,0,0,1,.234-.137A.424.424,0,0,1,13.076-7.676Z" transform="translate(683 863)" fill="#333"/>
    <path id="パス_9487" data-name="パス 9487" d="M-29.082-.43v-2.5a4.8,4.8,0,0,0,1.477.855A4.746,4.746,0,0,0-26-1.789a3.569,3.569,0,0,0,.832-.086,1.949,1.949,0,0,0,.594-.238,1.039,1.039,0,0,0,.355-.359.9.9,0,0,0,.117-.449.971.971,0,0,0-.187-.586,2.018,2.018,0,0,0-.512-.477,5.347,5.347,0,0,0-.77-.422q-.445-.2-.961-.414a4.9,4.9,0,0,1-1.957-1.336,2.917,2.917,0,0,1-.645-1.906,3.036,3.036,0,0,1,.352-1.5A2.986,2.986,0,0,1-27.82-10.6a4.291,4.291,0,0,1,1.4-.6,7.206,7.206,0,0,1,1.688-.191,10.15,10.15,0,0,1,1.551.105,6.1,6.1,0,0,1,1.246.324v2.336a3.768,3.768,0,0,0-.613-.344,4.859,4.859,0,0,0-.684-.246,5.214,5.214,0,0,0-.7-.145,4.949,4.949,0,0,0-.66-.047,3.443,3.443,0,0,0-.781.082,2,2,0,0,0-.594.23,1.147,1.147,0,0,0-.375.355.843.843,0,0,0-.133.465.888.888,0,0,0,.148.5,1.7,1.7,0,0,0,.422.422,4.477,4.477,0,0,0,.664.391q.391.191.883.395a9.837,9.837,0,0,1,1.207.6,4.291,4.291,0,0,1,.918.715,2.785,2.785,0,0,1,.586.91,3.216,3.216,0,0,1,.2,1.191A3.191,3.191,0,0,1-21.8-1.574a2.886,2.886,0,0,1-.965,1.031A4.184,4.184,0,0,1-24.18.023,8.2,8.2,0,0,1-25.887.2,9.492,9.492,0,0,1-27.641.039,5.3,5.3,0,0,1-29.082-.43ZM-11.73-9.148h-3.2V0h-2.531V-9.148h-3.18V-11.2h8.906ZM-3.5,0h-6.719V-11.2h6.461v2.055H-7.7v2.492h3.664v2.047H-7.7v2.563h4.2ZM.816-3.859V0H-1.707V-11.2H2.246q4.234,0,4.234,3.57A3.426,3.426,0,0,1,5.266-4.9,4.813,4.813,0,0,1,2.02-3.859Zm0-5.406v3.492h.992q2.016,0,2.016-1.766,0-1.727-2.016-1.727Zm11.7,9.51q-5,0-5-7.021a9.554,9.554,0,0,1,1.353-5.552,4.506,4.506,0,0,1,3.921-1.909q4.883,0,4.883,7.139A9.407,9.407,0,0,1,16.337-1.65,4.391,4.391,0,0,1,12.514.244Zm.137-12.129q-2,0-2,5.029,0,4.736,1.963,4.736,1.914,0,1.914-4.883T12.65-11.885Zm9.883,9.326h5.938V0H19.154V-1.055a4.909,4.909,0,0,1,.361-1.929,6.4,6.4,0,0,1,.908-1.533,7.878,7.878,0,0,1,1.2-1.2q.649-.522,1.235-.942.615-.439,1.079-.84a6.149,6.149,0,0,0,.781-.8,3.026,3.026,0,0,0,.474-.8,2.382,2.382,0,0,0,.156-.864,1.737,1.737,0,0,0-.508-1.357,2.258,2.258,0,0,0-1.553-.459,5.215,5.215,0,0,0-3.457,1.436v-2.715a7.421,7.421,0,0,1,4.121-1.182,6.086,6.086,0,0,1,1.909.278,4.039,4.039,0,0,1,1.431.8,3.4,3.4,0,0,1,.894,1.255,4.235,4.235,0,0,1,.308,1.646,4.64,4.64,0,0,1-.3,1.719A5.281,5.281,0,0,1,27.4-7.178,7.175,7.175,0,0,1,26.264-6.05q-.645.513-1.338.991-.469.332-.9.659a8.564,8.564,0,0,0-.767.645,3.5,3.5,0,0,0-.527.62A1.07,1.07,0,0,0,22.533-2.559Z" transform="translate(683 832)" fill="#3eb250"/>
    <path id="パス_9483" data-name="パス 9483" d="M-12.9-13.154h-.439l.039,1.24h.078l2.041-.039q.205,0,.205.215v1.2q0,.2-.205.2l-2.041-.039h-.039l.039,1.328q1.416-.254,2.8-.605a4.176,4.176,0,0,0-.2,1.1A5.33,5.33,0,0,0-8.34-10.742,7.953,7.953,0,0,0-7.6-13.877q-.84.01-1.484.029l-.439.01q-.156,0-.186-.039a.462.462,0,0,1-.029-.205V-15.42q0-.156.039-.186a.336.336,0,0,1,.176-.029l2.285.039h3.193l2.266-.039q.283,0,.283.225v.049a10.351,10.351,0,0,0-.059,1.1,21.991,21.991,0,0,1-.566,5.742,2.1,2.1,0,0,1-2.256,1.66q-.684,0-1.084-.039t-.479-.137a1.6,1.6,0,0,1-.137-.547,4.217,4.217,0,0,0-.4-1.26,9.363,9.363,0,0,0,1.553.166q.771,0,.947-.557A18.022,18.022,0,0,0-3.5-13.877H-5.654A10.323,10.323,0,0,1-6.66-9.717,6.4,6.4,0,0,1-8.955-7.285a1.605,1.605,0,0,1-.459.244q-.146,0-.469-.459a4.935,4.935,0,0,0-.771-.762.408.408,0,0,1-.166.293,1.464,1.464,0,0,1-.42.127q-2.949.693-5.859,1.162a3.223,3.223,0,0,0-.7.225.75.75,0,0,1-.293.1q-.127,0-.244-.264A15.286,15.286,0,0,1-18.7-8.4a17.55,17.55,0,0,0,2.041-.137l1.543-.205-.039-1.641h-.479l-2.041.039q-.225,0-.225-.2v-1.2q0-.156.039-.186a.365.365,0,0,1,.186-.029l2.041.039h.42l-.039-1.24h-.664l-2.236.039q-.166,0-.2-.039a.365.365,0,0,1-.029-.186v-1.24a.332.332,0,0,1,.039-.205.365.365,0,0,1,.186-.029l2.236.039h.615a10.976,10.976,0,0,0-.2-1.885q1.055.039,1.953.146.322.029.322.215a.815.815,0,0,1-.1.361,1.851,1.851,0,0,0-.088.732q0,.146.01.43h.5l2.227-.039q.156,0,.186.039a.43.43,0,0,1,.029.2v1.24q0,.166-.039.2a.336.336,0,0,1-.176.029Zm-2.715,9.678-2.627.039q-.156,0-.186-.039a.336.336,0,0,1-.029-.176V-5.059q0-.156.039-.186a.336.336,0,0,1,.176-.029l2.627.039h4.277A5.037,5.037,0,0,0-11.25-6.25q0-.322-.029-.684,1.123.059,1.963.176.381.068.381.244a.531.531,0,0,1-.049.2q-.068.146-.088.205a2.881,2.881,0,0,0-.205.879h4.941l2.6-.039q.176,0,.205.039a.266.266,0,0,1,.039.176v1.406q0,.146-.039.181a.371.371,0,0,1-.205.034l-2.6-.039H-8.359A7.832,7.832,0,0,0-5.02-1.26,16.257,16.257,0,0,0-.8-.439,5.524,5.524,0,0,0-1.494.947a2.646,2.646,0,0,1-.205.459.282.282,0,0,1-.234.1,2.345,2.345,0,0,1-.42-.039Q-7.705.645-10.078-2.7q-1.836,3.184-7.48,4.141A2.622,2.622,0,0,1-18,1.5q-.2,0-.439-.537a4.5,4.5,0,0,0-.8-1.279A16.78,16.78,0,0,0-14.5-1.475a5.578,5.578,0,0,0,2.48-2ZM7.979-10.225A18.578,18.578,0,0,1,9.463-6.6a.823.823,0,0,1,.02.146q0,.176-.264.254l-1.055.342a.7.7,0,0,1-.176.029q-.127,0-.166-.166L7.578-6.9q-.459.068-1.377.146v5.5L6.24,1.357a.309.309,0,0,1-.039.2.336.336,0,0,1-.176.029H4.5q-.166,0-.2-.039a.365.365,0,0,1-.029-.186L4.316-1.26V-6.6l-1.885.117a1.872,1.872,0,0,0-.732.166.608.608,0,0,1-.3.1q-.176,0-.244-.342-.146-.723-.273-1.68.732.049,1.23.049.2,0,.43-.01L3.652-9.717a28.08,28.08,0,0,0-2.7-2.92Q.84-12.764.84-12.822a.8.8,0,0,1,.137-.254l.742-.986q.117-.176.2-.176.059,0,.186.117l.5.518a20.4,20.4,0,0,0,1.074-2.012,6.707,6.707,0,0,0,.469-1.24,15.762,15.762,0,0,1,1.738.732q.264.146.264.322,0,.117-.176.264a1.354,1.354,0,0,0-.381.479q-.967,1.65-1.768,2.754L4.7-11.3q.586-.918,1.348-2.217A10.285,10.285,0,0,0,6.66-14.9q1.143.537,1.68.859.244.137.244.3a.346.346,0,0,1-.225.3,2.649,2.649,0,0,0-.654.82Q6.26-10.332,4.658-8.281q1.68-.088,2.383-.137-.313-.771-.566-1.26a.443.443,0,0,1-.049-.156q0-.088.254-.186l.918-.322a.828.828,0,0,1,.2-.039Q7.891-10.381,7.979-10.225Zm.117-.117a12.574,12.574,0,0,0,2.861-4.834,9.5,9.5,0,0,0,.381-1.7q1,.186,1.943.42.42.127.42.322a.6.6,0,0,1-.2.4,2.413,2.413,0,0,0-.566,1.016q-.312.889-.459,1.221H16.26l2.012-.039q.244,0,.244.234-.039.566-.039,1.66A70.992,70.992,0,0,1,17.9-1.621,3.963,3.963,0,0,1,16.865.742a2.921,2.921,0,0,1-2,.674l-.713.01q-.459,0-.791-.029A1,1,0,0,1,12.8,1.27a1.659,1.659,0,0,1-.186-.547A5.278,5.278,0,0,0,12.061-.8a18.466,18.466,0,0,0,2.246.186H14.6q.957,0,1.279-1.729a60.527,60.527,0,0,0,.5-9.3H11.6A12.567,12.567,0,0,1,10.039-9.4q-.332.361-.439.361T9.18-9.4A3.679,3.679,0,0,0,8.1-10.342Zm3.887,1.465a18.509,18.509,0,0,1,2.275,3.818.378.378,0,0,1,.049.156q0,.107-.225.225l-1.26.762a.428.428,0,0,1-.205.078q-.107,0-.176-.205a21.473,21.473,0,0,0-2.1-3.857.432.432,0,0,1-.1-.2q0-.088.215-.205l1.123-.635a.428.428,0,0,1,.205-.078Q11.865-9.014,11.982-8.877ZM.9-.479a15.331,15.331,0,0,0,.879-3.838,7.63,7.63,0,0,0,.049-.791q0-.137-.01-.332,1.328.176,1.543.215.342.059.342.244a1.115,1.115,0,0,1-.117.3,2.439,2.439,0,0,0-.127.635A20.759,20.759,0,0,1,2.7-.205q-.117.439-.273.439A1.076,1.076,0,0,1,1.963,0,3.443,3.443,0,0,0,.9-.479ZM8.115-5.5a.62.62,0,0,1,.176-.039q.107,0,.186.215A29.217,29.217,0,0,1,9.492-1.543a.823.823,0,0,1,.02.137q0,.146-.254.225L8.2-.82a.774.774,0,0,1-.215.049q-.107,0-.146-.205a26.242,26.242,0,0,0-.908-3.848.621.621,0,0,1-.039-.166q0-.1.225-.166Z" transform="translate(917 863)" fill="#333"/>
    <path id="パス_9486" data-name="パス 9486" d="M-29.082-.43v-2.5a4.8,4.8,0,0,0,1.477.855A4.746,4.746,0,0,0-26-1.789a3.569,3.569,0,0,0,.832-.086,1.949,1.949,0,0,0,.594-.238,1.039,1.039,0,0,0,.355-.359.9.9,0,0,0,.117-.449.971.971,0,0,0-.187-.586,2.018,2.018,0,0,0-.512-.477,5.347,5.347,0,0,0-.77-.422q-.445-.2-.961-.414a4.9,4.9,0,0,1-1.957-1.336,2.917,2.917,0,0,1-.645-1.906,3.036,3.036,0,0,1,.352-1.5A2.986,2.986,0,0,1-27.82-10.6a4.291,4.291,0,0,1,1.4-.6,7.206,7.206,0,0,1,1.688-.191,10.15,10.15,0,0,1,1.551.105,6.1,6.1,0,0,1,1.246.324v2.336a3.768,3.768,0,0,0-.613-.344,4.859,4.859,0,0,0-.684-.246,5.214,5.214,0,0,0-.7-.145,4.949,4.949,0,0,0-.66-.047,3.443,3.443,0,0,0-.781.082,2,2,0,0,0-.594.23,1.147,1.147,0,0,0-.375.355.843.843,0,0,0-.133.465.888.888,0,0,0,.148.5,1.7,1.7,0,0,0,.422.422,4.477,4.477,0,0,0,.664.391q.391.191.883.395a9.837,9.837,0,0,1,1.207.6,4.291,4.291,0,0,1,.918.715,2.785,2.785,0,0,1,.586.91,3.216,3.216,0,0,1,.2,1.191A3.191,3.191,0,0,1-21.8-1.574a2.886,2.886,0,0,1-.965,1.031A4.184,4.184,0,0,1-24.18.023,8.2,8.2,0,0,1-25.887.2,9.492,9.492,0,0,1-27.641.039,5.3,5.3,0,0,1-29.082-.43ZM-11.73-9.148h-3.2V0h-2.531V-9.148h-3.18V-11.2h8.906ZM-3.5,0h-6.719V-11.2h6.461v2.055H-7.7v2.492h3.664v2.047H-7.7v2.563h4.2ZM.816-3.859V0H-1.707V-11.2H2.246q4.234,0,4.234,3.57A3.426,3.426,0,0,1,5.266-4.9,4.813,4.813,0,0,1,2.02-3.859Zm0-5.406v3.492h.992q2.016,0,2.016-1.766,0-1.727-2.016-1.727Zm11.7,9.51q-5,0-5-7.021a9.554,9.554,0,0,1,1.353-5.552,4.506,4.506,0,0,1,3.921-1.909q4.883,0,4.883,7.139A9.407,9.407,0,0,1,16.337-1.65,4.391,4.391,0,0,1,12.514.244Zm.137-12.129q-2,0-2,5.029,0,4.736,1.963,4.736,1.914,0,1.914-4.883T12.65-11.885ZM19.486-.459V-3.145a5.421,5.421,0,0,0,3.281,1.025,2.954,2.954,0,0,0,1.841-.508,1.686,1.686,0,0,0,.659-1.416,1.61,1.61,0,0,0-.815-1.445A4.225,4.225,0,0,0,22.211-6h-1.3V-8.359h1.2q2.734,0,2.734-1.816,0-1.709-2.1-1.709a4.787,4.787,0,0,0-2.734.908V-13.5a7.552,7.552,0,0,1,3.438-.742,5.188,5.188,0,0,1,3.345.967,3.077,3.077,0,0,1,1.2,2.51,3.263,3.263,0,0,1-2.783,3.438v.049A3.784,3.784,0,0,1,27.553-6.2,3.043,3.043,0,0,1,28.412-4,3.757,3.757,0,0,1,26.977-.9,6.207,6.207,0,0,1,23.012.244,7.663,7.663,0,0,1,19.486-.459Z" transform="translate(917 832)" fill="#3eb250"/>
    <path id="パス_9484" data-name="パス 9484" d="M-25.786,0H-28.94V-14h3.154ZM-22.6,0V-14h4.961q7.461,0,7.461,6.826a6.9,6.9,0,0,1-2.036,5.225A7.508,7.508,0,0,1-17.642,0Zm3.154-11.436v8.877h1.563a4.222,4.222,0,0,0,3.218-1.23A4.669,4.669,0,0,0-13.5-7.139a4.235,4.235,0,0,0-1.157-3.149,4.412,4.412,0,0,0-3.247-1.147ZM.542-10.361l-2.725.039q-.156,0-.186-.039a.336.336,0,0,1-.029-.176v-1.582q0-.166.039-.2a.336.336,0,0,1,.176-.029L.542-12.3H4.761v-1.5a19.87,19.87,0,0,0-.146-2.832q1.25.029,2.207.137.322.029.322.215A1.36,1.36,0,0,1,7-15.85a7.864,7.864,0,0,0-.137,1.982V-12.3l2.461-.039q.156,0,.186.039a.365.365,0,0,1,.029.186v1.582q0,.156-.039.186a.336.336,0,0,1-.176.029L6.86-10.361v5.537L6.919-.977a3.442,3.442,0,0,1-.156,1.2,1.644,1.644,0,0,1-.508.654q-.566.459-3.193.459a1.017,1.017,0,0,1-.586-.1A1.389,1.389,0,0,1,2.3.723,5.414,5.414,0,0,0,1.694-.84q1.1.088,1.953.088.205,0,.352-.01.762,0,.762-.664v-8.936ZM-8.7-8.5A18.256,18.256,0,0,0-4.673-15.3a7.6,7.6,0,0,0,.332-1.436,17.3,17.3,0,0,1,2.021.615q.322.117.322.3a.525.525,0,0,1-.225.361,1.911,1.911,0,0,0-.4.8Q-3.208-13.174-3.794-12V-1.68l.039,3.018a.309.309,0,0,1-.039.2.365.365,0,0,1-.186.029H-5.718q-.156,0-.186-.039a.365.365,0,0,1-.029-.186l.039-3.018V-6.221q0-1.5.02-2.314A23.551,23.551,0,0,1-7.319-6.66q-.225.264-.342.264T-7.9-6.719A6.032,6.032,0,0,0-8.7-8.5Zm7.09.957A.334.334,0,0,1-1.685-7.7q0-.068.225-.205L-.2-8.623a.406.406,0,0,1,.176-.068q.068,0,.205.127A21.221,21.221,0,0,1,2.6-4.756a.261.261,0,0,1,.049.127q0,.088-.234.225l-1.3.869a.663.663,0,0,1-.244.117q-.068,0-.156-.186A21.437,21.437,0,0,0-1.606-7.539ZM14.38-3.74l-2.5.039q-.146,0-.176-.039a.438.438,0,0,1-.02-.176V-5.469a.39.39,0,0,1,.029-.205A.279.279,0,0,1,11.88-5.7l2.5.039h9.248q.1-.8.2-2.227h-7.2q-.1.322-.342.957a.253.253,0,0,1-.234.186l-.166-.01L14.3-6.992q-.293-.039-.293-.2a.378.378,0,0,1,.039-.146,39.4,39.4,0,0,0,2.314-7.607,16.877,16.877,0,0,0,.225-1.758,15.635,15.635,0,0,1,2.178.352q.342.078.342.283a.669.669,0,0,1-.205.4,5.106,5.106,0,0,0-.459,1.416L18.384-14h6.758l2.607-.039q.156,0,.186.039a.336.336,0,0,1,.029.176v1.572q0,.156-.039.186a.336.336,0,0,1-.176.029l-2.607-.039H17.905q-.283,1.074-.664,2.3h6.123l2.5-.039a.233.233,0,0,1,.264.264l-.186,2.119-.137,1.768h1.016L29.3-5.7q.156,0,.186.049a.478.478,0,0,1,.02.186v1.553a.332.332,0,0,1-.029.186A.305.305,0,0,1,29.3-3.7l-2.48-.039h-1.24a16.581,16.581,0,0,1-.6,2.764A3.1,3.1,0,0,1,23.667.82a3.906,3.906,0,0,1-1.982.439q-.811,0-1.855-.059-.5-.02-.586-.117a1.154,1.154,0,0,1-.176-.547,4.913,4.913,0,0,0-.547-1.553,22.591,22.591,0,0,0,2.842.2,2.318,2.318,0,0,0,1-.156,1.24,1.24,0,0,0,.547-.723,13.2,13.2,0,0,0,.459-2.041Z" transform="translate(1150 863)" fill="#333"/>
    <path id="パス_9485" data-name="パス 9485" d="M-29.082-.43v-2.5a4.8,4.8,0,0,0,1.477.855A4.746,4.746,0,0,0-26-1.789a3.569,3.569,0,0,0,.832-.086,1.949,1.949,0,0,0,.594-.238,1.039,1.039,0,0,0,.355-.359.9.9,0,0,0,.117-.449.971.971,0,0,0-.187-.586,2.018,2.018,0,0,0-.512-.477,5.347,5.347,0,0,0-.77-.422q-.445-.2-.961-.414a4.9,4.9,0,0,1-1.957-1.336,2.917,2.917,0,0,1-.645-1.906,3.036,3.036,0,0,1,.352-1.5A2.986,2.986,0,0,1-27.82-10.6a4.291,4.291,0,0,1,1.4-.6,7.206,7.206,0,0,1,1.688-.191,10.15,10.15,0,0,1,1.551.105,6.1,6.1,0,0,1,1.246.324v2.336a3.768,3.768,0,0,0-.613-.344,4.859,4.859,0,0,0-.684-.246,5.214,5.214,0,0,0-.7-.145,4.949,4.949,0,0,0-.66-.047,3.443,3.443,0,0,0-.781.082,2,2,0,0,0-.594.23,1.147,1.147,0,0,0-.375.355.843.843,0,0,0-.133.465.888.888,0,0,0,.148.5,1.7,1.7,0,0,0,.422.422,4.477,4.477,0,0,0,.664.391q.391.191.883.395a9.837,9.837,0,0,1,1.207.6,4.291,4.291,0,0,1,.918.715,2.785,2.785,0,0,1,.586.91,3.216,3.216,0,0,1,.2,1.191A3.191,3.191,0,0,1-21.8-1.574a2.886,2.886,0,0,1-.965,1.031A4.184,4.184,0,0,1-24.18.023,8.2,8.2,0,0,1-25.887.2,9.492,9.492,0,0,1-27.641.039,5.3,5.3,0,0,1-29.082-.43ZM-11.73-9.148h-3.2V0h-2.531V-9.148h-3.18V-11.2h8.906ZM-3.5,0h-6.719V-11.2h6.461v2.055H-7.7v2.492h3.664v2.047H-7.7v2.563h4.2ZM.816-3.859V0H-1.707V-11.2H2.246q4.234,0,4.234,3.57A3.426,3.426,0,0,1,5.266-4.9,4.813,4.813,0,0,1,2.02-3.859Zm0-5.406v3.492h.992q2.016,0,2.016-1.766,0-1.727-2.016-1.727Zm11.7,9.51q-5,0-5-7.021a9.554,9.554,0,0,1,1.353-5.552,4.506,4.506,0,0,1,3.921-1.909q4.883,0,4.883,7.139A9.407,9.407,0,0,1,16.337-1.65,4.391,4.391,0,0,1,12.514.244Zm.137-12.129q-2,0-2,5.029,0,4.736,1.963,4.736,1.914,0,1.914-4.883T12.65-11.885ZM27.641-14v8.828h1.68v2.3h-1.68V0H24.828V-2.871h-6.1V-5.283q.811-.908,1.68-1.987t1.68-2.222q.811-1.143,1.509-2.3A23.054,23.054,0,0,0,24.779-14ZM21.488-5.176h3.34v-4.893q-.342.635-.742,1.284T23.246-7.5q-.439.63-.889,1.221T21.488-5.176Z" transform="translate(1150 832)" fill="#3eb250"/>
    <path id="パス_9365" data-name="パス 9365" d="M112.242,44.148h-9.819v21.6h9.819v7.2l14.181-18-14.181-18Z" transform="translate(452.578 785.053)" fill="#3eb250"/>
    <path id="パス_9366" data-name="パス 9366" d="M112.242,44.148h-9.819v21.6h9.819v7.2l14.181-18-14.181-18Z" transform="translate(685.578 785.053)" fill="#3eb250"/>
    <path id="パス_9367" data-name="パス 9367" d="M112.242,44.148h-9.819v21.6h9.819v7.2l14.181-18-14.181-18Z" transform="translate(918.578 785.053)" fill="#3eb250"/>
  </g>
</svg>
