<svg id="グループ_4884" data-name="グループ 4884" xmlns="http://www.w3.org/2000/svg" width="130" height="28.308" viewBox="0 0 130 28.308">
  <g id="グループ_1" data-name="グループ 1">
    <path id="パス_1" data-name="パス 1" d="M48.07,10.537H35.557v-.309q0-3.282,0-6.563A3.613,3.613,0,0,1,39.213,0Q41.854,0,44.5,0a3.582,3.582,0,0,1,3.586,3.51c.027,2.281.007,4.563.006,6.845C48.088,10.4,48.079,10.444,48.07,10.537ZM45.251,6.858c.006-.09.014-.165.015-.239,0-.974,0-1.948,0-2.923a.8.8,0,0,0-.877-.87q-2.564,0-5.128,0a.807.807,0,0,0-.882.9q0,1.435,0,2.871c0,.09.008.179.012.262Z" transform="translate(-26.69 0)" fill="#979797"/>
    <path id="パス_2" data-name="パス 2" d="M31.832,74.949c-.538.041-1.038.073-1.536.118-.47.043-.741-.122-.743-.479a.432.432,0,0,1,.422-.485c1.182-.1,2.365-.18,3.548-.264a.456.456,0,0,1,.551.464c.019.34-.2.485-.51.517-.228.023-.456.038-.7.058l-.183.82c.379,0,.735,0,1.09,0,.387,0,.609.188.607.5,0,.3-.221.478-.6.479-.433,0-.867,0-1.315,0-.1.458-.2.889-.294,1.319A1.72,1.72,0,0,1,30.5,79.392c-.281.012-.564.008-.846.005a.453.453,0,0,1-.5-.473.47.47,0,0,1,.5-.506c.331-.023.665-.011.993-.054A.64.64,0,0,0,31.2,77.8c.075-.357.154-.712.244-1.123H30.7c-.461,0-.923,0-1.384,0a.456.456,0,0,1-.522-.471.465.465,0,0,1,.516-.509c.683-.011,1.367,0,2.05,0h.3Z" transform="translate(-21.616 -55.426)" fill="#979797"/>
    <path id="パス_3" data-name="パス 3" d="M67.843,50.682c0,.353,0,.642,0,.93a1.581,1.581,0,0,1-1.278,1.609,5.5,5.5,0,0,1-1.878,0A1.766,1.766,0,0,1,63.438,51a5.414,5.414,0,0,1,.916-2.011c.046-.071.088-.144.164-.267-.24,0-.439,0-.639,0a.488.488,0,0,1-.019-.975c.521-.018,1.043-.021,1.564,0a.5.5,0,0,1,.37.813c-.345.56-.74,1.1-1.027,1.683a4.329,4.329,0,0,0-.359,1.338.664.664,0,0,0,.714.728q.5.011,1,0a.723.723,0,0,0,.738-.751c0-.607-.02-1.215.015-1.82a.682.682,0,0,1,.281-.507.7.7,0,0,1,.575.1c.388.262.74.577,1.1.876a.5.5,0,1,1-.635.759C68.1,50.876,68,50.8,67.843,50.682Z" transform="translate(-47.58 -35.827)" fill="#979797"/>
    <path id="パス_4" data-name="パス 4" d="M21.5,31.3H17.828V27.629H21.5Z" transform="translate(-13.383 -20.74)" fill="#172f66"/>
    <path id="パス_5" data-name="パス 5" d="M89.012,27.6h3.666v3.671H89.012Z" transform="translate(-66.817 -20.72)" fill="#e4021f"/>
    <path id="パス_6" data-name="パス 6" d="M110.457,80.987v3.678h-3.67V80.987Z" transform="translate(-80.16 -60.794)" fill="#e7391b"/>
    <path id="パス_7" data-name="パス 7" d="M53.438,98.782H57.1v3.671H53.438Z" transform="translate(-40.113 -74.152)" fill="#ed6b12"/>
    <path id="パス_8" data-name="パス 8" d="M3.692,84.662H.021V80.993H3.692Z" transform="translate(-0.016 -60.798)" fill="#427936"/>
    <path id="パス_9" data-name="パス 9" d="M.04,45.385H3.708v3.663H.04Z" transform="translate(-0.03 -34.069)" fill="#2ba63b"/>
    <path id="パス_10" data-name="パス 10" d="M106.783,45.375h3.667v3.672h-3.667Z" transform="translate(-80.157 -34.061)" fill="#0e973d"/>
    <path id="パス_11" data-name="パス 11" d="M.007,66.888V63.221H3.682v3.667Z" transform="translate(-0.005 -47.457)" fill="#0273b8"/>
    <path id="パス_12" data-name="パス 12" d="M110.473,63.22v3.664H106.8V63.22Z" transform="translate(-80.171 -47.457)" fill="#c40d28"/>
    <path id="パス_13" data-name="パス 13" d="M21.557,102.469H17.9V98.8h3.654Z" transform="translate(-13.439 -74.167)" fill="#f4a10d"/>
    <path id="パス_14" data-name="パス 14" d="M39.287,102.47H35.62V98.8h3.667Z" transform="translate(-26.738 -74.163)" fill="#db007b"/>
    <path id="パス_15" data-name="パス 15" d="M92.706,102.477H89.033V98.813h3.673Z" transform="translate(-66.833 -74.175)" fill="#fbbd02"/>
    <path id="パス_16" data-name="パス 16" d="M71.217,98.808h3.659v3.658H71.217Z" transform="translate(-53.459 -74.171)" fill="#970931"/>
    <path id="パス_17" data-name="パス 17" d="M75.931,75.882H74.08a8.356,8.356,0,0,1-.532,1,1.477,1.477,0,0,1-1.159.566.495.495,0,1,1-.114-.983c.541-.1.657-.234.76-.861.108-.659.175-.717.841-.717q1.294,0,2.588,0c.438,0,.651.256.56.674-.2.924-.4,1.849-.613,2.771a2.21,2.21,0,0,1-2.3,1.851c-.308,0-.615,0-.923,0a.477.477,0,0,1-.546-.48c-.023-.291.216-.5.556-.5s.683,0,1.025-.007a1.155,1.155,0,0,0,1.1-.734,3.05,3.05,0,0,0,.164-.537C75.637,77.259,75.779,76.586,75.931,75.882Z" transform="translate(-53.913 -56.218)" fill="#979797"/>
    <path id="パス_18" data-name="パス 18" d="M106.781,31.316v-3.65a3.63,3.63,0,0,1,3.671,3.65Z" transform="translate(-80.156 -20.762)" fill="#d7a611"/>
    <path id="パス_19" data-name="パス 19" d="M0,31.2c-.114-1.859,2.042-4,3.667-3.595V31.2Z" transform="translate(0 -20.684)" fill="#044b88"/>
    <path id="パス_20" data-name="パス 20" d="M106.777,102.49V98.822h3.648A3.627,3.627,0,0,1,106.777,102.49Z" transform="translate(-80.153 -74.182)" fill="#02a7d8"/>
    <path id="パス_21" data-name="パス 21" d="M.075,98.806H3.726q0,1.826,0,3.648A3.611,3.611,0,0,1,.075,98.806Z" transform="translate(-0.054 -74.17)" fill="#d39116"/>
    <path id="パス_22" data-name="パス 22" d="M55.084,81.395c-.612,0-1.226,0-1.839,0-.362,0-.571-.188-.552-.492s.2-.43.5-.43c.7,0,1.4,0,2.091,0a.581.581,0,0,0-.569-.762c-.367-.011-.735,0-1.1,0-.313,0-.549-.122-.547-.469s.233-.46.552-.455c.359.006.718,0,1.077,0a1.541,1.541,0,0,1,1.546,1.806,12.484,12.484,0,0,1-.3,1.372,1.522,1.522,0,0,1-1.5,1.135c-.539,0-1.077,0-1.616,0-.321,0-.519-.162-.514-.474s.2-.452.512-.451c.521,0,1.043,0,1.564,0A.669.669,0,0,0,55.084,81.395Z" transform="translate(-39.264 -59.139)" fill="#979797"/>
    <path id="パス_23" data-name="パス 23" d="M37.149,47.737c-.411-.037-.981.1-.922-.527.069-.731.732-.361,1.158-.5.127-.33.088-.882.7-.766.423.081.42.429.33.8h1.864c.392,0,.608.178.608.5s-.209.487-.611.486H38.186l-.639,2.811c-.068.3-.13.6-.207.9s-.261.471-.579.4a.477.477,0,0,1-.377-.644c.235-1.065.479-2.128.719-3.193C37.122,47.922,37.132,47.84,37.149,47.737Z" transform="translate(-27.191 -34.478)" fill="#979797"/>
    <path id="パス_24" data-name="パス 24" d="M47.039,64.154a2.069,2.069,0,0,1-1.62-.447,2.242,2.242,0,0,1-.549-.664.637.637,0,0,1,.113-.593c.124-.1.536-.1.595,0,.471.77,1.2.731,1.94.7.577-.021.821.14.83.49s-.252.513-.838.513Z" transform="translate(-33.659 -46.821)" fill="#979797"/>
    <path id="パス_25" data-name="パス 25" d="M48.376,55.517c.315,0,.631-.007.946,0a.447.447,0,0,1,.476.463.453.453,0,0,1-.462.508q-.957.031-1.917,0a.46.46,0,0,1-.465-.509.445.445,0,0,1,.476-.464C47.745,55.51,48.06,55.517,48.376,55.517Z" transform="translate(-35.245 -41.672)" fill="#979797"/>
    <path id="パス_26" data-name="パス 26" d="M76.611,48.4a.5.5,0,1,1,.045-1,.493.493,0,0,1,.5.51A.511.511,0,0,1,76.611,48.4Z" transform="translate(-57.124 -35.578)" fill="#979797"/>
    <path id="パス_27" data-name="パス 27" d="M82.227,47.389a.514.514,0,0,1,.523.513.481.481,0,0,1-.516.488A.491.491,0,0,1,81.7,47.9.512.512,0,0,1,82.227,47.389Z" transform="translate(-61.325 -35.573)" fill="#979797"/>
  </g>
  <g id="グループ_3605" data-name="グループ 3605" transform="translate(34.91 5.369)">
    <path id="パス_28" data-name="パス 28" d="M325.411,31.075c-1.735.132-3.345.234-4.95.382-1.514.139-2.386-.394-2.394-1.544a1.393,1.393,0,0,1,1.359-1.563c3.808-.307,7.619-.578,11.43-.85a1.468,1.468,0,0,1,1.774,1.493c.061,1.1-.643,1.564-1.644,1.666-.734.074-1.47.124-2.241.187l-.589,2.64c1.222,0,2.367,0,3.511,0,1.246.005,1.963.6,1.957,1.622-.006.968-.712,1.539-1.921,1.543-1.4,0-2.793,0-4.237,0-.328,1.474-.631,2.862-.946,4.248a5.54,5.54,0,0,1-5.393,4.485c-.907.038-1.816.027-2.724.018a1.459,1.459,0,0,1-1.6-1.524,1.514,1.514,0,0,1,1.6-1.631c1.066-.075,2.144-.035,3.2-.173a2.061,2.061,0,0,0,1.784-1.808c.242-1.148.5-2.294.786-3.616h-2.4c-1.486,0-2.973,0-4.459,0a1.469,1.469,0,0,1-1.681-1.516,1.5,1.5,0,0,1,1.662-1.64c2.2-.035,4.4-.011,6.605-.011h.971Z" transform="translate(-271.925 -26.042)" fill="#979797"/>
    <path id="パス_29" data-name="パス 29" d="M242.36,36.986c0,1.139.016,2.068,0,3a5.094,5.094,0,0,1-4.117,5.184,17.713,17.713,0,0,1-6.05.014c-3.119-.591-4.618-3.646-4.022-7.182a17.437,17.437,0,0,1,2.951-6.48c.147-.229.284-.464.527-.861-.774,0-1.415.009-2.057,0a1.571,1.571,0,0,1-.062-3.141c1.678-.057,3.361-.066,5.038,0a1.6,1.6,0,0,1,1.192,2.618c-1.11,1.8-2.384,3.528-3.308,5.423a13.939,13.939,0,0,0-1.156,4.312,2.14,2.14,0,0,0,2.3,2.344q1.61.036,3.222,0a2.328,2.328,0,0,0,2.378-2.419c.014-1.955-.064-3.914.047-5.863a2.2,2.2,0,0,1,.905-1.635A2.244,2.244,0,0,1,242,32.6c1.249.845,2.385,1.859,3.554,2.821a1.6,1.6,0,1,1-2.046,2.445C243.191,37.609,242.858,37.369,242.36,36.986Z" transform="translate(-206.181 -26.025)" fill="#979797"/>
    <path id="パス_30" data-name="パス 30" d="M467.244,34.074h-5.963a26.835,26.835,0,0,1-1.715,3.235,4.758,4.758,0,0,1-3.734,1.824,1.594,1.594,0,1,1-.367-3.166c1.743-.31,2.116-.754,2.448-2.772.349-2.122.565-2.309,2.708-2.31q4.169,0,8.338,0c1.412,0,2.1.824,1.8,2.173-.649,2.977-1.294,5.955-1.974,8.926a7.121,7.121,0,0,1-7.424,5.963c-.991.01-1.981-.007-2.972.006a1.538,1.538,0,0,1-1.758-1.546c-.074-.938.7-1.6,1.791-1.617s2.2.013,3.3-.023a3.72,3.72,0,0,0,3.556-2.365,9.825,9.825,0,0,0,.528-1.73C466.3,38.51,466.754,36.342,467.244,34.074Z" transform="translate(-375.739 -28.586)" fill="#979797"/>
    <path id="パス_31" data-name="パス 31" d="M400.191,51.813c-1.973,0-3.95.01-5.926,0-1.167-.008-1.841-.608-1.778-1.586s.657-1.386,1.6-1.384c2.253.006,4.506,0,6.737,0a1.871,1.871,0,0,0-1.832-2.455c-1.183-.035-2.368,0-3.552-.013-1.008-.007-1.768-.392-1.763-1.51s.752-1.483,1.778-1.466c1.156.019,2.313-.006,3.469.008a4.966,4.966,0,0,1,4.981,5.818,40.2,40.2,0,0,1-.975,4.419A4.9,4.9,0,0,1,398.1,57.3c-1.735.015-3.47,0-5.2,0-1.034,0-1.672-.52-1.654-1.528.017-.964.657-1.456,1.65-1.451,1.68.009,3.36.014,5.039,0A2.153,2.153,0,0,0,400.191,51.813Z" transform="translate(-328.653 -37.975)" fill="#979797"/>
    <path id="パス_32" data-name="パス 32" d="M143.624,27.509c-1.324-.118-3.161.322-2.971-1.7.222-2.354,2.358-1.164,3.731-1.6.408-1.062.283-2.842,2.254-2.467,1.363.259,1.354,1.382,1.063,2.576,2.051,0,4.028,0,6,0,1.264,0,1.959.573,1.959,1.6s-.672,1.569-1.97,1.568c-2.223,0-4.446,0-6.731,0-.7,3.07-1.379,6.062-2.06,9.055-.219.964-.419,1.932-.666,2.889s-.841,1.516-1.864,1.292a1.537,1.537,0,0,1-1.214-2.073c.758-3.431,1.544-6.857,2.316-10.285C143.535,28.1,143.568,27.841,143.624,27.509Z" transform="translate(-140.64 -21.688)" fill="#979797"/>
    <path id="パス_33" data-name="パス 33" d="M175.437,80.306a6.662,6.662,0,0,1-5.22-1.44,7.222,7.222,0,0,1-1.769-2.139,2.052,2.052,0,0,1,.365-1.912c.4-.331,1.727-.317,1.916-.007,1.518,2.48,3.852,2.353,6.252,2.267,1.86-.067,2.644.452,2.675,1.577s-.812,1.653-2.7,1.653Z" transform="translate(-161.429 -61.363)" fill="#979797"/>
    <path id="パス_34" data-name="パス 34" d="M179.73,52.518c1.016,0,2.032-.022,3.047.007a1.439,1.439,0,0,1,1.535,1.492,1.459,1.459,0,0,1-1.489,1.636q-3.086.1-6.176,0a1.481,1.481,0,0,1-1.5-1.639,1.436,1.436,0,0,1,1.535-1.494C177.7,52.5,178.714,52.517,179.73,52.518Z" transform="translate(-166.529 -44.812)" fill="#979797"/>
    <path id="パス_35" data-name="パス 35" d="M270.536,29.637a1.62,1.62,0,1,1,.144-3.231,1.587,1.587,0,0,1,1.61,1.642A1.648,1.648,0,0,1,270.536,29.637Z" transform="translate(-236.857 -25.223)" fill="#979797"/>
    <path id="パス_36" data-name="パス 36" d="M288.6,26.379a1.654,1.654,0,0,1,1.685,1.652,1.551,1.551,0,0,1-1.662,1.572,1.582,1.582,0,0,1-1.735-1.594A1.651,1.651,0,0,1,288.6,26.379Z" transform="translate(-250.358 -25.207)" fill="#979797"/>
  </g>
</svg>
