<svg xmlns="http://www.w3.org/2000/svg" width="196.886" height="30.486" viewBox="0 0 196.886 30.486">
  <g id="Group_5436" data-name="Group 5436" transform="translate(-221 -19.969)">
    <g id="logo" transform="translate(221 19.969)">
      <g id="Group_1" data-name="Group 1">
        <path id="Path_1" data-name="Path 1" d="M49.032,11.348H35.557v-.333q0-3.534,0-7.068A3.891,3.891,0,0,1,39.495.005q2.844-.009,5.688,0a3.858,3.858,0,0,1,3.862,3.78c.029,2.457.007,4.915.007,7.372C49.052,11.2,49.043,11.248,49.032,11.348ZM46,7.386c.006-.1.016-.177.016-.258,0-1.049,0-2.1,0-3.147a.859.859,0,0,0-.944-.937q-2.761,0-5.522,0a.869.869,0,0,0-.95.968q0,1.546,0,3.092c0,.1.009.193.013.282Z" transform="translate(-26.008 0)" fill="#979797"/>
        <path id="Path_2" data-name="Path 2" d="M32.066,75.035c-.58.044-1.118.078-1.655.128-.506.046-.8-.132-.8-.516a.466.466,0,0,1,.454-.523c1.273-.1,2.547-.193,3.821-.284a.491.491,0,0,1,.593.5c.02.366-.215.523-.55.557-.245.025-.491.041-.749.063l-.2.883c.408,0,.791,0,1.174,0,.416,0,.656.2.654.542,0,.324-.238.515-.642.516-.467,0-.933,0-1.416,0-.11.493-.211.957-.316,1.42a1.852,1.852,0,0,1-1.8,1.5c-.3.013-.607.009-.911.006a.488.488,0,0,1-.534-.51.506.506,0,0,1,.535-.545c.356-.025.716-.012,1.07-.058a.69.69,0,0,0,.6-.6c.081-.384.166-.767.262-1.209h-.8c-.5,0-.994,0-1.49,0a.491.491,0,0,1-.562-.507.5.5,0,0,1,.556-.548c.736-.012,1.472,0,2.208,0h.325Z" transform="translate(-21.064 -54.01)" fill="#979797"/>
        <path id="Path_3" data-name="Path 3" d="M68.186,50.91c0,.381.005.691,0,1a1.7,1.7,0,0,1-1.376,1.733,5.921,5.921,0,0,1-2.023,0,1.9,1.9,0,0,1-1.345-2.4,5.831,5.831,0,0,1,.987-2.166c.049-.077.1-.155.176-.288-.259,0-.473,0-.688,0a.525.525,0,0,1-.021-1.05c.561-.019,1.124-.022,1.684,0a.535.535,0,0,1,.4.875c-.371.6-.8,1.179-1.106,1.813a4.662,4.662,0,0,0-.386,1.441.715.715,0,0,0,.769.784q.538.012,1.077,0a.778.778,0,0,0,.795-.809c0-.654-.021-1.309.016-1.96a.734.734,0,0,1,.3-.546.751.751,0,0,1,.619.1c.418.282.8.622,1.188.943a.535.535,0,1,1-.684.817C68.464,51.118,68.353,51.038,68.186,50.91Z" transform="translate(-46.364 -34.912)" fill="#979797"/>
        <path id="Path_4" data-name="Path 4" d="M21.783,31.588H17.828V27.629h3.955Z" transform="translate(-13.041 -20.21)" fill="#172f66"/>
        <path id="Path_5" data-name="Path 5" d="M89.012,27.6H92.96v3.954H89.012Z" transform="translate(-65.11 -20.191)" fill="#e4021f"/>
        <path id="Path_6" data-name="Path 6" d="M110.739,80.987v3.961h-3.952V80.987Z" transform="translate(-78.112 -59.24)" fill="#e7391b"/>
        <path id="Path_7" data-name="Path 7" d="M53.438,98.782h3.944v3.953H53.438Z" transform="translate(-39.088 -72.256)" fill="#ed6b12"/>
        <path id="Path_8" data-name="Path 8" d="M3.975,84.945H.021V80.993H3.975Z" transform="translate(-0.015 -59.244)" fill="#427936"/>
        <path id="Path_9" data-name="Path 9" d="M.04,45.385H3.99v3.944H.04Z" transform="translate(-0.029 -33.198)" fill="#2ba63b"/>
        <path id="Path_10" data-name="Path 10" d="M106.783,45.375h3.949v3.954h-3.949Z" transform="translate(-78.109 -33.191)" fill="#0e973d"/>
        <path id="Path_11" data-name="Path 11" d="M.007,67.17V63.221H3.965V67.17Z" transform="translate(-0.005 -46.244)" fill="#0273b8"/>
        <path id="Path_12" data-name="Path 12" d="M110.756,63.22v3.946H106.8V63.22Z" transform="translate(-78.123 -46.244)" fill="#c40d28"/>
        <path id="Path_13" data-name="Path 13" d="M21.839,102.751H17.9V98.8h3.936Z" transform="translate(-13.095 -72.271)" fill="#f4a10d"/>
        <path id="Path_14" data-name="Path 14" d="M39.569,102.752H35.62V98.8h3.949Z" transform="translate(-26.055 -72.267)" fill="#db007b"/>
        <path id="Path_15" data-name="Path 15" d="M92.988,102.759H89.033V98.813h3.955Z" transform="translate(-65.125 -72.279)" fill="#fbbd02"/>
        <path id="Path_16" data-name="Path 16" d="M71.217,98.808h3.941v3.939H71.217Z" transform="translate(-52.093 -72.275)" fill="#970931"/>
        <path id="Path_17" data-name="Path 17" d="M76.247,75.958H74.254a9,9,0,0,1-.573,1.082,1.59,1.59,0,0,1-1.248.61.533.533,0,1,1-.122-1.058c.583-.1.707-.252.818-.927.117-.709.189-.772.905-.772q1.394,0,2.787,0c.472,0,.7.275.6.726-.217,1-.433,1.991-.66,2.984A2.38,2.38,0,0,1,74.282,80.6c-.331,0-.662,0-.994,0a.514.514,0,0,1-.588-.517c-.025-.314.233-.536.6-.541s.736,0,1.1-.008a1.243,1.243,0,0,0,1.189-.791,3.283,3.283,0,0,0,.176-.578C75.93,77.442,76.083,76.717,76.247,75.958Z" transform="translate(-52.536 -54.781)" fill="#979797"/>
        <path id="Path_18" data-name="Path 18" d="M106.781,31.6v-3.93a3.909,3.909,0,0,1,3.953,3.93Z" transform="translate(-78.107 -20.232)" fill="#d7a611"/>
        <path id="Path_19" data-name="Path 19" d="M0,31.48c-.122-2,2.2-4.312,3.949-3.871V31.48Z" transform="translate(0 -20.155)" fill="#044b88"/>
        <path id="Path_20" data-name="Path 20" d="M106.777,102.772v-3.95h3.929A3.906,3.906,0,0,1,106.777,102.772Z" transform="translate(-78.104 -72.286)" fill="#02a7d8"/>
        <path id="Path_21" data-name="Path 21" d="M.075,98.806H4.007q0,1.967,0,3.928A3.889,3.889,0,0,1,.075,98.806Z" transform="translate(-0.053 -72.274)" fill="#d39116"/>
        <path id="Path_22" data-name="Path 22" d="M55.3,81.6c-.66,0-1.32,0-1.981,0-.39,0-.615-.2-.595-.53s.219-.463.535-.463c.753,0,1.506,0,2.252,0a.625.625,0,0,0-.612-.821c-.4-.012-.792,0-1.187,0-.337,0-.591-.131-.589-.5s.251-.5.594-.49c.387.006.773,0,1.16,0a1.66,1.66,0,0,1,1.665,1.945,13.446,13.446,0,0,1-.326,1.477A1.639,1.639,0,0,1,54.6,83.43c-.58.005-1.16,0-1.74,0-.346,0-.559-.174-.553-.511s.22-.487.552-.485c.561,0,1.123,0,1.684,0A.72.72,0,0,0,55.3,81.6Z" transform="translate(-38.261 -57.627)" fill="#979797"/>
        <path id="Path_23" data-name="Path 23" d="M37.221,47.876c-.443-.039-1.056.108-.993-.567.074-.787.788-.389,1.247-.537.137-.355.095-.95.754-.825.455.087.452.462.355.861h2.007c.422,0,.655.191.655.536s-.225.524-.658.524h-2.25L37.649,50.9c-.073.322-.14.646-.223.966s-.281.507-.623.432A.514.514,0,0,1,36.4,51.6c.253-1.147.516-2.292.774-3.438C37.191,48.076,37.2,47.987,37.221,47.876Z" transform="translate(-26.496 -33.597)" fill="#979797"/>
        <path id="Path_24" data-name="Path 24" d="M47.208,64.291a2.228,2.228,0,0,1-1.745-.481,2.414,2.414,0,0,1-.591-.715.686.686,0,0,1,.122-.639c.134-.111.577-.106.641,0,.507.829,1.288.787,2.09.758.622-.022.884.151.894.527s-.271.553-.9.553Z" transform="translate(-32.799 -45.625)" fill="#979797"/>
        <path id="Path_25" data-name="Path 25" d="M48.485,55.517c.339,0,.679-.007,1.019,0a.481.481,0,0,1,.513.5.488.488,0,0,1-.5.547q-1.031.033-2.064,0a.5.5,0,0,1-.5-.548.48.48,0,0,1,.513-.5C47.806,55.51,48.145,55.517,48.485,55.517Z" transform="translate(-34.345 -40.607)" fill="#979797"/>
        <path id="Path_26" data-name="Path 26" d="M76.65,48.478A.542.542,0,1,1,76.7,47.4a.531.531,0,0,1,.538.549A.551.551,0,0,1,76.65,48.478Z" transform="translate(-55.664 -34.669)" fill="#979797"/>
        <path id="Path_27" data-name="Path 27" d="M82.268,47.389a.553.553,0,0,1,.564.552.519.519,0,0,1-.556.526.529.529,0,0,1-.58-.533A.552.552,0,0,1,82.268,47.389Z" transform="translate(-59.758 -34.664)" fill="#979797"/>
      </g>
      <g id="Group_3605" data-name="Group 3605" transform="translate(37.766 5.824)">
        <path id="Path_28" data-name="Path 28" d="M326.146,31.344c-1.865.142-3.6.251-5.322.41-1.628.15-2.566-.423-2.574-1.66a1.5,1.5,0,0,1,1.461-1.681c4.094-.33,8.192-.621,12.289-.914a1.578,1.578,0,0,1,1.907,1.6c.065,1.178-.692,1.682-1.768,1.791-.789.08-1.581.133-2.409.2l-.633,2.839c1.314,0,2.545,0,3.775,0,1.34.006,2.111.65,2.1,1.744-.006,1.041-.766,1.655-2.066,1.659-1.5,0-3,0-4.556,0-.353,1.585-.679,3.078-1.017,4.568a5.957,5.957,0,0,1-5.8,4.822c-.975.041-1.953.029-2.929.019a1.569,1.569,0,0,1-1.719-1.639,1.628,1.628,0,0,1,1.719-1.753c1.146-.081,2.305-.038,3.44-.186a2.215,2.215,0,0,0,1.918-1.944c.261-1.235.535-2.466.845-3.888h-2.58c-1.6,0-3.2,0-4.794,0a1.579,1.579,0,0,1-1.807-1.629,1.609,1.609,0,0,1,1.786-1.763c2.367-.038,4.734-.012,7.1-.012h1.044Z" transform="translate(-268.641 -25.933)" fill="#979797"/>
        <path id="Path_29" data-name="Path 29" d="M243.439,37.7c0,1.224.017,2.223,0,3.221A5.476,5.476,0,0,1,239.01,46.5a19.043,19.043,0,0,1-6.505.016c-3.353-.636-4.965-3.92-4.324-7.722a18.747,18.747,0,0,1,3.173-6.967c.158-.246.306-.5.566-.925-.832,0-1.522.009-2.211,0a1.689,1.689,0,0,1-.067-3.378c1.8-.061,3.614-.071,5.417,0,1.454.057,2.086,1.506,1.281,2.815-1.194,1.941-2.563,3.793-3.557,5.83A14.988,14.988,0,0,0,231.54,40.8a2.3,2.3,0,0,0,2.474,2.521q1.731.038,3.464,0a2.5,2.5,0,0,0,2.556-2.6c.015-2.1-.068-4.208.051-6.3a2.361,2.361,0,0,1,.973-1.758,2.412,2.412,0,0,1,1.991.332c1.343.908,2.564,2,3.821,3.033a1.722,1.722,0,1,1-2.2,2.629C244.332,38.371,243.974,38.113,243.439,37.7Z" transform="translate(-204.541 -25.916)" fill="#979797"/>
        <path id="Path_30" data-name="Path 30" d="M468.238,34.313h-6.411a28.847,28.847,0,0,1-1.844,3.478,5.115,5.115,0,0,1-4.015,1.962,1.714,1.714,0,1,1-.394-3.4c1.874-.334,2.275-.811,2.632-2.981.375-2.282.607-2.482,2.912-2.484q4.482,0,8.964,0c1.518,0,2.256.886,1.939,2.337-.7,3.2-1.392,6.4-2.122,9.6a7.656,7.656,0,0,1-7.981,6.411c-1.065.011-2.13-.008-3.195.007a1.654,1.654,0,0,1-1.89-1.662c-.08-1.009.75-1.724,1.926-1.739s2.367.014,3.55-.025a4,4,0,0,0,3.823-2.543,10.558,10.558,0,0,0,.568-1.86C467.22,39.084,467.712,36.752,468.238,34.313Z" transform="translate(-369.859 -28.413)" fill="#979797"/>
        <path id="Path_31" data-name="Path 31" d="M400.863,52.446c-2.121,0-4.247.011-6.371,0-1.255-.009-1.979-.654-1.912-1.705s.706-1.491,1.72-1.488c2.422.006,4.845,0,7.243,0a2.011,2.011,0,0,0-1.969-2.639c-1.272-.038-2.546-.005-3.819-.015-1.084-.008-1.9-.422-1.895-1.623s.808-1.595,1.911-1.576c1.243.021,2.487-.007,3.73.008a5.339,5.339,0,0,1,5.355,6.255,43.223,43.223,0,0,1-1.048,4.751,5.27,5.27,0,0,1-5.19,3.931c-1.865.017-3.73,0-5.6.005-1.112,0-1.8-.56-1.779-1.643.019-1.036.707-1.566,1.774-1.56,1.806.009,3.612.015,5.418,0C400.01,55.129,400.9,54.157,400.863,52.446Z" transform="translate(-323.95 -37.567)" fill="#979797"/>
        <path id="Path_32" data-name="Path 32" d="M143.848,27.947c-1.423-.127-3.4.346-3.194-1.825.238-2.531,2.535-1.251,4.011-1.726.439-1.142.3-3.056,2.424-2.653,1.465.279,1.455,1.486,1.143,2.77,2.205,0,4.33,0,6.455,0,1.358,0,2.106.616,2.107,1.723s-.722,1.687-2.118,1.686c-2.39,0-4.78,0-7.236,0-.751,3.3-1.482,6.518-2.215,9.735-.236,1.036-.451,2.077-.716,3.106s-.9,1.63-2,1.389a1.652,1.652,0,0,1-1.305-2.229c.815-3.689,1.66-7.372,2.49-11.058C143.753,28.587,143.788,28.3,143.848,27.947Z" transform="translate(-140.64 -21.688)" fill="#979797"/>
        <path id="Path_33" data-name="Path 33" d="M175.969,80.737c-1.768.092-3.911.048-5.612-1.548a7.765,7.765,0,0,1-1.9-2.3,2.206,2.206,0,0,1,.393-2.056c.43-.356,1.857-.341,2.06-.008,1.632,2.666,4.141,2.53,6.721,2.438,2-.072,2.843.486,2.876,1.7s-.873,1.778-2.9,1.778Z" transform="translate(-160.909 -60.371)" fill="#979797"/>
        <path id="Path_34" data-name="Path 34" d="M180.074,52.519c1.092,0,2.185-.024,3.276.008a1.547,1.547,0,0,1,1.65,1.6,1.569,1.569,0,0,1-1.6,1.759q-3.317.107-6.64,0a1.593,1.593,0,0,1-1.613-1.762,1.544,1.544,0,0,1,1.65-1.606C177.89,52.5,178.982,52.518,180.074,52.519Z" transform="translate(-165.881 -44.233)" fill="#979797"/>
        <path id="Path_35" data-name="Path 35" d="M270.66,29.88a1.742,1.742,0,1,1,.155-3.474,1.707,1.707,0,0,1,1.731,1.765A1.772,1.772,0,0,1,270.66,29.88Z" transform="translate(-234.451 -25.135)" fill="#979797"/>
        <path id="Path_36" data-name="Path 36" d="M288.729,26.379a1.778,1.778,0,0,1,1.812,1.777,1.667,1.667,0,0,1-1.787,1.69,1.7,1.7,0,0,1-1.865-1.714A1.775,1.775,0,0,1,288.729,26.379Z" transform="translate(-247.614 -25.119)" fill="#979797"/>
      </g>
    </g>
    <path id="Path_9429" data-name="Path 9429" d="M2.543-2.885.82-2.857q-.137,0-.137-.15v-.841q0-.157.137-.157l1.723.027H6.3v-.656H3.985l-1.9.027q-.157,0-.157-.137v-.772q0-.109.034-.13a.214.214,0,0,1,.123-.021l1.9.027H6.3v-.622h-1.8L2.55-6.234q-.123,0-.15-.034a.276.276,0,0,1-.021-.137l.027-.725v-.752l-.027-.731a.232.232,0,0,1,.027-.144.324.324,0,0,1,.144-.021l1.941.027H6.3v-.615H2.769L.991-9.338q-.109,0-.13-.027a.235.235,0,0,1-.021-.123v-.889q0-.109.027-.13a.235.235,0,0,1,.123-.021l1.777.027H6.3a7.548,7.548,0,0,0-.1-1.285q.943.021,1.456.082.226.027.226.15a.639.639,0,0,1-.082.267,2.436,2.436,0,0,0-.089.786h3.555l1.777-.027q.116,0,.137.027a.235.235,0,0,1,.021.123v.889q0,.109-.027.13a.255.255,0,0,1-.13.021l-1.777-.027H7.711v.615H9.57l1.962-.027q.116,0,.137.034a.255.255,0,0,1,.021.13l-.027.731v.752l.027.725a.249.249,0,0,1-.027.15.255.255,0,0,1-.13.021L9.57-6.262H7.711v.622H9.98l1.928-.027q.116,0,.137.027a.235.235,0,0,1,.021.123L12.038-4.3v.321l1.217-.027q.144,0,.144.157v.841q0,.15-.144.15l-.362-.007q-.39-.014-.854-.021v.711l.027,1.292a.222.222,0,0,1-.024.133.222.222,0,0,1-.133.024H10.835q-.109,0-.137-.034a.214.214,0,0,1-.021-.123v-.308H7.725q.014.253.014.7A1.341,1.341,0,0,1,7.232.759a4.667,4.667,0,0,1-1.969.308A.715.715,0,0,1,4.86,1,1.191,1.191,0,0,1,4.7.663,4.513,4.513,0,0,0,4.156-.4a9.79,9.79,0,0,0,1.066.062q.144,0,.349-.007a1.017,1.017,0,0,0,.608-.13A.5.5,0,0,0,6.3-.868v-.321H4l-1.914.027q-.109,0-.137-.034a.276.276,0,0,1-.021-.137v-.752q0-.123.034-.15a.214.214,0,0,1,.123-.021L4-2.229H6.3v-.656Zm8.135-1.75H7.711v.656h2.967ZM7.711-2.229h2.967v-.656H7.711ZM10.3-7.157v-.7H7.711v.7Zm-6.535,0H6.3v-.7H3.767Zm21.5,4.4H23.5A5.88,5.88,0,0,1,20.255.916a1.324,1.324,0,0,1-.335.109q-.116,0-.308-.321a2.841,2.841,0,0,0-.656-.8,4.636,4.636,0,0,0,3.117-2.659h-.232L20.1-2.728a.249.249,0,0,1-.15-.027.235.235,0,0,1-.021-.123v-.916q0-.116.034-.144a.276.276,0,0,1,.137-.021l1.736.027h.526a4.941,4.941,0,0,0,.055-.547q.007-.089.007-.191,0-.144-.014-.52a10.371,10.371,0,0,1-1.08.362,1.131,1.131,0,0,1-.226.041q-.123,0-.239-.294a4.264,4.264,0,0,0-.376-.69,8.447,8.447,0,0,1-.615,1.4q-.178.294-.239.294a.89.89,0,0,1-.253-.109,3.464,3.464,0,0,0-.827-.335,8.162,8.162,0,0,0,.718-1.4h-.8v3.644l.041,1.764a2.113,2.113,0,0,1-.1.745,1.151,1.151,0,0,1-.349.458,3.081,3.081,0,0,1-1.654.28A.658.658,0,0,1,16.023.9,1.068,1.068,0,0,1,15.9.533a2.529,2.529,0,0,0-.383-.9,8.334,8.334,0,0,0,1.148.075.567.567,0,0,0,.41-.109.44.44,0,0,0,.082-.3V-3.158q0-.868.014-1.306a9.6,9.6,0,0,1-1.641,2.885q-.2.226-.294.226t-.246-.267a2.594,2.594,0,0,0-.574-.745A9.482,9.482,0,0,0,16.666-5.92h-.15l-1.654.027q-.109,0-.13-.027a.324.324,0,0,1-.021-.144v-.923a.232.232,0,0,1,.027-.144.235.235,0,0,1,.123-.021l1.654.027h.766a16.374,16.374,0,0,0-1.579-1.3q-.1-.075-.1-.116t.109-.137l.574-.492a.305.305,0,0,1,.171-.1.279.279,0,0,1,.137.062l.841.6a10.548,10.548,0,0,0,1.08-1.278H16.728l-1.559.027q-.109,0-.13-.027a.235.235,0,0,1-.021-.123V-11.02q0-.109.027-.13a.235.235,0,0,1,.123-.021l1.559.027h2.42a.626.626,0,0,0,.28-.055.688.688,0,0,1,.2-.055q.157,0,.533.4t.376.6q0,.137-.2.26a2.5,2.5,0,0,0-.39.424,12.249,12.249,0,0,1-1.565,1.757q.034.041.109.116.157.164.239.239a.187.187,0,0,1,.068.109q0,.055-.123.157l-.089.068h.882a.592.592,0,0,0,.267-.055.436.436,0,0,1,.185-.041q.15,0,.492.321.4.369.4.574a.347.347,0,0,1-.137.253.294.294,0,0,0-.1.1,8.041,8.041,0,0,0,2.352-.909A6.81,6.81,0,0,1,21.841-8.23l-.588.67q-.164.185-.267.185t-.239-.185a2.885,2.885,0,0,0-.8-.643A8.144,8.144,0,0,0,22-10.9a3.456,3.456,0,0,0,.308-.909q.431.075,1.285.28.2.041.2.178a.265.265,0,0,1-.137.212.975.975,0,0,0-.28.39q-.021.048-.109.226a1.421,1.421,0,0,1-.089.185H25.56l1.531-.027q.109,0,.13.027a.235.235,0,0,1,.021.123v.909q0,.116-.027.137a.235.235,0,0,1-.123.021l-.273-.007q-.273-.014-.595-.021a6.362,6.362,0,0,1-1.292,2.27,6.879,6.879,0,0,0,2.7.923,3.673,3.673,0,0,0-.472.978q-.15.376-.28.376a1.555,1.555,0,0,1-.308-.062,9.009,9.009,0,0,1-2.632-1.333,7.381,7.381,0,0,1-1.23.711q.431.034,1.06.116.253.041.253.164a.51.51,0,0,1-.109.28,1.372,1.372,0,0,0-.13.574l-.041.253H24.78l1.777-.027q.164,0,.164.178l-.055.854q-.075,1.278-.157,1.812a3.556,3.556,0,0,1-.3,1.046,1.567,1.567,0,0,1-1.572.95q-.506,0-.8-.014t-.362-.1a1.148,1.148,0,0,1-.123-.4A4.285,4.285,0,0,0,23.044-.5a7.438,7.438,0,0,0,1.2.123.709.709,0,0,0,.67-.294A6.266,6.266,0,0,0,25.266-2.755Zm-.458-6.426H22.736A5.612,5.612,0,0,0,23.9-7.67,4.4,4.4,0,0,0,24.808-9.181Zm6.631,2.741h7.335l1.935-.027a.157.157,0,0,1,.178.178L40.858-5.2A28.076,28.076,0,0,1,40.5-.513a1.727,1.727,0,0,1-.718,1.2,2.876,2.876,0,0,1-1.511.321q-.417,0-.684-.014A.645.645,0,0,1,37.27.93.367.367,0,0,1,37.208.7a3.358,3.358,0,0,0-.2-.8h-.69q-.15,0-.15-.137V-.684H33.763V.048a.205.205,0,0,1-.024.126A.222.222,0,0,1,33.605.2H32.587q-.116,0-.137-.027A.235.235,0,0,1,32.43.048l.034-2.078v-.854L32.43-4.156a.249.249,0,0,1,.027-.15.255.255,0,0,1,.13-.021l1.47.027h1.8l1.47-.027q.116,0,.137.034a.276.276,0,0,1,.021.137l-.034,1.032v.916l.014,1.859q.294.027.718.027a.8.8,0,0,0,.882-.711,24.1,24.1,0,0,0,.294-4.177H31.384q-.089,1.2-.226,2.044A10.682,10.682,0,0,1,29.8.547Q29.634.8,29.579.8T29.313.574A3.9,3.9,0,0,0,28.4-.232,8.725,8.725,0,0,0,29.743-3.7a27.469,27.469,0,0,0,.28-4.56L30-11.033q0-.109.027-.13a.324.324,0,0,1,.144-.021l1.941.027h5.729l1.928-.027q.116,0,.137.027a.235.235,0,0,1,.021.123l-.027,1.066v1.3l.027,1.053a.232.232,0,0,1-.027.144.255.255,0,0,1-.13.021l-1.928-.027H31.452Zm7.014-2.215V-9.939h-7v1.285Zm-4.689,5.5V-1.8h2.406V-3.151Z" transform="translate(377 43)" fill="#333"/>
  </g>
</svg>
