<svg xmlns="http://www.w3.org/2000/svg" width="240" height="52.262" viewBox="0 0 240 52.262">
  <g id="Group_3613" data-name="Group 3613" transform="translate(0 0)">
    <g id="Group_1" data-name="Group 1" transform="translate(0 0)">
      <path id="Path_1" data-name="Path 1" d="M58.658,19.453h-23.1v-.571q0-6.058,0-12.117A6.671,6.671,0,0,1,42.308.009q4.876-.015,9.751,0A6.613,6.613,0,0,1,58.68,6.49c.05,4.212.012,8.425.012,12.637C58.692,19.2,58.676,19.282,58.658,19.453Zm-5.2-6.791c.011-.166.027-.3.027-.442,0-1.8,0-3.6,0-5.4a1.472,1.472,0,0,0-1.619-1.607q-4.733,0-9.466,0a1.49,1.49,0,0,0-1.628,1.66q0,2.65,0,5.3c0,.165.015.33.022.483Z" transform="translate(-19.188 0)" fill="#979797"/>
      <path id="Path_2" data-name="Path 2" d="M34.4,75.89c-.994.076-1.916.134-2.837.219-.867.08-1.367-.226-1.372-.885a.8.8,0,0,1,.779-.9c2.182-.176,4.366-.331,6.55-.487a.841.841,0,0,1,1.016.856c.035.627-.369.9-.942.954-.42.043-.842.071-1.284.107l-.337,1.513c.7,0,1.356,0,2.012,0,.714,0,1.125.346,1.121.929,0,.555-.408.882-1.1.885-.8,0-1.6,0-2.428,0-.188.845-.362,1.641-.542,2.435a3.175,3.175,0,0,1-3.091,2.57c-.519.022-1.041.016-1.561.01a.836.836,0,0,1-.916-.874.868.868,0,0,1,.917-.934c.61-.043,1.228-.02,1.833-.1a1.182,1.182,0,0,0,1.022-1.036c.139-.658.285-1.315.45-2.072H32.315c-.852,0-1.7,0-2.555,0a.842.842,0,0,1-.963-.869.858.858,0,0,1,.952-.94c1.261-.02,2.524-.006,3.785-.006h.557Z" transform="translate(-15.54 -39.848)" fill="#979797"/>
      <path id="Path_3" data-name="Path 3" d="M71.615,53.182c0,.652.009,1.185,0,1.717a2.919,2.919,0,0,1-2.359,2.971,10.151,10.151,0,0,1-3.467.008c-1.787-.339-2.646-2.089-2.3-4.116a10,10,0,0,1,1.691-3.713c.084-.131.163-.266.3-.493-.444,0-.811.005-1.179,0a.9.9,0,0,1-.035-1.8c.962-.033,1.926-.038,2.887,0a.917.917,0,0,1,.683,1.5c-.637,1.034-1.366,2.022-1.9,3.108a7.992,7.992,0,0,0-.662,2.471,1.226,1.226,0,0,0,1.319,1.344q.922.021,1.846,0A1.334,1.334,0,0,0,69.8,54.791c.008-1.12-.037-2.243.027-3.36a1.259,1.259,0,0,1,.518-.937,1.288,1.288,0,0,1,1.062.177c.716.484,1.367,1.066,2.036,1.617a.918.918,0,1,1-1.172,1.4C72.091,53.539,71.9,53.4,71.615,53.182Z" transform="translate(-34.207 -25.757)" fill="#979797"/>
      <path id="Path_4" data-name="Path 4" d="M24.608,34.415h-6.78V27.629h6.78Z" transform="translate(-9.621 -14.911)" fill="#172f66"/>
      <path id="Path_5" data-name="Path 5" d="M89.012,27.6H95.78V34.38H89.012Z" transform="translate(-48.037 -14.897)" fill="#e4021f"/>
      <path id="Path_6" data-name="Path 6" d="M113.562,80.987v6.79h-6.775v-6.79Z" transform="translate(-57.63 -43.706)" fill="#e7391b"/>
      <path id="Path_7" data-name="Path 7" d="M53.438,98.782H60.2v6.777h-6.76Z" transform="translate(-28.839 -53.31)" fill="#ed6b12"/>
      <path id="Path_8" data-name="Path 8" d="M6.8,87.767H.021V80.993H6.8Z" transform="translate(-0.011 -43.709)" fill="#427936"/>
      <path id="Path_9" data-name="Path 9" d="M.04,45.385H6.811v6.762H.04Z" transform="translate(-0.021 -24.493)" fill="#2ba63b"/>
      <path id="Path_10" data-name="Path 10" d="M106.783,45.375h6.77v6.778h-6.77Z" transform="translate(-57.627 -24.488)" fill="#0e973d"/>
      <path id="Path_11" data-name="Path 11" d="M.007,69.99V63.221H6.792V69.99Z" transform="translate(-0.004 -34.118)" fill="#0273b8"/>
      <path id="Path_12" data-name="Path 12" d="M113.58,63.22v6.765H106.8V63.22Z" transform="translate(-57.638 -34.118)" fill="#c40d28"/>
      <path id="Path_13" data-name="Path 13" d="M24.65,105.573H17.9V98.8H24.65Z" transform="translate(-9.662 -53.32)" fill="#f4a10d"/>
      <path id="Path_14" data-name="Path 14" d="M42.39,105.578H35.62V98.8h6.77Z" transform="translate(-19.223 -53.318)" fill="#db007b"/>
      <path id="Path_15" data-name="Path 15" d="M95.814,105.578H89.033V98.813h6.781Z" transform="translate(-48.048 -53.326)" fill="#fbbd02"/>
      <path id="Path_16" data-name="Path 16" d="M71.217,98.808h6.755v6.753H71.217Z" transform="translate(-38.434 -53.324)" fill="#970931"/>
      <path id="Path_17" data-name="Path 17" d="M79.408,76.72H75.991a15.43,15.43,0,0,1-.983,1.854,2.726,2.726,0,0,1-2.14,1.045.913.913,0,1,1-.21-1.814c1-.178,1.213-.432,1.4-1.589.2-1.216.324-1.323,1.552-1.324q2.389,0,4.778,0c.809,0,1.2.472,1.034,1.245-.372,1.706-.742,3.413-1.131,5.115a4.08,4.08,0,0,1-4.254,3.417c-.568.006-1.136,0-1.7,0a.881.881,0,0,1-1.007-.886c-.043-.538.4-.919,1.026-.927s1.262.007,1.892-.013a2.132,2.132,0,0,0,2.038-1.356,5.629,5.629,0,0,0,.3-.991C78.864,79.263,79.127,78.02,79.408,76.72Z" transform="translate(-38.76 -40.417)" fill="#979797"/>
      <path id="Path_18" data-name="Path 18" d="M106.781,34.411V27.673a6.7,6.7,0,0,1,6.777,6.738Z" transform="translate(-57.626 -14.927)" fill="#d7a611"/>
      <path id="Path_19" data-name="Path 19" d="M.008,34.285c-.21-3.432,3.77-7.392,6.77-6.637v6.637Z" transform="translate(0 -14.87)" fill="#044b88"/>
      <path id="Path_20" data-name="Path 20" d="M106.777,105.593V98.822h6.735C113.813,101.764,111.009,105.616,106.777,105.593Z" transform="translate(-57.624 -53.331)" fill="#02a7d8"/>
      <path id="Path_21" data-name="Path 21" d="M.077,98.806H6.818q0,3.372,0,6.734A6.667,6.667,0,0,1,.077,98.806Z" transform="translate(-0.039 -53.323)" fill="#d39116"/>
      <path id="Path_22" data-name="Path 22" d="M57.434,83.605c-1.131,0-2.263.006-3.4,0-.669,0-1.055-.348-1.019-.909s.376-.795.917-.793c1.291,0,2.582,0,3.86,0a1.072,1.072,0,0,0-1.05-1.407c-.678-.02-1.357,0-2.036-.007-.577,0-1.013-.225-1.01-.865s.431-.85,1.019-.84c.663.011,1.326,0,1.989,0a2.846,2.846,0,0,1,2.854,3.334A23.051,23.051,0,0,1,59,84.654a2.81,2.81,0,0,1-2.767,2.1c-.994.009-1.989,0-2.982,0-.592,0-.958-.3-.948-.876.01-.552.377-.835.946-.832.963.005,1.925.008,2.888,0A1.234,1.234,0,0,0,57.434,83.605Z" transform="translate(-28.228 -42.516)" fill="#979797"/>
      <path id="Path_23" data-name="Path 23" d="M37.933,49.266c-.759-.068-1.811.185-1.7-.973.127-1.349,1.352-.667,2.138-.92.234-.609.162-1.629,1.292-1.414.781.149.776.792.609,1.477,1.176,0,2.308,0,3.441,0,.724,0,1.122.328,1.123.918s-.385.9-1.129.9c-1.274,0-2.547,0-3.857,0l-1.18,5.189c-.126.552-.24,1.107-.382,1.655s-.482.869-1.068.74a.88.88,0,0,1-.7-1.188c.435-1.967.885-3.929,1.328-5.894C37.883,49.608,37.9,49.456,37.933,49.266Z" transform="translate(-19.548 -24.787)" fill="#979797"/>
      <path id="Path_24" data-name="Path 24" d="M48.9,65.66a3.819,3.819,0,0,1-2.991-.825A4.139,4.139,0,0,1,44.9,63.609a1.176,1.176,0,0,1,.209-1.1c.229-.19.99-.182,1.1,0,.87,1.421,2.207,1.349,3.582,1.3,1.066-.038,1.515.259,1.533.9s-.465.947-1.547.947Z" transform="translate(-24.198 -33.661)" fill="#979797"/>
      <path id="Path_25" data-name="Path 25" d="M49.579,55.519c.582,0,1.164-.012,1.746,0a.825.825,0,0,1,.88.855.837.837,0,0,1-.853.938q-1.768.057-3.539,0a.848.848,0,0,1-.859-.939.822.822,0,0,1,.879-.856C48.415,55.507,49,55.519,49.579,55.519Z" transform="translate(-25.339 -29.959)" fill="#979797"/>
      <path id="Path_26" data-name="Path 26" d="M77.044,49.251a.928.928,0,1,1,.082-1.851.91.91,0,0,1,.923.941A.944.944,0,0,1,77.044,49.251Z" transform="translate(-41.068 -25.578)" fill="#979797"/>
      <path id="Path_27" data-name="Path 27" d="M82.678,47.389a.948.948,0,0,1,.966.947.889.889,0,0,1-.952.9.907.907,0,0,1-.994-.913A.946.946,0,0,1,82.678,47.389Z" transform="translate(-44.088 -25.574)" fill="#979797"/>
    </g>
    <g id="Group_3605" data-name="Group 3605">
      <path id="Path_28" data-name="Path 28" d="M333.656,34.1c-3.2.243-6.164.43-9.123.7-2.79.257-4.4-.725-4.412-2.845a2.568,2.568,0,0,1,2.5-2.882c7.019-.566,14.043-1.065,21.067-1.567,1.947-.139,3.161.794,3.27,2.751.112,2.019-1.186,2.883-3.031,3.07-1.352.137-2.71.228-4.13.345-.357,1.6-.7,3.117-1.085,4.867,2.252,0,4.362-.007,6.471,0,2.3.01,3.619,1.114,3.607,2.99-.011,1.784-1.312,2.837-3.541,2.844-2.573.008-5.147,0-7.81,0-.6,2.716-1.163,5.276-1.744,7.83a10.211,10.211,0,0,1-9.939,8.267c-1.671.071-3.348.05-5.021.033a2.689,2.689,0,0,1-2.946-2.809c-.052-1.857,1.114-2.876,2.947-3.006,1.965-.139,3.952-.064,5.9-.319a3.8,3.8,0,0,0,3.287-3.332c.447-2.117.917-4.228,1.448-6.666H326.95c-2.739,0-5.479-.008-8.218,0-1.891.007-3.038-.929-3.1-2.793-.064-1.973,1.174-2.993,3.063-3.023,4.057-.064,8.116-.02,12.174-.021h1.789Z" transform="translate(-170.336 -14.836)" fill="#979797"/>
      <path id="Path_29" data-name="Path 29" d="M254.468,45.01c0,2.1.029,3.811-.006,5.522-.1,4.708-2.96,8.8-7.587,9.555a32.646,32.646,0,0,1-11.151.027c-5.748-1.09-8.512-6.719-7.413-13.237.758-4.5,3.052-8.225,5.439-11.943.271-.422.524-.855.971-1.586-1.426,0-2.609.016-3.791,0A2.692,2.692,0,0,1,228,30.517a2.7,2.7,0,0,1,2.815-2.963c3.092-.105,6.195-.122,9.286,0,2.493.1,3.577,2.582,2.2,4.826-2.046,3.327-4.393,6.5-6.1,9.995a25.693,25.693,0,0,0-2.131,7.947c-.319,2.5,1.675,4.264,4.242,4.321q2.968.066,5.938,0a4.29,4.29,0,0,0,4.382-4.459c.025-3.6-.117-7.214.087-10.806a4.048,4.048,0,0,1,1.668-3.013,4.135,4.135,0,0,1,3.414.569c2.3,1.557,4.4,3.427,6.55,5.2,1.478,1.217,1.864,2.778.646,4.274-1.255,1.541-2.864,1.522-4.417.233C256,46.158,255.385,45.716,254.468,45.01Z" transform="translate(-123.045 -14.824)" fill="#979797"/>
      <path id="Path_30" data-name="Path 30" d="M478.4,36.764h-10.99a49.463,49.463,0,0,1-3.161,5.963c-1.62,2.267-4.152,3.167-6.882,3.363a2.815,2.815,0,0,1-3.339-2.588c-.2-1.807.8-2.916,2.663-3.248,3.213-.572,3.9-1.39,4.511-5.11.643-3.912,1.041-4.255,4.992-4.258q7.684,0,15.367,0c2.6.006,3.867,1.52,3.324,4.006-1.2,5.487-2.386,10.977-3.638,16.451-1.616,7.065-6.441,10.916-13.682,10.99-1.826.018-3.652-.013-5.477.012a2.835,2.835,0,0,1-3.24-2.85c-.137-1.729,1.285-2.955,3.3-2.981s4.058.023,6.085-.042a6.856,6.856,0,0,0,6.554-4.359,18.109,18.109,0,0,0,.973-3.188C476.658,44.942,477.5,40.944,478.4,36.764Z" transform="translate(-245.014 -16.666)" fill="#979797"/>
      <path id="Path_31" data-name="Path 31" d="M407.734,58.909c-3.637,0-7.28.019-10.922-.007-2.151-.015-3.393-1.12-3.278-2.924s1.21-2.555,2.949-2.551c4.153.011,8.305,0,12.416,0a3.448,3.448,0,0,0-3.376-4.525c-2.18-.065-4.364-.009-6.546-.025-1.858-.013-3.259-.723-3.248-2.782s1.386-2.733,3.277-2.7c2.131.035,4.263-.012,6.394.014a9.153,9.153,0,0,1,9.18,10.723,74.1,74.1,0,0,1-1.8,8.144,9.034,9.034,0,0,1-8.9,6.74c-3.2.029-6.395,0-9.592.009-1.906.007-3.082-.959-3.049-2.816.032-1.776,1.212-2.684,3.04-2.675,3.1.016,6.192.025,9.288,0C406.273,63.509,407.805,61.842,407.734,58.909Z" transform="translate(-211.143 -23.42)" fill="#979797"/>
      <path id="Path_32" data-name="Path 32" d="M146.14,32.417c-2.44-.218-5.825.594-5.476-3.129.408-4.338,4.346-2.145,6.876-2.958.753-1.958.522-5.239,4.155-4.547,2.512.478,2.495,2.548,1.96,4.749,3.781,0,7.423,0,11.065,0,2.329,0,3.61,1.056,3.611,2.953s-1.238,2.892-3.63,2.889c-4.1,0-8.193,0-12.4,0-1.287,5.658-2.541,11.174-3.8,16.689-.4,1.776-.772,3.561-1.227,5.324-.451,1.748-1.549,2.795-3.436,2.381-2.019-.443-2.658-1.919-2.237-3.822,1.4-6.324,2.846-12.638,4.269-18.956C145.976,33.515,146.036,33.028,146.14,32.417Z" transform="translate(-75.898 -11.705)" fill="#979797"/>
      <path id="Path_33" data-name="Path 33" d="M181.412,85.141c-3.031.157-6.705.082-9.62-2.653a13.311,13.311,0,0,1-3.26-3.942,3.782,3.782,0,0,1,.673-3.525c.737-.611,3.183-.585,3.532-.014,2.8,4.571,7.1,4.338,11.522,4.179,3.428-.123,4.874.833,4.93,2.907.057,2.1-1.5,3.047-4.977,3.047Z" transform="translate(-90.854 -40.244)" fill="#979797"/>
      <path id="Path_34" data-name="Path 34" d="M183.594,52.525c1.872,0,3.745-.041,5.616.013a2.652,2.652,0,0,1,2.829,2.749,2.69,2.69,0,0,1-2.744,3.016q-5.687.183-11.382.006a2.73,2.73,0,0,1-2.764-3.02,2.647,2.647,0,0,1,2.829-2.754C179.849,52.486,181.722,52.524,183.594,52.525Z" transform="translate(-94.521 -28.338)" fill="#979797"/>
      <path id="Path_35" data-name="Path 35" d="M271.926,32.366a2.986,2.986,0,1,1,.266-5.955,2.926,2.926,0,0,1,2.967,3.026A3.037,3.037,0,0,1,271.926,32.366Z" transform="translate(-145.111 -14.248)" fill="#979797"/>
      <path id="Path_36" data-name="Path 36" d="M290.047,26.379a3.048,3.048,0,0,1,3.106,3.046,2.858,2.858,0,0,1-3.063,2.9,2.917,2.917,0,0,1-3.2-2.938A3.042,3.042,0,0,1,290.047,26.379Z" transform="translate(-154.822 -14.236)" fill="#979797"/>
    </g>
  </g>
</svg>
