<svg xmlns="http://www.w3.org/2000/svg" width="60" height="41.046" viewBox="0 0 60 41.046">
  <path id="パス_152" data-name="パス 152" d="M90.628,72.355H42.372A5.879,5.879,0,0,0,36.5,78.227v29.3a5.879,5.879,0,0,0,5.872,5.872H90.628a5.879,5.879,0,0,0,5.872-5.872v-29.3A5.879,5.879,0,0,0,90.628,72.355Zm0,1.85a3.992,3.992,0,0,1,2.092.593L69.683,92.2a5.3,5.3,0,0,1-6.366,0L40.281,74.8a3.991,3.991,0,0,1,2.091-.593Zm4.022,33.324a4.026,4.026,0,0,1-4.022,4.022H42.372a4.026,4.026,0,0,1-4.022-4.022v-29.3a3.992,3.992,0,0,1,.605-2.111L62.2,93.679a7.158,7.158,0,0,0,8.6,0L94.045,76.116a3.992,3.992,0,0,1,.605,2.111Z" transform="translate(-36.5 -72.355)" fill="#3dcde6"/>
</svg>
