<svg id="シンプルな財布の線画アイコン" xmlns="http://www.w3.org/2000/svg" width="20" height="17.676" viewBox="0 0 20 17.676">
  <path id="パス_8854" data-name="パス 8854" d="M19.313,37.893V35.07a2.815,2.815,0,0,0-2.165-2.737,2.815,2.815,0,0,0-2.8-2.583H4.225a4.22,4.22,0,0,0-4.17,3.586H0V43.2a4.225,4.225,0,0,0,4.225,4.225H16.5a2.818,2.818,0,0,0,2.818-2.818V42.824a.942.942,0,0,0,.687-.9V38.8A.943.943,0,0,0,19.313,37.893Zm-.945,6.714A1.872,1.872,0,0,1,16.5,46.48H4.225A3.278,3.278,0,0,1,.946,43.2V34.013l.008-.183A3.275,3.275,0,0,1,4.225,30.7h10.12a1.868,1.868,0,0,1,1.842,1.556H2.576a.473.473,0,1,0,0,.945H16.553l.1.008a1.873,1.873,0,0,1,1.718,1.864v2.783H14a2.5,2.5,0,0,0-1.771.734h0a2.506,2.506,0,0,0,0,3.543h0A2.5,2.5,0,0,0,14,42.864h4.368v1.744Zm.686-2.689H14a1.56,1.56,0,0,1-1.1-2.663l0,0,0,0h0A1.55,1.55,0,0,1,14,38.8h5.054Z" transform="translate(0 -29.75)" fill="#4b4b4b"/>
  <path id="パス_8855" data-name="パス 8855" d="M341.969,284.663a.678.678,0,1,0,.678-.678A.677.677,0,0,0,341.969,284.663Z" transform="translate(-328.611 -274.054)" fill="#4b4b4b"/>
</svg>
