<svg id="viewb" xmlns="http://www.w3.org/2000/svg" width="16.277" height="9.33" viewBox="0 0 16.277 9.33">
  <path id="Path_8877" data-name="Path 8877" d="M16.263,81.352a.5.5,0,0,0-.037-.095,1.072,1.072,0,0,0-.071-.115,6.236,6.236,0,0,0-.459-.552,16.17,16.17,0,0,0-1.236-1.215A10.3,10.3,0,0,0,12.873,78.2a11.2,11.2,0,0,0-2.324-1.046,8.165,8.165,0,0,0-4.822,0A11.2,11.2,0,0,0,3.4,78.195,12.11,12.11,0,0,0,1.144,80c-.312.309-.576.593-.765.815-.1.111-.172.206-.231.287a1.4,1.4,0,0,0-.078.118.618.618,0,0,0-.036.072.436.436,0,0,0-.019.056.369.369,0,0,0,0,.2.483.483,0,0,0,.037.095,1.051,1.051,0,0,0,.071.115,6.231,6.231,0,0,0,.459.552,16.109,16.109,0,0,0,1.236,1.215A10.3,10.3,0,0,0,3.4,84.705a11.205,11.205,0,0,0,2.324,1.046,8.165,8.165,0,0,0,4.822,0,11.219,11.219,0,0,0,2.324-1.046,12.111,12.111,0,0,0,2.26-1.808c.312-.309.576-.593.765-.815.1-.111.172-.206.231-.287a1.414,1.414,0,0,0,.078-.118.646.646,0,0,0,.036-.072.432.432,0,0,0,.019-.056.369.369,0,0,0,0-.2Zm-2.256,1.327a10.275,10.275,0,0,1-1.729,1.338,10.1,10.1,0,0,1-2.09.945,6.92,6.92,0,0,1-4.1,0A10.1,10.1,0,0,1,4,84.017a11.213,11.213,0,0,1-2.062-1.657c-.3-.292-.545-.562-.715-.761-.048-.056-.088-.1-.122-.148a12.914,12.914,0,0,1,1.17-1.229A10.288,10.288,0,0,1,4,78.883a10.108,10.108,0,0,1,2.09-.944,6.92,6.92,0,0,1,4.1,0,10.1,10.1,0,0,1,2.09.945,11.229,11.229,0,0,1,2.062,1.657c.3.292.545.562.715.761.048.056.088.1.122.148A12.943,12.943,0,0,1,14.007,82.679Z" transform="translate(0 -76.785)" fill="#333"/>
  <path id="Exclusion_1" data-name="Exclusion 1" d="M3.516,7.041A3.521,3.521,0,1,1,7.035,3.52,3.523,3.523,0,0,1,3.516,7.041Zm0-4.83A1.309,1.309,0,1,0,4.83,3.52,1.309,1.309,0,0,0,3.516,2.211Z" transform="translate(4.621 1.115)" fill="#333"/>
</svg>
