<svg id="旅行用スーツケースのアイコン1" xmlns="http://www.w3.org/2000/svg" width="30" height="25.364" viewBox="0 0 30 25.364">
  <path id="Path_8864" data-name="Path 8864" d="M0,125.528v16.356a2.046,2.046,0,0,0,2.047,2.045H4.6V123.483H2.047A2.045,2.045,0,0,0,0,125.528Z" transform="translate(0 -118.566)" fill="#4b4b4b"/>
  <path id="Path_8865" data-name="Path 8865" d="M436.023,123.483h-2.556V143.93h2.556a2.046,2.046,0,0,0,2.045-2.045V125.528A2.044,2.044,0,0,0,436.023,123.483Z" transform="translate(-408.068 -118.566)" fill="#4b4b4b"/>
  <path id="Path_8866" data-name="Path 8866" d="M177.025,188.476a.513.513,0,1,0,.725,0A.513.513,0,0,0,177.025,188.476Z" transform="translate(-166.511 -179.61)" fill="#4b4b4b"/>
  <path id="Path_8867" data-name="Path 8867" d="M127.59,41.234a1.672,1.672,0,0,0-1.67-1.67h-8.2a1.671,1.671,0,0,0-1.67,1.67v3.247h-2.584V64.928h16.7V44.481H127.59Zm-4.04,10.881-2.532,2.532a.685.685,0,0,1-.968,0l-3.924-3.924a.686.686,0,0,1-.2-.484V47.706a.684.684,0,0,1,.684-.684h2.532a.685.685,0,0,1,.484.2l3.924,3.924A.685.685,0,0,1,123.55,52.114Zm1.994-7.633H118.1V41.61h7.446Z" transform="translate(-106.82 -39.564)" fill="#4b4b4b"/>
</svg>
