<svg id="user" xmlns="http://www.w3.org/2000/svg" width="20" height="20" viewBox="0 0 20 20">
  <path id="パス_161" data-name="パス 161" d="M47,37A10,10,0,1,0,57,47,10.011,10.011,0,0,0,47,37ZM44,55.981V51.144h-.531v4.641a9.465,9.465,0,0,1-1.948-1.068V50.631a2.77,2.77,0,0,1,2.767-2.767h5.43a2.77,2.77,0,0,1,2.767,2.767v4.087a9.464,9.464,0,0,1-1.948,1.068V51.144H50v4.837a9.477,9.477,0,0,1-6,0Zm9.014-1.671V50.631a3.3,3.3,0,0,0-3.3-3.3h-5.43a3.3,3.3,0,0,0-3.3,3.3V54.31a9.469,9.469,0,1,1,12.025,0Z" transform="translate(-37 -37)" fill="#1f1f1f"/>
  <path id="パス_162" data-name="パス 162" d="M120.312,80.806a2.882,2.882,0,1,0,2.882,2.882A2.886,2.886,0,0,0,120.312,80.806Zm0,5.234a2.351,2.351,0,1,1,2.351-2.351A2.354,2.354,0,0,1,120.312,86.04Z" transform="translate(-110.312 -76.929)" fill="#1f1f1f"/>
</svg>
