<svg id="チームのアイコン" xmlns="http://www.w3.org/2000/svg" width="20" height="22.088" viewBox="0 0 20 22.088">
  <path id="パス_8876" data-name="パス 8876" d="M210.353,4.16a2.08,2.08,0,1,0-2.08-2.08A2.08,2.08,0,0,0,210.353,4.16Z" transform="translate(-200.332)" fill="#4b4b4b"/>
  <path id="パス_8877" data-name="パス 8877" d="M170.7,119.279H167.05a2.339,2.339,0,0,0-2.1,2.1v6.991a.912.912,0,0,0,.912.913h.637l.347,5.962a.971.971,0,0,0,.971.971h2.122a.971.971,0,0,0,.971-.971l.347-5.962h.637a.913.913,0,0,0,.912-.913v-6.991A2.339,2.339,0,0,0,170.7,119.279Z" transform="translate(-158.874 -114.133)" fill="#4b4b4b"/>
  <path id="パス_8878" data-name="パス 8878" d="M63.853,68.5a1.817,1.817,0,1,0-1.816-1.816A1.816,1.816,0,0,0,63.853,68.5Z" transform="translate(-60.404 -62.069)" fill="#4b4b4b"/>
  <path id="パス_8879" data-name="パス 8879" d="M368.428,68.5a1.817,1.817,0,1,0-1.816-1.816A1.816,1.816,0,0,0,368.428,68.5Z" transform="translate(-351.84 -62.069)" fill="#4b4b4b"/>
  <path id="パス_8880" data-name="パス 8880" d="M29.071,169.024h-3.04a2.043,2.043,0,0,0-1.838,1.838v6.105a.8.8,0,0,0,.8.8h.556l.3,5.207a.848.848,0,0,0,.848.848h1.853a.848.848,0,0,0,.848-.848l.3-5.207v-.3a2.094,2.094,0,0,1-.63-1.5Z" transform="translate(-24.194 -161.732)" fill="#4b4b4b"/>
  <path id="パス_8881" data-name="パス 8881" d="M363.8,169.024h-3.04v6.95a2.093,2.093,0,0,1-.63,1.5v.3l.3,5.207a.849.849,0,0,0,.849.848h1.853a.848.848,0,0,0,.848-.848l.3-5.207h.556a.8.8,0,0,0,.8-.8v-6.105A2.043,2.043,0,0,0,363.8,169.024Z" transform="translate(-345.636 -161.732)" fill="#4b4b4b"/>
</svg>
