<svg xmlns="http://www.w3.org/2000/svg" width="130" height="130" viewBox="0 0 130 130">
  <g id="Group_5564" data-name="Group 5564" transform="translate(-60 -200)">
    <circle id="Ellipse_51" data-name="Ellipse 51" cx="65" cy="65" r="65" transform="translate(60 200)" fill="#fff"/>
    <g id="user" transform="translate(60 200)">
      <path id="user-2" data-name="user" d="M0,64.987A65,65,0,1,1,65,130,65.083,65.083,0,0,1,0,64.987ZM45.477,91.956v31.413a61.53,61.53,0,0,0,39.027,0V91.956h3.467v30.158a61.611,61.611,0,0,0,12.653-6.941V88.605A17.973,17.973,0,0,0,82.647,70.622H47.353A17.994,17.994,0,0,0,29.375,88.605v26.568a61.09,61.09,0,0,0,12.673,6.941V91.956ZM82.647,67.174a21.433,21.433,0,0,1,21.432,21.432v23.922a61.523,61.523,0,1,0-78.151,0V88.605A21.428,21.428,0,0,1,47.353,67.174ZM46.285,43.918A18.728,18.728,0,1,1,65,62.684,18.725,18.725,0,0,1,46.285,43.918Zm3.429,0A15.273,15.273,0,1,0,65,28.651,15.3,15.3,0,0,0,49.714,43.918Z" fill="#3dcde6"/>
    </g>
  </g>
</svg>
