<svg xmlns="http://www.w3.org/2000/svg" width="20" height="22.262" viewBox="0 0 20 22.262">
  <g id="Group_3778" data-name="Group 3778" transform="translate(0 0)">
    <g id="無料で使えるクリップのアイコン" transform="translate(0 0)">
      <path id="Path_8884" data-name="Path 8884" d="M31.731,12.968l6.54-6.54L37.1,5.255l-6.539,6.539a4.094,4.094,0,1,0,5.789,5.789l8.02-8.02a5.6,5.6,0,1,0-7.922-7.922L28.117,9.969A7.2,7.2,0,1,0,38.3,20.153l6.847-6.848-1.174-1.174-6.848,6.848a5.545,5.545,0,0,1-9.053-1.833,5.565,5.565,0,0,1-.3-3.144,5.508,5.508,0,0,1,1.522-2.859l8.328-8.328a3.921,3.921,0,0,1,1.3-.866,3.962,3.962,0,0,1,2.237-.216A3.942,3.942,0,0,1,43.193,8.39l-8.02,8.02a2.433,2.433,0,1,1-3.442-3.441Z" transform="translate(-26.007 -0.001)" fill="#333"/>
    </g>
  </g>
</svg>
