<svg id="無料の設定歯車アイコン" xmlns="http://www.w3.org/2000/svg" width="20" height="20" viewBox="0 0 20 20">
  <path id="Path_8882" data-name="Path 8882" d="M19.514,8.2l-2.182-.1a.513.513,0,0,1-.451-.317L16.432,6.7a.515.515,0,0,1,.1-.544L18,4.546a.516.516,0,0,0-.016-.71L16.169,2.022a.515.515,0,0,0-.711-.016L13.844,3.477a.514.514,0,0,1-.544.1l-1.082-.449a.513.513,0,0,1-.316-.452L11.8.491A.514.514,0,0,0,11.288,0H8.721a.515.515,0,0,0-.514.491l-.1,2.181a.513.513,0,0,1-.316.452l-1.082.449a.514.514,0,0,1-.544-.1L4.55,2.006a.515.515,0,0,0-.711.016L2.026,3.836a.514.514,0,0,0-.016.71L3.481,6.161a.513.513,0,0,1,.094.544L3.127,7.786a.514.514,0,0,1-.452.317L.495,8.2A.514.514,0,0,0,0,8.717v2.566a.515.515,0,0,0,.491.514l2.181.1a.514.514,0,0,1,.452.317L3.575,13.3a.513.513,0,0,1-.094.544L2.01,15.454a.515.515,0,0,0,.016.711l1.815,1.814a.515.515,0,0,0,.71.016l1.614-1.472a.515.515,0,0,1,.544-.1l1.082.448a.514.514,0,0,1,.316.452l.1,2.181A.515.515,0,0,0,8.721,20h2.567a.515.515,0,0,0,.513-.491l.1-2.181a.514.514,0,0,1,.316-.452l1.082-.448a.515.515,0,0,1,.544.1L15.458,18a.516.516,0,0,0,.711-.016l1.814-1.814A.516.516,0,0,0,18,15.454L16.528,13.84a.513.513,0,0,1-.1-.544l.45-1.082a.513.513,0,0,1,.451-.317l2.182-.1a.514.514,0,0,0,.49-.514V8.717A.514.514,0,0,0,19.514,8.2ZM10,13.267A3.266,3.266,0,1,1,13.27,10,3.267,3.267,0,0,1,10,13.267Z" transform="translate(-0.004)" fill="#4b4b4b"/>
</svg>
