<svg id="シンプルな書類ファイル" xmlns="http://www.w3.org/2000/svg" width="16" height="20.26" viewBox="0 0 16 20.26">
  <rect id="Rectangle_2570" data-name="Rectangle 2570" width="9.036" height="0.863" transform="translate(3.482 15.597)" fill="#4b4b4b"/>
  <rect id="Rectangle_2571" data-name="Rectangle 2571" width="9.036" height="0.863" transform="translate(3.482 12.096)" fill="#4b4b4b"/>
  <rect id="Rectangle_2572" data-name="Rectangle 2572" width="9.036" height="0.864" transform="translate(3.482 8.594)" fill="#4b4b4b"/>
  <rect id="Rectangle_2573" data-name="Rectangle 2573" width="4.259" height="0.863" transform="translate(8.259 5.093)" fill="#4b4b4b"/>
  <path id="Path_8853" data-name="Path 8853" d="M67.976,0H60.5a2.024,2.024,0,0,0-1.43.592L54.411,5.254a2.023,2.023,0,0,0-.593,1.431V18.417a1.844,1.844,0,0,0,1.842,1.842H67.976a1.844,1.844,0,0,0,1.842-1.842V1.842A1.844,1.844,0,0,0,67.976,0ZM59.85,1.28V5.421c0,.448-.174.622-.622.622H55.087Zm8.933,17.137a.807.807,0,0,1-.806.806H55.66a.807.807,0,0,1-.806-.806V6.964h4.928a.99.99,0,0,0,.988-.989V1.036h7.205a.807.807,0,0,1,.806.806Z" transform="translate(-53.818 0)" fill="#4b4b4b"/>
</svg>
