<svg id="シンプルな書類ファイル" xmlns="http://www.w3.org/2000/svg" width="24" height="30.389" viewBox="0 0 24 30.389">
  <rect id="Rectangle_2570" data-name="Rectangle 2570" width="13.554" height="1.295" transform="translate(5.223 23.396)" fill="#4b4b4b"/>
  <rect id="Rectangle_2571" data-name="Rectangle 2571" width="13.554" height="1.295" transform="translate(5.223 18.143)" fill="#4b4b4b"/>
  <rect id="Rectangle_2572" data-name="Rectangle 2572" width="13.554" height="1.295" transform="translate(5.223 12.892)" fill="#4b4b4b"/>
  <rect id="Rectangle_2573" data-name="Rectangle 2573" width="6.388" height="1.295" transform="translate(12.389 7.64)" fill="#4b4b4b"/>
  <path id="Path_8853" data-name="Path 8853" d="M75.055,0H63.845A3.036,3.036,0,0,0,61.7.888L54.707,7.881a3.035,3.035,0,0,0-.889,2.146v17.6a2.767,2.767,0,0,0,2.763,2.763H75.055a2.767,2.767,0,0,0,2.763-2.763V2.762A2.766,2.766,0,0,0,75.055,0ZM62.865,1.92V8.131c0,.671-.261.933-.933.933H55.721Zm13.4,25.705a1.211,1.211,0,0,1-1.209,1.209H56.581a1.211,1.211,0,0,1-1.21-1.209V10.446h7.393a1.484,1.484,0,0,0,1.483-1.483V1.554H75.055a1.21,1.21,0,0,1,1.209,1.208Z" transform="translate(-53.818 0)" fill="#4b4b4b"/>
</svg>
