<svg id="旅行用スーツケースのアイコン1" xmlns="http://www.w3.org/2000/svg" width="20" height="16.908" viewBox="0 0 20 16.908">
  <path id="Path_8864" data-name="Path 8864" d="M0,124.846v10.9a1.364,1.364,0,0,0,1.365,1.363h1.7V123.483h-1.7A1.363,1.363,0,0,0,0,124.846Z" transform="translate(0 -120.205)" fill="#4b4b4b"/>
  <path id="Path_8865" data-name="Path 8865" d="M435.171,123.483h-1.7v13.631h1.7a1.364,1.364,0,0,0,1.363-1.363v-10.9A1.363,1.363,0,0,0,435.171,123.483Z" transform="translate(-416.535 -120.205)" fill="#4b4b4b"/>
  <path id="Path_8866" data-name="Path 8866" d="M176.975,188.426a.342.342,0,1,0,.484,0A.342.342,0,0,0,176.975,188.426Z" transform="translate(-169.966 -182.515)" fill="#4b4b4b"/>
  <path id="Path_8867" data-name="Path 8867" d="M122.883,40.677a1.115,1.115,0,0,0-1.113-1.113H116.3a1.114,1.114,0,0,0-1.113,1.113v2.165h-1.722V56.473h11.136V42.842h-1.722Zm-2.693,7.254L118.5,49.619a.457.457,0,0,1-.645,0L115.24,47a.457.457,0,0,1-.134-.323V44.992a.456.456,0,0,1,.456-.456h1.688a.456.456,0,0,1,.323.134l2.616,2.616A.457.457,0,0,1,120.19,47.931Zm1.33-5.089h-4.964V40.928h4.964Z" transform="translate(-109.037 -39.564)" fill="#4b4b4b"/>
</svg>
