<svg id="シンプルな財布の線画アイコン" xmlns="http://www.w3.org/2000/svg" width="30" height="26.514" viewBox="0 0 30 26.514">
  <path id="Path_8854" data-name="Path 8854" d="M28.97,41.965V37.73a4.223,4.223,0,0,0-3.247-4.105,4.223,4.223,0,0,0-4.206-3.875H6.337A6.33,6.33,0,0,0,.082,35.129H0v14.8a6.337,6.337,0,0,0,6.337,6.337H24.743a4.227,4.227,0,0,0,4.227-4.227V49.361A1.413,1.413,0,0,0,30,48v-4.68A1.415,1.415,0,0,0,28.97,41.965ZM27.552,52.037a2.809,2.809,0,0,1-2.809,2.808H6.337a4.917,4.917,0,0,1-4.918-4.918V36.144l.012-.275a4.912,4.912,0,0,1,4.906-4.7H21.517A2.8,2.8,0,0,1,24.28,33.5H3.864a.709.709,0,1,0,0,1.418H24.83l.146.012a2.809,2.809,0,0,1,2.576,2.8V41.9H21A3.751,3.751,0,0,0,18.343,43h0a3.76,3.76,0,0,0,0,5.315h0A3.744,3.744,0,0,0,21,49.421h6.552v2.616ZM28.581,48H21a2.34,2.34,0,0,1-1.653-3.994l-.006.006,0-.006h0A2.325,2.325,0,0,1,21,43.324h7.581Z" transform="translate(0 -29.75)" fill="#4b4b4b"/>
  <path id="Path_8855" data-name="Path 8855" d="M341.969,285a1.016,1.016,0,1,0,1.016-1.017A1.016,1.016,0,0,0,341.969,285Z" transform="translate(-321.932 -269.088)" fill="#4b4b4b"/>
</svg>
