<svg id="チームのアイコン" xmlns="http://www.w3.org/2000/svg" width="30" height="33.132" viewBox="0 0 30 33.132">
  <path id="Path_8876" data-name="Path 8876" d="M211.393,6.24a3.12,3.12,0,1,0-3.12-3.119A3.12,3.12,0,0,0,211.393,6.24Z" transform="translate(-196.361)" fill="#4b4b4b"/>
  <path id="Path_8877" data-name="Path 8877" d="M173.573,119.279H168.1a3.508,3.508,0,0,0-3.156,3.157v10.487a1.368,1.368,0,0,0,1.368,1.369h.955l.521,8.943a1.457,1.457,0,0,0,1.457,1.457h3.182a1.457,1.457,0,0,0,1.457-1.457l.52-8.943h.955a1.369,1.369,0,0,0,1.368-1.369V122.436A3.508,3.508,0,0,0,173.573,119.279Z" transform="translate(-155.838 -111.56)" fill="#4b4b4b"/>
  <path id="Path_8878" data-name="Path 8878" d="M64.762,70.317a2.725,2.725,0,1,0-2.725-2.725A2.724,2.724,0,0,0,64.762,70.317Z" transform="translate(-59.588 -60.669)" fill="#4b4b4b"/>
  <path id="Path_8879" data-name="Path 8879" d="M369.336,70.317a2.725,2.725,0,1,0-2.725-2.725A2.724,2.724,0,0,0,369.336,70.317Z" transform="translate(-344.454 -60.669)" fill="#4b4b4b"/>
  <path id="Path_8880" data-name="Path 8880" d="M31.51,169.024H26.95a3.064,3.064,0,0,0-2.756,2.757v9.158a1.2,1.2,0,0,0,1.2,1.2h.834l.455,7.811a1.273,1.273,0,0,0,1.273,1.272h2.779A1.272,1.272,0,0,0,32,189.946l.454-7.811v-.443a3.141,3.141,0,0,1-.945-2.243Z" transform="translate(-24.194 -158.086)" fill="#4b4b4b"/>
  <path id="Path_8881" data-name="Path 8881" d="M365.634,169.024h-4.56v10.425a3.139,3.139,0,0,1-.946,2.243v.443l.454,7.811a1.273,1.273,0,0,0,1.273,1.272h2.779a1.272,1.272,0,0,0,1.272-1.272l.455-7.811h.834a1.2,1.2,0,0,0,1.2-1.2v-9.158A3.064,3.064,0,0,0,365.634,169.024Z" transform="translate(-338.39 -158.086)" fill="#4b4b4b"/>
</svg>
