<svg xmlns="http://www.w3.org/2000/svg" width="200" height="200" viewBox="0 0 200 200">
  <g id="グループ_5562" data-name="グループ 5562" transform="translate(-279 -1180)">
    <rect id="長方形_1255" data-name="長方形 1255" width="200" height="200" transform="translate(279 1180)" fill="#e0f8f0"/>
    <g id="STEP1" transform="translate(43 471)">
      <rect id="長方形_3114" data-name="長方形 3114" width="101.345" height="101.345" transform="translate(285 758.155)" fill="rgba(255,255,255,0)"/>
      <path id="パス_9417" data-name="パス 9417" d="M101.391,98.867,77.557,74.423a44.638,44.638,0,1,0-2.438,2.488L98.928,101.33ZM44.545,85.608A41.062,41.062,0,1,1,85.607,44.546,41.108,41.108,0,0,1,44.545,85.608" transform="translate(285.109 758)" fill="#333"/>
      <path id="合体_22" data-name="合体 22" d="M46.357,46.291V8.974h4.665A3.73,3.73,0,0,1,54.756,12.7V42.556a3.735,3.735,0,0,1-3.734,3.735Zm-34.221,0V8.974H16.85V3.047A3.049,3.049,0,0,1,19.9,0H34.86a3.05,3.05,0,0,1,3.049,3.047V8.974h4.714V46.291Zm4.482-31.432v4.624a1.252,1.252,0,0,0,.367.882l7.163,7.162a1.253,1.253,0,0,0,1.766,0l4.62-4.624a1.247,1.247,0,0,0,0-1.763l-7.159-7.166a1.26,1.26,0,0,0-.887-.365h-4.62A1.252,1.252,0,0,0,16.618,14.859Zm3.966-5.885H34.175V3.735H20.584ZM3.737,46.291A3.737,3.737,0,0,1,0,42.556V12.7A3.732,3.732,0,0,1,3.737,8.974H8.4V46.291ZM19.19,17.506a.947.947,0,1,1,.662.271A.938.938,0,0,1,19.19,17.506Z" transform="translate(302.997 778.583)" fill="#333"/>
    </g>
  </g>
</svg>
