<svg xmlns="http://www.w3.org/2000/svg" xmlns:xlink="http://www.w3.org/1999/xlink" width="200" height="200" viewBox="0 0 200 200">
  <defs>
    <clipPath id="clip-path">
      <rect id="長方形_3356" data-name="長方形 3356" width="80" height="104.556" fill="none"/>
    </clipPath>
  </defs>
  <g id="グループ_5567" data-name="グループ 5567" transform="translate(-261 -2969)">
    <rect id="長方形_3022" data-name="長方形 3022" width="200" height="200" transform="translate(261 2969)" fill="#e0f8f0"/>
    <g id="グループ_5375" data-name="グループ 5375" transform="translate(321 3017)">
      <g id="final" clip-path="url(#clip-path)">
        <path id="パス_9393" data-name="パス 9393" d="M91.294,35.949H86.051v3.224h5.243a3.26,3.26,0,0,1,3.256,3.256v58.693H76.562a1.612,1.612,0,0,0-1.612,1.612v17.988H39.433a3.259,3.259,0,0,1-3.256-3.256v-6.624H32.953v6.624a6.487,6.487,0,0,0,6.48,6.48H76.562a1.606,1.606,0,0,0,1.14-.473l19.6-19.6,0,0a1.012,1.012,0,0,0,.114-.139,1.6,1.6,0,0,0,.356-1V42.429a6.488,6.488,0,0,0-6.481-6.48m-13.12,82.494v-14.1h14.1Z" transform="translate(-17.775 -19.391)" fill="#333"/>
        <path id="パス_9394" data-name="パス 9394" d="M64.821,66.785V6.48A6.487,6.487,0,0,0,58.342,0H6.48A6.487,6.487,0,0,0,0,6.48V81.518A6.488,6.488,0,0,0,6.48,88H43.609a1.606,1.606,0,0,0,1.14-.473l19.6-19.6.008-.01a.85.85,0,0,0,.1-.12,1.6,1.6,0,0,0,.366-1.011M42,84.774H6.48a3.26,3.26,0,0,1-3.256-3.256V6.48A3.259,3.259,0,0,1,6.48,3.224H58.342A3.259,3.259,0,0,1,61.6,6.48V65.173H43.609A1.612,1.612,0,0,0,42,66.785ZM59.318,68.4l-14.1,14.1V68.4Z" fill="#333"/>
        <path id="パス_9395" data-name="パス 9395" d="M60.435,46.894H25.758a1.612,1.612,0,0,1,0-3.224H60.435a1.612,1.612,0,1,1,0,3.224" transform="translate(-13.024 -23.556)" fill="#333"/>
        <path id="パス_9396" data-name="パス 9396" d="M50.109,73.315H25.758a1.612,1.612,0,0,1,0-3.224H50.109a1.612,1.612,0,1,1,0,3.224" transform="translate(-13.024 -37.807)" fill="#333"/>
        <path id="パス_9397" data-name="パス 9397" d="M57.089,99.736H25.758a1.612,1.612,0,1,1,0-3.224H57.089a1.612,1.612,0,1,1,0,3.224" transform="translate(-13.024 -52.059)" fill="#333"/>
        <path id="パス_9398" data-name="パス 9398" d="M47.529,126.158H25.759a1.612,1.612,0,0,1,0-3.224h21.77a1.612,1.612,0,0,1,0,3.224" transform="translate(-13.025 -66.311)" fill="#333"/>
      </g>
    </g>
  </g>
</svg>
