<svg xmlns="http://www.w3.org/2000/svg" xmlns:xlink="http://www.w3.org/1999/xlink" width="200" height="200" viewBox="0 0 200 200">
  <defs>
    <clipPath id="clip-path">
      <rect id="長方形_3355" data-name="長方形 3355" width="117.986" height="76.831" fill="#333"/>
    </clipPath>
  </defs>
  <g id="グループ_5566" data-name="グループ 5566" transform="translate(-279 -2598)">
    <rect id="長方形_3021" data-name="長方形 3021" width="200" height="200" transform="translate(279 2598)" fill="#e0f8f0"/>
    <g id="グループ_5373" data-name="グループ 5373" transform="translate(320.007 2660)">
      <g id="グループ_5372" data-name="グループ 5372" transform="translate(-0.007 -0.001)" clip-path="url(#clip-path)">
        <path id="パス_9390" data-name="パス 9390" d="M22.257,44.077l1.914-2.032c.106-.113.221-.212.332-.318L20.5,35l6.827-25.48,16.22.925L46.822,7.5,28.137,6.433a1.561,1.561,0,0,0-1.129-1.79L9.883.054A1.566,1.566,0,0,0,7.965,1.162L.054,30.686A1.566,1.566,0,0,0,1.161,32.6l16.968,4.547ZM10.585,3.485l14.1,3.778-7.1,26.5-14.1-3.778Z" transform="translate(0 -0.001)" fill="#333"/>
        <path id="パス_9391" data-name="パス 9391" d="M154.917,30.686,147.006,1.161A1.567,1.567,0,0,0,145.088.054L127.961,4.643a1.567,1.567,0,0,0-1.107,1.918l.044.164-15.447,3.87L95.783,4.328a4.517,4.517,0,0,0-4.648.791l-11.1,9.987a7.611,7.611,0,0,0-.728,10.829,7.655,7.655,0,0,0,10.259,1.031l.05-.039,7.5-6.118,8.645,5.609,22.281,20.574a3.1,3.1,0,0,1,.344,4.369l-.626.731a3.1,3.1,0,0,1-4.429.282l-3.058-2.767a1.566,1.566,0,1,0-2.1,2.323l2.109,1.909a3.073,3.073,0,0,1,.238,4.268l-.7.822a3.095,3.095,0,0,1-4.429.282l-3.058-2.767a1.566,1.566,0,0,0-2.1,2.323l.481.443a3.1,3.1,0,0,1,.212,4.251l-.8.928a3.094,3.094,0,0,1-4.428.282L102.638,61.9a1.566,1.566,0,1,0-2.1,2.323l1.21,1.095h0a2.519,2.519,0,0,1,.225,3.523l-1.635,1.909a2.516,2.516,0,0,1-3.518.319l-.6-.484A7.979,7.979,0,0,1,94.6,73.305l.245.2a5.633,5.633,0,0,0,7.871-.715l1.635-1.909a5.675,5.675,0,0,0,1.272-2.66,6.177,6.177,0,0,0,2.14.383c.135,0,.27,0,.406-.013a6.182,6.182,0,0,0,4.336-2.166l.794-.928a6.2,6.2,0,0,0,1.4-3,6.16,6.16,0,0,0,2.752.643c.135,0,.271,0,.407-.013a6.18,6.18,0,0,0,4.335-2.166l.7-.822a6.216,6.216,0,0,0,1.508-3.92,6.258,6.258,0,0,0,.991.084q.2,0,.407-.013a6.177,6.177,0,0,0,4.335-2.165l.626-.731a6.227,6.227,0,0,0-.657-8.76L107.793,24.029a1.593,1.593,0,0,0-.213-.165l-9.716-6.3a1.566,1.566,0,0,0-1.842.1l-8.361,6.818a4.506,4.506,0,0,1-6.014-.624,4.48,4.48,0,0,1,.455-6.4L93.2,7.472a1.377,1.377,0,0,1,1.416-.235l16.138,6.455a1.566,1.566,0,0,0,.963.065l15.988-4.005,6.708,25.033-5.11,4.909,2.33,2.1,4.753-4.566a1.577,1.577,0,0,0,.293-.039L153.81,32.6a1.566,1.566,0,0,0,1.107-1.918m-17.531,3.076-7.1-26.5,14.1-3.778,7.1,26.5Z" transform="translate(-36.985 0)" fill="#333"/>
        <path id="パス_9392" data-name="パス 9392" d="M72.8,102.319a4.853,4.853,0,0,0-3.165-1.3c.006-.145.012-.29.007-.436a5.416,5.416,0,0,0-1.732-3.811l-1.175-1.094a5.43,5.43,0,0,0-4.006-1.445A5.414,5.414,0,0,0,61,90.461l-1.174-1.093a5.436,5.436,0,0,0-3.992-1.447c0-.061,0-.12,0-.181A5.418,5.418,0,0,0,54.1,83.929l-1.174-1.094a5.463,5.463,0,0,0-7.683.251L40.8,87.8a5.451,5.451,0,0,0,.253,7.726l1.174,1.094a5.429,5.429,0,0,0,3.713,1.457c.093,0,.186-.009.279-.014,0,.062,0,.122,0,.184a5.414,5.414,0,0,0,1.733,3.811l1.174,1.094a5.43,5.43,0,0,0,3.713,1.457c.1,0,.2-.009.293-.015a5.413,5.413,0,0,0,1.73,3.778l1.174,1.093a5.429,5.429,0,0,0,3.713,1.458,5.52,5.52,0,0,0,1.141-.122,4.842,4.842,0,0,0,1.467,2.681l1,.933a4.891,4.891,0,0,0,6.879-.224l3.791-4.025a4.881,4.881,0,0,0-.226-6.918ZM44.36,94.331l-1.174-1.093a2.319,2.319,0,0,1-.108-3.287l4.444-4.717a2.322,2.322,0,0,1,3.268-.106l1.174,1.093a2.32,2.32,0,0,1,.108,3.286l-4.444,4.717a2.324,2.324,0,0,1-3.269.107m6.9,6.533L50.082,99.77a2.318,2.318,0,0,1-.108-3.286l4.444-4.718a2.324,2.324,0,0,1,3.268-.106l1.174,1.094a2.3,2.3,0,0,1,.2,3.172l-.008.008L54.6,100.65c-.043.046-.08.1-.122.143a2.32,2.32,0,0,1-3.226.07m6.91,6.315h0l-1.174-1.094a2.3,2.3,0,0,1-.2-3.172l.008-.008,4.444-4.717c.043-.046.08-.1.122-.143a2.315,2.315,0,0,1,3.226-.07l1.174,1.094a2.32,2.32,0,0,1,.107,3.287l-4.443,4.717a2.325,2.325,0,0,1-3.268.107m13.578.844-3.792,4.025a1.751,1.751,0,0,1-2.464.08h0l-1-.933a1.747,1.747,0,0,1-.081-2.478l3.791-4.025a1.752,1.752,0,0,1,2.464-.08l1,.933a1.748,1.748,0,0,1,.081,2.478" transform="translate(-18.79 -38.894)" fill="#333"/>
      </g>
    </g>
  </g>
</svg>
