<svg xmlns="http://www.w3.org/2000/svg" xmlns:xlink="http://www.w3.org/1999/xlink" width="200" height="200" viewBox="0 0 200 200">
  <defs>
    <clipPath id="clip-path">
      <rect id="長方形_3371" data-name="長方形 3371" width="100" height="83.932" fill="none"/>
    </clipPath>
  </defs>
  <g id="グループ_5580" data-name="グループ 5580" transform="translate(-279 -8151)">
    <rect id="長方形_3383" data-name="長方形 3383" width="200" height="200" transform="translate(279 8151)" fill="#e0f8f0"/>
    <g id="グループ_5414" data-name="グループ 5414" transform="translate(339 8209)">
      <rect id="長方形_3367" data-name="長方形 3367" width="36.088" height="2.87" transform="translate(8.99 14.664)" fill="#262727"/>
      <rect id="長方形_3368" data-name="長方形 3368" width="23.54" height="2.87" transform="translate(8.99 27.044)" fill="#262727"/>
      <rect id="長方形_3369" data-name="長方形 3369" width="28.737" height="2.87" transform="translate(8.99 39.425)" fill="#262727"/>
      <rect id="長方形_3370" data-name="長方形 3370" width="20.866" height="2.87" transform="translate(8.99 51.806)" fill="#262727"/>
      <g id="グループ_5385" data-name="グループ 5385">
        <g id="グループ_5384" data-name="グループ 5384" clip-path="url(#clip-path)">
          <path id="パス_9411" data-name="パス 9411" d="M62.19,77.235a3.831,3.831,0,0,1-3.827,3.827H6.7a3.831,3.831,0,0,1-3.827-3.827V6.7A3.831,3.831,0,0,1,6.7,2.87H58.363A3.831,3.831,0,0,1,62.19,6.7V23.071l2.87-2.87V6.7a6.7,6.7,0,0,0-6.7-6.7H6.7A6.7,6.7,0,0,0,0,6.7V77.235a6.7,6.7,0,0,0,6.7,6.7H58.363a6.7,6.7,0,0,0,6.7-6.7V66.652l-2.87,2.87Z" transform="translate(-0.001)" fill="#262727"/>
          <path id="パス_9412" data-name="パス 9412" d="M139.378,31.8,128.07,20.489a4.348,4.348,0,0,0-6.141,0L79.483,62.935a2.106,2.106,0,0,0-.526.783l-6.119,21.54A1.435,1.435,0,0,0,74.61,87.03l21.54-6.119a1.877,1.877,0,0,0,.783-.526l42.446-42.446a4.347,4.347,0,0,0,0-6.141M95.757,77.5,82.366,64.11l36.745-36.745L132.5,40.756Zm-11.6,3.832-5.628-5.628,2.516-8.854L93.015,78.818Zm53.188-45.424-2.818,2.818L121.14,25.335l2.818-2.817a1.475,1.475,0,0,1,2.083,0l11.308,11.308a1.475,1.475,0,0,1,0,2.083" transform="translate(-40.648 -10.733)" fill="#262727"/>
          <path id="パス_9413" data-name="パス 9413" d="M138.958,49.53a1.435,1.435,0,0,0-2.03,0L108,78.457a1.435,1.435,0,1,0,2.029,2.029l28.927-28.927a1.435,1.435,0,0,0,0-2.029" transform="translate(-60.083 -27.427)" fill="#262727"/>
        </g>
      </g>
    </g>
  </g>
</svg>
