<svg xmlns="http://www.w3.org/2000/svg" width="200" height="200" viewBox="0 0 200 200">
  <g id="グループ_5569" data-name="グループ 5569" transform="translate(-279 -4125)">
    <rect id="長方形_3372" data-name="長方形 3372" width="200" height="200" transform="translate(279 4125)" fill="#e0f8f0"/>
    <g id="STEP1" transform="translate(44 3417)">
      <rect id="長方形_3114" data-name="長方形 3114" width="100" height="100" transform="translate(285 758)" fill="rgba(255,255,255,0)"/>
      <path id="パス_9417" data-name="パス 9417" d="M99.893,97.406,76.411,73.323a43.978,43.978,0,1,0-2.4,2.452L97.466,99.832ZM43.887,84.343A40.455,40.455,0,1,1,84.342,43.888,40.5,40.5,0,0,1,43.887,84.343" transform="translate(285.107 758)" fill="#333"/>
      <path id="パス_9422" data-name="パス 9422" d="M63.158,120.125A12.722,12.722,0,1,0,50.387,107.4,12.761,12.761,0,0,0,63.158,120.125Zm0-23.337A10.616,10.616,0,1,1,52.493,107.4,10.653,10.653,0,0,1,63.158,96.788ZM76.1,122.4H72.52a1.052,1.052,0,0,0-.968.64l-4.045,9.474-1.41-5.036,1.62-3.591a1.053,1.053,0,0,0-.96-1.486h-7.2a1.053,1.053,0,0,0-.96,1.486l1.62,3.591-1.41,5.036-4.045-9.474a1.053,1.053,0,0,0-.968-.64H50.22a11.7,11.7,0,0,0-11.712,11.667v14.893h2.106V134.072a9.6,9.6,0,0,1,9.606-9.561H53.1l9.09,21.288a1.053,1.053,0,0,0,1.937,0l9.09-21.288H76.1a9.6,9.6,0,0,1,9.606,9.561v14.893h2.106V134.072A11.7,11.7,0,0,0,76.1,122.4ZM63.158,142.7l-3.028-7.092,2.22-7.931a1.054,1.054,0,0,0-.054-.717l-1.107-2.453h3.939l-1.107,2.453a1.054,1.054,0,0,0-.054.717l2.22,7.931Z" transform="translate(266.842 676.816)" fill="#333"/>
    </g>
  </g>
</svg>
