<svg xmlns="http://www.w3.org/2000/svg" xmlns:xlink="http://www.w3.org/1999/xlink" width="200" height="200" viewBox="0 0 200 200">
  <defs>
    <clipPath id="clip-path">
      <rect id="長方形_3359" data-name="長方形 3359" width="110" height="91.628" fill="none"/>
    </clipPath>
  </defs>
  <g id="グループ_5578" data-name="グループ 5578" transform="translate(-279 -7441)">
    <rect id="長方形_3381" data-name="長方形 3381" width="200" height="200" transform="translate(279 7441)" fill="#e0f8f0"/>
    <g id="グループ_5412" data-name="グループ 5412" transform="translate(324 7495)">
      <g id="グループ_5380" data-name="グループ 5380" clip-path="url(#clip-path)">
        <path id="パス_9403" data-name="パス 9403" d="M156.184,82.646a1.821,1.821,0,0,0-2.354,1.045l-12.864,33.415H100.533a1.821,1.821,0,1,0,0,3.642h41.683a1.822,1.822,0,0,0,1.7-1.167L157.229,85a1.821,1.821,0,0,0-1.045-2.353" transform="translate(-47.351 -39.585)" fill="#333"/>
        <path id="パス_9404" data-name="パス 9404" d="M77.561,107.006a8.9,8.9,0,0,0,8.96-8.031,8.832,8.832,0,0,0-8-9.6l-19.63-1.788L46.18,70.924c-1.976-2.59-6.407-4.263-11.288-4.263H25.114A13.651,13.651,0,0,0,11.94,76.781L.062,121.314a1.821,1.821,0,0,0,1.759,2.29h34.23a1.821,1.821,0,0,0,1.759-1.352L43.8,99.792l2.445,3.2a9.086,9.086,0,0,0,7.052,3.549ZM49.135,100.78l-4.69-6.147a1.821,1.821,0,0,0-3.207.635l-6.587,24.695H4.192L15.459,77.72A10,10,0,0,1,25.114,70.3h9.778c4.092,0,7.32,1.424,8.393,2.83l13.2,17.3a1.82,1.82,0,0,0,1.283.709L78.194,93a5.191,5.191,0,0,1,4.7,5.641,5.21,5.21,0,0,1-5.268,4.72l-24.258-.459a5.46,5.46,0,0,1-4.232-2.125" transform="translate(0 -31.976)" fill="#333"/>
        <path id="パス_9405" data-name="パス 9405" d="M53.7,32.484A16.242,16.242,0,1,0,37.456,16.242,16.261,16.261,0,0,0,53.7,32.484m0-28.842a12.6,12.6,0,1,1-12.6,12.6,12.614,12.614,0,0,1,12.6-12.6" transform="translate(-17.967)" fill="#333"/>
      </g>
    </g>
  </g>
</svg>
