<svg xmlns="http://www.w3.org/2000/svg" xmlns:xlink="http://www.w3.org/1999/xlink" width="200" height="200" viewBox="0 0 200 200">
  <defs>
    <clipPath id="clip-path">
      <rect id="長方形_3366" data-name="長方形 3366" width="80" height="109.29" fill="none"/>
    </clipPath>
  </defs>
  <g id="グループ_5579" data-name="グループ 5579" transform="translate(-279 -7796)">
    <rect id="長方形_3382" data-name="長方形 3382" width="200" height="200" transform="translate(279 7796)" fill="#e0f8f0"/>
    <g id="グループ_5413" data-name="グループ 5413" transform="translate(339 7841)">
      <g id="グループ_5382" data-name="グループ 5382" clip-path="url(#clip-path)">
        <path id="パス_9406" data-name="パス 9406" d="M73.516,13.386H62.957L62.4,16.522H73.516a3.351,3.351,0,0,1,3.347,3.348v89.863a3.352,3.352,0,0,1-3.347,3.348H6.484a3.352,3.352,0,0,1-3.348-3.348V19.87a3.351,3.351,0,0,1,3.348-3.348H17.6l-.557-3.136H6.484A6.491,6.491,0,0,0,0,19.87v89.863a6.492,6.492,0,0,0,6.484,6.485H73.516A6.492,6.492,0,0,0,80,109.733V19.87a6.492,6.492,0,0,0-6.484-6.484" transform="translate(0 -6.927)" fill="#262727"/>
        <path id="パス_9407" data-name="パス 9407" d="M43.825,11.313a6.414,6.414,0,0,0,6.164,5.167H74.256a6.414,6.414,0,0,0,6.164-5.167l.993-5.6A4.889,4.889,0,0,0,80.4,1.7,4.889,4.889,0,0,0,76.624,0h-29a4.889,4.889,0,0,0-3.778,1.7,4.891,4.891,0,0,0-1.012,4.016Zm2.423-7.6a1.744,1.744,0,0,1,1.374-.577h29A1.745,1.745,0,0,1,78,3.712a1.746,1.746,0,0,1,.328,1.454l-.993,5.6a3.332,3.332,0,0,1-3.076,2.579H49.989a3.332,3.332,0,0,1-3.076-2.579l-.993-5.6a1.744,1.744,0,0,1,.328-1.453" transform="translate(-22.122 0)" fill="#262727"/>
        <path id="パス_9408" data-name="パス 9408" d="M46.874,54.844a1.568,1.568,0,0,0-1.568-1.568H25.242a1.568,1.568,0,0,0-1.568,1.568V71.766a1.568,1.568,0,0,0,1.568,1.568H45.306a1.568,1.568,0,0,0,1.568-1.568ZM26.81,70.2V56.412H43.738v.533l-8.011,8.01L31.8,61.027l-2.218,2.218,6.146,6.147,8.011-8.01V70.2Z" transform="translate(-12.251 -27.569)" fill="#262727"/>
        <rect id="長方形_3360" data-name="長方形 3360" width="13.507" height="3.136" transform="translate(40.035 29.816)" fill="#262727"/>
        <rect id="長方形_3361" data-name="長方形 3361" width="28.192" height="3.136" transform="translate(40.035 39.244)" fill="#262727"/>
        <path id="パス_9409" data-name="パス 9409" d="M46.874,107.656a1.568,1.568,0,0,0-1.568-1.568H25.242a1.568,1.568,0,0,0-1.568,1.568v16.921a1.568,1.568,0,0,0,1.568,1.568H45.306a1.568,1.568,0,0,0,1.568-1.568ZM26.81,123.009V109.224H43.738v.533l-8.011,8.01L31.8,113.839l-2.218,2.218,6.146,6.147,8.011-8.011v8.817Z" transform="translate(-12.251 -54.899)" fill="#262727"/>
        <rect id="長方形_3362" data-name="長方形 3362" width="22.572" height="3.136" transform="translate(40.035 55.298)" fill="#262727"/>
        <rect id="長方形_3363" data-name="長方形 3363" width="17.374" height="3.136" transform="translate(40.035 64.727)" fill="#262727"/>
        <path id="パス_9410" data-name="パス 9410" d="M45.306,158.9H25.242a1.568,1.568,0,0,0-1.568,1.568v16.921a1.568,1.568,0,0,0,1.568,1.568H45.306a1.568,1.568,0,0,0,1.568-1.568V160.469a1.568,1.568,0,0,0-1.568-1.568m-18.5,16.921V162.037H43.738v.533l-8.011,8.01-3.929-3.93-2.218,2.218,6.146,6.146,8.011-8.01v8.817Z" transform="translate(-12.251 -82.228)" fill="#262727"/>
        <rect id="長方形_3364" data-name="長方形 3364" width="15.501" height="3.136" transform="translate(40.035 80.782)" fill="#262727"/>
        <rect id="長方形_3365" data-name="長方形 3365" width="24.023" height="3.136" transform="translate(40.035 90.209)" fill="#262727"/>
      </g>
    </g>
  </g>
</svg>
