<svg xmlns="http://www.w3.org/2000/svg" xmlns:xlink="http://www.w3.org/1999/xlink" width="200" height="200" viewBox="0 0 200 200">
  <defs>
    <clipPath id="clip-path">
      <rect id="長方形_3357" data-name="長方形 3357" width="77" height="73.715" fill="none"/>
    </clipPath>
    <clipPath id="clip-path-2">
      <rect id="長方形_3358" data-name="長方形 3358" width="53.279" height="71.817" fill="none"/>
    </clipPath>
  </defs>
  <g id="グループ_5577" data-name="グループ 5577" transform="translate(-279 -7106)">
    <rect id="長方形_3380" data-name="長方形 3380" width="200" height="200" transform="translate(279 7106)" fill="#e0f8f0"/>
    <g id="グループ_5576" data-name="グループ 5576">
      <g id="グループ_5410" data-name="グループ 5410" transform="translate(343 7159)">
        <g id="グループ_5376" data-name="グループ 5376" transform="translate(-32 -18)" clip-path="url(#clip-path)">
          <path id="パス_9399" data-name="パス 9399" d="M109.726,172.263a4.248,4.248,0,1,0,4.248,4.248,4.253,4.253,0,0,0-4.248-4.248m0,6.222a1.975,1.975,0,1,1,1.975-1.974,1.977,1.977,0,0,1-1.975,1.974" transform="translate(-71.226 -116.323)" fill="#333"/>
          <path id="パス_9400" data-name="パス 9400" d="M75.863,141.049H68.335V121.421A18.361,18.361,0,0,0,50,103.081H27a18.36,18.36,0,0,0-18.34,18.34v19.628H1.137a1.137,1.137,0,0,0,0,2.273H75.863a1.137,1.137,0,0,0,0-2.273M10.938,121.421A16.085,16.085,0,0,1,27,105.354H50a16.085,16.085,0,0,1,16.067,16.067v19.628H58.5l1.517-23.572a1.137,1.137,0,0,0-1.135-1.21H18.12a1.136,1.136,0,0,0-1.134,1.21L18.5,141.049H10.938Zm9.842,19.628L19.332,118.54H57.669l-1.448,22.509Z" transform="translate(0 -69.607)" fill="#333"/>
          <path id="パス_9401" data-name="パス 9401" d="M89.223,29.862a14.123,14.123,0,0,0,14.107-14.107V14.107a14.107,14.107,0,0,0-28.215,0v1.647A14.123,14.123,0,0,0,89.223,29.862M77.389,14.107a11.834,11.834,0,0,1,23.669,0v1.647a11.834,11.834,0,0,1-23.669,0Z" transform="translate(-50.723)" fill="#333"/>
        </g>
      </g>
      <g id="グループ_5411" data-name="グループ 5411" transform="translate(402.721 7222.092)">
        <g id="グループ_5378" data-name="グループ 5378" clip-path="url(#clip-path-2)">
          <path id="パス_9402" data-name="パス 9402" d="M49.354,41.572a3.9,3.9,0,0,0-1.987.546,4.219,4.219,0,0,0-6.451-2.525A4.359,4.359,0,0,0,38,36.682V5.556A5.563,5.563,0,0,0,32.444,0H5.556A5.563,5.563,0,0,0,0,5.556V59.432a5.563,5.563,0,0,0,5.556,5.556H25.164l1.273,1.8c.011.016.024.032.036.048,1.922,2.408,5.171,4.98,8.524,4.98h7.169a10.09,10.09,0,0,0,9.284-6.48c1.246-3.513,1.681-8.494,1.827-12.055,0-.014,0-.028,0-.042V45.5a3.929,3.929,0,0,0-3.924-3.924M5.556,62.927a3.5,3.5,0,0,1-3.5-3.5V5.556a3.5,3.5,0,0,1,3.5-3.5h3L8.95,3.45a3.668,3.668,0,0,0,3.6,3.063h12.9a3.668,3.668,0,0,0,3.6-3.063l.394-1.389h3a3.5,3.5,0,0,1,3.5,3.5V36.577a4.308,4.308,0,0,0-1.463.573V28.924a4.455,4.455,0,0,0-8.909,0V48.961L22.352,44.59a4.738,4.738,0,0,0-7.686,5.543l9.042,12.794Zm45.661-9.708a41.817,41.817,0,0,1-1.71,11.43,8.078,8.078,0,0,1-7.342,5.108H35c-2.614,0-5.342-2.247-6.894-4.182L16.349,48.943a2.677,2.677,0,0,1,4.343-3.132l5.076,6.9a1.03,1.03,0,0,0,1.861-.61V28.924a2.394,2.394,0,0,1,4.787,0L32.41,46.878h2.061l.005-6.139a2.283,2.283,0,0,1,4.563.1l0,7.452H41.1v-5.21a2.159,2.159,0,0,1,4.319,0l.007,6.887h2.061V45.5a1.863,1.863,0,0,1,3.727,0Z" fill="#343131"/>
        </g>
      </g>
      <path id="合体_17" data-name="合体 17" d="M-3123,23714a34.157,34.157,0,0,1,34.32-34,34.187,34.187,0,0,1,34.225,31.457l7.455,4.361-7.986,4.672a34.248,34.248,0,0,1-33.694,27.51A34.163,34.163,0,0,1-3123,23714Z" transform="translate(3434.998 -16457.848)" fill="#fff"/>
      <path id="合体_18" data-name="合体 18" d="M0,34a34.334,34.334,0,0,0,68.545,2.539L76,32.182,68.014,27.51A34.352,34.352,0,0,0,0,34Z" transform="translate(456 7202) rotate(180)" fill="#fff"/>
      <text id="スマート_フォン" data-name="スマート
フォン" transform="translate(347 7256)" fill="#333" font-size="14" font-family="YuGothicUI-Bold, Yu Gothic UI" font-weight="700"><tspan x="-20.426" y="0">スマート</tspan><tspan y="0" font-family="SegoeUI-Bold, Segoe UI"></tspan><tspan x="-15.166" y="16">フォン</tspan></text>
      <text id="パソコン" transform="translate(422.639 7174)" fill="#333" font-size="14" font-family="YuGothicUI-Bold, Yu Gothic UI" font-weight="700"><tspan x="-21.301" y="0">パソコン</tspan></text>
    </g>
  </g>
</svg>
