<svg xmlns="http://www.w3.org/2000/svg" width="20" height="20" viewBox="0 0 20 20">
  <path id="パス_8874" data-name="パス 8874" d="M50.537,62.821a9.584,9.584,0,0,1-1.963-.213,15.5,15.5,0,0,1-7.518-4.324l-.014-.013.221-.228-.224.224a15.5,15.5,0,0,1-4.328-7.523c-.521-2.484-.078-4.651,1.215-5.944l1.209-1.209a2.3,2.3,0,0,1,1.722-.768,2.423,2.423,0,0,1,1.721.991l.015.02,1.708,2.45a1.866,1.866,0,0,1-.036,2.533l-.978.978c-.239.239-.146.623.068,1.124l.046.11a7.752,7.752,0,0,0,2.04,2.841l.006.007a7.751,7.751,0,0,0,2.841,2.04l.11.046c.5.214.885.307,1.124.068l.978-.978a1.863,1.863,0,0,1,2.527-.04L55.5,56.741a2.423,2.423,0,0,1,.991,1.721,2.3,2.3,0,0,1-.768,1.722l-1.209,1.209A5.507,5.507,0,0,1,50.537,62.821Zm-9.043-5h0a14.869,14.869,0,0,0,7.208,4.16c2.271.476,4.226.1,5.365-1.043l1.209-1.209a1.664,1.664,0,0,0,.583-1.242,1.809,1.809,0,0,0-.751-1.254l-2.439-1.7c-1.057-.7-1.557-.2-1.722-.036l-.978.978c-.591.591-1.422.238-1.821.068l-.106-.044A8.32,8.32,0,0,1,45,54.322a8.323,8.323,0,0,1-2.18-3.049l-.044-.106c-.17-.4-.523-1.23.068-1.821l.978-.978c.164-.164.665-.665-.04-1.728l-1.7-2.433a1.81,1.81,0,0,0-1.254-.751,1.663,1.663,0,0,0-1.242.583l-1.209,1.209c-1.139,1.139-1.519,3.094-1.043,5.365a14.864,14.864,0,0,0,4.156,7.205Z" transform="translate(-36.497 -42.821)" fill="#3dcde6"/>
</svg>
