<svg xmlns="http://www.w3.org/2000/svg" width="580" height="404" viewBox="0 0 580 404">
  <g id="グループ_5471" data-name="グループ 5471" transform="translate(-200 -1413)">
    <g id="ステップ" transform="translate(59 902)">
      <rect id="長方形_1335" data-name="長方形 1335" width="200" height="200" rx="10" transform="translate(462 715)" fill="#d8f5fa"/>
      <g id="STEP2" transform="translate(227 -9)">
        <g id="グループ_4891" data-name="グループ 4891" transform="translate(289.2 764)">
          <path id="パス_9237" data-name="パス 9237" d="M142.062,208.763a5.143,5.143,0,1,0,5.143,5.143A5.149,5.149,0,0,0,142.062,208.763Zm0,7.533a2.391,2.391,0,1,1,2.391-2.39A2.393,2.393,0,0,1,142.062,216.3Z" transform="translate(-95.449 -141.036)" fill="#00a9c6"/>
          <path id="パス_9238" data-name="パス 9238" d="M123.29,185.549h-9.115V161.785a22.229,22.229,0,0,0-22.2-22.2H64.136a22.229,22.229,0,0,0-22.2,22.2v23.764H32.817a1.376,1.376,0,1,0,0,2.752H123.29a1.376,1.376,0,1,0,0-2.752ZM44.684,161.785a19.474,19.474,0,0,1,19.452-19.452H91.971a19.474,19.474,0,0,1,19.452,19.452v23.764h-9.157L104.1,157.01a1.377,1.377,0,0,0-1.373-1.465H53.379a1.376,1.376,0,0,0-1.373,1.465l1.836,28.539H44.684ZM56.6,185.549,54.846,158.3h46.415l-1.753,27.251Z" transform="translate(-31.441 -99.054)" fill="#00a9c6"/>
          <path id="パス_9239" data-name="パス 9239" d="M123.637,72.655a17.1,17.1,0,0,0,17.08-17.08V53.58a17.08,17.08,0,1,0-34.16,0v1.994A17.1,17.1,0,0,0,123.637,72.655ZM109.309,53.58a14.328,14.328,0,1,1,28.656,0v1.994a14.328,14.328,0,0,1-28.656,0Z" transform="translate(-77.024 -36.5)" fill="#00a9c6"/>
        </g>
        <rect id="長方形_3114" data-name="長方形 3114" width="100" height="100" transform="translate(285 758)" fill="rgba(255,255,255,0)"/>
      </g>
      <rect id="長方形_1334" data-name="長方形 1334" width="200" height="200" rx="10" transform="translate(200 715)" fill="#d8f5fa"/>
      <rect id="長方形_2728" data-name="長方形 2728" width="134" height="48" rx="10" transform="translate(200 691)" fill="#00a9c6"/>
      <rect id="長方形_2745" data-name="長方形 2745" width="134" height="48" rx="10" transform="translate(462 691)" fill="#00a9c6"/>
      <path id="パス_9455" data-name="パス 9455" d="M-73.354-12.331q-.009-.369-.018-1.169-.009-.694-.018-1.081h1.854v2.2q2.347-.088,4.289-.343v1.547q-2.039.246-4.271.325v.879q0,.809.035,1.318,2.619-.167,4.14-.378v1.617q-1.731.167-4.1.29.07,1.907.132,2.953a13.93,13.93,0,0,1,4.79,3.006L-67.808.448a10.689,10.689,0,0,0-3.507-2.821v.281q0,2.83-3.437,2.83-3.621,0-3.621-2.7a2.285,2.285,0,0,1,1.143-2.013,4.6,4.6,0,0,1,2.514-.633,13.394,13.394,0,0,1,1.564.088q-.07-1.406-.088-2.54-1.441.035-2.145.035-1.529,0-2.522-.035v-1.6q1.714.088,2.7.088,1.283,0,1.934-.018-.062-1.107-.062-2.232-.536.018-1.617.018-1.433,0-3.243-.053v-1.529q1.564.07,3.138.07Q-73.925-12.313-73.354-12.331Zm.237,9.448a6.234,6.234,0,0,0-1.6-.193,2.864,2.864,0,0,0-1.564.352.9.9,0,0,0-.457.782q0,1.134,1.89,1.134a1.538,1.538,0,0,0,1.731-1.749Zm17.042-7.849q-.026.914-.026,1.872t.026,1.872a5.609,5.609,0,0,1,.413,2.25,4.7,4.7,0,0,1-1.8,3.973A10.874,10.874,0,0,1-61.954.958L-63-.756a8.42,8.42,0,0,0,4.553-1.5,2.72,2.72,0,0,0,1.028-1.775,2.662,2.662,0,0,1-2.109.87,3.057,3.057,0,0,1-2.3-.844,2.86,2.86,0,0,1-.738-2.074,2.807,2.807,0,0,1,1.037-2.329,3.406,3.406,0,0,1,2.171-.677,3.522,3.522,0,0,1,1.529.36l-.035-1.986q-3.349.079-6.952.325l-.018-1.617q3.437-.158,6.926-.22l-.018-2.268h1.916q0,.65-.044,2.232,1.441-.018,4.236-.018v1.626q-1.512-.079-3.278-.079ZM-59.44-7.726a1.381,1.381,0,0,0-1.081.439,1.616,1.616,0,0,0-.4,1.151,1.459,1.459,0,0,0,.466,1.151,1.493,1.493,0,0,0,1.046.36,1.525,1.525,0,0,0,1.2-.466,1.542,1.542,0,0,0,.352-1.063A1.4,1.4,0,0,0-59.44-7.726Zm4.14-7.717,1.116-.272a15.7,15.7,0,0,1,1.318,2.751l-1.151.325A13.179,13.179,0,0,0-55.3-15.442Zm2.25-.088,1.081-.29a15.014,15.014,0,0,1,1.283,2.628l-1.116.378A14.564,14.564,0,0,0-53.051-15.53ZM-38.83-9.536q.026,2.988.167,5.616a11.509,11.509,0,0,1,3.182,2.355L-36.721-.035a7.924,7.924,0,0,0-1.96-2v.088A2.249,2.249,0,0,1-39.647.009a3.918,3.918,0,0,1-2.329.624q-3.331,0-3.331-2.61a2.221,2.221,0,0,1,.976-1.9A3.636,3.636,0,0,1-42.144-4.5a9.279,9.279,0,0,1,1.644.141q-.123-2.575-.149-5.106-1.538.053-3.006.053-.105,0-1.758-.035V-11.03q1.266.053,2.215.053,1.239,0,2.531-.053v-3.138h1.854q-.018,1.081-.018,3.023,1.3-.07,2.848-.246v1.67Q-36.949-9.642-38.83-9.536Zm-1.617,6.82A4.216,4.216,0,0,0-42.2-3.023a1.942,1.942,0,0,0-1.151.308.9.9,0,0,0-.4.756q0,1.081,1.731,1.081a1.36,1.36,0,0,0,1.564-1.512ZM-46.063-14A41.636,41.636,0,0,0-47.25-5.08a36.46,36.46,0,0,0,.5,5.634L-48.6.721a42.294,42.294,0,0,1-.431-5.836,46.661,46.661,0,0,1,1.1-9.035Zm15.82,2.391v-2.865h1.8V-11.7q1.485-.105,2.988-.272v1.7q-1.468.132-2.988.211v2.83a9.306,9.306,0,0,1,3.041-.51q4.219,0,4.219,4.069A3.625,3.625,0,0,1-22.9-.211,8.041,8.041,0,0,1-26.71.5l-.149-1.652a5.142,5.142,0,0,0,2.944-.624,2.334,2.334,0,0,0,.8-1.986,2.323,2.323,0,0,0-.624-1.758,2.237,2.237,0,0,0-1.608-.545,8.785,8.785,0,0,0-3.094.5v4.271A2.127,2.127,0,0,1-28.916.29a1.806,1.806,0,0,1-1.266.378A3.384,3.384,0,0,1-31.913.141,3.164,3.164,0,0,1-33.768-2.54q0-2.47,3.524-4.157V-9.958q-2.057.079-3.252.1V-11.54Q-31.676-11.54-30.243-11.61Zm.044,6.732q-1.934,1.028-1.934,2.145A1.52,1.52,0,0,0-31.1-1.354a1.519,1.519,0,0,0,.615.167q.29,0,.29-.378Zm4.852-7.664,1.081-1.354a15.668,15.668,0,0,1,3.929,3.041L-21.656-9.4A13.1,13.1,0,0,0-25.348-12.542ZM-7.5-6.609h-7.849l-2.47.035q-.158,0-.185-.035a.3.3,0,0,1-.026-.158V-8.121q0-.141.035-.167a.355.355,0,0,1,.176-.026l2.47.035h7.014l2.487-.035a.194.194,0,0,1,.22.22q-.044.659-.044,1.318,0,.51.026.993A18.9,18.9,0,0,0-5.3-2.294,11.3,11.3,0,0,0-5-1.125q.132.308.36.308.334,0,.51-2.3a2.751,2.751,0,0,0,1.239.773q.325.123.325.334a3.914,3.914,0,0,1-.053.439,5.535,5.535,0,0,1-.7,2.3,1.383,1.383,0,0,1-1.187.563q-1.679,0-2.5-2.848A20.888,20.888,0,0,1-7.5-6.609Zm-7.69.87q1.45.976,2.417,1.705.519-.6,1.037-1.31a5.93,5.93,0,0,0,.545-1.011,6.141,6.141,0,0,1,1.547.738q.237.185.237.325T-9.642-5a2.119,2.119,0,0,0-.483.519,14.081,14.081,0,0,1-1.248,1.547q1.178.967,2.435,2.109A.3.3,0,0,1-8.8-.615a.3.3,0,0,1-.105.2L-9.914.633q-.158.158-.246.158a.289.289,0,0,1-.185-.105q-1.125-1.23-2.338-2.338a16.558,16.558,0,0,1-4.447,2.7,1.614,1.614,0,0,1-.448.141q-.158,0-.4-.413A3.987,3.987,0,0,0-18.9-.272,14.008,14.008,0,0,0-14.036-2.8q-1.2-.976-2.373-1.767-.123-.079-.123-.132t.141-.193l.844-.773q.158-.141.22-.141A.258.258,0,0,1-15.187-5.739Zm-3.8-4.614a11.179,11.179,0,0,0,3.129-3.955,3.83,3.83,0,0,0,.325-.958,11.42,11.42,0,0,1,1.635.4q.255.088.255.255a.372.372,0,0,1-.123.237,1.216,1.216,0,0,0-.308.4l-.272.554h8.051l2.461-.035a.32.32,0,0,1,.193.035.3.3,0,0,1,.026.158v1.318q0,.141-.044.167a.355.355,0,0,1-.176.026l-2.461-.035h-9a13.984,13.984,0,0,1-1.96,2.32q-.308.308-.413.308-.141,0-.4-.36A3.256,3.256,0,0,0-18.984-10.354ZM-12.9-9.29l-2.373.035a.278.278,0,0,1-.176-.035.416.416,0,0,1-.026-.185v-1.2q0-.141.044-.167a.275.275,0,0,1,.158-.026l2.373.035h5.08l2.391-.035a.278.278,0,0,1,.176.035.3.3,0,0,1,.026.158v1.2q0,.158-.044.193a.275.275,0,0,1-.158.026L-7.822-9.29ZM15.645-7.761a3.937,3.937,0,0,0-.615,1.116q-.2.483-.343.483a2.3,2.3,0,0,1-.413-.123A14.3,14.3,0,0,1,10.8-8.2,17.163,17.163,0,0,1,7.436-6.249,1.359,1.359,0,0,1,7-6.108q-.141,0-.343-.483a5.969,5.969,0,0,0-.571-.976v1.582l.035,1.7q0,.176-.2.176L3.946-4.148H3.6v1.169h.448l2.232-.035q.185,0,.185.2v1.151q0,.193-.185.193L4.052-1.5H3.6L3.639,1.2q0,.141-.035.167a.328.328,0,0,1-.167.026H2.109q-.149,0-.176-.035A.3.3,0,0,1,1.907,1.2q0-.026.009-.369.018-1.16.026-2.338H1.151l-2.188.035q-.149,0-.176-.035a.3.3,0,0,1-.026-.158V-2.812q0-.149.035-.176a.328.328,0,0,1,.167-.026l2.188.035h.791V-4.148H1.626l-1.96.035q-.2,0-.2-.176l.035-1.7V-8.771L-.536-10.45q0-.141.035-.167a.328.328,0,0,1,.167-.026l1.96.035h.343V-11.76H1.187l-2.118.035a.278.278,0,0,1-.176-.035.3.3,0,0,1-.026-.158v-1.169q0-.185.2-.185l2.118.035h.782a11.626,11.626,0,0,0-.132-1.854,14.733,14.733,0,0,1,1.714.132q.29.053.29.176a.931.931,0,0,1-.088.325,3.288,3.288,0,0,0-.132,1.169v.053h.431l2.162-.035q.176,0,.176.185v1.169q0,.193-.176.193L4.052-11.76H3.621v1.151h.325l1.978-.035q.149,0,.176.035a.3.3,0,0,1,.026.158L6.091-8.771V-7.6A13.841,13.841,0,0,0,9.527-9.352,11.362,11.362,0,0,1,7.383-12.48q-.255.018-.413.018T6.785-12.5a.239.239,0,0,1-.035-.158v-1.257q0-.141.044-.176a.355.355,0,0,1,.176-.026l2.162.035h3.744a1.036,1.036,0,0,0,.448-.088.547.547,0,0,1,.229-.07q.22,0,.747.527.536.554.536.747a.481.481,0,0,1-.22.36,3.127,3.127,0,0,0-.571.773A14.27,14.27,0,0,1,12.12-9.352,15.76,15.76,0,0,0,15.645-7.761ZM12.419-12.5H9.167a9.052,9.052,0,0,0,1.617,2.109A10.243,10.243,0,0,0,12.419-12.5ZM4.614-5.44V-6.794H3.551V-5.44Zm-3.639,0H2.039V-6.794H.976Zm0-2.575H2.039V-9.308H.976ZM4.614-9.308H3.551v1.292H4.614ZM14.476-4.86q.141,0,.167.035a.3.3,0,0,1,.026.158v1.283a.264.264,0,0,1-.031.163.264.264,0,0,1-.163.031l-2.145-.035H11.5V-.791h1.354L15.2-.826q.176,0,.176.193V.642a.32.32,0,0,1-.035.193A.229.229,0,0,1,15.2.861L12.858.826H8.5L6.179.861Q6.029.861,6,.817A.355.355,0,0,1,5.977.642V-.633A.264.264,0,0,1,6.007-.8a.286.286,0,0,1,.171-.031L8.5-.791H9.721V-3.226H9.185L7.058-3.19a.278.278,0,0,1-.176-.035.3.3,0,0,1-.026-.158V-4.667q0-.141.044-.167a.275.275,0,0,1,.158-.026l2.127.035h.536v-.088A15.1,15.1,0,0,0,9.6-7q.563.018,1.811.123.272.026.272.2a.966.966,0,0,1-.07.378A4.781,4.781,0,0,0,11.5-4.931v.105h.826Zm7.128.105,1.758.149a4.856,4.856,0,0,0-.211,1.362,1.317,1.317,0,0,0,.589,1.222,3.251,3.251,0,0,0,1.608.308,34.676,34.676,0,0,0,3.8-.211L29.2-.053Q27.606.07,25.471.07a5.061,5.061,0,0,1-3.208-.809,2.691,2.691,0,0,1-.879-2.2A7.761,7.761,0,0,1,21.6-4.755Zm.36-5.4v-1.784q2.294-.158,4.711-.158,1.178,0,2.373.07v1.749q-.914-.079-2.5-.079Q24.311-10.354,21.964-10.151Zm-1.424-3.6a44.428,44.428,0,0,0-.773,4.711,34.815,34.815,0,0,0-.255,3.823A33.543,33.543,0,0,0,19.942.5l-1.89.167a39.164,39.164,0,0,1-.413-5.924,38.5,38.5,0,0,1,.352-4.685q.272-2.145.642-3.99Zm19.907,1.441.22.738a12.124,12.124,0,0,0-1.819.984q-1.02.668-2.628,1.969l-1.187-1.2q1.714-1.134,2.944-1.837a19.743,19.743,0,0,1-2.443.176q-1.661,0-3.059-.035V-13.21q1.257.07,3.472.07,1.793,0,3.832-.141a13.084,13.084,0,0,0-.844-1.8l1.2-.325a15.556,15.556,0,0,1,1.239,2.786Zm.844-3.076,1.187-.343a17.072,17.072,0,0,1,1.283,2.865l-1.222.413A16.608,16.608,0,0,0,41.291-15.39ZM32.256-5.7l1.714.519a4.348,4.348,0,0,0-.7,2.232,1.354,1.354,0,0,0,.835,1.3,5.962,5.962,0,0,0,2.5.4,36.1,36.1,0,0,0,4.878-.255L41.493.466q-2.452.149-4.86.149-5.186,0-5.186-3.4A5.973,5.973,0,0,1,32.256-5.7ZM53.6,1.336H52.146q-.193,0-.193-.185l.035-6.8V-9.2l-.035-4.869q0-.149.035-.176a.3.3,0,0,1,.158-.026l2.215.035h3.454l2.2-.035q.141,0,.167.035a.328.328,0,0,1,.026.167L60.17-9.8v4.131L60.205,1.1q0,.185-.193.185H58.526q-.176,0-.176-.185V.272H53.824v.879q0,.132-.044.158A.355.355,0,0,1,53.6,1.336Zm.22-2.795h4.526v-2.6H53.824Zm0-11.048v2.549h4.526v-2.549Zm0,6.75h4.526v-2.5H53.824ZM45.36-2.821q-.193.264-.29.264t-.176-.29a5.841,5.841,0,0,0-.65-1.521A15.479,15.479,0,0,0,47.18-9.844h-.413l-1.854.035a.278.278,0,0,1-.176-.035A.3.3,0,0,1,44.71-10V-11.32q0-.141.035-.167a.328.328,0,0,1,.167-.026l1.854.035h.571v-1.116a16.227,16.227,0,0,0-.141-2.452q1.02.026,1.793.123.29.035.29.185a1.062,1.062,0,0,1-.105.378,6.851,6.851,0,0,0-.123,1.749v1.134l1.872-.035q.141,0,.167.035a.3.3,0,0,1,.026.158V-10q0,.141-.035.167a.3.3,0,0,1-.158.026l-1.767-.035A12.991,12.991,0,0,0,51.53-6.407a6.979,6.979,0,0,0-.677,1.389q-.132.29-.2.29T50.4-4.983A10.994,10.994,0,0,1,49-7.664q.009,3.067.07,6.425.018.712.044,1.872.009.519.009.6,0,.141-.035.167a.328.328,0,0,1-.167.026H47.47q-.149,0-.176-.035a.3.3,0,0,1-.026-.158q0-.079.026-1.318.07-3.771.1-6.855A16.152,16.152,0,0,1,45.36-2.821Zm23,3.735q0,.2-.176.2h-1.3q-.141,0-.167-.035a.328.328,0,0,1-.026-.167V.431H65.013v.826q0,.185-.2.185H63.519q-.2,0-.2-.185l.044-2.716V-2.61L63.316-4.3q0-.149.035-.176a.328.328,0,0,1,.167-.026l1.635.035h1.371L68.186-4.5q.176,0,.176.2l-.035,1.38V-.176a5.764,5.764,0,0,0,3.419-2.338,7.333,7.333,0,0,0,.976-3.445q.035-.448.035-.809a7.975,7.975,0,0,0-.053-.9,12.445,12.445,0,0,1,1.723.176q.343.062.343.237a.579.579,0,0,1-.105.325,3.124,3.124,0,0,0-.2,1.072,6.871,6.871,0,0,0,1.89,3.762A7.537,7.537,0,0,0,79.2-.325,5.99,5.99,0,0,0,78.46.94q-.211.448-.343.448A1.412,1.412,0,0,1,77.7,1.23a8.019,8.019,0,0,1-3.832-4.184,7.09,7.09,0,0,1-3.946,4.219,2.047,2.047,0,0,1-.413.123q-.149,0-.378-.448a4.316,4.316,0,0,0-.809-1.1q.009.475.026.835Q68.361.905,68.361.914Zm-1.67-3.885H65.013v1.925h1.679Zm12.437-5.4a4.762,4.762,0,0,0-.686,1.134q-.22.466-.36.466a1.565,1.565,0,0,1-.4-.105,6.55,6.55,0,0,1-3.832-3.674A6.421,6.421,0,0,1,70.04-6.855a2.768,2.768,0,0,1-.4.123q-.149,0-.4-.448a4.493,4.493,0,0,0-.738-.993,5.906,5.906,0,0,0,3.278-2.092,5.6,5.6,0,0,0,.967-3.032q.026-.439.026-.791a8.073,8.073,0,0,0-.044-.87q.747.044,1.67.185.36.053.36.211a.58.58,0,0,1-.123.325,2.331,2.331,0,0,0-.185.914,5.633,5.633,0,0,0,1.828,3.472A8.031,8.031,0,0,0,79.128-8.367ZM64.749-11.9h2l1.907-.035a.278.278,0,0,1,.176.035.3.3,0,0,1,.026.158v1.283q0,.149-.044.185a.275.275,0,0,1-.158.026l-1.907-.035h-2l-1.89.035q-.149,0-.176-.044a.328.328,0,0,1-.026-.167v-1.283q0-.141.035-.167a.328.328,0,0,1,.167-.026Zm.413-2.461h1.459l1.617-.035q.141,0,.167.035a.3.3,0,0,1,.026.158V-13q0,.185-.193.185l-1.617-.035H65.162l-1.644.035q-.176,0-.176-.185v-1.2q0-.193.176-.193Zm.105,5.019h1.151l1.494-.035q.158,0,.185.035a.258.258,0,0,1,.035.167v1.169q0,.141-.044.167a.355.355,0,0,1-.176.026l-1.494-.035H65.268l-1.529.035a.278.278,0,0,1-.176-.035.3.3,0,0,1-.026-.158V-9.176q0-.149.044-.176a.275.275,0,0,1,.158-.026Zm0,2.435h1.151l1.494-.044q.158,0,.185.035a.258.258,0,0,1,.035.167V-5.6q0,.149-.044.176a.355.355,0,0,1-.176.026l-1.494-.035H65.268L63.738-5.4a.278.278,0,0,1-.176-.035.328.328,0,0,1-.026-.167V-6.75q0-.141.044-.176a.275.275,0,0,1,.158-.026Zm4.931.949q.079-.149.149-.149a.558.558,0,0,1,.211.079l.9.466q.22.123.22.2a.475.475,0,0,1-.035.141A9.842,9.842,0,0,1,70.075-2.7q-.105.123-.185.123a.387.387,0,0,1-.211-.105l-.905-.686q-.167-.123-.167-.193,0-.044.1-.149A8.753,8.753,0,0,0,70.2-5.959Zm5.027,2.092a8.187,8.187,0,0,0,1.45-1.626,2.927,2.927,0,0,0,.343-.677,7.569,7.569,0,0,1,1.389.536q.325.158.325.308a.325.325,0,0,1-.2.272,1.263,1.263,0,0,0-.3.334,13.445,13.445,0,0,1-1.213,1.477q-.29.29-.4.29a1.421,1.421,0,0,1-.466-.29A5.747,5.747,0,0,0,75.226-3.867Zm.07-7.4a8.21,8.21,0,0,0,1.415-1.705,2.3,2.3,0,0,0,.325-.686,10.328,10.328,0,0,1,1.354.571q.29.158.29.272t-.176.272a1.235,1.235,0,0,0-.308.36,11.6,11.6,0,0,1-1.134,1.415q-.325.325-.439.325a.975.975,0,0,1-.413-.255A3.415,3.415,0,0,0,75.3-11.268Zm-4.931-2.1q.053-.149.105-.149a1.559,1.559,0,0,1,.229.07l.94.36q.2.088.2.185a.512.512,0,0,1-.026.123,9.459,9.459,0,0,1-1.4,2.5q-.105.123-.167.123a.387.387,0,0,1-.211-.105l-.888-.6q-.176-.114-.176-.176a.317.317,0,0,1,.088-.149A7.5,7.5,0,0,0,70.365-13.368Z" transform="translate(300 890)" fill="#333" stroke="rgba(0,0,0,0)" stroke-width="1"/>
      <path id="パス_9456" data-name="パス 9456" d="M-46.657-2.821a5.759,5.759,0,0,0,1.31.624A1.489,1.489,0,0,1-45-2.039a.232.232,0,0,1,.07.185q0,.062-.026.272a4.409,4.409,0,0,1-.3,1.441A1.612,1.612,0,0,1-45.8.51a5.483,5.483,0,0,1-3.006.536A9.081,9.081,0,0,1-51.508.791a1.246,1.246,0,0,1-.738-1.274V-4.21h-1.626A6.426,6.426,0,0,1-59.4,1.336a2.214,2.214,0,0,1-.378.053q-.185,0-.413-.448a4.054,4.054,0,0,0-.879-1.169Q-56.4-.809-55.85-4.21h-.035l-2.435.035A.3.3,0,0,1-58.5-4.21a.328.328,0,0,1-.026-.167l.035-2.188v-5.388l-.035-2.232q0-.141.035-.167a.387.387,0,0,1,.176-.026l2.47.035h5.8l2.452-.035q.149,0,.176.035a.3.3,0,0,1,.026.158l-.035,2.232v5.388l.035,2.188a.286.286,0,0,1-.031.171.286.286,0,0,1-.171.031l-2.452-.035h-.325v2.848q0,.519.325.589a6.482,6.482,0,0,0,1.4.088A3.084,3.084,0,0,0-47.1-.923Q-46.683-1.239-46.657-2.821ZM-49.3-5.757V-7.093h-7.339v1.336Zm0-6.952h-7.339v1.318H-49.3Zm-7.339,4.1H-49.3V-9.879h-7.339Zm30.173,8.5A4.755,4.755,0,0,0-27.154.958q-.193.413-.4.413a1.762,1.762,0,0,1-.466-.105A10.664,10.664,0,0,1-31.17-.36q-.088-.07-.088-.123t.167-.2l.861-.773h-3.762l-2.2.035q-.141,0-.167-.035a.3.3,0,0,1-.026-.158l.035-1.661V-6.1l-.035-1.644a.3.3,0,0,1,.035-.185.3.3,0,0,1,.158-.026l2.2.035h3.5l2.206-.035q.158,0,.193.044a.328.328,0,0,1,.026.167L-28.1-6.1v2.821l.035,1.661q0,.132-.035.163a.334.334,0,0,1-.185.031l-.519-.009q-.554-.018-1.222-.026A10.9,10.9,0,0,0-26.468-.105Zm-3.366-2.5v-.721h-4.808v.721Zm0-4.157h-4.808v.721h4.808Zm-4.808,2.426h4.808v-.694h-4.808Zm-3.683-10.67a10.455,10.455,0,0,1,1.081,1.081.466.466,0,0,1,.141.325q0,.167-.29.2a2.166,2.166,0,0,0-.571.176q-.431.185-1.046.4v2.681l1.336-.035q.176,0,.176.2V-8.71q0,.2-.176.2l-.378-.018q-.378-.009-.835-.026a8.94,8.94,0,0,0,1.969,2.707,5.672,5.672,0,0,0-.562,1.222q-.114.36-.237.36-.1,0-.281-.272a10.637,10.637,0,0,1-1.063-1.942l.105,7.708q0,.141-.035.167a.3.3,0,0,1-.158.026H-40.6q-.141,0-.167-.035a.3.3,0,0,1-.026-.158q0-.07.026-1.16.088-3.3.114-6.223A14.622,14.622,0,0,1-42.438-2.18q-.167.255-.281.255t-.2-.308a5.6,5.6,0,0,0-.571-1.459,14.91,14.91,0,0,0,2.514-4.86h-.229l-1.731.044q-.176,0-.176-.2V-9.984q0-.2.176-.2l1.731.035h.466v-2.162q-.686.176-1.116.255a2.269,2.269,0,0,1-.387.07.245.245,0,0,1-.22-.132,3.168,3.168,0,0,1-.149-.387,3.788,3.788,0,0,0-.5-1.011,13.9,13.9,0,0,0,4.069-1.063A3.61,3.61,0,0,0-38.325-15.012Zm7.866,4.395h-.993v.809h2.039l2.426-.035q.176,0,.176.193v.923q0,.193-.176.193l-2.426-.035h-5.2l-2.329.035q-.141,0-.167-.035a.3.3,0,0,1-.026-.158V-9.65q0-.141.035-.167a.3.3,0,0,1,.158-.026l2.329.035h1.4v-.809h-.721l-2.171.035a.278.278,0,0,1-.176-.035.3.3,0,0,1-.026-.158v-.853a.3.3,0,0,1,.035-.185.328.328,0,0,1,.167-.026l2.171.035h.721v-.817h-1.116l-2.338.044q-.158,0-.185-.044a.355.355,0,0,1-.026-.176v-.879q0-.149.035-.176a.355.355,0,0,1,.176-.026l2.338.035h1.116a9.388,9.388,0,0,0-.105-1.274q1.125.035,1.819.105.272.035.272.185a1.145,1.145,0,0,1-.105.316,1.5,1.5,0,0,0-.114.668h1.564l2.347-.035q.141,0,.167.035a.328.328,0,0,1,.026.167v.879a.32.32,0,0,1-.035.193.3.3,0,0,1-.158.026l-2.347-.044h-1.564v.817h.993l2.2-.035a.3.3,0,0,1,.185.035.355.355,0,0,1,.026.176v.853q0,.141-.035.167a.355.355,0,0,1-.176.026Zm-3.964,9.176a8.117,8.117,0,0,1,1.1.756q.22.167.22.255,0,.176-.22.237a3.213,3.213,0,0,0-.571.3,9.232,9.232,0,0,1-2.936,1.23,2.136,2.136,0,0,1-.431.088q-.185,0-.4-.431a3.639,3.639,0,0,0-.756-1.011,11.726,11.726,0,0,0,3.252-.94A3.1,3.1,0,0,0-34.422-1.441Zm12.929-7.2a1.738,1.738,0,0,1,1.336.6,1.726,1.726,0,0,1,.466,1.2,1.738,1.738,0,0,1-.6,1.336,1.747,1.747,0,0,1-1.2.466,1.721,1.721,0,0,1-1.336-.6,1.747,1.747,0,0,1-.466-1.2,1.721,1.721,0,0,1,.6-1.336A1.726,1.726,0,0,1-21.494-8.64Zm9.545,9.773h-1.608A.264.264,0,0,1-13.72,1.1.264.264,0,0,1-13.75.94l.035-6.407v-3.48l-.035-4.7a.3.3,0,0,1,.035-.185.328.328,0,0,1,.167-.026l2.479.035h6.179L-2.4-13.86q.141,0,.167.044a.328.328,0,0,1,.026.167l-.035,4.166v4L-2.21.844q0,.149-.035.176a.3.3,0,0,1-.158.026H-4q-.149,0-.176-.035A.328.328,0,0,1-4.206.844V-.035h-7.55V.94q0,.141-.035.167A.3.3,0,0,1-11.949,1.134Zm.193-2.953h7.55V-6.17h-7.55Zm0-10.222v4.1h7.55v-4.1ZM7.1-14.9a6.731,6.731,0,0,1,1.116,1.134.478.478,0,0,1,.149.3q0,.22-.325.22a2.09,2.09,0,0,0-.58.176q-.51.2-1.222.439v2.5l1.854-.035q.158,0,.185.035a.328.328,0,0,1,.026.167v1.274q0,.149-.035.176a.355.355,0,0,1-.176.026L7.871-8.5q-.615-.018-1.38-.026A9.3,9.3,0,0,0,8.556-5.563a5.987,5.987,0,0,0-.65,1.2q-.105.272-.211.272-.132,0-.308-.29a13.633,13.633,0,0,1-1.2-2.355q.009,2.883.07,5.8.018.5.044,1.626.009.457.009.554,0,.176-.193.176H4.663a.3.3,0,0,1-.185-.035.229.229,0,0,1-.026-.141q.123-2.558.141-7.172a14.642,14.642,0,0,1-1.8,3.639q-.2.29-.281.29-.105,0-.237-.29A5.217,5.217,0,0,0,1.551-3.56,14.888,14.888,0,0,0,4.3-8.525H3.924L2.052-8.49q-.141,0-.167-.035a.328.328,0,0,1-.026-.167V-9.967q0-.149.035-.176a.3.3,0,0,1,.158-.026l1.872.035h.6v-2.03q-.817.185-1.2.246a2.731,2.731,0,0,1-.4.062q-.193,0-.413-.492a4.839,4.839,0,0,0-.615-.967,16.878,16.878,0,0,0,4.465-1.151A4.509,4.509,0,0,0,7.1-14.9ZM10.208.826,7.756.861q-.141,0-.167-.035A.3.3,0,0,1,7.563.668V-.615a.264.264,0,0,1,.031-.163.264.264,0,0,1,.163-.031l2.452.035h1.854v-1.8H11.29L9.075-2.54q-.185,0-.185-.193V-3.92A.163.163,0,0,1,9.075-4.1l2.215.035h.773V-5.687H11.017l-2.3.035q-.158,0-.185-.035a.239.239,0,0,1-.035-.158v-1.23q0-.141.044-.167a.355.355,0,0,1,.176-.026l2.3.035h4.2l2.32-.035a.3.3,0,0,1,.185.035.3.3,0,0,1,.026.158v1.23a.264.264,0,0,1-.031.163.309.309,0,0,1-.18.031l-2.32-.035H13.847v1.617h1.046L17.108-4.1q.193,0,.193.185v1.187a.264.264,0,0,1-.031.163.264.264,0,0,1-.163.031l-2.215-.035H13.847v1.8h1.784l2.426-.035a.278.278,0,0,1,.176.035.3.3,0,0,1,.026.158V.668q0,.141-.044.167a.275.275,0,0,1-.158.026L15.631.826ZM14.761-14.2l2.171-.035a.278.278,0,0,1,.176.035.328.328,0,0,1,.026.167L17.1-12.454v2.2l.035,1.573q0,.149-.035.176a.328.328,0,0,1-.167.026l-2.171-.035H11.483L9.3-8.481q-.141,0-.167-.035a.328.328,0,0,1-.026-.167l.035-1.573v-2.2L9.11-14.036q0-.149.035-.176a.3.3,0,0,1,.158-.026l2.18.035Zm.571,4.14v-2.558H10.876v2.558Zm10.661-2.391q2.558-.114,4.658-.325l.07,1.564q-3.129.229-5.5.325a11.636,11.636,0,0,1-1.406,2.048l-.413.4.053.079.448-.325a2.655,2.655,0,0,1,1.547-.51,2.071,2.071,0,0,1,1.5.58A2.612,2.612,0,0,1,27.664-7.2q.729-.334,3.6-1.564l.7,1.688q-2.408.8-4.219,1.6v3.5H26.064v-2.7a9.5,9.5,0,0,0-2.18,1.441A1.527,1.527,0,0,0,23.4-2.162a1.016,1.016,0,0,0,.686,1.028,7.473,7.473,0,0,0,2.514.29q2.03,0,4.667-.255L31.355.58q-2.417.176-4.966.176-2.848,0-3.867-.817A2.367,2.367,0,0,1,21.74-2.03a3.093,3.093,0,0,1,.949-2.232,12.68,12.68,0,0,1,3.357-2.145,2.023,2.023,0,0,0-.3-1.151.839.839,0,0,0-.659-.237,3.289,3.289,0,0,0-1.986.949,18.049,18.049,0,0,0-2.021,2.109L19.745-5.889A19.8,19.8,0,0,0,23.4-10.837q-.51.018-1.424.018-.58,0-1.767-.035v-1.582q1.134.053,2,.053,1.239,0,1.907-.018a21.889,21.889,0,0,0,.738-2.355l1.854.3Q26.4-13.438,25.994-12.454ZM45.787-.712A7.221,7.221,0,0,0,46.9-.624a.815.815,0,0,0,.606-.167.806.806,0,0,0,.132-.527V-9.044H44.653l-1.978.035q-.141,0-.167-.035a.416.416,0,0,1-.026-.185l.035-1.485v-2.153L42.482-14.4q0-.149.035-.176a.3.3,0,0,1,.158-.026l1.978.035H47.3l2.013-.035q.149,0,.176.035a.328.328,0,0,1,.026.167l-.035,2.408v7.427l.053,3.577a2.347,2.347,0,0,1-.5,1.661,3.417,3.417,0,0,1-2.162.483q-.413,0-.492-.088a1.284,1.284,0,0,1-.141-.466A4.5,4.5,0,0,0,45.787-.712Zm1.854-12.533H44.275v.861h3.366Zm0,2.927v-.861H44.275v.861ZM38.4-.308a1.222,1.222,0,0,0-.554.149.458.458,0,0,1-.272.105q-.158,0-.237-.308-.114-.51-.229-1.371.325.018.58.018.457,0,.984-.035V-6.732q-.51.009-.932.026l-.29.009a.278.278,0,0,1-.176-.035.328.328,0,0,1-.026-.167V-7.928q0-.141.035-.167a.328.328,0,0,1,.167-.026l2.32.035h4.377l2.32-.035q.149,0,.176.035a.3.3,0,0,1,.026.158V-6.9q0,.149-.035.176a.328.328,0,0,1-.167.026L46.3-6.706q-.519-.018-1.116-.026v5.344L45.215.668a.3.3,0,0,1-.035.185.3.3,0,0,1-.158.026H43.756q-.141,0-.167-.035a.355.355,0,0,1-.026-.176q0-.018.009-.5.018-.5.026-1.046Q41.12-.545,38.4-.308ZM43.6-2.145V-2.83H40.241v.976Q41.41-1.934,43.6-2.145ZM40.241-3.981H43.6V-4.79H40.241Zm0-1.96H43.6v-.791H40.241Zm-1-8.622,1.819-.035q.176,0,.176.2L41.2-12.744v1.89l.035,1.626a.32.32,0,0,1-.035.193.229.229,0,0,1-.141.026l-1.819-.035H36.286v6.337l.035,3.867a.278.278,0,0,1-.035.176.3.3,0,0,1-.158.026H34.607a.264.264,0,0,1-.163-.031.286.286,0,0,1-.031-.171l.035-3.867v-7.787l-.035-3.9q0-.149.035-.176a.328.328,0,0,1,.167-.026l2.118.035Zm.193,1.318H36.286v.861h3.146Zm0,2.927v-.861H36.286v.861Zm19.406-4.228,1.7,1.187a74.611,74.611,0,0,1-5.7,5.854.835.835,0,0,0-.343.615q0,.211.536.624A54.043,54.043,0,0,1,61.308-.36L59.682.993a44.32,44.32,0,0,0-6.706-6.68,1.441,1.441,0,0,1-.6-1.169,1.533,1.533,0,0,1,.483-1.116q2.232-2.232,3.331-3.437Q57.511-12.85,58.838-14.546Z" transform="translate(562 890)" fill="#333" stroke="rgba(0,0,0,0)" stroke-width="1"/>
      <path id="パス_9453" data-name="パス 9453" d="M-37.932-.618V-4.211a6.905,6.905,0,0,0,2.123,1.23,6.823,6.823,0,0,0,2.313.41A5.13,5.13,0,0,0-32.3-2.7a2.8,2.8,0,0,0,.854-.343,1.494,1.494,0,0,0,.511-.517,1.289,1.289,0,0,0,.168-.646,1.4,1.4,0,0,0-.27-.842,2.9,2.9,0,0,0-.736-.685,7.686,7.686,0,0,0-1.106-.606q-.64-.292-1.381-.6a7.05,7.05,0,0,1-2.813-1.92A4.193,4.193,0,0,1-38-11.59a4.364,4.364,0,0,1,.505-2.162,4.292,4.292,0,0,1,1.376-1.488A6.169,6.169,0,0,1-34.1-16.1a10.358,10.358,0,0,1,2.426-.275,14.59,14.59,0,0,1,2.229.152,8.767,8.767,0,0,1,1.791.466V-12.4a5.416,5.416,0,0,0-.882-.494,6.985,6.985,0,0,0-.983-.354,7.5,7.5,0,0,0-1.005-.208,7.114,7.114,0,0,0-.949-.067A4.949,4.949,0,0,0-32.6-13.4a2.881,2.881,0,0,0-.854.331,1.648,1.648,0,0,0-.539.511,1.211,1.211,0,0,0-.191.668,1.276,1.276,0,0,0,.213.724,2.448,2.448,0,0,0,.606.606,6.436,6.436,0,0,0,.955.562q.562.275,1.269.567a14.141,14.141,0,0,1,1.735.859,6.168,6.168,0,0,1,1.32,1.028,4,4,0,0,1,.842,1.308,4.623,4.623,0,0,1,.292,1.713,4.588,4.588,0,0,1-.511,2.263A4.149,4.149,0,0,1-28.846-.781a6.014,6.014,0,0,1-2.038.814,11.78,11.78,0,0,1-2.454.247A13.645,13.645,0,0,1-35.86.056,7.611,7.611,0,0,1-37.932-.618Zm24.943-12.533h-4.593V0h-3.639V-13.151h-4.571V-16.1h12.8ZM-1.163,0h-9.658V-16.1h9.288v2.954h-5.66v3.583h5.267v2.942H-7.194v3.684h6.031Zm6.21-5.548V0H1.42V-16.1H7.1q6.087,0,6.087,5.132a4.924,4.924,0,0,1-1.746,3.925,6.918,6.918,0,0,1-4.666,1.5Zm0-7.771V-8.3H6.473q2.9,0,2.9-2.538,0-2.482-2.9-2.482Zm28.41-10.3V0H28.382V-17.886a6.078,6.078,0,0,1-.991.7,10.23,10.23,0,0,1-1.217.6,10.863,10.863,0,0,1-1.337.451,9.768,9.768,0,0,1-1.37.266v-4.286a21.173,21.173,0,0,0,3.738-1.482,21.274,21.274,0,0,0,3.174-1.982Z" transform="translate(265 729)" fill="#fff" stroke="rgba(0,0,0,0)" stroke-width="1"/>
      <path id="パス_9454" data-name="パス 9454" d="M-37.932-.618V-4.211a6.905,6.905,0,0,0,2.123,1.23,6.823,6.823,0,0,0,2.313.41A5.13,5.13,0,0,0-32.3-2.7a2.8,2.8,0,0,0,.854-.343,1.494,1.494,0,0,0,.511-.517,1.289,1.289,0,0,0,.168-.646,1.4,1.4,0,0,0-.27-.842,2.9,2.9,0,0,0-.736-.685,7.686,7.686,0,0,0-1.106-.606q-.64-.292-1.381-.6a7.05,7.05,0,0,1-2.813-1.92A4.193,4.193,0,0,1-38-11.59a4.364,4.364,0,0,1,.505-2.162,4.292,4.292,0,0,1,1.376-1.488A6.169,6.169,0,0,1-34.1-16.1a10.358,10.358,0,0,1,2.426-.275,14.59,14.59,0,0,1,2.229.152,8.767,8.767,0,0,1,1.791.466V-12.4a5.416,5.416,0,0,0-.882-.494,6.985,6.985,0,0,0-.983-.354,7.5,7.5,0,0,0-1.005-.208,7.114,7.114,0,0,0-.949-.067A4.949,4.949,0,0,0-32.6-13.4a2.881,2.881,0,0,0-.854.331,1.648,1.648,0,0,0-.539.511,1.211,1.211,0,0,0-.191.668,1.276,1.276,0,0,0,.213.724,2.448,2.448,0,0,0,.606.606,6.436,6.436,0,0,0,.955.562q.562.275,1.269.567a14.141,14.141,0,0,1,1.735.859,6.168,6.168,0,0,1,1.32,1.028,4,4,0,0,1,.842,1.308,4.623,4.623,0,0,1,.292,1.713,4.588,4.588,0,0,1-.511,2.263A4.149,4.149,0,0,1-28.846-.781a6.014,6.014,0,0,1-2.038.814,11.78,11.78,0,0,1-2.454.247A13.645,13.645,0,0,1-35.86.056,7.611,7.611,0,0,1-37.932-.618Zm24.943-12.533h-4.593V0h-3.639V-13.151h-4.571V-16.1h12.8ZM-1.163,0h-9.658V-16.1h9.288v2.954h-5.66v3.583h5.267v2.942H-7.194v3.684h6.031Zm6.21-5.548V0H1.42V-16.1H7.1q6.087,0,6.087,5.132a4.924,4.924,0,0,1-1.746,3.925,6.918,6.918,0,0,1-4.666,1.5Zm0-7.771V-8.3H6.473q2.9,0,2.9-2.538,0-2.482-2.9-2.482Zm21.917,9.1h9.8V0H21.388V-1.74a8.1,8.1,0,0,1,.6-3.182,10.561,10.561,0,0,1,1.5-2.53,13,13,0,0,1,1.974-1.982q1.072-.862,2.038-1.555,1.015-.725,1.781-1.386a10.146,10.146,0,0,0,1.289-1.313,4.993,4.993,0,0,0,.781-1.321,3.93,3.93,0,0,0,.258-1.426,2.866,2.866,0,0,0-.838-2.24,3.725,3.725,0,0,0-2.562-.757,8.605,8.605,0,0,0-5.7,2.369v-4.479a12.245,12.245,0,0,1,6.8-1.95,10.042,10.042,0,0,1,3.15.459,6.665,6.665,0,0,1,2.361,1.313,5.6,5.6,0,0,1,1.474,2.071,6.988,6.988,0,0,1,.508,2.715A7.656,7.656,0,0,1,36.3-14.1,8.714,8.714,0,0,1,35-11.843a11.839,11.839,0,0,1-1.877,1.861q-1.063.846-2.208,1.635-.773.548-1.49,1.088A14.13,14.13,0,0,0,28.156-6.2a5.773,5.773,0,0,0-.87,1.023A1.766,1.766,0,0,0,26.964-4.222Z" transform="translate(527 729)" fill="#fff" stroke="rgba(0,0,0,0)" stroke-width="1"/>
      <g id="矢印アイコン_下5" data-name="矢印アイコン　下5" transform="translate(420 818.199) rotate(-90)">
        <path id="パス_9241" data-name="パス 9241" d="M19.022,8.854A.976.976,0,0,0,18,8.465l-4.194.979V1.41A1.41,1.41,0,0,0,12.4,0H6.8a1.411,1.411,0,0,0-1.41,1.41V9.445L1.2,8.465A.976.976,0,0,0,.156,9.945L8.721,21.809a1.085,1.085,0,0,0,1.759,0L19.044,9.945A.974.974,0,0,0,19.022,8.854Z" transform="translate(0)" fill="#00a9c6"/>
      </g>
      <g id="STEP1" transform="translate(-35 -9)">
        <rect id="長方形_3114-2" data-name="長方形 3114" width="100" height="100" transform="translate(285 758)" fill="rgba(255,255,255,0)"/>
        <path id="パス_9422" data-name="パス 9422" d="M73.508,130.808a18.063,18.063,0,1,0-18.133-18.063A18.119,18.119,0,0,0,73.508,130.808Zm0-33.136a15.073,15.073,0,1,1-15.143,15.073A15.125,15.125,0,0,1,73.508,97.672Zm18.37,36.372H86.8a1.494,1.494,0,0,0-1.375.908L79.683,148.4l-2-7.151,2.3-5.1a1.5,1.5,0,0,0-1.363-2.11H68.4a1.495,1.495,0,0,0-1.363,2.11l2.3,5.1-2,7.151-5.743-13.451a1.494,1.494,0,0,0-1.375-.908H55.138a16.617,16.617,0,0,0-16.63,16.566v21.147H41.5V150.611a13.623,13.623,0,0,1,13.64-13.576h4.088l12.906,30.227a1.5,1.5,0,0,0,2.75,0l12.906-30.227h4.089a13.623,13.623,0,0,1,13.639,13.576v21.147h2.99V150.611A16.617,16.617,0,0,0,91.877,134.044Zm-18.37,28.822-4.3-10.07,3.152-11.261a1.5,1.5,0,0,0-.077-1.018l-1.572-3.483H76.3l-1.572,3.483a1.5,1.5,0,0,0-.077,1.018L77.807,152.8Z" transform="translate(261.492 674.319)" fill="#00a9c6"/>
      </g>
    </g>
    <rect id="長方形_3910" data-name="長方形 3910" width="580" height="130" transform="translate(200 1413)" fill="#00a9c6"/>
    <g id="グループ_5452" data-name="グループ 5452" transform="translate(10 395)">
      <g id="グループ_5423" data-name="グループ 5423" transform="translate(-375 -558)">
        <path id="パス_9452" data-name="パス 9452" d="M6.631-16.105q-2.311.123-4.73.123v-1.764q2.8,0,5.018-.123.383-2.844.533-4.895l2.064.191q-.219,2.051-.643,4.621,2.721-.178,6.193-.479l.027,1.764q-2.857.3-6.508.479A106.335,106.335,0,0,1,4.17.861L2.215.191A95.761,95.761,0,0,0,6.631-16.105Zm3.418,10.76,1.736.137a7.357,7.357,0,0,0-.164,1.572,2.149,2.149,0,0,0,1.025,2.16,8.436,8.436,0,0,0,3.117.383A33.039,33.039,0,0,0,20.1-1.312L20.207.615q-1.668.164-4.088.164-3.65,0-4.99-.943A3.474,3.474,0,0,1,9.857-3.227,10.443,10.443,0,0,1,10.049-5.346Zm1.422-5.988v-1.859a80.111,80.111,0,0,1,8.518-.383v1.791A64.323,64.323,0,0,0,11.471-11.334ZM38.9-23.133l1.436-.561A37.548,37.548,0,0,1,42.4-18.949l-1.5.615A30.246,30.246,0,0,0,38.9-23.133Zm3.117-.889,1.395-.506a22.654,22.654,0,0,1,1.982,4.594l-1.449.588A26.975,26.975,0,0,0,42.014-24.021ZM24.281-17.664l-.109-1.846a47.255,47.255,0,0,0,8.012-.793l.752,1.764a13.255,13.255,0,0,0-4.867,5.332,14.868,14.868,0,0,0-1.654,6.932A6.17,6.17,0,0,0,27.74-2,4.319,4.319,0,0,0,31.09-.67a5.737,5.737,0,0,0,5.387-3.172,15.083,15.083,0,0,0,1.449-7.219,27.066,27.066,0,0,0-1.436-8.545l2-.643A39.887,39.887,0,0,0,44.27-10.227L42.6-8.818A27.358,27.358,0,0,1,39.184-15.2l-.424-1.258-.164.055.3,1.285a24.109,24.109,0,0,1,.725,5.018q0,11.389-8.312,11.389-6.863,0-6.863-7.643a16.116,16.116,0,0,1,1.613-7,15,15,0,0,1,3.719-4.949A45.462,45.462,0,0,1,24.281-17.664Zm33.66,4.525h7.137v1.859H57.941q-.068,5.66-2.187,8.518a13.286,13.286,0,0,1-5.523,3.91L48.836-.369q4.047-1.7,5.537-4.252a13.678,13.678,0,0,0,1.408-6.658H47.1v-1.859h8.682V-18.17q-3.445.643-6.781.984l-.779-1.8A59.069,59.069,0,0,0,62.3-21.834l1.039,1.764a54.731,54.731,0,0,1-5.4,1.449ZM79.105-9.434v-5.346H69.439V-16.6H81.2V.561H69.3V-1.23h9.8V-7.643h-9.27V-9.434Zm13.139-8.285A26.254,26.254,0,0,1,87.09-9.666l-1.6-1.23a24.493,24.493,0,0,0,6.043-11.648l2.215.342q-.287,1.08-.807,2.625h9.707Q101.336-9.926,97.3-4.867A20.946,20.946,0,0,1,88.457,1.34l-1.23-1.5A19.391,19.391,0,0,0,96.2-6.795a25.163,25.163,0,0,0,3.938-10.924Zm25.58,8.955v5.537h-1.873V-7.9q-.643.328-1.326.711-3.582,2.023-3.582,4.061A1.855,1.855,0,0,0,112.3-1.244a12.793,12.793,0,0,0,4.156.465q2.939,0,6.822-.342l.082,1.9q-5.1.26-6.768.26-4.389,0-5.934-1.025a3.543,3.543,0,0,1-1.408-3.2q0-2.926,3.76-5.1,1.422-.807,2.912-1.545-.137-2.625-1.818-2.625-2.352,0-6.453,4.73L106.2-9.01a32.7,32.7,0,0,0,5.8-8.271q-2.557.041-5.127,0V-18.99q2.953.055,5.906,0a25.02,25.02,0,0,0,1.258-3.746l2.023.369a28.754,28.754,0,0,1-1.176,3.295q3.938-.123,7.479-.479l.055,1.709q-4.594.369-8.285.479a28.594,28.594,0,0,1-2.352,3.979l-.711.725.082.109a4.983,4.983,0,0,1,3.336-1.422,3.042,3.042,0,0,1,2.229.848,3.963,3.963,0,0,1,1.053,2.434q2.188-1,5.688-2.475l.779,1.914Q119.684-9.584,117.824-8.764Zm34.139,2.912q0,.246-.219.246L147.82-5.66h-9.133l-3.91.055q-.232,0-.232-.246v-.957q0-.219.232-.219l3.91.055h.738V-9.5l-3.678.055q-.219,0-.219-.246v-.957a.193.193,0,0,1,.219-.219l3.678.055v-.164a9.072,9.072,0,0,0-.178-1.969,13.873,13.873,0,0,1,1.627.178q.342.041.342.219a.8.8,0,0,1-.137.424,1.828,1.828,0,0,0-.15.916v.4h4.2v-.109a9.538,9.538,0,0,0-.164-2.023q1.258.109,1.654.178.369.041.369.246a.963.963,0,0,1-.178.424,1.756,1.756,0,0,0-.137.807v.479h.109l3.787-.055a.193.193,0,0,1,.219.219v.957q0,.246-.219.246L146.781-9.5h-.109v2.529h1.148l3.924-.055a.193.193,0,0,1,.219.219Zm-6.836-1.121V-9.5h-4.2v2.529Zm7.957,6.193A2.51,2.51,0,0,0,152.578.4a1,1,0,0,1-.164.506,1.073,1.073,0,0,1-.479.1Q146.48,1.34,142,1.34q-5.018,0-6.891-.9a5.561,5.561,0,0,1-2.693-2.762A34.189,34.189,0,0,1,129.473.4a2.375,2.375,0,0,0-.588.588q-.164.246-.328.246t-.342-.246a11.163,11.163,0,0,1-.807-1.463,10.692,10.692,0,0,0,1.709-1.039,19,19,0,0,0,2.516-2.256v-6.945h-2.01l-1.914.055q-.219,0-.219-.26v-1.2a.193.193,0,0,1,.219-.219l1.914.055h1.422l2.023-.055a.193.193,0,0,1,.219.219l-.055,2.639v5.824A4.589,4.589,0,0,0,135.748-.9a16.473,16.473,0,0,0,5.605.67Q147.178-.232,153.084-.779Zm-1.258-14.67a2.2,2.2,0,0,1-.643,1.34q-.588.479-3.527.479-2.666,0-3.172-.424a1.438,1.438,0,0,1-.451-.67,4.616,4.616,0,0,1-.137-1.312v-1.381l-.055-1.094a.193.193,0,0,1,.219-.219l2.051.055h3.363v-2.051h-3.254l-2.352.055q-.246,0-.246-.219v-.971q0-.232.246-.232l2.352.055H148.6l2.229-.055a.193.193,0,0,1,.219.219l-.068,1.627v.957l.068,1.709a.193.193,0,0,1-.219.219l-2.229-.055h-3.158v1.066q0,1,.246,1.217a5.966,5.966,0,0,0,2.3.219,4.305,4.305,0,0,0,2.133-.287,2.5,2.5,0,0,0,.3-1.49,3.511,3.511,0,0,0,1.039.533q.41.164.41.369A2.824,2.824,0,0,1,151.826-15.449Zm-9.379,0a2.2,2.2,0,0,1-.643,1.34q-.588.479-3.309.479-2.611,0-3.1-.424a1.385,1.385,0,0,1-.492-.67,5.106,5.106,0,0,1-.123-1.312v-1.381l-.055-1.094q0-.219.246-.219l1.982.055h3.309v-2.051h-3.186l-2.393.055a.193.193,0,0,1-.219-.219v-.971q0-.232.219-.232l2.393.055H139.4l2.215-.055a.193.193,0,0,1,.219.219l-.055,1.627v.957l.055,1.709a.193.193,0,0,1-.219.219l-2.215-.055h-3.09v1.039q0,1.025.26,1.244a4.865,4.865,0,0,0,2.037.219,4.223,4.223,0,0,0,2.215-.314q.246-.232.273-1.463a3.111,3.111,0,0,0,1.012.561q.369.137.369.355Q142.475-15.7,142.447-15.449Zm9.27,12.879a3.009,3.009,0,0,0-.615.861q-.246.438-.437.438a1.682,1.682,0,0,1-.41-.1A22.359,22.359,0,0,1,145-4.307q-.15-.1-.15-.164,0-.1.164-.26l.506-.479q.191-.191.287-.191a.467.467,0,0,1,.219.109A17.976,17.976,0,0,0,151.717-2.57ZM133.15-18.088a.337.337,0,0,1,.055.15q0,.1-.246.3l-.656.506a.886.886,0,0,1-.369.205q-.1,0-.191-.15a19.964,19.964,0,0,0-3.1-4.033.224.224,0,0,1-.082-.137q0-.082.273-.26l.629-.451a.988.988,0,0,1,.328-.164.276.276,0,0,1,.164.082A24.832,24.832,0,0,1,133.15-18.088Zm8.313,13.781q-.041.178-.369.273a1.833,1.833,0,0,0-.4.246,4.487,4.487,0,0,1-.41.26A19.121,19.121,0,0,1,136.568-1.6a1.627,1.627,0,0,1-.437.123q-.164,0-.465-.369a2.052,2.052,0,0,0-.752-.67A21.539,21.539,0,0,0,139-4.361,5.128,5.128,0,0,0,140.123-5.4a8.072,8.072,0,0,1,1.08.725q.26.178.26.328Zm28.711-18.744,1.436-.547a36.549,36.549,0,0,1,2.064,4.73l-1.5.615A30.246,30.246,0,0,0,170.174-23.051ZM160.658-1.846a11.793,11.793,0,0,0,4.143.7q2.8,0,2.8-2.461a5.56,5.56,0,0,0-.971-2.939,18.723,18.723,0,0,0-1.941-2.461q-2.434-2.68-2.434-4.238a4.278,4.278,0,0,1,.629-2.2,13.636,13.636,0,0,1,1.49-1.914l1.654,1.176q-1.818,1.654-1.818,2.748a2.76,2.76,0,0,0,.615,1.545q.41.574,1.6,1.9a17.569,17.569,0,0,1,2.42,3.213,7.261,7.261,0,0,1,.861,3.473,3.721,3.721,0,0,1-1.217,2.953A5.25,5.25,0,0,1,164.91.752a14.912,14.912,0,0,1-4.143-.643ZM158.033-10.5l1.9.725a44.445,44.445,0,0,1-2.666,9.434l-1.9-.779A37.75,37.75,0,0,0,158.033-10.5Zm12.7-.451,1.941-.615A44.479,44.479,0,0,1,175.615-1.34l-2.078.67A37.159,37.159,0,0,0,170.734-10.951Zm-10.691-9.3.643-1.709a87.869,87.869,0,0,1,9.352,1.627l-.725,1.791A69.517,69.517,0,0,0,160.043-20.248Zm13.3-3.746,1.395-.506a23.133,23.133,0,0,1,2,4.594l-1.463.588A26.976,26.976,0,0,0,173.346-23.994Z" transform="translate(735 1653)" fill="#fff"/>
      </g>
      <g id="STEP1-2" data-name="STEP1" transform="translate(230 1023)">
        <g id="グループ_5428" data-name="グループ 5428" transform="translate(-703 -3686)">
          <rect id="長方形_3464" data-name="長方形 3464" width="100" height="100" rx="50" transform="translate(703 3696)" fill="#fff"/>
          <g id="グループ_5430" data-name="グループ 5430" transform="translate(723 3718)">
            <path id="パス_1" data-name="パス 1" d="M60.334,20.864H35.558v-.613q0-6.5,0-13A7.154,7.154,0,0,1,42.8.01q5.229-.016,10.458,0a7.093,7.093,0,0,1,7.1,6.951c.053,4.518.013,9.036.013,13.554C60.37,20.6,60.353,20.68,60.334,20.864ZM54.753,13.58c.011-.178.029-.326.029-.474,0-1.929,0-3.858,0-5.787A1.579,1.579,0,0,0,53.045,5.6q-5.076-.005-10.153,0a1.6,1.6,0,0,0-1.746,1.78q0,2.842,0,5.686c0,.177.016.354.024.518Z" transform="translate(-18.001 0)" fill="#979797"/>
            <path id="パス_2" data-name="パス 2" d="M34.807,76.039c-1.066.081-2.055.144-3.042.235-.93.085-1.466-.242-1.471-.949a.856.856,0,0,1,.835-.961c2.34-.189,4.683-.355,7.025-.523a.9.9,0,0,1,1.09.918c.038.673-.4.961-1.011,1.023-.451.046-.9.076-1.377.115l-.362,1.623c.751,0,1.454,0,2.158,0,.766,0,1.207.371,1.2,1,0,.595-.438.946-1.181.949-.858,0-1.716,0-2.6,0-.2.906-.388,1.76-.582,2.611a3.405,3.405,0,0,1-3.315,2.757c-.557.023-1.116.017-1.674.011a.9.9,0,0,1-.982-.937.931.931,0,0,1,.983-1c.655-.046,1.317-.021,1.966-.106a1.268,1.268,0,0,0,1.1-1.111c.149-.706.306-1.41.482-2.223H32.571c-.913,0-1.827,0-2.74,0a.9.9,0,0,1-1.033-.932.92.92,0,0,1,1.022-1.008c1.353-.021,2.707-.007,4.06-.007h.6Z" transform="translate(-14.579 -37.382)" fill="#979797"/>
            <path id="パス_3" data-name="パス 3" d="M72.212,53.578c0,.7.01,1.271,0,1.842a3.131,3.131,0,0,1-2.53,3.186,10.887,10.887,0,0,1-3.719.008c-1.917-.363-2.838-2.241-2.472-4.414A10.72,10.72,0,0,1,65.3,50.217c.09-.141.175-.285.324-.529-.476,0-.87.005-1.264,0a.965.965,0,0,1-.038-1.93c1.031-.035,2.066-.041,3.1,0a.983.983,0,0,1,.733,1.61c-.683,1.109-1.465,2.168-2.034,3.333a8.572,8.572,0,0,0-.71,2.65,1.315,1.315,0,0,0,1.415,1.441q.989.022,1.98,0A1.431,1.431,0,0,0,70.266,55.3c.008-1.2-.04-2.406.029-3.6a1.35,1.35,0,0,1,.556-1,1.382,1.382,0,0,1,1.139.19c.768.519,1.466,1.143,2.184,1.734a.984.984,0,1,1-1.258,1.5C72.723,53.961,72.518,53.813,72.212,53.578Z" transform="translate(-32.09 -24.164)" fill="#979797"/>
            <path id="パス_4" data-name="パス 4" d="M25.1,34.907H17.828V27.629H25.1Z" transform="translate(-9.026 -13.988)" fill="#172f66"/>
            <path id="パス_5" data-name="パス 5" d="M89.012,27.6h7.259v7.269H89.012Z" transform="translate(-45.065 -13.975)" fill="#e4021f"/>
            <path id="パス_6" data-name="パス 6" d="M114.053,80.987v7.282h-7.266V80.987Z" transform="translate(-54.064 -41.002)" fill="#e7391b"/>
            <path id="パス_7" data-name="パス 7" d="M53.438,98.782h7.251v7.269H53.438Z" transform="translate(-27.054 -50.011)" fill="#ed6b12"/>
            <path id="パス_8" data-name="パス 8" d="M7.291,88.259H.021V80.993h7.27Z" transform="translate(-0.01 -41.005)" fill="#427936"/>
            <path id="パス_9" data-name="パス 9" d="M.04,45.385H7.3v7.252H.04Z" transform="translate(-0.02 -22.978)" fill="#2ba63b"/>
            <path id="パス_10" data-name="パス 10" d="M106.783,45.375h7.261v7.27h-7.261Z" transform="translate(-54.062 -22.972)" fill="#0e973d"/>
            <path id="パス_11" data-name="パス 11" d="M.007,70.481v-7.26H7.284v7.26Z" transform="translate(-0.003 -32.007)" fill="#0273b8"/>
            <path id="パス_12" data-name="パス 12" d="M114.072,63.22v7.256H106.8V63.22Z" transform="translate(-54.072 -32.007)" fill="#c40d28"/>
            <path id="パス_13" data-name="パス 13" d="M25.139,106.064H17.9V98.8h7.236Z" transform="translate(-9.064 -50.021)" fill="#f4a10d"/>
            <path id="パス_14" data-name="パス 14" d="M42.881,106.07H35.62V98.8h7.261Z" transform="translate(-18.034 -50.019)" fill="#db007b"/>
            <path id="パス_15" data-name="パス 15" d="M96.305,106.068H89.033V98.813h7.272Z" transform="translate(-45.075 -50.027)" fill="#fbbd02"/>
            <path id="パス_16" data-name="パス 16" d="M71.217,98.808h7.245v7.242H71.217Z" transform="translate(-36.056 -50.024)" fill="#970931"/>
            <path id="パス_17" data-name="パス 17" d="M79.958,76.853H76.293a16.551,16.551,0,0,1-1.054,1.989,2.924,2.924,0,0,1-2.3,1.121.98.98,0,1,1-.225-1.946c1.071-.191,1.3-.464,1.5-1.7.214-1.3.347-1.419,1.664-1.42q2.562,0,5.125,0c.868,0,1.29.507,1.109,1.335-.4,1.83-.8,3.66-1.214,5.486a4.376,4.376,0,0,1-4.562,3.665c-.609.006-1.218,0-1.827,0a.945.945,0,0,1-1.08-.95c-.046-.577.428-.985,1.1-.994s1.353.007,2.029-.014a2.286,2.286,0,0,0,2.186-1.454,6.039,6.039,0,0,0,.324-1.063C79.375,79.58,79.657,78.247,79.958,76.853Z" transform="translate(-36.362 -37.916)" fill="#979797"/>
            <path id="パス_18" data-name="パス 18" d="M106.781,34.9V27.674A7.188,7.188,0,0,1,114.05,34.9Z" transform="translate(-54.061 -14.003)" fill="#d7a611"/>
            <path id="パス_19" data-name="パス 19" d="M.008,34.773c-.225-3.681,4.044-7.929,7.261-7.118v7.118Z" transform="translate(0 -13.95)" fill="#044b88"/>
            <path id="パス_20" data-name="パス 20" d="M106.777,106.085V98.822H114C114.323,101.977,111.316,106.109,106.777,106.085Z" transform="translate(-54.059 -50.032)" fill="#02a7d8"/>
            <path id="パス_21" data-name="パス 21" d="M.077,98.806h7.23q0,3.616,0,7.223A7.15,7.15,0,0,1,.077,98.806Z" transform="translate(-0.036 -50.023)" fill="#d39116"/>
            <path id="パス_22" data-name="パス 22" d="M57.806,83.955c-1.213,0-2.428.006-3.642,0-.717,0-1.132-.373-1.093-.975s.4-.852.984-.851c1.384,0,2.769,0,4.14,0a1.15,1.15,0,0,0-1.126-1.509c-.727-.022-1.455,0-2.183-.008-.619,0-1.087-.241-1.083-.928s.462-.911,1.093-.9c.711.012,1.422,0,2.133,0a3.052,3.052,0,0,1,3.061,3.576,24.72,24.72,0,0,1-.6,2.716,3.014,3.014,0,0,1-2.967,2.247c-1.066.009-2.133,0-3.2,0-.635,0-1.028-.32-1.017-.939.011-.592.4-.9,1.014-.892,1.032.005,2.065.008,3.1,0A1.324,1.324,0,0,0,57.806,83.955Z" transform="translate(-26.482 -39.886)" fill="#979797"/>
            <path id="パス_23" data-name="パス 23" d="M38.057,49.508c-.814-.073-1.942.2-1.826-1.043.136-1.447,1.45-.715,2.293-.986.251-.653.174-1.747,1.386-1.517.837.159.832.85.653,1.584,1.261,0,2.476,0,3.691,0,.776,0,1.2.352,1.2.985s-.413.964-1.211.963c-1.366,0-2.732,0-4.137,0-.429,1.887-.848,3.726-1.266,5.566-.135.592-.258,1.187-.409,1.775s-.517.932-1.146.794a.944.944,0,0,1-.746-1.274c.466-2.109.949-4.214,1.424-6.322C38,49.875,38.023,49.712,38.057,49.508Z" transform="translate(-18.339 -23.254)" fill="#979797"/>
            <path id="パス_24" data-name="パス 24" d="M49.195,65.9a4.1,4.1,0,0,1-3.208-.885A4.439,4.439,0,0,1,44.9,63.7a1.261,1.261,0,0,1,.225-1.175c.246-.2,1.061-.2,1.178,0,.933,1.524,2.367,1.447,3.842,1.394,1.143-.041,1.625.278,1.644.97s-.5,1.016-1.659,1.016Z" transform="translate(-22.701 -31.579)" fill="#979797"/>
            <path id="パス_25" data-name="パス 25" d="M49.77,55.519c.624,0,1.249-.013,1.873,0a.885.885,0,0,1,.944.917.9.9,0,0,1-.915,1.006q-1.9.061-3.8,0a.91.91,0,0,1-.921-1.007.882.882,0,0,1,.943-.918C48.521,55.506,49.145,55.519,49.77,55.519Z" transform="translate(-23.771 -28.106)" fill="#979797"/>
            <path id="パス_26" data-name="パス 26" d="M77.112,49.385A1,1,0,1,1,77.2,47.4a.976.976,0,0,1,.989,1.009A1.012,1.012,0,0,1,77.112,49.385Z" transform="translate(-38.527 -23.996)" fill="#979797"/>
            <path id="パス_27" data-name="パス 27" d="M82.749,47.389A1.017,1.017,0,0,1,83.785,48.4a.953.953,0,0,1-1.022.966.972.972,0,0,1-1.066-.98A1.015,1.015,0,0,1,82.749,47.389Z" transform="translate(-41.36 -23.992)" fill="#979797"/>
          </g>
        </g>
      </g>
    </g>
  </g>
</svg>
