<svg id="plan-estimate-estimate08" xmlns="http://www.w3.org/2000/svg" width="120" height="120" viewBox="0 0 120 120">
  <g id="グループ_5472" data-name="グループ 5472">
    <rect id="長方形_2723" data-name="長方形 2723" width="120" height="120" rx="60" fill="#fff"/>
    <g id="hikouki" transform="translate(14 53.895) rotate(-20)">
      <path id="パス_9431" data-name="パス 9431" d="M76.792,139.479c-1.078-1.185-3.022-1.483-7.78-1.483h-52.7L6.544,124.817a1.9,1.9,0,0,0-1.319-.739H.8c-.423,0-.635.435-.468.971L4.349,138H1.763c-2.16,0-2.377,3.557-.433,5.035s19.03,8.3,21.407,8.3H34.514l-8.8,14.06c-.246.4-.1.719.314.719h5.727a2.458,2.458,0,0,0,1.374-.528l16.593-14.251H68.8c6.486,0,12.758-2.962,12.758-6.516C81.554,143.033,77.875,140.664,76.792,139.479Z" transform="translate(0.002 -124.078)" fill="#3dcde6"/>
    </g>
  </g>
</svg>
