<svg xmlns="http://www.w3.org/2000/svg" width="335" height="406" viewBox="0 0 335 406">
  <g id="グループ_5470" data-name="グループ 5470" transform="translate(-20 -2503)">
    <rect id="長方形_3915" data-name="長方形 3915" width="335" height="70" transform="translate(20 2503)" fill="#00a9c6"/>
    <g id="グループ_5467" data-name="グループ 5467" transform="translate(-595 900)">
      <path id="パス_9442" data-name="パス 9442" d="M4.263-10.354q-1.485.079-3.041.079v-1.134q1.8,0,3.226-.079.246-1.828.343-3.146l1.327.123Q5.977-13.192,5.7-11.54q1.749-.114,3.981-.308L9.7-10.714q-1.837.193-4.184.308A68.358,68.358,0,0,1,2.681.554L1.424.123A61.561,61.561,0,0,0,4.263-10.354Zm2.2,6.917,1.116.088a4.73,4.73,0,0,0-.105,1.011A1.382,1.382,0,0,0,8.13-.949a5.423,5.423,0,0,0,2,.246A21.239,21.239,0,0,0,12.92-.844L12.99.4Q11.918.5,10.362.5A5.972,5.972,0,0,1,7.154-.105a2.233,2.233,0,0,1-.817-1.969A6.714,6.714,0,0,1,6.46-3.437Zm.914-3.85v-1.2a51.5,51.5,0,0,1,5.476-.246v1.151A41.351,41.351,0,0,0,7.374-7.286ZM25-14.871l.923-.36a24.138,24.138,0,0,1,1.327,3.05l-.967.4A19.444,19.444,0,0,0,25-14.871Zm2-.571.9-.325a14.563,14.563,0,0,1,1.274,2.953l-.932.378A17.341,17.341,0,0,0,27.009-15.442Zm-11.4,4.087-.07-1.187a30.379,30.379,0,0,0,5.15-.51l.483,1.134A8.521,8.521,0,0,0,18.044-8.49,9.558,9.558,0,0,0,16.98-4.034a3.967,3.967,0,0,0,.853,2.751,2.777,2.777,0,0,0,2.153.853A3.688,3.688,0,0,0,23.449-2.47a9.7,9.7,0,0,0,.932-4.641,17.4,17.4,0,0,0-.923-5.493l1.283-.413a25.642,25.642,0,0,0,3.718,6.442l-1.072.905a17.587,17.587,0,0,1-2.2-4.1l-.272-.809-.105.035L25-9.721A15.5,15.5,0,0,1,25.471-6.5q0,7.321-5.344,7.321-4.412,0-4.412-4.913a10.36,10.36,0,0,1,1.037-4.5,9.642,9.642,0,0,1,2.391-3.182A29.226,29.226,0,0,1,15.609-11.355ZM37.248-8.446h4.588v1.2H37.248a9.34,9.34,0,0,1-1.406,5.476A8.541,8.541,0,0,1,32.291.738l-.9-.976a7.1,7.1,0,0,0,3.56-2.733,8.793,8.793,0,0,0,.905-4.28H30.278v-1.2h5.581v-3.234q-2.215.413-4.359.633l-.5-1.16a37.973,37.973,0,0,0,9.053-1.828L40.72-12.9a35.184,35.184,0,0,1-3.472.932ZM50.854-6.064V-9.5H44.64V-10.67H52.2V.36H44.552V-.791h6.3V-4.913H44.895V-6.064ZM59.3-11.391a16.877,16.877,0,0,1-3.313,5.177L54.958-7a15.746,15.746,0,0,0,3.885-7.488l1.424.22q-.185.694-.519,1.688h6.24q-.844,6.205-3.437,9.457A13.466,13.466,0,0,1,56.865.861l-.791-.967A12.466,12.466,0,0,0,61.84-4.368a16.176,16.176,0,0,0,2.531-7.022ZM75.744-5.634v3.56h-1.2V-5.08q-.413.211-.853.457-2.3,1.3-2.3,2.61A1.192,1.192,0,0,0,72.193-.8a8.224,8.224,0,0,0,2.672.3q1.89,0,4.386-.22L79.3.5q-3.278.167-4.351.167A7.558,7.558,0,0,1,71.139.009a2.278,2.278,0,0,1-.905-2.057q0-1.881,2.417-3.278.914-.519,1.872-.993-.088-1.687-1.169-1.687-1.512,0-4.148,3.041l-.932-.826A21.019,21.019,0,0,0,72-11.109q-1.644.026-3.3,0v-1.1q1.9.035,3.8,0a16.084,16.084,0,0,0,.809-2.408l1.3.237a18.484,18.484,0,0,1-.756,2.118q2.531-.079,4.808-.308l.035,1.1q-2.953.237-5.326.308A18.382,18.382,0,0,1,71.859-8.6l-.457.466.053.07A3.2,3.2,0,0,1,73.6-8.982a1.956,1.956,0,0,1,1.433.545,2.548,2.548,0,0,1,.677,1.564q1.406-.642,3.656-1.591l.5,1.23Q76.939-6.161,75.744-5.634ZM97.69-3.762q0,.158-.141.158l-2.522-.035H89.156L86.643-3.6q-.149,0-.149-.158v-.615q0-.141.149-.141l2.514.035h.475V-6.108l-2.364.035q-.141,0-.141-.158v-.615a.124.124,0,0,1,.141-.141l2.364.035v-.105a5.832,5.832,0,0,0-.114-1.266,8.918,8.918,0,0,1,1.046.114q.22.026.22.141a.515.515,0,0,1-.088.272,1.175,1.175,0,0,0-.1.589v.255h2.7v-.07a6.132,6.132,0,0,0-.105-1.3q.809.07,1.063.114.237.026.237.158a.619.619,0,0,1-.114.272,1.129,1.129,0,0,0-.088.519v.308h.07l2.435-.035a.124.124,0,0,1,.141.141v.615q0,.158-.141.158l-2.435-.035h-.07v1.626h.738l2.522-.035a.124.124,0,0,1,.141.141ZM93.3-4.482V-6.108H90.6v1.626ZM98.411-.5a1.613,1.613,0,0,0-.325.756A.643.643,0,0,1,97.98.58a.69.69,0,0,1-.308.062q-3.507.22-6.39.22a11.473,11.473,0,0,1-4.43-.58,3.575,3.575,0,0,1-1.731-1.775A21.978,21.978,0,0,1,83.232.255a1.526,1.526,0,0,0-.378.378q-.105.158-.211.158t-.22-.158a7.176,7.176,0,0,1-.519-.94A6.873,6.873,0,0,0,83-.976a12.217,12.217,0,0,0,1.617-1.45V-6.891H83.329l-1.23.035q-.141,0-.141-.167V-7.8a.124.124,0,0,1,.141-.141l1.23.035h.914l1.3-.035a.124.124,0,0,1,.141.141l-.035,1.7v3.744A2.95,2.95,0,0,0,87.267-.58a10.59,10.59,0,0,0,3.6.431Q94.614-.149,98.411-.5ZM97.6-9.932a1.417,1.417,0,0,1-.413.861,4.709,4.709,0,0,1-2.268.308,4.236,4.236,0,0,1-2.039-.272.925.925,0,0,1-.29-.431,2.968,2.968,0,0,1-.088-.844V-11.2l-.035-.7a.124.124,0,0,1,.141-.141l1.318.035h2.162v-1.318H94l-1.512.035q-.158,0-.158-.141v-.624q0-.149.158-.149L94-14.168h1.529l1.433-.035a.124.124,0,0,1,.141.141l-.044,1.046v.615l.044,1.1a.124.124,0,0,1-.141.141L95.528-11.2H93.5v.686q0,.642.158.782a3.835,3.835,0,0,0,1.477.141A2.768,2.768,0,0,0,96.5-9.773a1.6,1.6,0,0,0,.193-.958,2.257,2.257,0,0,0,.668.343q.264.105.264.237A1.815,1.815,0,0,1,97.6-9.932Zm-6.029,0a1.417,1.417,0,0,1-.413.861,4.257,4.257,0,0,1-2.127.308,4.059,4.059,0,0,1-2-.272.89.89,0,0,1-.316-.431,3.282,3.282,0,0,1-.079-.844V-11.2l-.035-.7q0-.141.158-.141l1.274.035h2.127v-1.318H88.119l-1.538.035a.124.124,0,0,1-.141-.141v-.624q0-.149.141-.149l1.538.035h1.494l1.424-.035a.124.124,0,0,1,.141.141l-.035,1.046v.615l.035,1.1a.124.124,0,0,1-.141.141L89.613-11.2H87.627v.668q0,.659.167.8a3.127,3.127,0,0,0,1.31.141,2.715,2.715,0,0,0,1.424-.2q.158-.149.176-.94a2,2,0,0,0,.65.36q.237.088.237.229Q91.591-10.09,91.573-9.932Zm5.959,8.279a1.934,1.934,0,0,0-.4.554q-.158.281-.281.281a1.082,1.082,0,0,1-.264-.062,14.374,14.374,0,0,1-3.375-1.89q-.1-.062-.1-.105,0-.062.105-.167l.325-.308q.123-.123.185-.123a.3.3,0,0,1,.141.07A11.556,11.556,0,0,0,97.532-1.652ZM85.6-11.628a.216.216,0,0,1,.035.1q0,.062-.158.193l-.422.325a.569.569,0,0,1-.237.132q-.062,0-.123-.1a12.834,12.834,0,0,0-2-2.593.144.144,0,0,1-.053-.088q0-.053.176-.167l.4-.29a.635.635,0,0,1,.211-.105.177.177,0,0,1,.105.053A15.964,15.964,0,0,1,85.6-11.628ZM90.94-2.769q-.026.114-.237.176a1.178,1.178,0,0,0-.255.158,2.886,2.886,0,0,1-.264.167,12.292,12.292,0,0,1-2.391,1.239,1.046,1.046,0,0,1-.281.079q-.105,0-.3-.237a1.319,1.319,0,0,0-.483-.431A13.846,13.846,0,0,0,89.358-2.8a3.3,3.3,0,0,0,.721-.668,5.189,5.189,0,0,1,.694.466q.167.114.167.211ZM109.4-14.818l.923-.352a23.5,23.5,0,0,1,1.327,3.041l-.967.4A19.444,19.444,0,0,0,109.4-14.818ZM103.28-1.187a7.581,7.581,0,0,0,2.663.448q1.8,0,1.8-1.582a3.574,3.574,0,0,0-.624-1.89,12.036,12.036,0,0,0-1.248-1.582,4.837,4.837,0,0,1-1.564-2.725,2.75,2.75,0,0,1,.4-1.415,8.766,8.766,0,0,1,.958-1.23l1.063.756q-1.169,1.063-1.169,1.767a1.774,1.774,0,0,0,.4.993q.264.369,1.028,1.222a11.3,11.3,0,0,1,1.556,2.065,4.668,4.668,0,0,1,.554,2.232,2.392,2.392,0,0,1-.782,1.9,3.375,3.375,0,0,1-2.3.712A9.586,9.586,0,0,1,103.351.07ZM101.593-6.75l1.222.466A28.572,28.572,0,0,1,101.1-.22l-1.222-.5A24.268,24.268,0,0,0,101.593-6.75Zm8.165-.29,1.248-.4A28.594,28.594,0,0,1,112.9-.861l-1.336.431A23.888,23.888,0,0,0,109.758-7.04Zm-6.873-5.977.413-1.1a56.487,56.487,0,0,1,6.012,1.046l-.466,1.151A44.689,44.689,0,0,0,102.885-13.017Zm8.552-2.408.9-.325a14.871,14.871,0,0,1,1.283,2.953l-.94.378A17.341,17.341,0,0,0,111.437-15.425Z" transform="translate(695 1646)" fill="#fff"/>
    </g>
    <g id="STEP1" transform="translate(30 2503)">
      <g id="グループ_5428" data-name="グループ 5428" transform="translate(0 10)">
        <rect id="長方形_3464" data-name="長方形 3464" width="50" height="50" rx="25" fill="#fff"/>
        <g id="グループ_5430" data-name="グループ 5430" transform="translate(10 11)">
          <path id="パス_1" data-name="パス 1" d="M47.945,10.432H35.557v-.306q0-3.249,0-6.5A3.577,3.577,0,0,1,39.177,0Q41.792,0,44.406,0a3.546,3.546,0,0,1,3.55,3.475c.027,2.259.007,4.518.006,6.777C47.963,10.3,47.954,10.34,47.945,10.432ZM45.154,6.79c.006-.089.014-.163.015-.237,0-.964,0-1.929,0-2.893A.789.789,0,0,0,44.3,2.8q-2.538,0-5.076,0a.8.8,0,0,0-.873.89q0,1.421,0,2.843c0,.089.008.177.012.259Z" transform="translate(-26.778 0)" fill="#979797"/>
          <path id="パス_2" data-name="パス 2" d="M31.8,74.938c-.533.04-1.028.072-1.521.117-.465.043-.733-.121-.736-.474a.428.428,0,0,1,.418-.48c1.17-.094,2.341-.178,3.513-.261a.451.451,0,0,1,.545.459c.019.336-.2.481-.505.512-.225.023-.452.038-.688.058l-.181.811c.375,0,.727,0,1.079,0,.383,0,.6.186.6.5,0,.3-.219.473-.59.474-.429,0-.858,0-1.3,0-.1.453-.194.88-.291,1.306a1.7,1.7,0,0,1-1.657,1.378c-.278.012-.558.008-.837.005a.449.449,0,0,1-.491-.469.465.465,0,0,1,.491-.5c.327-.023.659-.011.983-.053a.634.634,0,0,0,.548-.556c.074-.353.153-.705.241-1.111h-.737c-.457,0-.913,0-1.37,0a.452.452,0,0,1-.517-.466.46.46,0,0,1,.511-.5c.676-.011,1.353,0,2.03,0h.3Z" transform="translate(-21.688 -55.609)" fill="#979797"/>
          <path id="パス_3" data-name="パス 3" d="M67.8,50.653c0,.35,0,.635,0,.921a1.565,1.565,0,0,1-1.265,1.593,5.444,5.444,0,0,1-1.859,0,1.748,1.748,0,0,1-1.236-2.207,5.36,5.36,0,0,1,.907-1.991c.045-.07.087-.142.162-.264-.238,0-.435,0-.632,0a.483.483,0,0,1-.019-.965c.516-.018,1.033-.02,1.548,0a.492.492,0,0,1,.366.8c-.341.555-.733,1.084-1.017,1.667a4.286,4.286,0,0,0-.355,1.325.658.658,0,0,0,.707.721q.495.011.99,0a.715.715,0,0,0,.731-.743c0-.6-.02-1.2.015-1.8a.675.675,0,0,1,.278-.5.691.691,0,0,1,.569.095c.384.26.733.571,1.092.867a.492.492,0,1,1-.629.751C68.054,50.844,67.952,50.771,67.8,50.653Z" transform="translate(-47.738 -35.946)" fill="#979797"/>
          <path id="パス_4" data-name="パス 4" d="M21.464,31.268H17.828V27.629h3.636Z" transform="translate(-13.427 -20.808)" fill="#172f66"/>
          <path id="パス_5" data-name="パス 5" d="M89.012,27.6h3.63v3.635h-3.63Z" transform="translate(-67.038 -20.789)" fill="#e4021f"/>
          <path id="パス_6" data-name="パス 6" d="M110.42,80.987v3.641h-3.633V80.987Z" transform="translate(-80.425 -60.995)" fill="#e7391b"/>
          <path id="パス_7" data-name="パス 7" d="M53.438,98.782h3.625v3.634H53.438Z" transform="translate(-40.246 -74.397)" fill="#ed6b12"/>
          <path id="パス_8" data-name="パス 8" d="M3.656,84.626H.021V80.993H3.656Z" transform="translate(-0.016 -60.999)" fill="#427936"/>
          <path id="パス_9" data-name="パス 9" d="M.04,45.385H3.671v3.626H.04Z" transform="translate(-0.03 -34.181)" fill="#2ba63b"/>
          <path id="パス_10" data-name="パス 10" d="M106.783,45.375h3.63V49.01h-3.63Z" transform="translate(-80.422 -34.174)" fill="#0e973d"/>
          <path id="パス_11" data-name="パス 11" d="M.007,66.851v-3.63H3.645v3.63Z" transform="translate(-0.005 -47.614)" fill="#0273b8"/>
          <path id="パス_12" data-name="パス 12" d="M110.437,63.22v3.628H106.8V63.22Z" transform="translate(-80.437 -47.613)" fill="#c40d28"/>
          <path id="パス_13" data-name="パス 13" d="M21.521,102.433H17.9V98.8h3.618Z" transform="translate(-13.483 -74.412)" fill="#f4a10d"/>
          <path id="パス_14" data-name="パス 14" d="M39.25,102.433H35.62V98.8h3.63Z" transform="translate(-26.827 -74.408)" fill="#db007b"/>
          <path id="パス_15" data-name="パス 15" d="M92.669,102.441H89.033V98.813h3.636Z" transform="translate(-67.054 -74.42)" fill="#fbbd02"/>
          <path id="パス_16" data-name="パス 16" d="M71.217,98.808H74.84v3.621H71.217Z" transform="translate(-53.636 -74.416)" fill="#970931"/>
          <path id="パス_17" data-name="パス 17" d="M75.89,75.872H74.057a8.276,8.276,0,0,1-.527.994,1.462,1.462,0,0,1-1.148.561.49.49,0,1,1-.113-.973c.536-.1.65-.232.752-.852.107-.652.174-.709.832-.71q1.281,0,2.562,0c.434,0,.645.253.554.668-.2.915-.4,1.83-.607,2.743a2.188,2.188,0,0,1-2.281,1.833c-.3,0-.609,0-.913,0a.473.473,0,0,1-.54-.475c-.023-.288.214-.493.55-.5s.677,0,1.015-.007a1.143,1.143,0,0,0,1.093-.727,3.02,3.02,0,0,0,.162-.531C75.6,77.236,75.739,76.569,75.89,75.872Z" transform="translate(-54.092 -56.404)" fill="#979797"/>
          <path id="パス_18" data-name="パス 18" d="M106.781,31.28V27.667a3.594,3.594,0,0,1,3.634,3.613Z" transform="translate(-80.421 -20.831)" fill="#d7a611"/>
          <path id="パス_19" data-name="パス 19" d="M0,31.164C-.109,29.323,2.026,27.2,3.635,27.6v3.559Z" transform="translate(0 -20.752)" fill="#044b88"/>
          <path id="パス_20" data-name="パス 20" d="M106.777,102.453V98.822h3.612A3.591,3.591,0,0,1,106.777,102.453Z" transform="translate(-80.418 -74.427)" fill="#02a7d8"/>
          <path id="パス_21" data-name="パス 21" d="M.075,98.806H3.69q0,1.808,0,3.611A3.575,3.575,0,0,1,.075,98.806Z" transform="translate(-0.054 -74.415)" fill="#d39116"/>
          <path id="パス_22" data-name="パス 22" d="M55.056,81.369c-.606,0-1.214,0-1.821,0-.359,0-.566-.187-.547-.487s.2-.426.492-.425c.692,0,1.385,0,2.07,0a.575.575,0,0,0-.563-.754c-.363-.011-.728,0-1.092,0-.31,0-.543-.121-.542-.464s.231-.456.546-.451c.355.006.711,0,1.066,0A1.526,1.526,0,0,1,56.2,80.573a12.361,12.361,0,0,1-.3,1.358,1.507,1.507,0,0,1-1.484,1.124c-.533,0-1.066,0-1.6,0-.318,0-.514-.16-.509-.47s.2-.448.507-.446c.516,0,1.032,0,1.549,0A.662.662,0,0,0,55.056,81.369Z" transform="translate(-39.394 -59.334)" fill="#979797"/>
          <path id="パス_23" data-name="パス 23" d="M37.14,47.719c-.407-.036-.971.1-.913-.522.068-.724.725-.358,1.146-.493.126-.327.087-.874.693-.758.419.08.416.425.327.792h1.845c.388,0,.6.176.6.492s-.207.482-.605.482H38.167L37.534,50.5c-.067.3-.129.594-.2.888s-.258.466-.573.4a.472.472,0,0,1-.373-.637c.233-1.055.474-2.107.712-3.161C37.113,47.9,37.123,47.821,37.14,47.719Z" transform="translate(-27.281 -34.592)" fill="#979797"/>
          <path id="パス_24" data-name="パス 24" d="M47.017,64.136a2.048,2.048,0,0,1-1.6-.442,2.219,2.219,0,0,1-.544-.657.63.63,0,0,1,.112-.588c.123-.1.531-.1.589,0,.466.762,1.184.723,1.921.7.572-.021.813.139.822.485s-.25.508-.83.508Z" transform="translate(-33.77 -46.976)" fill="#979797"/>
          <path id="パス_25" data-name="パス 25" d="M48.361,55.517c.312,0,.624-.007.936,0a.442.442,0,0,1,.472.458.449.449,0,0,1-.458.5q-.948.03-1.9,0a.455.455,0,0,1-.461-.5.441.441,0,0,1,.472-.459C47.737,55.51,48.049,55.517,48.361,55.517Z" transform="translate(-35.362 -41.81)" fill="#979797"/>
          <path id="パス_26" data-name="パス 26" d="M76.606,48.391a.5.5,0,1,1,.044-.993.488.488,0,0,1,.495.5A.506.506,0,0,1,76.606,48.391Z" transform="translate(-57.313 -35.696)" fill="#979797"/>
          <path id="パス_27" data-name="パス 27" d="M82.222,47.389a.508.508,0,0,1,.518.508.477.477,0,0,1-.511.483.486.486,0,0,1-.533-.49A.507.507,0,0,1,82.222,47.389Z" transform="translate(-61.528 -35.69)" fill="#979797"/>
        </g>
      </g>
    </g>
    <g id="ステップ" transform="translate(0 1956)">
      <rect id="長方形_3112" data-name="長方形 3112" width="335" height="120" rx="10" transform="translate(20 654)" fill="#d8f5fa"/>
      <g id="STEP1-2" data-name="STEP1" transform="translate(-245 -76)">
        <rect id="長方形_3114" data-name="長方形 3114" width="70" height="70" transform="translate(285 758)" fill="rgba(255,255,255,0)"/>
        <path id="パス_9422" data-name="パス 9422" d="M63.008,119.97a12.644,12.644,0,1,0-12.693-12.644A12.683,12.683,0,0,0,63.008,119.97Zm0-23.2a10.551,10.551,0,1,1-10.6,10.551A10.588,10.588,0,0,1,63.008,96.775Zm12.859,25.46H72.313a1.046,1.046,0,0,0-.962.636l-4.021,9.416-1.4-5.006,1.611-3.569a1.047,1.047,0,0,0-.954-1.477H59.43a1.046,1.046,0,0,0-.954,1.477l1.61,3.569-1.4,5.006-4.02-9.416a1.046,1.046,0,0,0-.963-.636H50.149a11.632,11.632,0,0,0-11.641,11.6v14.8H40.6v-14.8a9.536,9.536,0,0,1,9.548-9.5h2.862l9.034,21.159a1.047,1.047,0,0,0,1.925,0L73,124.329h2.862a9.536,9.536,0,0,1,9.548,9.5v14.8h2.093v-14.8A11.632,11.632,0,0,0,75.867,122.236ZM63.008,142.411,60,135.362,62.2,127.48a1.048,1.048,0,0,0-.054-.713l-1.1-2.438h3.915l-1.1,2.438a1.047,1.047,0,0,0-.054.713l2.207,7.883Z" transform="translate(256.992 671.018)" fill="#00a9c6"/>
      </g>
      <rect id="長方形_3115" data-name="長方形 3115" width="335" height="120" rx="10" transform="translate(20 833)" fill="#d8f5fa"/>
      <rect id="長方形_3113" data-name="長方形 3113" width="90" height="35" rx="10" transform="translate(20 637)" fill="#00a9c6"/>
      <rect id="長方形_3116" data-name="長方形 3116" width="90" height="35" rx="10" transform="translate(20 816.258)" fill="#00a9c6"/>
      <g id="グループ_4890" data-name="グループ 4890" transform="translate(134 679)">
        <path id="パス_9444" data-name="パス 9444" d="M-65.2-10.961q-.008-.328-.016-1.039-.008-.617-.016-.961h1.648v1.953q2.086-.078,3.813-.3v1.375q-1.812.219-3.8.289v.781q0,.719.031,1.172,2.328-.148,3.68-.336v1.438q-1.539.148-3.648.258.063,1.7.117,2.625a12.382,12.382,0,0,1,4.258,2.672L-60.273.4a9.5,9.5,0,0,0-3.117-2.508v.25q0,2.516-3.055,2.516-3.219,0-3.219-2.4a2.031,2.031,0,0,1,1.016-1.789,4.087,4.087,0,0,1,2.234-.562,11.905,11.905,0,0,1,1.391.078q-.062-1.25-.078-2.258-1.281.031-1.906.031-1.359,0-2.242-.031V-7.7q1.523.078,2.4.078,1.141,0,1.719-.016-.055-.984-.055-1.984-.477.016-1.437.016-1.273,0-2.883-.047v-1.359q1.391.063,2.789.063Q-65.711-10.945-65.2-10.961Zm.211,8.4a5.541,5.541,0,0,0-1.422-.172,2.546,2.546,0,0,0-1.391.313.8.8,0,0,0-.406.7q0,1.008,1.68,1.008a1.367,1.367,0,0,0,1.539-1.555Zm15.148-6.977q-.023.813-.023,1.664t.023,1.664a4.986,4.986,0,0,1,.367,2,4.18,4.18,0,0,1-1.6,3.531A9.666,9.666,0,0,1-55.07.852L-56-.672a7.484,7.484,0,0,0,4.047-1.336,2.418,2.418,0,0,0,.914-1.578,2.366,2.366,0,0,1-1.875.773,2.718,2.718,0,0,1-2.047-.75,2.542,2.542,0,0,1-.656-1.844,2.5,2.5,0,0,1,.922-2.07,3.028,3.028,0,0,1,1.93-.6,3.131,3.131,0,0,1,1.359.32l-.031-1.766q-2.977.07-6.18.289l-.016-1.437q3.055-.141,6.156-.2l-.016-2.016h1.7q0,.578-.039,1.984,1.281-.016,3.766-.016v1.445q-1.344-.07-2.914-.07Zm-2.992,2.672a1.228,1.228,0,0,0-.961.391,1.437,1.437,0,0,0-.352,1.023,1.3,1.3,0,0,0,.414,1.023,1.327,1.327,0,0,0,.93.32,1.355,1.355,0,0,0,1.07-.414,1.371,1.371,0,0,0,.313-.945A1.243,1.243,0,0,0-52.836-6.867Zm3.68-6.859.992-.242a13.953,13.953,0,0,1,1.172,2.445l-1.023.289A11.715,11.715,0,0,0-49.156-13.727Zm2-.078.961-.258a13.346,13.346,0,0,1,1.141,2.336l-.992.336A12.946,12.946,0,0,0-47.156-13.8Zm12.641,5.328q.023,2.656.148,4.992a10.23,10.23,0,0,1,2.828,2.094l-1.1,1.359A7.044,7.044,0,0,0-34.383-1.8v.078A2,2,0,0,1-35.242.008a3.483,3.483,0,0,1-2.07.555q-2.961,0-2.961-2.32a1.974,1.974,0,0,1,.867-1.687A3.232,3.232,0,0,1-37.461-4,8.248,8.248,0,0,1-36-3.875q-.109-2.289-.133-4.539-1.367.047-2.672.047-.094,0-1.562-.031V-9.8q1.125.047,1.969.047,1.1,0,2.25-.047v-2.789H-34.5q-.016.961-.016,2.688,1.156-.062,2.531-.219v1.484Q-32.844-8.57-34.516-8.477Zm-1.437,6.063a3.748,3.748,0,0,0-1.555-.273,1.726,1.726,0,0,0-1.023.273.8.8,0,0,0-.352.672q0,.961,1.539.961a1.209,1.209,0,0,0,1.391-1.344Zm-4.992-10.031A37.01,37.01,0,0,0-42-4.516,32.409,32.409,0,0,0-41.555.492L-43.2.641a37.6,37.6,0,0,1-.383-5.187,41.476,41.476,0,0,1,.977-8.031Zm14.063,2.125v-2.547h1.6V-10.4q1.32-.094,2.656-.242v1.508q-1.3.117-2.656.188V-6.43a8.272,8.272,0,0,1,2.7-.453q3.75,0,3.75,3.617A3.222,3.222,0,0,1-20.359-.187a7.147,7.147,0,0,1-3.383.633l-.133-1.469a4.571,4.571,0,0,0,2.617-.555,2.075,2.075,0,0,0,.711-1.766A2.065,2.065,0,0,0-21.1-4.906a1.989,1.989,0,0,0-1.43-.484,7.809,7.809,0,0,0-2.75.445v3.8A1.891,1.891,0,0,1-25.7.258a1.605,1.605,0,0,1-1.125.336A3.008,3.008,0,0,1-28.367.125a2.813,2.813,0,0,1-1.648-2.383q0-2.2,3.133-3.7v-2.9q-1.828.07-2.891.086v-1.492Q-28.156-10.258-26.883-10.32Zm.039,5.984q-1.719.914-1.719,1.906A1.351,1.351,0,0,0-27.648-1.2a1.35,1.35,0,0,0,.547.148q.258,0,.258-.336Zm4.313-6.812.961-1.2a13.927,13.927,0,0,1,3.492,2.7l-1.172,1.3A11.642,11.642,0,0,0-22.531-11.148ZM-6.664-5.875h-6.977l-2.2.031q-.141,0-.164-.031a.269.269,0,0,1-.023-.141v-1.2q0-.125.031-.148a.315.315,0,0,1,.156-.023l2.2.031h6.234L-5.2-7.391a.173.173,0,0,1,.2.2q-.039.586-.039,1.172,0,.453.023.883a16.8,16.8,0,0,0,.3,3.1A10.046,10.046,0,0,0-4.445-1q.117.273.32.273.3,0,.453-2.047a2.445,2.445,0,0,0,1.1.688q.289.109.289.3a3.479,3.479,0,0,1-.047.391A4.92,4.92,0,0,1-2.953.648a1.229,1.229,0,0,1-1.055.5q-1.492,0-2.227-2.531A18.567,18.567,0,0,1-6.664-5.875ZM-13.5-5.1q1.289.867,2.148,1.516.461-.531.922-1.164a5.271,5.271,0,0,0,.484-.9,5.459,5.459,0,0,1,1.375.656q.211.164.211.289t-.211.258A1.884,1.884,0,0,0-9-3.984a12.516,12.516,0,0,1-1.109,1.375q1.047.859,2.164,1.875a.27.27,0,0,1,.125.188.265.265,0,0,1-.094.18l-.9.93Q-8.953.7-9.031.7A.257.257,0,0,1-9.2.609q-1-1.094-2.078-2.078A14.718,14.718,0,0,1-15.227.93a1.435,1.435,0,0,1-.4.125q-.141,0-.352-.367a3.544,3.544,0,0,0-.82-.93,12.452,12.452,0,0,0,4.32-2.25q-1.062-.867-2.109-1.57-.109-.07-.109-.117t.125-.172l.75-.687q.141-.125.2-.125A.229.229,0,0,1-13.5-5.1Zm-3.375-4.1a9.937,9.937,0,0,0,2.781-3.516,3.4,3.4,0,0,0,.289-.852,10.151,10.151,0,0,1,1.453.352q.227.078.227.227a.331.331,0,0,1-.109.211,1.081,1.081,0,0,0-.273.352l-.242.492h7.156l2.188-.031a.285.285,0,0,1,.172.031.269.269,0,0,1,.023.141v1.172q0,.125-.039.148a.315.315,0,0,1-.156.023l-2.187-.031h-8a12.43,12.43,0,0,1-1.742,2.063q-.273.273-.367.273-.125,0-.359-.32A2.894,2.894,0,0,0-16.875-9.2Zm5.406.945-2.109.031a.247.247,0,0,1-.156-.031.37.37,0,0,1-.023-.164v-1.07q0-.125.039-.148a.244.244,0,0,1,.141-.023l2.109.031h4.516l2.125-.031a.247.247,0,0,1,.156.031.269.269,0,0,1,.023.141v1.07q0,.141-.039.172a.244.244,0,0,1-.141.023l-2.125-.031ZM13.906-6.9a3.5,3.5,0,0,0-.547.992q-.18.43-.3.43a2.046,2.046,0,0,1-.367-.109A12.715,12.715,0,0,1,9.6-7.289,15.256,15.256,0,0,1,6.609-5.555a1.208,1.208,0,0,1-.383.125q-.125,0-.3-.43a5.306,5.306,0,0,0-.508-.867V-5.32l.031,1.508q0,.156-.18.156L3.508-3.687H3.2v1.039h.4L5.586-2.68q.164,0,.164.18v1.023q0,.172-.164.172L3.6-1.336H3.2L3.234,1.07q0,.125-.031.148a.292.292,0,0,1-.148.023H1.875q-.133,0-.156-.031A.269.269,0,0,1,1.7,1.07q0-.023.008-.328.016-1.031.023-2.078h-.7L-.922-1.3q-.133,0-.156-.031A.269.269,0,0,1-1.1-1.477V-2.5q0-.133.031-.156A.292.292,0,0,1-.922-2.68l1.945.031h.7V-3.687H1.445L-.3-3.656q-.18,0-.18-.156L-.445-5.32V-7.8L-.477-9.289q0-.125.031-.148A.292.292,0,0,1-.3-9.461l1.742.031h.3v-1.023h-.7l-1.883.031a.247.247,0,0,1-.156-.031.269.269,0,0,1-.023-.141v-1.039q0-.164.18-.164l1.883.031h.7a10.335,10.335,0,0,0-.117-1.648,13.1,13.1,0,0,1,1.523.117q.258.047.258.156a.828.828,0,0,1-.078.289,2.923,2.923,0,0,0-.117,1.039v.047H3.6L5.523-11.8q.156,0,.156.164v1.039q0,.172-.156.172L3.6-10.453H3.219V-9.43h.289l1.758-.031q.133,0,.156.031a.269.269,0,0,1,.023.141L5.414-7.8v1.039A12.3,12.3,0,0,0,8.469-8.312a10.1,10.1,0,0,1-1.906-2.781q-.227.016-.367.016t-.164-.031A.213.213,0,0,1,6-11.25v-1.117q0-.125.039-.156a.315.315,0,0,1,.156-.023l1.922.031h3.328a.921.921,0,0,0,.4-.078.487.487,0,0,1,.2-.062q.2,0,.664.469.477.492.477.664a.427.427,0,0,1-.2.32,2.779,2.779,0,0,0-.508.688,12.684,12.684,0,0,1-1.711,2.2A14.009,14.009,0,0,0,13.906-6.9Zm-2.867-4.211H8.148A8.046,8.046,0,0,0,9.586-9.234,9.1,9.1,0,0,0,11.039-11.109ZM4.1-4.836v-1.2H3.156v1.2Zm-3.234,0h.945v-1.2H.867Zm0-2.289h.945V-8.273H.867ZM4.1-8.273H3.156v1.148H4.1ZM12.867-4.32q.125,0,.148.031a.269.269,0,0,1,.023.141v1.141a.235.235,0,0,1-.027.145.235.235,0,0,1-.145.027l-1.906-.031h-.734V-.7h1.2l2.078-.031q.156,0,.156.172V.57a.285.285,0,0,1-.031.172.2.2,0,0,1-.125.023L11.43.734H7.555L5.492.766q-.133,0-.156-.039A.315.315,0,0,1,5.313.57V-.562A.235.235,0,0,1,5.34-.707a.254.254,0,0,1,.152-.027L7.555-.7H8.641V-2.867H8.164l-1.891.031a.247.247,0,0,1-.156-.031.269.269,0,0,1-.023-.141V-4.148q0-.125.039-.148a.244.244,0,0,1,.141-.023l1.891.031h.477v-.078a13.42,13.42,0,0,0-.109-1.859q.5.016,1.609.109.242.023.242.18a.858.858,0,0,1-.062.336,4.25,4.25,0,0,0-.094,1.219v.094h.734Zm6.336.094,1.563.133a4.317,4.317,0,0,0-.187,1.211A1.171,1.171,0,0,0,21.1-1.8a2.89,2.89,0,0,0,1.43.273,30.823,30.823,0,0,0,3.375-.187l.047,1.664q-1.414.109-3.312.109a4.5,4.5,0,0,1-2.852-.719,2.392,2.392,0,0,1-.781-1.953A6.9,6.9,0,0,1,19.2-4.227Zm.32-4.8v-1.586q2.039-.141,4.188-.141,1.047,0,2.109.063v1.555Q25.008-9.2,23.6-9.2,21.609-9.2,19.523-9.023Zm-1.266-3.2a39.492,39.492,0,0,0-.687,4.188,30.947,30.947,0,0,0-.227,3.4A29.816,29.816,0,0,0,17.727.445l-1.68.148a34.812,34.812,0,0,1-.367-5.266,34.226,34.226,0,0,1,.313-4.164q.242-1.906.57-3.547Zm17.7,1.281.2.656a10.777,10.777,0,0,0-1.617.875q-.906.594-2.336,1.75l-1.055-1.07q1.523-1.008,2.617-1.633a17.55,17.55,0,0,1-2.172.156q-1.477,0-2.719-.031v-1.5q1.117.063,3.086.063,1.594,0,3.406-.125a11.631,11.631,0,0,0-.75-1.6l1.07-.289a13.828,13.828,0,0,1,1.1,2.477Zm.75-2.734,1.055-.3A15.175,15.175,0,0,1,38.9-11.437l-1.086.367A14.762,14.762,0,0,0,36.7-13.68ZM28.672-5.07l1.523.461a3.865,3.865,0,0,0-.625,1.984,1.2,1.2,0,0,0,.742,1.156,5.3,5.3,0,0,0,2.219.352,32.09,32.09,0,0,0,4.336-.227L36.883.414q-2.18.133-4.32.133-4.609,0-4.609-3.023A5.309,5.309,0,0,1,28.672-5.07ZM47.648,1.188h-1.3q-.172,0-.172-.164l.031-6.047V-8.18l-.031-4.328q0-.133.031-.156a.269.269,0,0,1,.141-.023l1.969.031h3.07l1.953-.031q.125,0,.148.031a.292.292,0,0,1,.023.148l-.031,3.8v3.672L53.516.977q0,.164-.172.164h-1.32q-.156,0-.156-.164V.242H47.844v.781q0,.117-.039.141A.315.315,0,0,1,47.648,1.188Zm.2-2.484h4.023V-3.609H47.844Zm0-9.82v2.266h4.023v-2.266Zm0,6h4.023V-7.344H47.844ZM40.32-2.508q-.172.234-.258.234t-.156-.258a5.192,5.192,0,0,0-.578-1.352A13.759,13.759,0,0,0,41.938-8.75H41.57l-1.648.031a.247.247,0,0,1-.156-.031.269.269,0,0,1-.023-.141v-1.172q0-.125.031-.148a.292.292,0,0,1,.148-.023l1.648.031h.508V-11.2a14.424,14.424,0,0,0-.125-2.18q.906.023,1.594.109.258.031.258.164a.944.944,0,0,1-.094.336,6.089,6.089,0,0,0-.109,1.555V-10.2l1.664-.031q.125,0,.148.031a.269.269,0,0,1,.023.141v1.172q0,.125-.031.148a.269.269,0,0,1-.141.023L43.7-8.75A11.547,11.547,0,0,0,45.8-5.7a6.2,6.2,0,0,0-.6,1.234q-.117.258-.18.258T44.8-4.43a9.772,9.772,0,0,1-1.242-2.383q.008,2.727.063,5.711.016.633.039,1.664.008.461.008.531,0,.125-.031.148a.292.292,0,0,1-.148.023H42.2q-.133,0-.156-.031a.269.269,0,0,1-.023-.141q0-.07.023-1.172.063-3.352.086-6.094A14.357,14.357,0,0,1,40.32-2.508ZM60.766.813q0,.18-.156.18H59.453q-.125,0-.148-.031a.292.292,0,0,1-.023-.148V.383H57.789v.734q0,.164-.18.164H56.461q-.18,0-.18-.164L56.32-1.3V-2.32l-.039-1.5q0-.133.031-.156A.292.292,0,0,1,56.461-4l1.453.031h1.219L60.609-4q.156,0,.156.18l-.031,1.227V-.156a5.124,5.124,0,0,0,3.039-2.078A6.518,6.518,0,0,0,64.641-5.3q.031-.4.031-.719a7.089,7.089,0,0,0-.047-.8,11.062,11.062,0,0,1,1.531.156q.3.055.3.211a.515.515,0,0,1-.094.289,2.777,2.777,0,0,0-.18.953,6.108,6.108,0,0,0,1.68,3.344A6.7,6.7,0,0,0,70.4-.289,5.325,5.325,0,0,0,69.742.836q-.187.4-.3.4a1.255,1.255,0,0,1-.367-.141,7.128,7.128,0,0,1-3.406-3.719,6.3,6.3,0,0,1-3.508,3.75,1.819,1.819,0,0,1-.367.109q-.133,0-.336-.4a3.836,3.836,0,0,0-.719-.977q.008.422.023.742Q60.766.8,60.766.813ZM59.281-2.641H57.789V-.93h1.492Zm11.055-4.8a4.233,4.233,0,0,0-.609,1.008q-.2.414-.32.414a1.391,1.391,0,0,1-.352-.094,5.822,5.822,0,0,1-3.406-3.266,5.707,5.707,0,0,1-3.391,3.281,2.46,2.46,0,0,1-.352.109q-.133,0-.352-.4a3.993,3.993,0,0,0-.656-.883,5.249,5.249,0,0,0,2.914-1.859,4.975,4.975,0,0,0,.859-2.7q.023-.391.023-.7a7.176,7.176,0,0,0-.039-.773q.664.039,1.484.164.32.047.32.188a.515.515,0,0,1-.109.289,2.072,2.072,0,0,0-.164.813,5.007,5.007,0,0,0,1.625,3.086A7.139,7.139,0,0,0,70.336-7.437ZM57.555-10.578h1.773l1.7-.031a.247.247,0,0,1,.156.031.269.269,0,0,1,.023.141V-9.3q0,.133-.039.164a.244.244,0,0,1-.141.023l-1.7-.031H57.555l-1.68.031q-.133,0-.156-.039A.292.292,0,0,1,55.7-9.3v-1.141q0-.125.031-.148a.292.292,0,0,1,.148-.023Zm.367-2.187h1.3l1.438-.031q.125,0,.148.031a.269.269,0,0,1,.023.141v1.07q0,.164-.172.164l-1.437-.031h-1.3l-1.461.031q-.156,0-.156-.164v-1.07q0-.172.156-.172ZM58.016-8.3h1.023l1.328-.031q.141,0,.164.031a.23.23,0,0,1,.031.148v1.039q0,.125-.039.148a.315.315,0,0,1-.156.023l-1.328-.031H58.016l-1.359.031a.247.247,0,0,1-.156-.031.269.269,0,0,1-.023-.141V-8.156q0-.133.039-.156a.244.244,0,0,1,.141-.023Zm0,2.164h1.023l1.328-.039q.141,0,.164.031A.23.23,0,0,1,60.563-6v1.023q0,.133-.039.156a.315.315,0,0,1-.156.023l-1.328-.031H58.016L56.656-4.8a.247.247,0,0,1-.156-.031.292.292,0,0,1-.023-.148V-6q0-.125.039-.156a.244.244,0,0,1,.141-.023ZM62.4-5.3q.07-.133.133-.133a.5.5,0,0,1,.188.07l.8.414q.2.109.2.18a.422.422,0,0,1-.031.125A8.749,8.749,0,0,1,62.289-2.4q-.094.109-.164.109a.344.344,0,0,1-.187-.094l-.8-.609q-.148-.109-.148-.172,0-.039.086-.133A7.78,7.78,0,0,0,62.4-5.3Zm4.469,1.859a7.278,7.278,0,0,0,1.289-1.445,2.6,2.6,0,0,0,.3-.6,6.728,6.728,0,0,1,1.234.477q.289.141.289.273a.289.289,0,0,1-.18.242,1.123,1.123,0,0,0-.266.3,11.951,11.951,0,0,1-1.078,1.313q-.258.258-.352.258a1.263,1.263,0,0,1-.414-.258A5.109,5.109,0,0,0,66.867-3.437Zm.063-6.578a7.3,7.3,0,0,0,1.258-1.516,2.047,2.047,0,0,0,.289-.609,9.18,9.18,0,0,1,1.2.508q.258.141.258.242t-.156.242a1.1,1.1,0,0,0-.273.32A10.312,10.312,0,0,1,68.5-9.57q-.289.289-.391.289a.866.866,0,0,1-.367-.227A3.036,3.036,0,0,0,66.93-10.016Zm-4.383-1.867q.047-.133.094-.133a1.385,1.385,0,0,1,.2.063l.836.32q.18.078.18.164a.455.455,0,0,1-.023.109,8.408,8.408,0,0,1-1.242,2.227q-.094.109-.148.109a.344.344,0,0,1-.187-.094l-.789-.531q-.156-.1-.156-.156a.282.282,0,0,1,.078-.133A6.665,6.665,0,0,0,62.547-11.883Z" transform="translate(99 42)" fill="#333" stroke="rgba(0,0,0,0)" stroke-width="1"/>
      </g>
      <g id="グループ_4893" data-name="グループ 4893" transform="translate(134 858.258)">
        <path id="パス_9446" data-name="パス 9446" d="M-66.078.547l-2.031.031q-.125,0-.148-.031A.292.292,0,0,1-68.281.4V-.836q0-.156.172-.156l2.031.031H-62.2V-3.344h-2.031l-2.2.031a.266.266,0,0,1-.164-.031.269.269,0,0,1-.023-.141V-4.672q0-.125.031-.148a.315.315,0,0,1,.156-.023l2.2.031h5.969l2.188-.031a.285.285,0,0,1,.172.031.269.269,0,0,1,.023.141v1.188q0,.117-.031.145a.3.3,0,0,1-.164.027l-2.187-.031h-2.258V-.961h4.031l2.031-.031q.18,0,.18.156V.4q0,.133-.039.156a.244.244,0,0,1-.141.023L-56.492.547Zm9.25-12.3,2.109-.031q.133,0,.156.039a.292.292,0,0,1,.023.148l-.031.719v.563l.031,1.586a.266.266,0,0,1-.031.164.292.292,0,0,1-.148.023h-1.328q-.125,0-.148-.031a.315.315,0,0,1-.023-.156v-1.617H-66.359v1.891a.266.266,0,0,1-.031.164.269.269,0,0,1-.141.023h-1.328q-.133,0-.156-.031a.315.315,0,0,1-.023-.156l.031-1.7v-.531l-.031-.914a.266.266,0,0,1,.031-.164.292.292,0,0,1,.148-.023l2.109.031h3.484v-.492a4.753,4.753,0,0,0-.109-1.156q.781,0,1.711.078.242.023.242.18,0,.023-.086.3a1.508,1.508,0,0,0-.078.594v.492Zm.086,3.281a3.614,3.614,0,0,0,1.086.43,1.08,1.08,0,0,1,.352.117.224.224,0,0,1,.07.188,1.564,1.564,0,0,1-.023.219,1.833,1.833,0,0,1-.734,1.477,4.826,4.826,0,0,1-2.227.352,4.581,4.581,0,0,1-2.2-.352,1.272,1.272,0,0,1-.406-1.1v-1.2a11.419,11.419,0,0,0-.078-1.523q.984.055,1.586.148.258.047.258.188a.587.587,0,0,1-.1.3,1.928,1.928,0,0,0-.078.719v.727q0,.484.164.57a2.092,2.092,0,0,0,1.023.148,1.762,1.762,0,0,0,1.039-.211A1.73,1.73,0,0,0-56.742-8.477ZM-63.75-9.969a13.525,13.525,0,0,1,1.469.5q.242.1.242.266a.445.445,0,0,1-.2.32,2.767,2.767,0,0,0-.32.672,5.287,5.287,0,0,1-3.867,3.055,1.749,1.749,0,0,1-.328.07q-.156,0-.359-.359a3.557,3.557,0,0,0-.8-.969,6.662,6.662,0,0,0,2.758-.953,2.99,2.99,0,0,0,1.133-1.5A5.784,5.784,0,0,0-63.75-9.969Zm18.938,2.945a11.426,11.426,0,0,0,2.336,2.93l-.9,1.406a8.657,8.657,0,0,0-4.2-1.086,4.505,4.505,0,0,0-2.148.406,1.024,1.024,0,0,0-.609.906q0,.859,1.039,1.219a9.117,9.117,0,0,0,2.773.313q1.047,0,2.477-.125V.609q-1.727.062-2.523.063-5.391,0-5.391-2.914,0-2.812,4.383-2.812a6.568,6.568,0,0,1,3.1.688A10.282,10.282,0,0,1-46.3-6.812a46.142,46.142,0,0,1-5.047.32l-.219-1.4a45.764,45.764,0,0,0,4.609-.219q-.2-.4-.672-1.6-1.977.18-4.3.258l-.211-1.43q.211.016.625.016,1.672,0,3.422-.141-.4-1.156-.594-1.8l1.7-.148q.188.789.469,1.773,1.875-.25,3.516-.633l.242,1.391q-1.617.313-3.344.539.352.93.641,1.6a30.4,30.4,0,0,0,3.055-.594l.258,1.375Q-43.516-7.211-44.812-7.023Zm12.1-.352-2.18.031q-.125,0-.148-.031a.269.269,0,0,1-.023-.141V-8.75a.247.247,0,0,1,.031-.156.269.269,0,0,1,.141-.023l2.18.031h1.117q.031-1.266.031-2.125a21.336,21.336,0,0,0-.109-2.242q1,.023,1.742.109.258.023.258.2a.717.717,0,0,1-.109.336,6.084,6.084,0,0,0-.1,1.586q0,1.07-.047,2.141h1.891l2.172-.031q.164,0,.164.18v1.234q0,.172-.164.172l-2.172-.031H-29.7a11.8,11.8,0,0,0,1.719,4.32A10.5,10.5,0,0,0-25.352-.289,4.427,4.427,0,0,0-26.219.867q-.172.32-.281.32a.7.7,0,0,1-.336-.2,11.157,11.157,0,0,1-3.57-5.773q-.055.25-.242.891A11.164,11.164,0,0,1-33.93.961a.925.925,0,0,1-.352.227q-.086,0-.3-.289a4.424,4.424,0,0,0-.906-.977,8.75,8.75,0,0,0,1.961-1.961,10.285,10.285,0,0,0,1.266-2.437,12.391,12.391,0,0,0,.578-2.9Zm-4.75-5.984q.922.023,1.7.109.258.031.258.164a1.009,1.009,0,0,1-.094.32,7.936,7.936,0,0,0-.1,1.773v9.281l.031,2.813a.247.247,0,0,1-.031.156.269.269,0,0,1-.141.023h-1.328a.285.285,0,0,1-.172-.031.292.292,0,0,1-.023-.148l.031-2.8V-4.156q-.3.211-1.555.984a1.47,1.47,0,0,0-.414.344.316.316,0,0,1-.227.141.232.232,0,0,1-.234-.164q-.328-.758-.594-1.531a9.433,9.433,0,0,0,.9-.367,14.468,14.468,0,0,0,2.125-1.187v-5.008A18.363,18.363,0,0,0-37.461-13.359Zm-1.328,2.508A16.689,16.689,0,0,1-37.609-8.2a.36.36,0,0,1,.031.125q0,.1-.2.2l-.961.438a.6.6,0,0,1-.2.063q-.07,0-.109-.141a13.524,13.524,0,0,0-1.086-2.664.311.311,0,0,1-.047-.133q0-.078.172-.164l.93-.453a.483.483,0,0,1,.148-.047Q-38.867-10.977-38.789-10.852ZM-27.8-12.625A11.728,11.728,0,0,1-26.2-10.562a.33.33,0,0,1,.055.133q0,.063-.164.172l-.945.563a.344.344,0,0,1-.187.094q-.062,0-.133-.125a12.421,12.421,0,0,0-1.5-2.117.22.22,0,0,1-.07-.125q0-.078.164-.172l.836-.516a.376.376,0,0,1,.188-.078Q-27.914-12.734-27.8-12.625ZM-21.2-.227a5.083,5.083,0,0,0,3.016-2.258A7.644,7.644,0,0,0-17.352-6.2q-.7.008-1.266.023l-.4.008q-.125,0-.148-.039a.315.315,0,0,1-.023-.156l.031-1.6v-2.844l-.031-1.617q0-.133.031-.156a.269.269,0,0,1,.141-.023l2.1.031h3.883l2.063-.031q.133,0,.156.031a.292.292,0,0,1,.023.148l-.031,1.617v2.844l.031,1.6a.285.285,0,0,1-.031.172.292.292,0,0,1-.148.023L-12.8-6.2v4.938q0,.43.156.547a1.54,1.54,0,0,0,.711.094.807.807,0,0,0,.672-.227,4.972,4.972,0,0,0,.289-2.008,2.242,2.242,0,0,0,1,.477,1.668,1.668,0,0,1,.359.109.271.271,0,0,1,.07.211q0,.07-.008.172A8.263,8.263,0,0,1-9.8-.172a1.594,1.594,0,0,1-.43.7,3.24,3.24,0,0,1-2,.414A3.768,3.768,0,0,1-13.977.7a1.606,1.606,0,0,1-.461-1.359V-6.2H-15.75A9.478,9.478,0,0,1-16.836-1.43a5.741,5.741,0,0,1-2.7,2.344q-.375.141-.383.141-.117,0-.336-.336A3.02,3.02,0,0,0-21.2-.227ZM-12.469-7.7V-11.07h-5.039V-7.7ZM-24.023.016a7.881,7.881,0,0,0,.828-1.25,25.247,25.247,0,0,0,1.617-3.7,6.517,6.517,0,0,0,.867.82q.352.281.352.414a2.09,2.09,0,0,1-.109.352A37.357,37.357,0,0,1-22.039.2a2.553,2.553,0,0,0-.273.6q-.055.227-.211.227A.607.607,0,0,1-22.8.914,10.475,10.475,0,0,1-24.023.016Zm1.727-13.2a13.764,13.764,0,0,1,2.32,1.75q.086.07.086.117a.56.56,0,0,1-.1.2l-.7.961q-.1.141-.172.141a.2.2,0,0,1-.133-.07,13.26,13.26,0,0,0-2.3-1.836q-.1-.062-.1-.117a.468.468,0,0,1,.1-.187l.688-.875q.109-.133.188-.133A.311.311,0,0,1-22.3-13.187Zm-.672,4.055a13.963,13.963,0,0,1,2.32,1.7q.086.078.086.125a.513.513,0,0,1-.1.2l-.687.938q-.125.164-.187.164-.047,0-.133-.086a13.135,13.135,0,0,0-2.289-1.8q-.1-.055-.1-.109a.426.426,0,0,1,.1-.18l.688-.859q.1-.133.164-.133A.325.325,0,0,1-22.969-9.133ZM-4.922-7.68a1.545,1.545,0,0,1,1.188.531,1.534,1.534,0,0,1,.414,1.07,1.545,1.545,0,0,1-.531,1.188,1.552,1.552,0,0,1-1.07.414,1.53,1.53,0,0,1-1.187-.531,1.552,1.552,0,0,1-.414-1.07,1.53,1.53,0,0,1,.531-1.187A1.534,1.534,0,0,1-4.922-7.68Zm7.484-5.727q.867.023,1.625.109.258.023.258.164a.942.942,0,0,1-.1.336,6.035,6.035,0,0,0-.109,1.609V-8.18h.125l1.727-.031q.133,0,.156.031a.292.292,0,0,1,.023.148V-6.9q0,.164-.18.164L4.461-6.766A15.211,15.211,0,0,0,6.617-4a4.826,4.826,0,0,0-.641,1.055q-.141.289-.227.289T5.5-2.9A13.4,13.4,0,0,1,4.2-5.187l.109,6.273q0,.125-.039.156a.292.292,0,0,1-.148.023H2.8q-.125,0-.148-.031a.292.292,0,0,1-.023-.148q0-.063.023-.961.062-2.773.086-4.906A15.188,15.188,0,0,1,.8-1.141Q.6-.883.516-.883q-.1,0-.187-.273A3.487,3.487,0,0,0-.25-2.32,13.8,13.8,0,0,0,2.328-6.766H2.039L.3-6.734q-.18,0-.18-.164V-8.031q0-.133.031-.156A.292.292,0,0,1,.3-8.211l1.742.031H2.7v-2.969A16.724,16.724,0,0,0,2.563-13.406Zm6.07,9.422,2.445-.477v-6.406a17.649,17.649,0,0,0-.133-2.43q.938.023,1.7.109.242.031.242.18a1.345,1.345,0,0,1-.1.32,8.362,8.362,0,0,0-.094,1.773v6.133q.594-.125,1.055-.242.078-.016.266-.07.086-.016.117-.023a.431.431,0,0,1,.086-.016q.062,0,.094.172l.188,1.25q.008.063.008.078,0,.086-.164.109-.047.016-.508.1-.555.1-1.141.219v1.492l.031,2.766a.247.247,0,0,1-.031.156.292.292,0,0,1-.148.023H11.219q-.125,0-.148-.039a.244.244,0,0,1-.023-.141l.031-2.75V-2.883l-2.2.438q-.9.172-1.555.313-.141.023-.367.07l-.141.031a.535.535,0,0,1-.1.016q-.094,0-.109-.141l-.2-1.266a.658.658,0,0,1-.016-.109q0-.07.156-.1.039-.008.3-.047Q7.625-3.789,8.633-3.984Zm-.773-4.57A10.694,10.694,0,0,1,10.07-6.508a.308.308,0,0,1,.078.148q0,.055-.125.188l-.789.781q-.133.125-.187.125t-.133-.094A13.134,13.134,0,0,0,6.8-7.531.611.611,0,0,1,6.7-7.664q0-.047.125-.172l.734-.7q.109-.117.148-.117T7.859-8.555Zm.43-3.7a10.906,10.906,0,0,1,2.258,2.039.2.2,0,0,1,.07.133q0,.063-.117.172l-.766.75q-.148.141-.2.141T9.43-9.117a10.967,10.967,0,0,0-2.18-2.1q-.086-.055-.086-.117a.271.271,0,0,1,.117-.18l.7-.672q.141-.125.18-.125A.244.244,0,0,1,8.289-12.258ZM4.531-9.3a14.165,14.165,0,0,0,.734-2.414,5.363,5.363,0,0,0,.1-.687q.953.32,1.211.445.18.094.18.2a.162.162,0,0,1-.094.156.63.63,0,0,0-.2.359,20.294,20.294,0,0,1-.734,2.031q-.141.336-.242.336a.873.873,0,0,1-.32-.148A4.47,4.47,0,0,0,4.531-9.3ZM1.445-12.141A13.227,13.227,0,0,1,2.3-9.453a.335.335,0,0,1,.016.086q0,.117-.219.2l-.687.258a.755.755,0,0,1-.2.055q-.07,0-.094-.156A12.334,12.334,0,0,0,.313-11.68.36.36,0,0,1,.281-11.8q0-.086.2-.164l.672-.273a.473.473,0,0,1,.156-.047Q1.375-12.289,1.445-12.141ZM18.453.672,16.406.7q-.141,0-.164-.031T16.211.547V-.672q0-.125.039-.148a.315.315,0,0,1,.156-.023l2.047.031H22.1V-4.3H19.047L16.9-4.273a.266.266,0,0,1-.164-.031.269.269,0,0,1-.023-.141v-1.2q0-.125.031-.148A.344.344,0,0,1,16.9-5.82l2.148.031H22.1V-7.266h-.625l-1.969.023q-.172,0-.172-.164v-.945a20.188,20.188,0,0,1-2.453,1.266,1.208,1.208,0,0,1-.383.125q-.125,0-.32-.367a3.057,3.057,0,0,0-.766-.945,13.952,13.952,0,0,0,6.211-4.3,4.644,4.644,0,0,0,.633-1.055,9.784,9.784,0,0,1,1.727.336q.289.086.289.258,0,.1-.156.227a.364.364,0,0,1-.094.063,13.272,13.272,0,0,0,6.75,4.172,3.7,3.7,0,0,0-.687,1.141q-.18.4-.3.4a1.674,1.674,0,0,1-.383-.109,18.238,18.238,0,0,1-2.562-1.219v.961q0,.164-.172.164L24.68-7.266h-.867v1.477h3.328l2.141-.031q.133,0,.156.031a.269.269,0,0,1,.023.141v1.2q0,.18-.062.18l-.117-.008L27.141-4.3H23.813V-.812h3.875L29.75-.844q.125,0,.148.031a.269.269,0,0,1,.023.141V.547q0,.156-.172.156L27.688.672ZM19.93-8.734q.3.016,1.547.016h3.2q1.242,0,1.547-.016a12.534,12.534,0,0,1-3.18-2.836A14.148,14.148,0,0,1,19.93-8.734Zm4.938,7.281a9.978,9.978,0,0,0,1.039-1.812,4.167,4.167,0,0,0,.3-.844,6.973,6.973,0,0,1,1.344.508q.289.148.289.273t-.2.258a1.7,1.7,0,0,0-.367.508,11.66,11.66,0,0,1-.844,1.422q-.164.211-.258.211a1.252,1.252,0,0,1-.367-.125A4.178,4.178,0,0,0,24.867-1.453ZM19.734-3.922A12.461,12.461,0,0,1,20.875-1.8a.36.36,0,0,1,.031.125q0,.07-.18.156l-.992.5a.833.833,0,0,1-.211.063q-.055,0-.109-.133a9.476,9.476,0,0,0-1.086-2.187.229.229,0,0,1-.062-.125q0-.055.188-.148l.914-.43a.6.6,0,0,1,.2-.062Q19.641-4.047,19.734-3.922ZM37.289-11.07q2.273-.1,4.141-.289l.063,1.391q-2.781.2-4.891.289a10.343,10.343,0,0,1-1.25,1.82l-.367.352.047.07.4-.289A2.36,2.36,0,0,1,36.8-8.18a1.841,1.841,0,0,1,1.336.516A2.322,2.322,0,0,1,38.773-6.4q.648-.3,3.2-1.391l.625,1.5q-2.141.711-3.75,1.422v3.109h-1.5v-2.4a8.441,8.441,0,0,0-1.937,1.281,1.358,1.358,0,0,0-.43.953.9.9,0,0,0,.609.914,6.643,6.643,0,0,0,2.234.258q1.8,0,4.148-.227L42.055.516q-2.148.156-4.414.156A5.79,5.79,0,0,1,34.2-.055a2.1,2.1,0,0,1-.7-1.75,2.75,2.75,0,0,1,.844-1.984A11.271,11.271,0,0,1,37.336-5.7a1.8,1.8,0,0,0-.266-1.023.745.745,0,0,0-.586-.211,2.923,2.923,0,0,0-1.766.844,16.044,16.044,0,0,0-1.8,1.875L31.734-5.234a17.6,17.6,0,0,0,3.25-4.4q-.453.016-1.266.016-.516,0-1.57-.031v-1.406q1.008.047,1.781.047,1.1,0,1.7-.016a19.456,19.456,0,0,0,.656-2.094l1.648.266Q37.648-11.945,37.289-11.07ZM54.883-.633a6.419,6.419,0,0,0,.992.078A.725.725,0,0,0,56.414-.7a.716.716,0,0,0,.117-.469V-8.039H53.875l-1.758.031q-.125,0-.148-.031a.37.37,0,0,1-.023-.164l.031-1.32v-1.914L51.945-12.8q0-.133.031-.156a.269.269,0,0,1,.141-.023l1.758.031h2.352l1.789-.031q.133,0,.156.031a.292.292,0,0,1,.023.148l-.031,2.141v6.6l.047,3.18A2.086,2.086,0,0,1,57.766.6a3.037,3.037,0,0,1-1.922.43q-.367,0-.437-.078a1.141,1.141,0,0,1-.125-.414A4,4,0,0,0,54.883-.633Zm1.648-11.141H53.539v.766h2.992Zm0,2.6v-.766H53.539v.766ZM48.32-.273a1.086,1.086,0,0,0-.492.133.407.407,0,0,1-.242.094q-.141,0-.211-.273-.1-.453-.2-1.219.289.016.516.016.406,0,.875-.031v-4.43q-.453.008-.828.023l-.258.008a.247.247,0,0,1-.156-.031.292.292,0,0,1-.023-.148v-.914q0-.125.031-.148a.292.292,0,0,1,.148-.023l2.063.031H53.43l2.063-.031q.133,0,.156.031a.269.269,0,0,1,.023.141v.914q0,.133-.031.156a.292.292,0,0,1-.148.023l-.156-.008q-.461-.016-.992-.023v4.75L54.375.594a.266.266,0,0,1-.031.164A.269.269,0,0,1,54.2.781H53.078q-.125,0-.148-.031a.315.315,0,0,1-.023-.156q0-.016.008-.445.016-.445.023-.93Q50.734-.484,48.32-.273Zm4.617-1.633v-.609H49.953v.867Q50.992-1.719,52.938-1.906ZM49.953-3.539h2.984v-.719H49.953Zm0-1.742h2.984v-.7H49.953Zm-.891-7.664,1.617-.031q.156,0,.156.18L50.8-11.328v1.68L50.836-8.2a.285.285,0,0,1-.031.172.2.2,0,0,1-.125.023l-1.617-.031H46.438v5.633l.031,3.438a.247.247,0,0,1-.031.156.269.269,0,0,1-.141.023H44.945a.235.235,0,0,1-.145-.027.254.254,0,0,1-.027-.152L44.8-2.406V-9.328L44.773-12.8q0-.133.031-.156a.292.292,0,0,1,.148-.023l1.883.031Zm.172,1.172h-2.8v.766h2.8Zm0,2.6v-.766h-2.8v.766Zm17.25-3.758,1.508,1.055a66.322,66.322,0,0,1-5.07,5.2.742.742,0,0,0-.3.547q0,.188.477.555A48.039,48.039,0,0,1,68.68-.32L67.234.883a39.4,39.4,0,0,0-5.961-5.937,1.281,1.281,0,0,1-.531-1.039,1.363,1.363,0,0,1,.43-.992q1.984-1.984,2.961-3.055Q65.3-11.422,66.484-12.93Z" transform="translate(99 41.742)" fill="#333" stroke="rgba(0,0,0,0)" stroke-width="1"/>
      </g>
      <path id="パス_9443" data-name="パス 9443" d="M-26.412-.43v-2.5a4.8,4.8,0,0,0,1.477.855,4.746,4.746,0,0,0,1.609.285,3.569,3.569,0,0,0,.832-.086,1.949,1.949,0,0,0,.594-.238,1.039,1.039,0,0,0,.355-.359.9.9,0,0,0,.117-.449.971.971,0,0,0-.187-.586,2.018,2.018,0,0,0-.512-.477,5.347,5.347,0,0,0-.77-.422q-.445-.2-.961-.414a4.9,4.9,0,0,1-1.957-1.336,2.917,2.917,0,0,1-.645-1.906,3.036,3.036,0,0,1,.352-1.5A2.986,2.986,0,0,1-25.15-10.6a4.291,4.291,0,0,1,1.4-.6,7.206,7.206,0,0,1,1.688-.191,10.15,10.15,0,0,1,1.551.105,6.1,6.1,0,0,1,1.246.324v2.336a3.768,3.768,0,0,0-.613-.344,4.859,4.859,0,0,0-.684-.246,5.214,5.214,0,0,0-.7-.145,4.949,4.949,0,0,0-.66-.047,3.443,3.443,0,0,0-.781.082,2,2,0,0,0-.594.23,1.147,1.147,0,0,0-.375.355.843.843,0,0,0-.133.465.888.888,0,0,0,.148.5,1.7,1.7,0,0,0,.422.422,4.477,4.477,0,0,0,.664.391q.391.191.883.395a9.837,9.837,0,0,1,1.207.6,4.291,4.291,0,0,1,.918.715,2.785,2.785,0,0,1,.586.91,3.216,3.216,0,0,1,.2,1.191,3.191,3.191,0,0,1-.355,1.574,2.886,2.886,0,0,1-.965,1.031,4.184,4.184,0,0,1-1.418.566A8.2,8.2,0,0,1-23.216.2,9.492,9.492,0,0,1-24.97.039,5.3,5.3,0,0,1-26.412-.43ZM-9.06-9.148h-3.2V0h-2.531V-9.148h-3.18V-11.2H-9.06ZM-.833,0H-7.552V-11.2h6.461v2.055H-5.029v2.492h3.664v2.047H-5.029v2.563h4.2Zm4.32-3.859V0H.963V-11.2H4.917q4.234,0,4.234,3.57A3.426,3.426,0,0,1,7.936-4.9,4.813,4.813,0,0,1,4.69-3.859Zm0-5.406v3.492h.992q2.016,0,2.016-1.766,0-1.727-2.016-1.727ZM23.123-17.18V0H19.431V-13.008a4.421,4.421,0,0,1-.721.51,7.44,7.44,0,0,1-.885.434,7.9,7.9,0,0,1-.973.328,7.1,7.1,0,0,1-1,.193V-14.66a15.4,15.4,0,0,0,2.719-1.078,15.472,15.472,0,0,0,2.309-1.441Z" transform="translate(65 665)" fill="#fff" stroke="rgba(0,0,0,0)" stroke-width="1"/>
      <path id="パス_9445" data-name="パス 9445" d="M-26.412-.43v-2.5a4.8,4.8,0,0,0,1.477.855,4.746,4.746,0,0,0,1.609.285,3.569,3.569,0,0,0,.832-.086,1.949,1.949,0,0,0,.594-.238,1.039,1.039,0,0,0,.355-.359.9.9,0,0,0,.117-.449.971.971,0,0,0-.187-.586,2.018,2.018,0,0,0-.512-.477,5.347,5.347,0,0,0-.77-.422q-.445-.2-.961-.414a4.9,4.9,0,0,1-1.957-1.336,2.917,2.917,0,0,1-.645-1.906,3.036,3.036,0,0,1,.352-1.5A2.986,2.986,0,0,1-25.15-10.6a4.291,4.291,0,0,1,1.4-.6,7.206,7.206,0,0,1,1.688-.191,10.15,10.15,0,0,1,1.551.105,6.1,6.1,0,0,1,1.246.324v2.336a3.768,3.768,0,0,0-.613-.344,4.859,4.859,0,0,0-.684-.246,5.214,5.214,0,0,0-.7-.145,4.949,4.949,0,0,0-.66-.047,3.443,3.443,0,0,0-.781.082,2,2,0,0,0-.594.23,1.147,1.147,0,0,0-.375.355.843.843,0,0,0-.133.465.888.888,0,0,0,.148.5,1.7,1.7,0,0,0,.422.422,4.477,4.477,0,0,0,.664.391q.391.191.883.395a9.837,9.837,0,0,1,1.207.6,4.291,4.291,0,0,1,.918.715,2.785,2.785,0,0,1,.586.91,3.216,3.216,0,0,1,.2,1.191,3.191,3.191,0,0,1-.355,1.574,2.886,2.886,0,0,1-.965,1.031,4.184,4.184,0,0,1-1.418.566A8.2,8.2,0,0,1-23.216.2,9.492,9.492,0,0,1-24.97.039,5.3,5.3,0,0,1-26.412-.43ZM-9.06-9.148h-3.2V0h-2.531V-9.148h-3.18V-11.2H-9.06ZM-.833,0H-7.552V-11.2h6.461v2.055H-5.029v2.492h3.664v2.047H-5.029v2.563h4.2Zm4.32-3.859V0H.963V-11.2H4.917q4.234,0,4.234,3.57A3.426,3.426,0,0,1,7.936-4.9,4.813,4.813,0,0,1,4.69-3.859Zm0-5.406v3.492h.992q2.016,0,2.016-1.766,0-1.727-2.016-1.727ZM18.4-3.07h7.125V0H14.345V-1.266a5.891,5.891,0,0,1,.434-2.314,7.68,7.68,0,0,1,1.09-1.84A9.453,9.453,0,0,1,17.3-6.861q.779-.627,1.482-1.131Q19.525-8.52,20.082-9a7.379,7.379,0,0,0,.938-.955,3.631,3.631,0,0,0,.568-.961,2.858,2.858,0,0,0,.188-1.037,2.084,2.084,0,0,0-.609-1.629,2.709,2.709,0,0,0-1.863-.551,6.258,6.258,0,0,0-4.148,1.723v-3.258A8.9,8.9,0,0,1,20.1-17.086a7.3,7.3,0,0,1,2.291.334,4.847,4.847,0,0,1,1.717.955,4.073,4.073,0,0,1,1.072,1.506,5.082,5.082,0,0,1,.369,1.975,5.568,5.568,0,0,1-.357,2.063,6.338,6.338,0,0,1-.949,1.641A8.61,8.61,0,0,1,22.876-7.26q-.773.615-1.605,1.189-.562.4-1.084.791a10.277,10.277,0,0,0-.92.773,4.2,4.2,0,0,0-.633.744A1.285,1.285,0,0,0,18.4-3.07Z" transform="translate(65 844.258)" fill="#fff" stroke="rgba(0,0,0,0)" stroke-width="1"/>
      <g id="矢印アイコン_下5" data-name="矢印アイコン　下5" transform="translate(177.899 784)">
        <path id="パス_9241" data-name="パス 9241" d="M19.022,8.854A.976.976,0,0,0,18,8.465l-4.194.979V1.41A1.41,1.41,0,0,0,12.4,0H6.8a1.411,1.411,0,0,0-1.41,1.41V9.445L1.2,8.465A.976.976,0,0,0,.156,9.945L8.721,21.809a1.085,1.085,0,0,0,1.759,0L19.044,9.945A.974.974,0,0,0,19.022,8.854Z" transform="translate(0)" fill="#00a9c6"/>
      </g>
      <g id="STEP2" transform="translate(-245 103)">
        <g id="グループ_4891" data-name="グループ 4891" transform="translate(287.94 762.2)">
          <path id="パス_9237" data-name="パス 9237" d="M140.519,208.763a3.6,3.6,0,1,0,3.6,3.6A3.6,3.6,0,0,0,140.519,208.763Zm0,5.273a1.673,1.673,0,1,1,1.674-1.673A1.675,1.675,0,0,1,140.519,214.036Z" transform="translate(-107.89 -161.354)" fill="#00a9c6"/>
          <path id="パス_9238" data-name="パス 9238" d="M95.735,171.758h-6.38V155.124a15.56,15.56,0,0,0-15.543-15.543H54.327a15.56,15.56,0,0,0-15.543,15.543v16.635H32.4a.963.963,0,0,0,0,1.927H95.735a.963.963,0,0,0,0-1.927ZM40.711,155.124a13.632,13.632,0,0,1,13.616-13.616H73.812a13.632,13.632,0,0,1,13.617,13.616v16.635h-6.41L82.3,151.781a.964.964,0,0,0-.961-1.025H46.8a.963.963,0,0,0-.961,1.025l1.285,19.977h-6.41Zm8.341,16.635-1.227-19.076h32.49l-1.227,19.076Z" transform="translate(-31.441 -111.212)" fill="#00a9c6"/>
          <path id="パス_9239" data-name="パス 9239" d="M118.513,61.808a11.969,11.969,0,0,0,11.956-11.956v-1.4a11.956,11.956,0,1,0-23.912,0v1.4A11.969,11.969,0,0,0,118.513,61.808Zm-10.03-13.352a10.03,10.03,0,1,1,20.059,0v1.4a10.03,10.03,0,1,1-20.059,0Z" transform="translate(-85.884 -36.5)" fill="#00a9c6"/>
        </g>
        <rect id="長方形_3114-2" data-name="長方形 3114" width="70" height="70" transform="translate(285 758)" fill="rgba(255,255,255,0)"/>
      </g>
    </g>
  </g>
</svg>
