<svg id="グループ_5471" data-name="グループ 5471" xmlns="http://www.w3.org/2000/svg" width="120" height="120" viewBox="0 0 120 120">
  <g id="グループ_5470" data-name="グループ 5470">
    <rect id="長方形_2723" data-name="長方形 2723" width="120" height="120" rx="60" fill="#fff"/>
    <g id="グループ_4161" data-name="グループ 4161" transform="translate(17 34)">
      <rect id="長方形_2713" data-name="長方形 2713" width="2.468" height="9.777" transform="translate(76.841 42.546)" fill="#3dcde6"/>
      <path id="パス_9197" data-name="パス 9197" d="M197.306,124.213a8.3,8.3,0,1,0,8.3-8.3A8.3,8.3,0,0,0,197.306,124.213Zm8.3-5.828a5.828,5.828,0,1,1-5.827,5.828A5.835,5.835,0,0,1,205.6,118.385Z" transform="translate(-136.344 -102.697)" fill="#3dcde6"/>
      <rect id="長方形_2714" data-name="長方形 2714" width="2.468" height="9.777" transform="translate(6.691 42.546)" fill="#3dcde6"/>
      <path id="パス_9198" data-name="パス 9198" d="M67.293,132.509a8.3,8.3,0,1,0-8.3-8.3A8.3,8.3,0,0,0,67.293,132.509Zm0-14.124a5.828,5.828,0,1,1-5.828,5.828A5.834,5.834,0,0,1,67.293,118.385Z" transform="translate(-50.55 -102.697)" fill="#3dcde6"/>
      <path id="パス_9199" data-name="パス 9199" d="M216.6,164.7H203.225a12.93,12.93,0,0,1,.82,2.468H216.6a6.957,6.957,0,0,1,6.949,6.949V185.28h2.468V174.117A9.428,9.428,0,0,0,216.6,164.7Z" transform="translate(-140.016 -132.957)" fill="#3dcde6"/>
      <path id="パス_9200" data-name="パス 9200" d="M36.75,174.117V185.28h2.468V174.117a6.956,6.956,0,0,1,6.949-6.949H58.72a12.957,12.957,0,0,1,.821-2.468H46.167A9.428,9.428,0,0,0,36.75,174.117Z" transform="translate(-36.75 -132.957)" fill="#3dcde6"/>
      <path id="パス_9201" data-name="パス 9201" d="M127.6,151.078H111.021a10.506,10.506,0,0,0-10.494,10.494V176.83H103V161.572a8.035,8.035,0,0,1,8.026-8.026H127.6a8.035,8.035,0,0,1,8.026,8.026V176.83H138.1V161.572A10.506,10.506,0,0,0,127.6,151.078Z" transform="translate(-76.311 -124.507)" fill="#3dcde6"/>
      <path id="パス_9202" data-name="パス 9202" d="M95.938,94.983A6.943,6.943,0,1,0,89,88.041,6.951,6.951,0,0,0,95.938,94.983Zm0-11.417a4.475,4.475,0,1,1-4.475,4.475A4.48,4.48,0,0,1,95.938,83.566Z" transform="translate(-69.158 -81.098)" fill="#3dcde6"/>
      <path id="パス_9203" data-name="パス 9203" d="M181.377,94.983a6.943,6.943,0,1,0-6.943-6.943A6.951,6.951,0,0,0,181.377,94.983Zm0-11.417a4.475,4.475,0,1,1-4.475,4.475A4.48,4.48,0,0,1,181.377,83.566Z" transform="translate(-122.157 -81.098)" fill="#3dcde6"/>
      <rect id="長方形_2715" data-name="長方形 2715" width="2.468" height="13.69" transform="translate(31.787 38.633)" fill="#3dcde6"/>
      <rect id="長方形_2716" data-name="長方形 2716" width="2.468" height="13.69" transform="translate(51.745 38.633)" fill="#3dcde6"/>
      <path id="パス_9204" data-name="パス 9204" d="M134.928,114.939a9.226,9.226,0,1,0-9.225-9.225A9.236,9.236,0,0,0,134.928,114.939Zm0-15.983a6.758,6.758,0,1,1-6.757,6.758A6.766,6.766,0,0,1,134.928,98.956Z" transform="translate(-91.928 -90.645)" fill="#3dcde6"/>
    </g>
  </g>
</svg>
