<svg xmlns="http://www.w3.org/2000/svg" width="120" height="120" viewBox="0 0 120 120">
  <g id="plan-etimate-etimate06" transform="translate(-1040 -2999)">
    <g id="hotel" transform="translate(1040 2999)">
      <rect id="長方形_2727" data-name="長方形 2727" width="120" height="120" rx="60" transform="translate(0)" fill="#fff"/>
      <g id="グループ_4163" data-name="グループ 4163" transform="translate(27 24.001)">
        <path id="パス_9208" data-name="パス 9208" d="M2265.287,635.574H2260.7v-8.861a.713.713,0,0,0-.714-.713h-53.166a.713.713,0,0,0-.714.713v8.861h-5.4a.713.713,0,0,0-.713.713V696.38a.713.713,0,0,0,.713.713h64.574a.713.713,0,0,0,.713-.713V636.287A.713.713,0,0,0,2265.287,635.574Zm-22.713,60.093v-5.907h3v5.907Zm-41.148,0V637h22.2v48.074h-8.657a.713.713,0,0,0-.713.713v3.259a.713.713,0,0,0,.713.713h.863v5.907Zm6.111-68.241h51.741v8.148h-51.741Zm41.351,68.139H2247v-5.4h1.887Zm-29.74,0h-1.887v-5.4h1.887Zm23.426-7.231h-26.889V686.5h34.833v1.833Zm-17.417,1.426h15.889v5.6h-15.889Zm15.991-4.685h-16.093V637h16.093Zm-20.574,4.685h3.056v5.907h-3.056Zm44,5.907h-14.26v-5.907h.917a.713.713,0,0,0,.713-.713v-3.259a.713.713,0,0,0-.713-.713h-8.657V637h22Z" transform="translate(-2200 -626)" fill="#3dcde6"/>
        <path id="パス_9209" data-name="パス 9209" d="M2229.386,705.667h5.3a.712.712,0,0,0,.712-.713v-7.741a.713.713,0,0,0-.712-.713h-5.3a.713.713,0,0,0-.713.713v7.741A.713.713,0,0,0,2229.386,705.667Zm.713-7.74h3.874v6.315H2230.1Z" transform="translate(-2222.833 -682.139)" fill="#3dcde6"/>
        <path id="パス_9210" data-name="パス 9210" d="M2276.409,705.667h5.3a.713.713,0,0,0,.713-.713v-7.741a.713.713,0,0,0-.713-.713h-5.3a.713.713,0,0,0-.713.713v7.741A.713.713,0,0,0,2276.409,705.667Zm.713-7.74H2281v6.315h-3.874Z" transform="translate(-2260.277 -682.139)" fill="#3dcde6"/>
        <path id="パス_9211" data-name="パス 9211" d="M2348.312,706.167h5.3a.713.713,0,0,0,.713-.713v-7.741a.713.713,0,0,0-.713-.713h-5.3a.714.714,0,0,0-.714.713v7.741A.714.714,0,0,0,2348.312,706.167Zm.713-7.741h3.874v6.315h-3.874Z" transform="translate(-2317.532 -682.537)" fill="#3dcde6"/>
        <path id="パス_9212" data-name="パス 9212" d="M2229.386,758.667h5.3a.713.713,0,0,0,.712-.713v-7.741a.713.713,0,0,0-.712-.713h-5.3a.713.713,0,0,0-.713.713v7.741A.713.713,0,0,0,2229.386,758.667Zm.713-7.741h3.874v6.315H2230.1Z" transform="translate(-2222.833 -724.343)" fill="#3dcde6"/>
        <path id="パス_9213" data-name="パス 9213" d="M2276.409,758.667h5.3a.713.713,0,0,0,.713-.713v-7.741a.713.713,0,0,0-.713-.713h-5.3a.713.713,0,0,0-.713.713v7.741A.713.713,0,0,0,2276.409,758.667Zm.713-7.741H2281v6.315h-3.874Z" transform="translate(-2260.277 -724.343)" fill="#3dcde6"/>
        <path id="パス_9214" data-name="パス 9214" d="M2348.312,759.167h5.3a.713.713,0,0,0,.713-.713v-7.741a.713.713,0,0,0-.713-.713h-5.3a.714.714,0,0,0-.714.713v7.741A.714.714,0,0,0,2348.312,759.167Zm.713-7.741h3.874v6.315h-3.874Z" transform="translate(-2317.532 -724.741)" fill="#3dcde6"/>
        <path id="パス_9215" data-name="パス 9215" d="M2229.386,814.667h5.3a.713.713,0,0,0,.712-.713v-7.741a.713.713,0,0,0-.712-.713h-5.3a.713.713,0,0,0-.713.713v7.741A.713.713,0,0,0,2229.386,814.667Zm.713-7.741h3.874v6.315H2230.1Z" transform="translate(-2222.833 -768.935)" fill="#3dcde6"/>
        <path id="パス_9216" data-name="パス 9216" d="M2276.409,814.667h5.3a.713.713,0,0,0,.713-.713v-7.741a.713.713,0,0,0-.713-.713h-5.3a.713.713,0,0,0-.713.713v7.741A.713.713,0,0,0,2276.409,814.667Zm.713-7.741H2281v6.315h-3.874Z" transform="translate(-2260.277 -768.935)" fill="#3dcde6"/>
        <path id="パス_9217" data-name="パス 9217" d="M2348.312,815.167h5.3a.713.713,0,0,0,.713-.713v-7.741a.713.713,0,0,0-.713-.713h-5.3a.714.714,0,0,0-.714.713v7.741A.713.713,0,0,0,2348.312,815.167Zm.713-7.741h3.874v6.315h-3.874Z" transform="translate(-2317.532 -769.333)" fill="#3dcde6"/>
        <path id="パス_9218" data-name="パス 9218" d="M2234.686,870.667a.713.713,0,0,0,.712-.713v-7.741a.713.713,0,0,0-.712-.713h-5.3a.713.713,0,0,0-.713.713v7.741a.713.713,0,0,0,.713.713Zm-4.587-7.741h3.874v6.315H2230.1Z" transform="translate(-2222.833 -813.528)" fill="#3dcde6"/>
        <path id="パス_9219" data-name="パス 9219" d="M2276.409,870.667h5.3a.713.713,0,0,0,.713-.713v-7.741a.713.713,0,0,0-.713-.713h-5.3a.713.713,0,0,0-.713.713v7.741A.713.713,0,0,0,2276.409,870.667Zm.713-7.741H2281v6.315h-3.874Z" transform="translate(-2260.277 -813.528)" fill="#3dcde6"/>
        <path id="パス_9220" data-name="パス 9220" d="M2348.312,871.167h5.3a.713.713,0,0,0,.713-.713v-7.741a.713.713,0,0,0-.713-.713h-5.3a.714.714,0,0,0-.714.713v7.741A.714.714,0,0,0,2348.312,871.167Zm.713-7.741h3.874v6.315h-3.874Z" transform="translate(-2317.532 -813.926)" fill="#3dcde6"/>
        <path id="パス_9221" data-name="パス 9221" d="M2424.755,696.5h-5.3a.714.714,0,0,0-.714.713v7.741a.713.713,0,0,0,.714.713h5.3a.713.713,0,0,0,.713-.713v-7.741A.713.713,0,0,0,2424.755,696.5Zm-.713,7.74h-3.874v-6.315h3.874Z" transform="translate(-2374.182 -682.139)" fill="#3dcde6"/>
        <path id="パス_9222" data-name="パス 9222" d="M2424.755,749.5h-5.3a.714.714,0,0,0-.714.713v7.741a.713.713,0,0,0,.714.713h5.3a.713.713,0,0,0,.713-.713v-7.741A.713.713,0,0,0,2424.755,749.5Zm-.713,7.741h-3.874v-6.315h3.874Z" transform="translate(-2374.182 -724.343)" fill="#3dcde6"/>
        <path id="パス_9223" data-name="パス 9223" d="M2424.755,805.5h-5.3a.713.713,0,0,0-.714.713v7.741a.714.714,0,0,0,.714.713h5.3a.713.713,0,0,0,.713-.713v-7.741A.713.713,0,0,0,2424.755,805.5Zm-.713,7.741h-3.874v-6.315h3.874Z" transform="translate(-2374.182 -768.935)" fill="#3dcde6"/>
        <path id="パス_9224" data-name="パス 9224" d="M2236.082,917.5h-5.3a.714.714,0,0,0-.714.713v7.741a.714.714,0,0,0,.714.713h5.3a.713.713,0,0,0,.714-.713v-7.741A.713.713,0,0,0,2236.082,917.5Zm-.713,7.741H2231.5v-6.315h3.873Z" transform="translate(-2223.943 -858.121)" fill="#3dcde6"/>
        <path id="パス_9225" data-name="パス 9225" d="M2424.755,861.5h-5.3a.714.714,0,0,0-.714.713v7.741a.714.714,0,0,0,.714.713h5.3a.713.713,0,0,0,.713-.713v-7.741A.713.713,0,0,0,2424.755,861.5Zm-.713,7.741h-3.874v-6.315h3.874Z" transform="translate(-2374.182 -813.528)" fill="#3dcde6"/>
        <path id="パス_9226" data-name="パス 9226" d="M2465.455,696.5a.713.713,0,0,0-.713.713v7.741a.713.713,0,0,0,.713.713h5.3a.713.713,0,0,0,.713-.713v-7.741a.713.713,0,0,0-.713-.713Zm4.587,7.74h-3.874v-6.315h3.874Z" transform="translate(-2410.813 -682.139)" fill="#3dcde6"/>
        <path id="パス_9227" data-name="パス 9227" d="M2470.754,749.5h-5.3a.713.713,0,0,0-.713.713v7.741a.713.713,0,0,0,.713.713h5.3a.713.713,0,0,0,.713-.713v-7.741A.713.713,0,0,0,2470.754,749.5Zm-.713,7.741h-3.874v-6.315h3.874Z" transform="translate(-2410.813 -724.343)" fill="#3dcde6"/>
        <path id="パス_9228" data-name="パス 9228" d="M2470.754,805.5h-5.3a.713.713,0,0,0-.713.713v7.741a.713.713,0,0,0,.713.713h5.3a.713.713,0,0,0,.713-.713v-7.741A.713.713,0,0,0,2470.754,805.5Zm-.713,7.741h-3.874v-6.315h3.874Z" transform="translate(-2410.813 -768.935)" fill="#3dcde6"/>
        <path id="パス_9229" data-name="パス 9229" d="M2469.751,917.5h-5.3a.713.713,0,0,0-.713.713v7.741a.713.713,0,0,0,.713.713h5.3a.713.713,0,0,0,.713-.713v-7.741A.713.713,0,0,0,2469.751,917.5Zm-.713,7.741h-3.874v-6.315h3.874Z" transform="translate(-2410.015 -858.121)" fill="#3dcde6"/>
        <path id="パス_9230" data-name="パス 9230" d="M2470.754,861.5h-5.3a.713.713,0,0,0-.713.713v7.741a.713.713,0,0,0,.713.713h5.3a.713.713,0,0,0,.713-.713v-7.741A.713.713,0,0,0,2470.754,861.5Zm-.713,7.741h-3.874v-6.315h3.874Z" transform="translate(-2410.813 -813.528)" fill="#3dcde6"/>
      </g>
    </g>
  </g>
</svg>
