<svg xmlns="http://www.w3.org/2000/svg" width="120" height="120" viewBox="0 0 120 120">
  <g id="plan-estimate-estimate07" transform="translate(-224 -2807)">
    <g id="グループ_5471" data-name="グループ 5471">
      <g id="calendar" transform="translate(224 2807)">
        <rect id="長方形_2722" data-name="長方形 2722" width="120" height="120" rx="60" fill="#fff"/>
        <g id="グループ_4160" data-name="グループ 4160" transform="translate(24 22)">
          <rect id="長方形_2704" data-name="長方形 2704" width="7.324" height="7.324" rx="3.662" transform="translate(8.322 21.733)" fill="#3dcde6"/>
          <rect id="長方形_2705" data-name="長方形 2705" width="7.324" height="7.324" rx="3.662" transform="translate(22.54 21.733)" fill="#3dcde6"/>
          <rect id="長方形_2706" data-name="長方形 2706" width="7.324" height="7.324" rx="3.662" transform="translate(36.758 21.733)" fill="#3dcde6"/>
          <rect id="長方形_2707" data-name="長方形 2707" width="7.324" height="7.324" rx="3.662" transform="translate(50.976 21.733)" fill="#3dcde6"/>
          <path id="長方形_2708" data-name="長方形 2708" d="M3.662,0h0A3.662,3.662,0,0,1,7.324,3.662v0A3.662,3.662,0,0,1,3.662,7.324h0A3.662,3.662,0,0,1,0,3.662v0A3.662,3.662,0,0,1,3.662,0Z" transform="translate(8.322 35.951)" fill="#3dcde6"/>
          <path id="長方形_2709" data-name="長方形 2709" d="M3.662,0h0A3.662,3.662,0,0,1,7.324,3.662v0A3.662,3.662,0,0,1,3.662,7.324h0A3.662,3.662,0,0,1,0,3.662v0A3.662,3.662,0,0,1,3.662,0Z" transform="translate(22.54 35.951)" fill="#3dcde6"/>
          <path id="長方形_2710" data-name="長方形 2710" d="M3.662,0h0A3.662,3.662,0,0,1,7.324,3.662v0A3.662,3.662,0,0,1,3.662,7.324h0A3.662,3.662,0,0,1,0,3.662v0A3.662,3.662,0,0,1,3.662,0Z" transform="translate(36.758 35.951)" fill="#3dcde6"/>
          <path id="長方形_2711" data-name="長方形 2711" d="M3.662,0h0A3.662,3.662,0,0,1,7.324,3.662v0A3.662,3.662,0,0,1,3.662,7.324h0A3.662,3.662,0,0,1,0,3.662v0A3.662,3.662,0,0,1,3.662,0Z" transform="translate(8.322 50.169)" fill="#3dcde6"/>
          <path id="長方形_2712" data-name="長方形 2712" d="M3.662,0h0A3.662,3.662,0,0,1,7.324,3.662v0A3.662,3.662,0,0,1,3.662,7.324h0A3.662,3.662,0,0,1,0,3.662v0A3.662,3.662,0,0,1,3.662,0Z" transform="translate(22.54 50.169)" fill="#3dcde6"/>
          <circle id="楕円形_49" data-name="楕円形 49" cx="2.578" cy="2.578" r="2.578" transform="translate(30.733 5.308)" fill="#3dcde6"/>
          <path id="パス_9194" data-name="パス 9194" d="M42.422,105.394a3.38,3.38,0,0,1-3.376-3.376V57.68h62.031V78.539a21.31,21.31,0,0,1,2.3.422V47.547A5.678,5.678,0,0,0,97.7,41.875H42.422a5.678,5.678,0,0,0-5.672,5.672v54.471a5.678,5.678,0,0,0,5.672,5.672H78.348a21.278,21.278,0,0,1-.761-2.3ZM39.046,47.547a3.38,3.38,0,0,1,3.376-3.376H97.7a3.38,3.38,0,0,1,3.376,3.376v7.838H39.046Z" transform="translate(-36.75 -41.875)" fill="#3dcde6"/>
          <path id="パス_9195" data-name="パス 9195" d="M218.452,183.8h-8.314v-9.18a1.148,1.148,0,1,0-2.3,0v10.328a1.148,1.148,0,0,0,1.148,1.148h9.462a1.148,1.148,0,1,0,0-2.3Z" transform="translate(-147.412 -126.994)" fill="#3dcde6"/>
          <path id="パス_9196" data-name="パス 9196" d="M177.356,153.808a18.422,18.422,0,1,0,18.422,18.423A18.443,18.443,0,0,0,177.356,153.808Zm0,34.549a16.127,16.127,0,1,1,16.126-16.126A16.145,16.145,0,0,1,177.356,188.357Z" transform="translate(-115.779 -114.273)" fill="#3dcde6"/>
        </g>
      </g>
    </g>
  </g>
</svg>
