<svg id="グループ_5475" data-name="グループ 5475" xmlns="http://www.w3.org/2000/svg" xmlns:xlink="http://www.w3.org/1999/xlink" width="120" height="120" viewBox="0 0 120 120">
  <defs>
    <clipPath id="clip-path">
      <rect id="長方形_3913" data-name="長方形 3913" width="47.812" height="71.999" fill="#3dcde6"/>
    </clipPath>
  </defs>
  <g id="グループ_5474" data-name="グループ 5474">
    <rect id="長方形_2727" data-name="長方形 2727" width="120" height="120" rx="60" fill="#fff"/>
    <g id="グループ_5465" data-name="グループ 5465" transform="translate(36 24)">
      <g id="グループ_5464" data-name="グループ 5464" clip-path="url(#clip-path)">
        <path id="パス_9435" data-name="パス 9435" d="M46.387,15.191h0a7.719,7.719,0,0,0,1.126.083A7.636,7.636,0,0,0,48.608.083a7.635,7.635,0,1,0-2.221,15.108M42.14,6.849a5.415,5.415,0,1,1,4.57,6.146h0a5.422,5.422,0,0,1-4.57-6.146" transform="translate(-27.218 0)" fill="#3dcde6"/>
        <path id="パス_9436" data-name="パス 9436" d="M47.235,97.515,38.6,82.383c-.951-5.249-2.352-13.009-2.407-13.366l-1.62-11.144.96.138,4.382,7.235a4.113,4.113,0,0,0,7.262-3.832l-4.525-9.955A4.374,4.374,0,0,0,39.3,48.953L27.439,47.246a4.762,4.762,0,0,0-1.025-.032,8.071,8.071,0,0,0-6.192,2.47,4.743,4.743,0,0,0-.743.728l-7.153,8.8-9.27,2.722A4.3,4.3,0,0,0,.081,66.857,4.261,4.261,0,0,0,5.1,70.2l11.077-2.225a4.333,4.333,0,0,0,2.5-1.51l1.561-1.92,1.294,4.666q-.448,1.265-.885,2.533l-.144.415c-.312.966-7.66,23.7-8.4,26.193a4.574,4.574,0,0,0,8.577,3.132C21.716,99.1,26.707,87.1,26.758,86.973Q27.289,85.69,27.8,84.4l.482,1.679a3.874,3.874,0,0,0,.6,1.207l10.982,15.005a4.4,4.4,0,0,0,7.371-4.777m-2.74,4.072a2.175,2.175,0,0,1-2.838-.605L30.674,85.975a1.656,1.656,0,0,1-.254-.512l-1.376-4.784a1.11,1.11,0,0,0-2.1-.106l-.916,2.284c-.437,1.09-.874,2.18-1.324,3.265-.05.121-5.034,12.105-6.064,14.472a2.354,2.354,0,0,1-4.414-1.611c.735-2.47,8.311-25.908,8.38-26.122l.136-.393c.33-.95.659-1.9,1-2.847a1.109,1.109,0,0,0,.024-.669L21.8,61.876a1.11,1.11,0,0,0-1.931-.4L16.954,65.06a2.106,2.106,0,0,1-1.216.734L4.661,68.019a2.041,2.041,0,0,1-2.4-1.6,2.061,2.061,0,0,1,1.426-2.36l9.6-2.818a1.108,1.108,0,0,0,.549-.365L21.2,51.812a2.507,2.507,0,0,1,.438-.418,1.132,1.132,0,0,0,.139-.125,5.848,5.848,0,0,1,4.591-1.834,1.154,1.154,0,0,0,.162,0,2.522,2.522,0,0,1,.592.012l11.864,1.707a2.187,2.187,0,0,1,1.648,1.236l4.521,9.947A1.892,1.892,0,0,1,41.814,64.1l-4.655-7.685a1.109,1.109,0,0,0-.791-.524l-2.95-.424a1.11,1.11,0,0,0-1.257,1.258l1.833,12.614c.059.405,2.208,12.277,2.453,13.63a1.112,1.112,0,0,0,.128.352l8.73,15.3a2.181,2.181,0,0,1-.812,2.972" transform="translate(0 -32.229)" fill="#3dcde6"/>
      </g>
    </g>
  </g>
</svg>
