<svg id="plan-estimate-estimate11" xmlns="http://www.w3.org/2000/svg" xmlns:xlink="http://www.w3.org/1999/xlink" width="120" height="120" viewBox="0 0 120 120">
  <defs>
    <clipPath id="clip-path">
      <rect id="長方形_3912" data-name="長方形 3912" width="69.777" height="67.762" fill="#3dcde6"/>
    </clipPath>
  </defs>
  <rect id="長方形_2726" data-name="長方形 2726" width="120" height="120" rx="60" fill="#fff"/>
  <g id="グループ_5463" data-name="グループ 5463" transform="translate(25.111 23.119)">
    <g id="グループ_5462" data-name="グループ 5462" clip-path="url(#clip-path)">
      <path id="パス_9432" data-name="パス 9432" d="M69.75,131.372,61.158,95.425q-.706,1.09-1.542,2.162l.855,3.578h-3.8l-1.653,2H60.95l1.707,7.144H49.127l-1.652,2h15.66l1.311,5.485L51.514,130.6h-7.2V115.025a3.7,3.7,0,0,1-2,0V130.6H33.284L25,112.313H39.145l-1.651-2h-13.4l-3.237-7.144H31.6l-1.653-2h-10l-2.469-5.448H25.65c-.441-.663-.842-1.331-1.209-2H9.819a1,1,0,0,0-.974.768L.028,131.372A1,1,0,0,0,1,132.606H68.776a1,1,0,0,0,.974-1.234M10.609,95.716h4.668l6.613,14.594H7.121ZM2.27,130.6l4.372-18.29H22.8l8.288,18.29Zm52.09,0,10.631-10.526L67.508,130.6Z" transform="translate(0 -64.844)" fill="#3dcde6"/>
      <path id="パス_9433" data-name="パス 9433" d="M116.873,46.257A10.558,10.558,0,1,0,106.315,35.7a10.57,10.57,0,0,0,10.558,10.558m0-19.114a8.556,8.556,0,1,1-8.556,8.556,8.565,8.565,0,0,1,8.556-8.556" transform="translate(-73.563 -17.395)" fill="#3dcde6"/>
      <path id="パス_9434" data-name="パス 9434" d="M97.762,47.105a1,1,0,0,0,1.545,0c.111-.135,11.165-13.542,12.726-15.418,3.466-4.166,5.224-8.528,5.224-12.964a18.723,18.723,0,1,0-37.446,0c0,4.436,1.758,8.8,5.224,12.964C86.6,33.563,97.651,46.97,97.762,47.105M98.535,2a16.739,16.739,0,0,1,16.72,16.72c0,3.956-1.6,7.886-4.761,11.683-1.32,1.587-9.4,11.39-11.96,14.488-2.555-3.1-10.639-12.9-11.96-14.488-3.159-3.8-4.761-7.728-4.761-11.683A16.739,16.739,0,0,1,98.535,2" transform="translate(-55.225)" fill="#3dcde6"/>
    </g>
  </g>
</svg>
