<svg xmlns="http://www.w3.org/2000/svg" width="335" height="406" viewBox="0 0 335 406">
  <g id="グループ_5468" data-name="グループ 5468" transform="translate(-20 -1033)">
    <g id="ステップ" transform="translate(0 486)">
      <rect id="長方形_3112" data-name="長方形 3112" width="335" height="120" rx="10" transform="translate(20 654)" fill="#d8f5fa"/>
      <g id="STEP1" transform="translate(-245 -76)">
        <rect id="長方形_3114" data-name="長方形 3114" width="70" height="70" transform="translate(285 758)" fill="rgba(255,255,255,0)"/>
        <path id="パス_9417" data-name="パス 9417" d="M69.925,68.184,53.488,51.326a30.785,30.785,0,1,0-1.681,1.716l16.42,16.84Zm-39.2-9.144A28.319,28.319,0,1,1,59.039,30.721,28.351,28.351,0,0,1,30.721,59.04" transform="translate(285.075 758)" fill="#00a9c6"/>
        <path id="パス_9422" data-name="パス 9422" d="M55.763,112.492a8.905,8.905,0,1,0-8.94-8.9A8.933,8.933,0,0,0,55.763,112.492Zm0-16.336a7.431,7.431,0,1,1-7.465,7.431A7.457,7.457,0,0,1,55.763,96.156Zm9.056,17.931h-2.5a.737.737,0,0,0-.678.448l-2.832,6.631-.987-3.525,1.134-2.513a.737.737,0,0,0-.672-1.04h-5.04a.737.737,0,0,0-.672,1.04l1.134,2.513-.987,3.525-2.831-6.631a.737.737,0,0,0-.678-.448h-2.5a8.192,8.192,0,0,0-8.2,8.167V132.68h1.474V122.255a6.716,6.716,0,0,1,6.724-6.693h2.015l6.363,14.9a.737.737,0,0,0,1.356,0l6.363-14.9h2.016a6.716,6.716,0,0,1,6.724,6.693V132.68h1.474V122.255A8.192,8.192,0,0,0,64.819,114.088ZM55.763,128.3l-2.12-4.964,1.554-5.552a.738.738,0,0,0-.038-.5l-.775-1.717h2.757l-.775,1.717a.738.738,0,0,0-.038.5l1.554,5.552Z" transform="translate(260.737 672.767)" fill="#00a9c6"/>
      </g>
      <rect id="長方形_3115" data-name="長方形 3115" width="335" height="120" rx="10" transform="translate(20 833)" fill="#d8f5fa"/>
      <rect id="長方形_3113" data-name="長方形 3113" width="90" height="35" rx="10" transform="translate(20 637)" fill="#00a9c6"/>
      <rect id="長方形_3116" data-name="長方形 3116" width="90" height="35" rx="10" transform="translate(20 816.258)" fill="#00a9c6"/>
      <g id="グループ_4890" data-name="グループ 4890" transform="translate(134 679)">
        <path id="パス_9439" data-name="パス 9439" d="M-51.852-2.578a3.272,3.272,0,0,0,1.047.516.8.8,0,0,1,.313.141.351.351,0,0,1,.063.234q0,.07-.008.18A3.058,3.058,0,0,1-51.094.516a3.121,3.121,0,0,1-1.992.477A4.687,4.687,0,0,1-54.852.75Q-55.344.531-55.344-.3V-3.937h-.914A5.176,5.176,0,0,1-57.617-.445,6.83,6.83,0,0,1-60.68,1.141a1.621,1.621,0,0,1-.352.078q-.172,0-.414-.383a3.63,3.63,0,0,0-.742-.9,7.76,7.76,0,0,0,3.273-1.352,3.469,3.469,0,0,0,1.047-2.523q-.555.008-1,.023l-.312.008q-.125,0-.148-.031a.292.292,0,0,1-.023-.148l.031-1.945v-4.594l-.031-1.945a.285.285,0,0,1,.031-.172.269.269,0,0,1,.141-.023l2,.031h3.32l2.008-.031q.133,0,.156.039a.315.315,0,0,1,.023.156l-.031,1.945v4.594l.031,1.945a.254.254,0,0,1-.027.152.254.254,0,0,1-.152.027l-1.906-.031v2.852q0,.422.172.492a2.076,2.076,0,0,0,.578.047,1.317,1.317,0,0,0,.836-.2,1.01,1.01,0,0,0,.242-.625Q-51.883-1.711-51.852-2.578ZM-53.312-5.3V-6.43h-4.43V-5.3Zm0-6h-4.43v1.117h4.43Zm-4.43,3.539h4.43V-8.867h-4.43Zm-3.789-3.125h-.062v2.836l1.375-.031a.247.247,0,0,1,.156.031.269.269,0,0,1,.023.141v1.188q0,.125-.039.148a.244.244,0,0,1-.141.023l-1.375-.031v2.656q1.086-.484,1.773-.875-.016.2-.016.445,0,.219.016.609.016.2.016.266a.381.381,0,0,1-.062.25,1.5,1.5,0,0,1-.336.219,29.764,29.764,0,0,1-3.68,1.648,3.431,3.431,0,0,0-.5.227.488.488,0,0,1-.25.109q-.148,0-.211-.2-.18-.531-.4-1.5a13.717,13.717,0,0,0,1.5-.4q.18-.055.531-.18V-6.578l-1.469.031q-.133,0-.156-.031a.269.269,0,0,1-.023-.141V-7.906q0-.125.031-.148a.292.292,0,0,1,.148-.023l1.469.031v-2.836H-63.3l-1.57.039q-.117,0-.141-.039a.315.315,0,0,1-.023-.156v-1.172q0-.172.164-.172l1.57.031h1.773l1.555-.031q.125,0,.148.031a.269.269,0,0,1,.023.141v1.172a.285.285,0,0,1-.031.172.269.269,0,0,1-.141.023ZM-36.125-2.75a4.585,4.585,0,0,0,1.156.508,1.036,1.036,0,0,1,.313.117.193.193,0,0,1,.063.164q0,.063-.023.25A5.4,5.4,0,0,1-34.93-.172a1.376,1.376,0,0,1-.555.617,2.938,2.938,0,0,1-1.281.422,20.932,20.932,0,0,1-2.508.109A7.75,7.75,0,0,1-42.648.531a1.742,1.742,0,0,1-.609-1.586V-6.047q-.422.148-.937.344-.281.1-.344.117a.455.455,0,0,1-.109.023q-.07,0-.1-.148l-.2-1.25a.535.535,0,0,1-.016-.1q0-.055.141-.109.648-.156,1.57-.461V-9.391q.008-.211.008-.43a14.755,14.755,0,0,0-.1-1.844q.813.023,1.539.094.32.047.32.18a.888.888,0,0,1-.1.336,6.08,6.08,0,0,0-.094,1.516v1.383l1.531-.516v-2.32a19.888,19.888,0,0,0-.125-2.273,12.377,12.377,0,0,1,1.633.133q.258.023.258.172a1.345,1.345,0,0,1-.1.32,5.914,5.914,0,0,0-.094,1.438v2.016l1.234-.414q.859-.281,1.625-.555.422-.156.469-.164h.039q.133,0,.133.164l-.047,2.047A15.761,15.761,0,0,1-35.516-4.5a1.37,1.37,0,0,1-1.375,1.219,4.308,4.308,0,0,1-.594-.031q-.273-.023-.328-.1a1.494,1.494,0,0,1-.1-.43,3.614,3.614,0,0,0-.336-1.148,3.751,3.751,0,0,0,.844.109.363.363,0,0,0,.32-.125,1.047,1.047,0,0,0,.164-.469,17.612,17.612,0,0,0,.188-2.8l-1.852.641v2.781l.031,2.484a.235.235,0,0,1-.027.145.254.254,0,0,1-.152.027h-1.281q-.125,0-.148-.031a.269.269,0,0,1-.023-.141l.031-2.484V-7.1l-1.531.523v5.07q0,.57.3.727a7.8,7.8,0,0,0,2.3.172A13.838,13.838,0,0,0-37.2-.7a1.464,1.464,0,0,0,.688-.25.94.94,0,0,0,.281-.57A9.054,9.054,0,0,0-36.125-2.75Zm-8.039-1.711A4.335,4.335,0,0,0-44.2-3.9q0,.211.008.43.016.2.016.266a.364.364,0,0,1-.062.246,1.734,1.734,0,0,1-.367.223q-1.266.633-3.187,1.359a2.116,2.116,0,0,0-.523.258.388.388,0,0,1-.273.109q-.156,0-.242-.2-.172-.453-.43-1.422a12.35,12.35,0,0,0,1.586-.4l.367-.109V-7.68h-.133l-1.453.031q-.125,0-.141-.031a.35.35,0,0,1-.016-.141V-9.039a.288.288,0,0,1,.023-.156.224.224,0,0,1,.133-.023l1.453.031h.133v-1.5a14.709,14.709,0,0,0-.133-2.352q.922.023,1.656.109.258.023.258.2a1.345,1.345,0,0,1-.1.32,6.4,6.4,0,0,0-.094,1.516v1.711l1.313-.031q.156,0,.156.18V-7.82q0,.172-.156.172l-1.312-.031v3.953Q-45.023-4.008-44.164-4.461Zm21.656-9.359a1.762,1.762,0,0,1,1.359.6A1.752,1.752,0,0,1-20.68-12a1.739,1.739,0,0,1-.6,1.352,1.78,1.78,0,0,1-1.227.469,1.739,1.739,0,0,1-1.352-.6A1.752,1.752,0,0,1-24.328-12a1.739,1.739,0,0,1,.6-1.352A1.752,1.752,0,0,1-22.508-13.82Zm0,.781a.983.983,0,0,0-.773.336,1,1,0,0,0-.266.7,1.007,1.007,0,0,0,.336.781,1.019,1.019,0,0,0,.7.258,1.007,1.007,0,0,0,.781-.336,1.019,1.019,0,0,0,.258-.7,1.007,1.007,0,0,0-.336-.781A1.019,1.019,0,0,0-22.508-13.039ZM-33.562-.477q2.727-4.234,3.172-11.234l1.883.242a37.728,37.728,0,0,1-1.336,7.2A20.506,20.506,0,0,1-31.914.383Zm6.977-11.031,1.836-.2A26.625,26.625,0,0,0-21.5-.562L-23.227.4A28.907,28.907,0,0,1-25.5-5.617,46.4,46.4,0,0,1-26.586-11.508Zm6.7,4.516h9.055V-5.25h-9.055ZM-5.672-8.109A25.821,25.821,0,0,1,.461-5.633l-.9,1.7A19.468,19.468,0,0,0-5.672-6.4V.688H-7.461V-12.8h1.789ZM8.813-9.422h3.953v1.516H8.813a19.579,19.579,0,0,1-.3,3.461A7.375,7.375,0,0,1,7.8-2.492,6.38,6.38,0,0,1,6.273-.625,11.266,11.266,0,0,1,3.914.828L2.609-.461a6.383,6.383,0,0,0,3.609-2.82,6.218,6.218,0,0,0,.594-1.937,19.906,19.906,0,0,0,.18-2.687h-4.9V-9.422h4.9v-3.312h1.82Zm5.625,2.43h9.055V-5.25H14.438ZM30.414-11.07q2.273-.1,4.141-.289l.063,1.391q-2.781.2-4.891.289a10.344,10.344,0,0,1-1.25,1.82l-.367.352.047.07.4-.289A2.36,2.36,0,0,1,29.93-8.18a1.841,1.841,0,0,1,1.336.516A2.322,2.322,0,0,1,31.9-6.4q.648-.3,3.2-1.391l.625,1.5q-2.141.711-3.75,1.422v3.109h-1.5v-2.4a8.441,8.441,0,0,0-1.937,1.281,1.358,1.358,0,0,0-.43.953.9.9,0,0,0,.609.914,6.643,6.643,0,0,0,2.234.258q1.8,0,4.148-.227L35.18.516q-2.148.156-4.414.156a5.79,5.79,0,0,1-3.437-.727,2.1,2.1,0,0,1-.7-1.75,2.75,2.75,0,0,1,.844-1.984A11.271,11.271,0,0,1,30.461-5.7,1.8,1.8,0,0,0,30.2-6.719a.745.745,0,0,0-.586-.211,2.923,2.923,0,0,0-1.766.844,16.044,16.044,0,0,0-1.8,1.875L24.859-5.234a17.6,17.6,0,0,0,3.25-4.4q-.453.016-1.266.016-.516,0-1.57-.031v-1.406q1.008.047,1.781.047,1.1,0,1.7-.016a19.457,19.457,0,0,0,.656-2.094l1.648.266Q30.773-11.945,30.414-11.07ZM44.273-4.133l-2.18.031a.247.247,0,0,1-.156-.031.269.269,0,0,1-.023-.141v-.961a.727.727,0,0,1-.234.156q-.672.289-1.023.422v.734l.047,3.2A1.878,1.878,0,0,1,40.188.859a2.884,2.884,0,0,1-1.664.359h-.2q-.242,0-.3-.1a1.187,1.187,0,0,1-.109-.383A4.453,4.453,0,0,0,37.531-.43a9.421,9.421,0,0,0,1.2.063q.352,0,.352-.453V-4.07l-.594.2a2.834,2.834,0,0,0-.562.273.425.425,0,0,1-.273.094q-.141,0-.187-.2a12.538,12.538,0,0,1-.289-1.531,8.4,8.4,0,0,0,1.484-.289l.422-.109V-8.75h-.273l-1.375.031a.247.247,0,0,1-.156-.031.269.269,0,0,1-.023-.141v-1.172q0-.125.031-.148a.292.292,0,0,1,.148-.023l1.375.031h.273v-.8a17.192,17.192,0,0,0-.133-2.273q.9.031,1.641.117.258.023.258.172a1.132,1.132,0,0,1-.117.336,8.216,8.216,0,0,0-.078,1.617v.836l.891-.031q.133,0,.156.031a.269.269,0,0,1,.023.141v1.172q0,.125-.031.148a.292.292,0,0,1-.148.023l-.3-.008q-.281-.016-.594-.023V-6.2q.789-.3,1.406-.586a6.871,6.871,0,0,0-.078,1.148v.109a.268.268,0,0,1,.109-.016l2.18.031h1.563v-.273a8.517,8.517,0,0,0-.109-1.578q.719.023,1.484.094a1.376,1.376,0,0,1-.2-.812v-1.07a10.283,10.283,0,0,0-.1-1.7q.648,0,1.445.078.273.023.273.172a.682.682,0,0,1-.1.289,3.162,3.162,0,0,0-.062.883v.656q0,.383.078.445a1.323,1.323,0,0,0,.672.094,1.257,1.257,0,0,0,.8-.172,1.517,1.517,0,0,0,.234-.977,2.916,2.916,0,0,0,.977.367,1.258,1.258,0,0,1,.328.109.214.214,0,0,1,.07.18,1.889,1.889,0,0,1-.031.258,1.947,1.947,0,0,1-.555,1.227,3.046,3.046,0,0,1-1.891.4,4.852,4.852,0,0,1-1.586-.156.7.7,0,0,1-.094.227,2.52,2.52,0,0,0-.078.813v.445h1.938l2.188-.031a.247.247,0,0,1,.156.031.292.292,0,0,1,.023.148v1.086a.235.235,0,0,1-.027.145.254.254,0,0,1-.152.027l-2.187-.031h-1.3a9.911,9.911,0,0,0,4.109,2.945,5.225,5.225,0,0,0-.8,1.141q-.187.367-.32.367a1.113,1.113,0,0,1-.383-.18,9.587,9.587,0,0,1-3.281-3.148l.063,4.094q0,.164-.18.164H45.984q-.18,0-.18-.164,0-.133.031-1.664.023-1.406.031-2.445A10.158,10.158,0,0,1,42.445.156a.828.828,0,0,1-.352.164q-.109,0-.32-.367a5.535,5.535,0,0,0-.7-.961,9.482,9.482,0,0,0,3.984-3.125Zm4.9-8.586,2.2-.031a.247.247,0,0,1,.156.031.292.292,0,0,1,.023.148l-.039.648v.516l.039,1.453q0,.141-.039.172a.244.244,0,0,1-.141.023H50.25q-.133,0-.156-.039a.315.315,0,0,1-.023-.156v-1.422h-6.43v1.422q0,.141-.039.172a.315.315,0,0,1-.156.023H42.328q-.109,0-.141-.039a.457.457,0,0,1-.016-.156l.031-1.453v-.4l-.031-.766q0-.18.156-.18l2.188.031ZM44.7-10.867q1.07.211,1.445.32.227.063.227.2a.368.368,0,0,1-.1.242,1.56,1.56,0,0,0-.25.57,4.918,4.918,0,0,1-2.359,3,.964.964,0,0,1-.4.156q-.133,0-.32-.3a3.617,3.617,0,0,0-.773-.852,3.65,3.65,0,0,0,2.352-2.3A3.907,3.907,0,0,0,44.7-10.867ZM61.273-9.539q-.016,1.211-.016,1.922,0,.8.016,1.406a4.986,4.986,0,0,1,.367,2,4.18,4.18,0,0,1-1.6,3.531A9.666,9.666,0,0,1,56.047.852l-.93-1.523a7.484,7.484,0,0,0,4.047-1.336,2.418,2.418,0,0,0,.914-1.578,2.366,2.366,0,0,1-1.875.773,2.718,2.718,0,0,1-2.047-.75A2.542,2.542,0,0,1,55.5-5.406a2.5,2.5,0,0,1,.922-2.07,3.028,3.028,0,0,1,1.93-.6,3.131,3.131,0,0,1,1.359.32L59.68-9.523q-2.977.07-6.18.289l-.016-1.437q3.055-.141,6.156-.2l-.016-2.016h1.7q0,.578-.039,1.984,1.281-.016,3.766-.016v1.445Q63.789-9.539,61.273-9.539ZM58.281-6.867a1.228,1.228,0,0,0-.961.391,1.437,1.437,0,0,0-.352,1.023,1.3,1.3,0,0,0,.414,1.023,1.327,1.327,0,0,0,.93.32,1.355,1.355,0,0,0,1.07-.414,1.371,1.371,0,0,0,.313-.945A1.243,1.243,0,0,0,58.281-6.867Z" transform="translate(99 42)" fill="#333" stroke="rgba(0,0,0,0)" stroke-width="1"/>
      </g>
      <g id="グループ_4893" data-name="グループ 4893" transform="translate(134 858.258)">
        <path id="パス_9440" data-name="パス 9440" d="M-66.078.547l-2.031.031q-.125,0-.148-.031A.292.292,0,0,1-68.281.4V-.836q0-.156.172-.156l2.031.031H-62.2V-3.344h-2.031l-2.2.031a.266.266,0,0,1-.164-.031.269.269,0,0,1-.023-.141V-4.672q0-.125.031-.148a.315.315,0,0,1,.156-.023l2.2.031h5.969l2.188-.031a.285.285,0,0,1,.172.031.269.269,0,0,1,.023.141v1.188q0,.117-.031.145a.3.3,0,0,1-.164.027l-2.187-.031h-2.258V-.961h4.031l2.031-.031q.18,0,.18.156V.4q0,.133-.039.156a.244.244,0,0,1-.141.023L-56.492.547Zm9.25-12.3,2.109-.031q.133,0,.156.039a.292.292,0,0,1,.023.148l-.031.719v.563l.031,1.586a.266.266,0,0,1-.031.164.292.292,0,0,1-.148.023h-1.328q-.125,0-.148-.031a.315.315,0,0,1-.023-.156v-1.617H-66.359v1.891a.266.266,0,0,1-.031.164.269.269,0,0,1-.141.023h-1.328q-.133,0-.156-.031a.315.315,0,0,1-.023-.156l.031-1.7v-.531l-.031-.914a.266.266,0,0,1,.031-.164.292.292,0,0,1,.148-.023l2.109.031h3.484v-.492a4.753,4.753,0,0,0-.109-1.156q.781,0,1.711.078.242.023.242.18,0,.023-.086.3a1.508,1.508,0,0,0-.078.594v.492Zm.086,3.281a3.614,3.614,0,0,0,1.086.43,1.08,1.08,0,0,1,.352.117.224.224,0,0,1,.07.188,1.564,1.564,0,0,1-.023.219,1.833,1.833,0,0,1-.734,1.477,4.826,4.826,0,0,1-2.227.352,4.581,4.581,0,0,1-2.2-.352,1.272,1.272,0,0,1-.406-1.1v-1.2a11.419,11.419,0,0,0-.078-1.523q.984.055,1.586.148.258.047.258.188a.587.587,0,0,1-.1.3,1.928,1.928,0,0,0-.078.719v.727q0,.484.164.57a2.092,2.092,0,0,0,1.023.148,1.762,1.762,0,0,0,1.039-.211A1.73,1.73,0,0,0-56.742-8.477ZM-63.75-9.969a13.525,13.525,0,0,1,1.469.5q.242.1.242.266a.445.445,0,0,1-.2.32,2.767,2.767,0,0,0-.32.672,5.287,5.287,0,0,1-3.867,3.055,1.749,1.749,0,0,1-.328.07q-.156,0-.359-.359a3.557,3.557,0,0,0-.8-.969,6.662,6.662,0,0,0,2.758-.953,2.99,2.99,0,0,0,1.133-1.5A5.784,5.784,0,0,0-63.75-9.969Zm18.938,2.945a11.426,11.426,0,0,0,2.336,2.93l-.9,1.406a8.657,8.657,0,0,0-4.2-1.086,4.505,4.505,0,0,0-2.148.406,1.024,1.024,0,0,0-.609.906q0,.859,1.039,1.219a9.117,9.117,0,0,0,2.773.313q1.047,0,2.477-.125V.609q-1.727.062-2.523.063-5.391,0-5.391-2.914,0-2.812,4.383-2.812a6.568,6.568,0,0,1,3.1.688A10.282,10.282,0,0,1-46.3-6.812a46.142,46.142,0,0,1-5.047.32l-.219-1.4a45.764,45.764,0,0,0,4.609-.219q-.2-.4-.672-1.6-1.977.18-4.3.258l-.211-1.43q.211.016.625.016,1.672,0,3.422-.141-.4-1.156-.594-1.8l1.7-.148q.188.789.469,1.773,1.875-.25,3.516-.633l.242,1.391q-1.617.313-3.344.539.352.93.641,1.6a30.4,30.4,0,0,0,3.055-.594l.258,1.375Q-43.516-7.211-44.812-7.023Zm12.1-.352-2.18.031q-.125,0-.148-.031a.269.269,0,0,1-.023-.141V-8.75a.247.247,0,0,1,.031-.156.269.269,0,0,1,.141-.023l2.18.031h1.117q.031-1.266.031-2.125a21.336,21.336,0,0,0-.109-2.242q1,.023,1.742.109.258.023.258.2a.717.717,0,0,1-.109.336,6.084,6.084,0,0,0-.1,1.586q0,1.07-.047,2.141h1.891l2.172-.031q.164,0,.164.18v1.234q0,.172-.164.172l-2.172-.031H-29.7a11.8,11.8,0,0,0,1.719,4.32A10.5,10.5,0,0,0-25.352-.289,4.427,4.427,0,0,0-26.219.867q-.172.32-.281.32a.7.7,0,0,1-.336-.2,11.157,11.157,0,0,1-3.57-5.773q-.055.25-.242.891A11.164,11.164,0,0,1-33.93.961a.925.925,0,0,1-.352.227q-.086,0-.3-.289a4.424,4.424,0,0,0-.906-.977,8.75,8.75,0,0,0,1.961-1.961,10.285,10.285,0,0,0,1.266-2.437,12.391,12.391,0,0,0,.578-2.9Zm-4.75-5.984q.922.023,1.7.109.258.031.258.164a1.009,1.009,0,0,1-.094.32,7.936,7.936,0,0,0-.1,1.773v9.281l.031,2.813a.247.247,0,0,1-.031.156.269.269,0,0,1-.141.023h-1.328a.285.285,0,0,1-.172-.031.292.292,0,0,1-.023-.148l.031-2.8V-4.156q-.3.211-1.555.984a1.47,1.47,0,0,0-.414.344.316.316,0,0,1-.227.141.232.232,0,0,1-.234-.164q-.328-.758-.594-1.531a9.433,9.433,0,0,0,.9-.367,14.468,14.468,0,0,0,2.125-1.187v-5.008A18.363,18.363,0,0,0-37.461-13.359Zm-1.328,2.508A16.689,16.689,0,0,1-37.609-8.2a.36.36,0,0,1,.031.125q0,.1-.2.2l-.961.438a.6.6,0,0,1-.2.063q-.07,0-.109-.141a13.524,13.524,0,0,0-1.086-2.664.311.311,0,0,1-.047-.133q0-.078.172-.164l.93-.453a.483.483,0,0,1,.148-.047Q-38.867-10.977-38.789-10.852ZM-27.8-12.625A11.728,11.728,0,0,1-26.2-10.562a.33.33,0,0,1,.055.133q0,.063-.164.172l-.945.563a.344.344,0,0,1-.187.094q-.062,0-.133-.125a12.421,12.421,0,0,0-1.5-2.117.22.22,0,0,1-.07-.125q0-.078.164-.172l.836-.516a.376.376,0,0,1,.188-.078Q-27.914-12.734-27.8-12.625ZM-21.2-.227a5.083,5.083,0,0,0,3.016-2.258A7.644,7.644,0,0,0-17.352-6.2q-.7.008-1.266.023l-.4.008q-.125,0-.148-.039a.315.315,0,0,1-.023-.156l.031-1.6v-2.844l-.031-1.617q0-.133.031-.156a.269.269,0,0,1,.141-.023l2.1.031h3.883l2.063-.031q.133,0,.156.031a.292.292,0,0,1,.023.148l-.031,1.617v2.844l.031,1.6a.285.285,0,0,1-.031.172.292.292,0,0,1-.148.023L-12.8-6.2v4.938q0,.43.156.547a1.54,1.54,0,0,0,.711.094.807.807,0,0,0,.672-.227,4.972,4.972,0,0,0,.289-2.008,2.242,2.242,0,0,0,1,.477,1.668,1.668,0,0,1,.359.109.271.271,0,0,1,.07.211q0,.07-.008.172A8.263,8.263,0,0,1-9.8-.172a1.594,1.594,0,0,1-.43.7,3.24,3.24,0,0,1-2,.414A3.768,3.768,0,0,1-13.977.7a1.606,1.606,0,0,1-.461-1.359V-6.2H-15.75A9.478,9.478,0,0,1-16.836-1.43a5.741,5.741,0,0,1-2.7,2.344q-.375.141-.383.141-.117,0-.336-.336A3.02,3.02,0,0,0-21.2-.227ZM-12.469-7.7V-11.07h-5.039V-7.7ZM-24.023.016a7.881,7.881,0,0,0,.828-1.25,25.247,25.247,0,0,0,1.617-3.7,6.517,6.517,0,0,0,.867.82q.352.281.352.414a2.09,2.09,0,0,1-.109.352A37.357,37.357,0,0,1-22.039.2a2.553,2.553,0,0,0-.273.6q-.055.227-.211.227A.607.607,0,0,1-22.8.914,10.475,10.475,0,0,1-24.023.016Zm1.727-13.2a13.764,13.764,0,0,1,2.32,1.75q.086.07.086.117a.56.56,0,0,1-.1.2l-.7.961q-.1.141-.172.141a.2.2,0,0,1-.133-.07,13.26,13.26,0,0,0-2.3-1.836q-.1-.062-.1-.117a.468.468,0,0,1,.1-.187l.688-.875q.109-.133.188-.133A.311.311,0,0,1-22.3-13.187Zm-.672,4.055a13.963,13.963,0,0,1,2.32,1.7q.086.078.086.125a.513.513,0,0,1-.1.2l-.687.938q-.125.164-.187.164-.047,0-.133-.086a13.135,13.135,0,0,0-2.289-1.8q-.1-.055-.1-.109a.426.426,0,0,1,.1-.18l.688-.859q.1-.133.164-.133A.325.325,0,0,1-22.969-9.133ZM-4.922-7.68a1.545,1.545,0,0,1,1.188.531,1.534,1.534,0,0,1,.414,1.07,1.545,1.545,0,0,1-.531,1.188,1.552,1.552,0,0,1-1.07.414,1.53,1.53,0,0,1-1.187-.531,1.552,1.552,0,0,1-.414-1.07,1.53,1.53,0,0,1,.531-1.187A1.534,1.534,0,0,1-4.922-7.68Zm7.484-5.727q.867.023,1.625.109.258.023.258.164a.942.942,0,0,1-.1.336,6.035,6.035,0,0,0-.109,1.609V-8.18h.125l1.727-.031q.133,0,.156.031a.292.292,0,0,1,.023.148V-6.9q0,.164-.18.164L4.461-6.766A15.211,15.211,0,0,0,6.617-4a4.826,4.826,0,0,0-.641,1.055q-.141.289-.227.289T5.5-2.9A13.4,13.4,0,0,1,4.2-5.187l.109,6.273q0,.125-.039.156a.292.292,0,0,1-.148.023H2.8q-.125,0-.148-.031a.292.292,0,0,1-.023-.148q0-.063.023-.961.062-2.773.086-4.906A15.188,15.188,0,0,1,.8-1.141Q.6-.883.516-.883q-.1,0-.187-.273A3.487,3.487,0,0,0-.25-2.32,13.8,13.8,0,0,0,2.328-6.766H2.039L.3-6.734q-.18,0-.18-.164V-8.031q0-.133.031-.156A.292.292,0,0,1,.3-8.211l1.742.031H2.7v-2.969A16.724,16.724,0,0,0,2.563-13.406Zm6.07,9.422,2.445-.477v-6.406a17.649,17.649,0,0,0-.133-2.43q.938.023,1.7.109.242.031.242.18a1.345,1.345,0,0,1-.1.32,8.362,8.362,0,0,0-.094,1.773v6.133q.594-.125,1.055-.242.078-.016.266-.07.086-.016.117-.023a.431.431,0,0,1,.086-.016q.062,0,.094.172l.188,1.25q.008.063.008.078,0,.086-.164.109-.047.016-.508.1-.555.1-1.141.219v1.492l.031,2.766a.247.247,0,0,1-.031.156.292.292,0,0,1-.148.023H11.219q-.125,0-.148-.039a.244.244,0,0,1-.023-.141l.031-2.75V-2.883l-2.2.438q-.9.172-1.555.313-.141.023-.367.07l-.141.031a.535.535,0,0,1-.1.016q-.094,0-.109-.141l-.2-1.266a.658.658,0,0,1-.016-.109q0-.07.156-.1.039-.008.3-.047Q7.625-3.789,8.633-3.984Zm-.773-4.57A10.694,10.694,0,0,1,10.07-6.508a.308.308,0,0,1,.078.148q0,.055-.125.188l-.789.781q-.133.125-.187.125t-.133-.094A13.134,13.134,0,0,0,6.8-7.531.611.611,0,0,1,6.7-7.664q0-.047.125-.172l.734-.7q.109-.117.148-.117T7.859-8.555Zm.43-3.7a10.906,10.906,0,0,1,2.258,2.039.2.2,0,0,1,.07.133q0,.063-.117.172l-.766.75q-.148.141-.2.141T9.43-9.117a10.967,10.967,0,0,0-2.18-2.1q-.086-.055-.086-.117a.271.271,0,0,1,.117-.18l.7-.672q.141-.125.18-.125A.244.244,0,0,1,8.289-12.258ZM4.531-9.3a14.165,14.165,0,0,0,.734-2.414,5.363,5.363,0,0,0,.1-.687q.953.32,1.211.445.18.094.18.2a.162.162,0,0,1-.094.156.63.63,0,0,0-.2.359,20.294,20.294,0,0,1-.734,2.031q-.141.336-.242.336a.873.873,0,0,1-.32-.148A4.47,4.47,0,0,0,4.531-9.3ZM1.445-12.141A13.227,13.227,0,0,1,2.3-9.453a.335.335,0,0,1,.016.086q0,.117-.219.2l-.687.258a.755.755,0,0,1-.2.055q-.07,0-.094-.156A12.334,12.334,0,0,0,.313-11.68.36.36,0,0,1,.281-11.8q0-.086.2-.164l.672-.273a.473.473,0,0,1,.156-.047Q1.375-12.289,1.445-12.141ZM18.453.672,16.406.7q-.141,0-.164-.031T16.211.547V-.672q0-.125.039-.148a.315.315,0,0,1,.156-.023l2.047.031H22.1V-4.3H19.047L16.9-4.273a.266.266,0,0,1-.164-.031.269.269,0,0,1-.023-.141v-1.2q0-.125.031-.148A.344.344,0,0,1,16.9-5.82l2.148.031H22.1V-7.266h-.625l-1.969.023q-.172,0-.172-.164v-.945a20.188,20.188,0,0,1-2.453,1.266,1.208,1.208,0,0,1-.383.125q-.125,0-.32-.367a3.057,3.057,0,0,0-.766-.945,13.952,13.952,0,0,0,6.211-4.3,4.644,4.644,0,0,0,.633-1.055,9.784,9.784,0,0,1,1.727.336q.289.086.289.258,0,.1-.156.227a.364.364,0,0,1-.094.063,13.272,13.272,0,0,0,6.75,4.172,3.7,3.7,0,0,0-.687,1.141q-.18.4-.3.4a1.674,1.674,0,0,1-.383-.109,18.238,18.238,0,0,1-2.562-1.219v.961q0,.164-.172.164L24.68-7.266h-.867v1.477h3.328l2.141-.031q.133,0,.156.031a.269.269,0,0,1,.023.141v1.2q0,.18-.062.18l-.117-.008L27.141-4.3H23.813V-.812h3.875L29.75-.844q.125,0,.148.031a.269.269,0,0,1,.023.141V.547q0,.156-.172.156L27.688.672ZM19.93-8.734q.3.016,1.547.016h3.2q1.242,0,1.547-.016a12.534,12.534,0,0,1-3.18-2.836A14.148,14.148,0,0,1,19.93-8.734Zm4.938,7.281a9.978,9.978,0,0,0,1.039-1.812,4.167,4.167,0,0,0,.3-.844,6.973,6.973,0,0,1,1.344.508q.289.148.289.273t-.2.258a1.7,1.7,0,0,0-.367.508,11.66,11.66,0,0,1-.844,1.422q-.164.211-.258.211a1.252,1.252,0,0,1-.367-.125A4.178,4.178,0,0,0,24.867-1.453ZM19.734-3.922A12.461,12.461,0,0,1,20.875-1.8a.36.36,0,0,1,.031.125q0,.07-.18.156l-.992.5a.833.833,0,0,1-.211.063q-.055,0-.109-.133a9.476,9.476,0,0,0-1.086-2.187.229.229,0,0,1-.062-.125q0-.055.188-.148l.914-.43a.6.6,0,0,1,.2-.062Q19.641-4.047,19.734-3.922ZM37.289-11.07q2.273-.1,4.141-.289l.063,1.391q-2.781.2-4.891.289a10.343,10.343,0,0,1-1.25,1.82l-.367.352.047.07.4-.289A2.36,2.36,0,0,1,36.8-8.18a1.841,1.841,0,0,1,1.336.516A2.322,2.322,0,0,1,38.773-6.4q.648-.3,3.2-1.391l.625,1.5q-2.141.711-3.75,1.422v3.109h-1.5v-2.4a8.441,8.441,0,0,0-1.937,1.281,1.358,1.358,0,0,0-.43.953.9.9,0,0,0,.609.914,6.643,6.643,0,0,0,2.234.258q1.8,0,4.148-.227L42.055.516q-2.148.156-4.414.156A5.79,5.79,0,0,1,34.2-.055a2.1,2.1,0,0,1-.7-1.75,2.75,2.75,0,0,1,.844-1.984A11.271,11.271,0,0,1,37.336-5.7a1.8,1.8,0,0,0-.266-1.023.745.745,0,0,0-.586-.211,2.923,2.923,0,0,0-1.766.844,16.044,16.044,0,0,0-1.8,1.875L31.734-5.234a17.6,17.6,0,0,0,3.25-4.4q-.453.016-1.266.016-.516,0-1.57-.031v-1.406q1.008.047,1.781.047,1.1,0,1.7-.016a19.456,19.456,0,0,0,.656-2.094l1.648.266Q37.648-11.945,37.289-11.07ZM54.883-.633a6.419,6.419,0,0,0,.992.078A.725.725,0,0,0,56.414-.7a.716.716,0,0,0,.117-.469V-8.039H53.875l-1.758.031q-.125,0-.148-.031a.37.37,0,0,1-.023-.164l.031-1.32v-1.914L51.945-12.8q0-.133.031-.156a.269.269,0,0,1,.141-.023l1.758.031h2.352l1.789-.031q.133,0,.156.031a.292.292,0,0,1,.023.148l-.031,2.141v6.6l.047,3.18A2.086,2.086,0,0,1,57.766.6a3.037,3.037,0,0,1-1.922.43q-.367,0-.437-.078a1.141,1.141,0,0,1-.125-.414A4,4,0,0,0,54.883-.633Zm1.648-11.141H53.539v.766h2.992Zm0,2.6v-.766H53.539v.766ZM48.32-.273a1.086,1.086,0,0,0-.492.133.407.407,0,0,1-.242.094q-.141,0-.211-.273-.1-.453-.2-1.219.289.016.516.016.406,0,.875-.031v-4.43q-.453.008-.828.023l-.258.008a.247.247,0,0,1-.156-.031.292.292,0,0,1-.023-.148v-.914q0-.125.031-.148a.292.292,0,0,1,.148-.023l2.063.031H53.43l2.063-.031q.133,0,.156.031a.269.269,0,0,1,.023.141v.914q0,.133-.031.156a.292.292,0,0,1-.148.023l-.156-.008q-.461-.016-.992-.023v4.75L54.375.594a.266.266,0,0,1-.031.164A.269.269,0,0,1,54.2.781H53.078q-.125,0-.148-.031a.315.315,0,0,1-.023-.156q0-.016.008-.445.016-.445.023-.93Q50.734-.484,48.32-.273Zm4.617-1.633v-.609H49.953v.867Q50.992-1.719,52.938-1.906ZM49.953-3.539h2.984v-.719H49.953Zm0-1.742h2.984v-.7H49.953Zm-.891-7.664,1.617-.031q.156,0,.156.18L50.8-11.328v1.68L50.836-8.2a.285.285,0,0,1-.031.172.2.2,0,0,1-.125.023l-1.617-.031H46.438v5.633l.031,3.438a.247.247,0,0,1-.031.156.269.269,0,0,1-.141.023H44.945a.235.235,0,0,1-.145-.027.254.254,0,0,1-.027-.152L44.8-2.406V-9.328L44.773-12.8q0-.133.031-.156a.292.292,0,0,1,.148-.023l1.883.031Zm.172,1.172h-2.8v.766h2.8Zm0,2.6v-.766h-2.8v.766Zm17.25-3.758,1.508,1.055a66.322,66.322,0,0,1-5.07,5.2.742.742,0,0,0-.3.547q0,.188.477.555A48.039,48.039,0,0,1,68.68-.32L67.234.883a39.4,39.4,0,0,0-5.961-5.937,1.281,1.281,0,0,1-.531-1.039,1.363,1.363,0,0,1,.43-.992q1.984-1.984,2.961-3.055Q65.3-11.422,66.484-12.93Z" transform="translate(99 41.742)" fill="#333" stroke="rgba(0,0,0,0)" stroke-width="1"/>
      </g>
      <path id="パス_9438" data-name="パス 9438" d="M-26.412-.43v-2.5a4.8,4.8,0,0,0,1.477.855,4.746,4.746,0,0,0,1.609.285,3.569,3.569,0,0,0,.832-.086,1.949,1.949,0,0,0,.594-.238,1.039,1.039,0,0,0,.355-.359.9.9,0,0,0,.117-.449.971.971,0,0,0-.187-.586,2.018,2.018,0,0,0-.512-.477,5.347,5.347,0,0,0-.77-.422q-.445-.2-.961-.414a4.9,4.9,0,0,1-1.957-1.336,2.917,2.917,0,0,1-.645-1.906,3.036,3.036,0,0,1,.352-1.5A2.986,2.986,0,0,1-25.15-10.6a4.291,4.291,0,0,1,1.4-.6,7.206,7.206,0,0,1,1.688-.191,10.15,10.15,0,0,1,1.551.105,6.1,6.1,0,0,1,1.246.324v2.336a3.768,3.768,0,0,0-.613-.344,4.859,4.859,0,0,0-.684-.246,5.214,5.214,0,0,0-.7-.145,4.949,4.949,0,0,0-.66-.047,3.443,3.443,0,0,0-.781.082,2,2,0,0,0-.594.23,1.147,1.147,0,0,0-.375.355.843.843,0,0,0-.133.465.888.888,0,0,0,.148.5,1.7,1.7,0,0,0,.422.422,4.477,4.477,0,0,0,.664.391q.391.191.883.395a9.837,9.837,0,0,1,1.207.6,4.291,4.291,0,0,1,.918.715,2.785,2.785,0,0,1,.586.91,3.216,3.216,0,0,1,.2,1.191,3.191,3.191,0,0,1-.355,1.574,2.886,2.886,0,0,1-.965,1.031,4.184,4.184,0,0,1-1.418.566A8.2,8.2,0,0,1-23.216.2,9.492,9.492,0,0,1-24.97.039,5.3,5.3,0,0,1-26.412-.43ZM-9.06-9.148h-3.2V0h-2.531V-9.148h-3.18V-11.2H-9.06ZM-.833,0H-7.552V-11.2h6.461v2.055H-5.029v2.492h3.664v2.047H-5.029v2.563h4.2Zm4.32-3.859V0H.963V-11.2H4.917q4.234,0,4.234,3.57A3.426,3.426,0,0,1,7.936-4.9,4.813,4.813,0,0,1,4.69-3.859Zm0-5.406v3.492h.992q2.016,0,2.016-1.766,0-1.727-2.016-1.727ZM23.123-17.18V0H19.431V-13.008a4.421,4.421,0,0,1-.721.51,7.44,7.44,0,0,1-.885.434,7.9,7.9,0,0,1-.973.328,7.1,7.1,0,0,1-1,.193V-14.66a15.4,15.4,0,0,0,2.719-1.078,15.472,15.472,0,0,0,2.309-1.441Z" transform="translate(65 665)" fill="#fff" stroke="rgba(0,0,0,0)" stroke-width="1"/>
      <path id="パス_9441" data-name="パス 9441" d="M-26.412-.43v-2.5a4.8,4.8,0,0,0,1.477.855,4.746,4.746,0,0,0,1.609.285,3.569,3.569,0,0,0,.832-.086,1.949,1.949,0,0,0,.594-.238,1.039,1.039,0,0,0,.355-.359.9.9,0,0,0,.117-.449.971.971,0,0,0-.187-.586,2.018,2.018,0,0,0-.512-.477,5.347,5.347,0,0,0-.77-.422q-.445-.2-.961-.414a4.9,4.9,0,0,1-1.957-1.336,2.917,2.917,0,0,1-.645-1.906,3.036,3.036,0,0,1,.352-1.5A2.986,2.986,0,0,1-25.15-10.6a4.291,4.291,0,0,1,1.4-.6,7.206,7.206,0,0,1,1.688-.191,10.15,10.15,0,0,1,1.551.105,6.1,6.1,0,0,1,1.246.324v2.336a3.768,3.768,0,0,0-.613-.344,4.859,4.859,0,0,0-.684-.246,5.214,5.214,0,0,0-.7-.145,4.949,4.949,0,0,0-.66-.047,3.443,3.443,0,0,0-.781.082,2,2,0,0,0-.594.23,1.147,1.147,0,0,0-.375.355.843.843,0,0,0-.133.465.888.888,0,0,0,.148.5,1.7,1.7,0,0,0,.422.422,4.477,4.477,0,0,0,.664.391q.391.191.883.395a9.837,9.837,0,0,1,1.207.6,4.291,4.291,0,0,1,.918.715,2.785,2.785,0,0,1,.586.91,3.216,3.216,0,0,1,.2,1.191,3.191,3.191,0,0,1-.355,1.574,2.886,2.886,0,0,1-.965,1.031,4.184,4.184,0,0,1-1.418.566A8.2,8.2,0,0,1-23.216.2,9.492,9.492,0,0,1-24.97.039,5.3,5.3,0,0,1-26.412-.43ZM-9.06-9.148h-3.2V0h-2.531V-9.148h-3.18V-11.2H-9.06ZM-.833,0H-7.552V-11.2h6.461v2.055H-5.029v2.492h3.664v2.047H-5.029v2.563h4.2Zm4.32-3.859V0H.963V-11.2H4.917q4.234,0,4.234,3.57A3.426,3.426,0,0,1,7.936-4.9,4.813,4.813,0,0,1,4.69-3.859Zm0-5.406v3.492h.992q2.016,0,2.016-1.766,0-1.727-2.016-1.727ZM18.4-3.07h7.125V0H14.345V-1.266a5.891,5.891,0,0,1,.434-2.314,7.68,7.68,0,0,1,1.09-1.84A9.453,9.453,0,0,1,17.3-6.861q.779-.627,1.482-1.131Q19.525-8.52,20.082-9a7.379,7.379,0,0,0,.938-.955,3.631,3.631,0,0,0,.568-.961,2.858,2.858,0,0,0,.188-1.037,2.084,2.084,0,0,0-.609-1.629,2.709,2.709,0,0,0-1.863-.551,6.258,6.258,0,0,0-4.148,1.723v-3.258A8.9,8.9,0,0,1,20.1-17.086a7.3,7.3,0,0,1,2.291.334,4.847,4.847,0,0,1,1.717.955,4.073,4.073,0,0,1,1.072,1.506,5.082,5.082,0,0,1,.369,1.975,5.568,5.568,0,0,1-.357,2.063,6.338,6.338,0,0,1-.949,1.641A8.61,8.61,0,0,1,22.876-7.26q-.773.615-1.605,1.189-.562.4-1.084.791a10.277,10.277,0,0,0-.92.773,4.2,4.2,0,0,0-.633.744A1.285,1.285,0,0,0,18.4-3.07Z" transform="translate(65 844.258)" fill="#fff" stroke="rgba(0,0,0,0)" stroke-width="1"/>
      <g id="矢印アイコン_下5" data-name="矢印アイコン　下5" transform="translate(177.899 784)">
        <path id="パス_9241" data-name="パス 9241" d="M19.022,8.854A.976.976,0,0,0,18,8.465l-4.194.979V1.41A1.41,1.41,0,0,0,12.4,0H6.8a1.411,1.411,0,0,0-1.41,1.41V9.445L1.2,8.465A.976.976,0,0,0,.156,9.945L8.721,21.809a1.085,1.085,0,0,0,1.759,0L19.044,9.945A.974.974,0,0,0,19.022,8.854Z" transform="translate(0)" fill="#00a9c6"/>
      </g>
      <g id="STEP2" transform="translate(-245 103)">
        <g id="グループ_4891" data-name="グループ 4891" transform="translate(287.94 762.2)">
          <path id="パス_9237" data-name="パス 9237" d="M140.519,208.763a3.6,3.6,0,1,0,3.6,3.6A3.6,3.6,0,0,0,140.519,208.763Zm0,5.273a1.673,1.673,0,1,1,1.674-1.673A1.675,1.675,0,0,1,140.519,214.036Z" transform="translate(-107.89 -161.354)" fill="#00a9c6"/>
          <path id="パス_9238" data-name="パス 9238" d="M95.735,171.758h-6.38V155.124a15.56,15.56,0,0,0-15.543-15.543H54.327a15.56,15.56,0,0,0-15.543,15.543v16.635H32.4a.963.963,0,0,0,0,1.927H95.735a.963.963,0,0,0,0-1.927ZM40.711,155.124a13.632,13.632,0,0,1,13.616-13.616H73.812a13.632,13.632,0,0,1,13.617,13.616v16.635h-6.41L82.3,151.781a.964.964,0,0,0-.961-1.025H46.8a.963.963,0,0,0-.961,1.025l1.285,19.977h-6.41Zm8.341,16.635-1.227-19.076h32.49l-1.227,19.076Z" transform="translate(-31.441 -111.212)" fill="#00a9c6"/>
          <path id="パス_9239" data-name="パス 9239" d="M118.513,61.808a11.969,11.969,0,0,0,11.956-11.956v-1.4a11.956,11.956,0,1,0-23.912,0v1.4A11.969,11.969,0,0,0,118.513,61.808Zm-10.03-13.352a10.03,10.03,0,1,1,20.059,0v1.4a10.03,10.03,0,1,1-20.059,0Z" transform="translate(-85.884 -36.5)" fill="#00a9c6"/>
        </g>
        <rect id="長方形_3114-2" data-name="長方形 3114" width="70" height="70" transform="translate(285 758)" fill="rgba(255,255,255,0)"/>
      </g>
    </g>
    <rect id="長方形_3914" data-name="長方形 3914" width="335" height="70" transform="translate(20 1033)" fill="#00a9c6"/>
    <g id="グループ_5466" data-name="グループ 5466" transform="translate(-595 -570)">
      <path id="パス_9437" data-name="パス 9437" d="M17.35-1.529a2.843,2.843,0,0,1-.721,2,3.226,3.226,0,0,1-2,.466A8.013,8.013,0,0,1,12.771.773Q12.129.58,12.129-.343v-4.14H10.67A5.689,5.689,0,0,1,8.947-.615,9.031,9.031,0,0,1,5.256,1.151a.836.836,0,0,1-.229.053q-.114,0-.308-.29A2.17,2.17,0,0,0,4.192.343,8.827,8.827,0,0,0,8.262-1.371,4.5,4.5,0,0,0,9.58-4.482q-.826.018-1.45.026l-.422.009a.124.124,0,0,1-.141-.141L7.6-6.8v-4.931l-.035-2.188q0-.167.141-.167l2.25.035h3.3l2.232-.035q.149,0,.149.167l-.035,2.188V-6.8l.035,2.215q0,.141-.149.141l-2.232-.035h-.07V-.844a1.383,1.383,0,0,0,.062.519.353.353,0,0,0,.281.176,6.123,6.123,0,0,0,1.116.07,2.223,2.223,0,0,0,1.257-.255,1.1,1.1,0,0,0,.4-.765,10.544,10.544,0,0,0,.105-1.274,3.1,3.1,0,0,0,.677.4q.272.123.272.272A1.427,1.427,0,0,1,17.35-1.529ZM14.563-5.4V-7.418h-5.9V-5.4Zm0-5.766v-1.916h-5.9v1.916Zm0,2.83v-1.934h-5.9v1.934Zm-7.717-4.43q0,.167-.149.167L4.939-12.63h-.4v3.885h.229L6.416-8.78a.124.124,0,0,1,.141.141v.756q0,.149-.141.149L4.772-7.77H4.544v3.92A22.848,22.848,0,0,0,6.829-5.019a3.191,3.191,0,0,0-.026.413q0,.149.009.29t.009.185q0,.185-.281.352A33.985,33.985,0,0,1,2.4-1.854a2.548,2.548,0,0,0-.668.308.3.3,0,0,1-.2.105q-.088,0-.158-.158a7.871,7.871,0,0,1-.36-1.046,10.009,10.009,0,0,0,1.652-.466q.272-.088.817-.308V-7.77H3.173l-1.626.035q-.141,0-.141-.149V-8.64a.124.124,0,0,1,.141-.141l1.626.035H3.48V-12.63H3.041l-1.758.035q-.132,0-.132-.167v-.756q0-.141.132-.141l1.758.035h1.9L6.7-13.658q.149,0,.149.141ZM35.112-2.092a6.2,6.2,0,0,1-.334,1.714,1.481,1.481,0,0,1-.545.633,3.261,3.261,0,0,1-1.389.431,21.563,21.563,0,0,1-2.681.123,9.8,9.8,0,0,1-3.5-.378,1.561,1.561,0,0,1-.773-1.582V-7.11l-1.951.773a.279.279,0,0,1-.079.018q-.062,0-.1-.123l-.185-.773a.372.372,0,0,1-.018-.088q0-.062.114-.1.009,0,.264-.079.809-.246,1.951-.659v-2.953a15.06,15.06,0,0,0-.114-2.083,9.2,9.2,0,0,1,1.116.088q.246.053.246.167a1.088,1.088,0,0,1-.105.334,10.279,10.279,0,0,0-.1,2.039v2.03l2.4-.861v-2.936a16.545,16.545,0,0,0-.132-2.408,10.033,10.033,0,0,1,1.143.105q.211.035.211.158a1.22,1.22,0,0,1-.088.308,7.852,7.852,0,0,0-.105,1.714v2.681l1.547-.562q.94-.343,1.8-.686a4.6,4.6,0,0,1,.5-.193q.149,0,.149.141-.009.114-.026.958-.009.563-.035,1.134a25.232,25.232,0,0,1-.343,3.551,2.281,2.281,0,0,1-.58,1.327,1.333,1.333,0,0,1-.9.272,5.9,5.9,0,0,1-.738-.053q-.237-.026-.281-.088a.927.927,0,0,1-.062-.308,2.36,2.36,0,0,0-.229-.756,4.661,4.661,0,0,0,1.116.141.534.534,0,0,0,.5-.281,2.7,2.7,0,0,0,.237-.888,30.819,30.819,0,0,0,.229-3.744L30.366-8.728v3.437L30.393-2.5q0,.149-.141.149h-.809q-.141,0-.141-.149l.035-2.786V-8.35l-2.4.861v6.012q0,.809.475,1.037A8.966,8.966,0,0,0,30.3-.185,16.541,16.541,0,0,0,32.634-.3a2.208,2.208,0,0,0,.9-.334,1.248,1.248,0,0,0,.431-.773,10.248,10.248,0,0,0,.149-1.512,2.788,2.788,0,0,0,.729.4q.29.123.29.255A1.427,1.427,0,0,1,35.112-2.092ZM24.539-4.755a3.858,3.858,0,0,0-.035.51v.193q.009.1.009.158a.344.344,0,0,1-.053.22.967.967,0,0,1-.264.167q-1.424.659-3.744,1.652a2.361,2.361,0,0,0-.668.378.386.386,0,0,1-.246.141q-.114,0-.2-.193a8.847,8.847,0,0,1-.4-.993,9.688,9.688,0,0,0,1.714-.519l.738-.29V-8.895h-.439l-1.67.035A.124.124,0,0,1,19.143-9v-.756a.124.124,0,0,1,.141-.141l1.67.035h.439v-2.092a17.206,17.206,0,0,0-.132-2.479,7.813,7.813,0,0,1,1.151.105q.2.026.2.158a2.326,2.326,0,0,1-.079.325,9.464,9.464,0,0,0-.1,1.854v2.127h.229L24.346-9.9a.124.124,0,0,1,.141.141V-9a.124.124,0,0,1-.141.141l-1.679-.035h-.229v5.15Q23.423-4.166,24.539-4.755ZM36.633-.343a18.327,18.327,0,0,0,2.514-5.739,43.366,43.366,0,0,0,1.107-7.058L41.687-13a42.955,42.955,0,0,1-1.459,8.147A18.956,18.956,0,0,1,37.837.325Zm7.682-12.691,1.371-.123A33.538,33.538,0,0,0,49.43-.431L48.1.325A37.769,37.769,0,0,1,44.314-13.034Zm4.034-2.3a1.948,1.948,0,0,1,1.5.668,1.936,1.936,0,0,1,.519,1.345,1.931,1.931,0,0,1-.668,1.5,1.947,1.947,0,0,1-1.354.519,1.922,1.922,0,0,1-1.494-.668,1.947,1.947,0,0,1-.519-1.354A1.933,1.933,0,0,1,47-14.818,1.967,1.967,0,0,1,48.349-15.337Zm0,.773a1.181,1.181,0,0,0-.923.4,1.206,1.206,0,0,0-.316.835,1.19,1.19,0,0,0,.4.932,1.206,1.206,0,0,0,.835.316,1.207,1.207,0,0,0,.932-.4,1.218,1.218,0,0,0,.316-.844,1.181,1.181,0,0,0-.4-.923A1.218,1.218,0,0,0,48.349-14.563Zm3.076,7.181h9.791v1.336H51.425Zm15.311-.448V.721H65.347v-15.1h1.389v5.221A28.033,28.033,0,0,1,73.591-6.3L72.905-5A22.751,22.751,0,0,0,66.735-7.831Zm15.908-2.628h4.57v1.222h-4.57a14.744,14.744,0,0,1-1.063,6.2A8.9,8.9,0,0,1,77.273.773l-.949-.949A7.837,7.837,0,0,0,80.3-3.656a8.03,8.03,0,0,0,.756-2.522,23.754,23.754,0,0,0,.2-3.059H75.621v-1.222h5.634v-3.9h1.389Zm6.451,3.076h9.791v1.336H89.095Zm19.063,1.749v3.56h-1.2V-5.08q-.413.211-.853.457-2.3,1.3-2.3,2.61A1.192,1.192,0,0,0,104.607-.8a8.224,8.224,0,0,0,2.672.3q1.89,0,4.386-.22L111.718.5q-3.278.167-4.351.167a7.558,7.558,0,0,1-3.814-.659,2.278,2.278,0,0,1-.905-2.057q0-1.881,2.417-3.278.914-.519,1.872-.993-.088-1.687-1.169-1.687-1.512,0-4.148,3.041l-.932-.826a21.019,21.019,0,0,0,3.727-5.317q-1.644.026-3.3,0v-1.1q1.9.035,3.8,0a16.084,16.084,0,0,0,.809-2.408l1.3.237a18.484,18.484,0,0,1-.756,2.118q2.531-.079,4.808-.308l.035,1.1q-2.953.237-5.326.308A18.382,18.382,0,0,1,104.273-8.6l-.457.466.053.07a3.2,3.2,0,0,1,2.145-.914,1.956,1.956,0,0,1,1.433.545,2.548,2.548,0,0,1,.677,1.564q1.406-.642,3.656-1.591l.5,1.23Q109.354-6.161,108.158-5.634ZM130.1-3.762q0,.158-.141.158l-2.522-.035H121.57l-2.514.035q-.149,0-.149-.158v-.615q0-.141.149-.141l2.514.035h.475V-6.108l-2.364.035q-.141,0-.141-.158v-.615a.124.124,0,0,1,.141-.141l2.364.035v-.105a5.832,5.832,0,0,0-.114-1.266,8.918,8.918,0,0,1,1.046.114q.22.026.22.141a.515.515,0,0,1-.088.272,1.175,1.175,0,0,0-.1.589v.255h2.7v-.07a6.132,6.132,0,0,0-.105-1.3q.809.07,1.063.114.237.026.237.158a.619.619,0,0,1-.114.272,1.129,1.129,0,0,0-.088.519v.308h.07l2.435-.035a.124.124,0,0,1,.141.141v.615q0,.158-.141.158l-2.435-.035h-.07v1.626h.738l2.522-.035a.124.124,0,0,1,.141.141Zm-4.395-.721V-6.108h-2.7v1.626ZM130.825-.5a1.613,1.613,0,0,0-.325.756.643.643,0,0,1-.105.325.69.69,0,0,1-.308.062q-3.507.22-6.39.22a11.473,11.473,0,0,1-4.43-.58,3.575,3.575,0,0,1-1.731-1.775,21.978,21.978,0,0,1-1.89,1.749,1.526,1.526,0,0,0-.378.378q-.105.158-.211.158t-.22-.158a7.176,7.176,0,0,1-.519-.94,6.873,6.873,0,0,0,1.1-.668,12.217,12.217,0,0,0,1.617-1.45V-6.891h-1.292l-1.23.035q-.141,0-.141-.167V-7.8a.124.124,0,0,1,.141-.141l1.23.035h.914l1.3-.035a.124.124,0,0,1,.141.141l-.035,1.7v3.744A2.95,2.95,0,0,0,119.681-.58a10.59,10.59,0,0,0,3.6.431Q127.028-.149,130.825-.5Zm-.809-9.431a1.417,1.417,0,0,1-.413.861,4.709,4.709,0,0,1-2.268.308,4.236,4.236,0,0,1-2.039-.272.925.925,0,0,1-.29-.431,2.968,2.968,0,0,1-.088-.844V-11.2l-.035-.7a.124.124,0,0,1,.141-.141l1.318.035H128.5v-1.318h-2.092l-1.512.035q-.158,0-.158-.141v-.624q0-.149.158-.149l1.512.035h1.529l1.433-.035a.124.124,0,0,1,.141.141l-.044,1.046v.615l.044,1.1a.124.124,0,0,1-.141.141l-1.433-.035h-2.03v.686q0,.642.158.782a3.835,3.835,0,0,0,1.477.141,2.768,2.768,0,0,0,1.371-.185,1.6,1.6,0,0,0,.193-.958,2.257,2.257,0,0,0,.668.343q.264.105.264.237A1.815,1.815,0,0,1,130.017-9.932Zm-6.029,0a1.417,1.417,0,0,1-.413.861,4.257,4.257,0,0,1-2.127.308,4.059,4.059,0,0,1-2-.272.89.89,0,0,1-.316-.431,3.282,3.282,0,0,1-.079-.844V-11.2l-.035-.7q0-.141.158-.141l1.274.035h2.127v-1.318h-2.048L119-13.289a.124.124,0,0,1-.141-.141v-.624q0-.149.141-.149l1.538.035h1.494l1.424-.035a.124.124,0,0,1,.141.141l-.035,1.046v.615l.035,1.1a.124.124,0,0,1-.141.141l-1.424-.035h-1.986v.668q0,.659.167.8a3.127,3.127,0,0,0,1.31.141,2.715,2.715,0,0,0,1.424-.2q.158-.149.176-.94a2,2,0,0,0,.65.36q.237.088.237.229Q124-10.09,123.987-9.932Zm5.959,8.279a1.934,1.934,0,0,0-.4.554q-.158.281-.281.281a1.082,1.082,0,0,1-.264-.062,14.374,14.374,0,0,1-3.375-1.89q-.1-.062-.1-.105,0-.062.105-.167l.325-.308q.123-.123.185-.123a.3.3,0,0,1,.141.07A11.556,11.556,0,0,0,129.946-1.652Zm-11.936-9.976a.216.216,0,0,1,.035.1q0,.062-.158.193l-.422.325a.569.569,0,0,1-.237.132q-.062,0-.123-.1a12.834,12.834,0,0,0-2-2.593.144.144,0,0,1-.053-.088q0-.053.176-.167l.4-.29a.635.635,0,0,1,.211-.105.177.177,0,0,1,.105.053A15.964,15.964,0,0,1,118.011-11.628Zm5.344,8.859q-.026.114-.237.176a1.178,1.178,0,0,0-.255.158,2.886,2.886,0,0,1-.264.167,12.292,12.292,0,0,1-2.391,1.239,1.046,1.046,0,0,1-.281.079q-.105,0-.3-.237a1.319,1.319,0,0,0-.483-.431A13.846,13.846,0,0,0,121.772-2.8a3.3,3.3,0,0,0,.721-.668,5.189,5.189,0,0,1,.694.466q.167.114.167.211Zm18.457-12.05.923-.352a23.5,23.5,0,0,1,1.327,3.041l-.967.4A19.444,19.444,0,0,0,141.812-14.818ZM135.694-1.187a7.581,7.581,0,0,0,2.663.448q1.8,0,1.8-1.582a3.574,3.574,0,0,0-.624-1.89,12.036,12.036,0,0,0-1.248-1.582,4.837,4.837,0,0,1-1.564-2.725,2.75,2.75,0,0,1,.4-1.415,8.766,8.766,0,0,1,.958-1.23l1.063.756q-1.169,1.063-1.169,1.767a1.774,1.774,0,0,0,.4.993q.264.369,1.028,1.222a11.3,11.3,0,0,1,1.556,2.065,4.668,4.668,0,0,1,.554,2.232,2.392,2.392,0,0,1-.782,1.9,3.375,3.375,0,0,1-2.3.712A9.586,9.586,0,0,1,135.765.07ZM134.007-6.75l1.222.466A28.572,28.572,0,0,1,133.515-.22l-1.222-.5A24.268,24.268,0,0,0,134.007-6.75Zm8.165-.29,1.248-.4a28.594,28.594,0,0,1,1.89,6.574l-1.336.431A23.888,23.888,0,0,0,142.172-7.04ZM135.3-13.017l.413-1.1a56.487,56.487,0,0,1,6.012,1.046l-.466,1.151A44.689,44.689,0,0,0,135.3-13.017Zm8.552-2.408.9-.325A14.871,14.871,0,0,1,146.03-12.8l-.94.378A17.341,17.341,0,0,0,143.851-15.425Z" transform="translate(695 1646)" fill="#fff"/>
    </g>
    <g id="STEP1-2" data-name="STEP1" transform="translate(30 1041)">
      <rect id="長方形_3911" data-name="長方形 3911" width="50" height="50" rx="25" transform="translate(0 2)" fill="#fff"/>
      <path id="パス_9240" data-name="パス 9240" d="M53.508,110.165a7.741,7.741,0,1,0-7.772-7.741A7.765,7.765,0,0,0,53.508,110.165Zm0-14.2a6.46,6.46,0,1,1-6.49,6.46A6.482,6.482,0,0,1,53.508,95.964Zm7.873,15.588H59.205a.64.64,0,0,0-.589.389l-2.462,5.765-.858-3.065.986-2.185a.641.641,0,0,0-.584-.9H51.317a.641.641,0,0,0-.584.9l.986,2.185-.858,3.065L48.4,111.941a.641.641,0,0,0-.589-.389H45.635a7.122,7.122,0,0,0-7.127,7.1v9.063H39.79v-9.063a5.839,5.839,0,0,1,5.846-5.818h1.752l5.531,12.955a.641.641,0,0,0,1.179,0l5.531-12.955h1.752a5.839,5.839,0,0,1,5.846,5.818v9.063h1.282v-9.063A7.122,7.122,0,0,0,61.381,111.552ZM53.508,123.9l-1.843-4.316,1.351-4.826a.641.641,0,0,0-.033-.436l-.674-1.493h2.4l-.674,1.493a.641.641,0,0,0-.033.436l1.351,4.826Z" transform="translate(-28.508 -84.182)" fill="#00a9c6"/>
    </g>
  </g>
</svg>
