<svg id="plan-estimate-estimate10" xmlns="http://www.w3.org/2000/svg" width="120" height="120" viewBox="0 0 120 120">
  <rect id="長方形_2725" data-name="長方形 2725" width="120" height="120" rx="60" fill="#fff"/>
  <path id="合体_23" data-name="合体 23" d="M2.136,64.029A3.368,3.368,0,0,1,.208,59.72l21-57.538A3.272,3.272,0,0,1,25.436.208a3.369,3.369,0,0,1,1.929,4.31L6.36,62.06a3.285,3.285,0,0,1-3.075,2.18A3.224,3.224,0,0,1,2.136,64.029Zm39.17-15.759s10.458-5.67-21.98-9.4L30.563,8.1c8.115,1.434,26.782,12.21,24.288,20.083L54.137,31.6S57.516,41.851,70,41.492c-2.5,8.23-9.347,10.722-17.738,11.22C39.589,51.967,41.307,48.269,41.307,48.269Z" transform="translate(26.86 29.586)" fill="#3dcde6"/>
</svg>
