<svg xmlns="http://www.w3.org/2000/svg" width="120" height="120" viewBox="0 0 120 120">
  <g id="plan-etimate-etimate04" transform="translate(-224 -2999)">
    <g id="plan-etimate-etimate04-2" data-name="plan-etimate-etimate04">
      <g id="mitai" transform="translate(224 2999)">
        <rect id="長方形_2725" data-name="長方形 2725" width="120" height="120" rx="60" fill="#fff"/>
        <g id="グループ_4158" data-name="グループ 4158" transform="translate(20 30)">
          <path id="パス_9191" data-name="パス 9191" d="M111.069,77.7H94.918L90.285,68.4a6.869,6.869,0,0,0-6.4-4.306H69.113a6.87,6.87,0,0,0-6.4,4.306L58.082,77.7H41.931A5.437,5.437,0,0,0,36.5,83.133v36.079a5.437,5.437,0,0,0,5.431,5.431h69.138a5.437,5.437,0,0,0,5.431-5.431V83.133A5.437,5.437,0,0,0,111.069,77.7ZM41.931,80.17H58.846a1.234,1.234,0,0,0,1.1-.684l5-10.034c.015-.031.029-.062.042-.094a4.416,4.416,0,0,1,4.125-2.8H83.888a4.415,4.415,0,0,1,4.124,2.8c.013.032.027.063.042.094l5,10.034a1.234,1.234,0,0,0,1.1.684h16.915a2.967,2.967,0,0,1,2.964,2.964v10H90.827a15.817,15.817,0,0,0-28.653,0H38.967v-10A2.967,2.967,0,0,1,41.931,80.17ZM76.5,86.486A13.356,13.356,0,1,1,63.144,99.842,13.371,13.371,0,0,1,76.5,86.486Zm34.569,35.691H41.931a2.967,2.967,0,0,1-2.964-2.964V95.6H61.259a15.823,15.823,0,1,0,30.482,0h22.292v23.612A2.967,2.967,0,0,1,111.069,122.177Z" transform="translate(-36.5 -64.091)" fill="#3dcde6"/>
        </g>
      </g>
    </g>
  </g>
</svg>
