<svg xmlns="http://www.w3.org/2000/svg" width="120" height="120" viewBox="0 0 120 120">
  <g id="plan-etimate-etimate03" transform="translate(-1040 -2807)">
    <g id="mokuteki" transform="translate(1040 2807)">
      <rect id="長方形_2724" data-name="長方形 2724" width="120" height="120" rx="60" transform="translate(0)" fill="#fff"/>
      <g id="グループ_4159" data-name="グループ 4159" transform="translate(31 20)">
        <path id="パス_9192" data-name="パス 9192" d="M136.78,53.4a1.2,1.2,0,0,0-1.052-.194c-7.807,2.248-15.508,1.139-23.66-.035-8.045-1.158-16.363-2.356-24.664.035a1.2,1.2,0,0,0-.867,1.151v33.13a1.2,1.2,0,0,0,1.529,1.151c7.807-2.248,15.507-1.139,23.66.034a99.262,99.262,0,0,0,14.119,1.348,37.787,37.787,0,0,0,10.545-1.382,1.2,1.2,0,0,0,.866-1.151V54.354A1.2,1.2,0,0,0,136.78,53.4Zm-1.918,33.172c-7.511,1.929-14.942.859-22.793-.271A99.261,99.261,0,0,0,97.949,84.95a38.979,38.979,0,0,0-9.016.981V55.269c7.511-1.93,14.943-.859,22.794.271,7.55,1.087,15.343,2.209,23.135.366Z" transform="translate(-79.257 -45.465)" fill="#3dcde6"/>
        <path id="パス_9193" data-name="パス 9193" d="M68.864,33.25a3.6,3.6,0,0,0-1.2,6.989v71.728a1.2,1.2,0,0,0,2.4,0V40.239a3.6,3.6,0,0,0-1.2-6.989Z" transform="translate(-65.266 -33.25)" fill="#3dcde6"/>
      </g>
    </g>
  </g>
</svg>
