<svg xmlns="http://www.w3.org/2000/svg" width="580" height="404" viewBox="0 0 580 404">
  <g id="グループ_5469" data-name="グループ 5469" transform="translate(-200 -873)">
    <g id="ステップ" transform="translate(59 362)">
      <rect id="長方形_1335" data-name="長方形 1335" width="200" height="200" rx="10" transform="translate(462 715)" fill="#d8f5fa"/>
      <g id="STEP2" transform="translate(227 -9)">
        <g id="グループ_4891" data-name="グループ 4891" transform="translate(289.2 764)">
          <path id="パス_9237" data-name="パス 9237" d="M142.062,208.763a5.143,5.143,0,1,0,5.143,5.143A5.149,5.149,0,0,0,142.062,208.763Zm0,7.533a2.391,2.391,0,1,1,2.391-2.39A2.393,2.393,0,0,1,142.062,216.3Z" transform="translate(-95.449 -141.036)" fill="#00a9c6"/>
          <path id="パス_9238" data-name="パス 9238" d="M123.29,185.549h-9.115V161.785a22.229,22.229,0,0,0-22.2-22.2H64.136a22.229,22.229,0,0,0-22.2,22.2v23.764H32.817a1.376,1.376,0,1,0,0,2.752H123.29a1.376,1.376,0,1,0,0-2.752ZM44.684,161.785a19.474,19.474,0,0,1,19.452-19.452H91.971a19.474,19.474,0,0,1,19.452,19.452v23.764h-9.157L104.1,157.01a1.377,1.377,0,0,0-1.373-1.465H53.379a1.376,1.376,0,0,0-1.373,1.465l1.836,28.539H44.684ZM56.6,185.549,54.846,158.3h46.415l-1.753,27.251Z" transform="translate(-31.441 -99.054)" fill="#00a9c6"/>
          <path id="パス_9239" data-name="パス 9239" d="M123.637,72.655a17.1,17.1,0,0,0,17.08-17.08V53.58a17.08,17.08,0,1,0-34.16,0v1.994A17.1,17.1,0,0,0,123.637,72.655ZM109.309,53.58a14.328,14.328,0,1,1,28.656,0v1.994a14.328,14.328,0,0,1-28.656,0Z" transform="translate(-77.024 -36.5)" fill="#00a9c6"/>
        </g>
        <rect id="長方形_3114" data-name="長方形 3114" width="100" height="100" transform="translate(285 758)" fill="rgba(255,255,255,0)"/>
      </g>
      <rect id="長方形_1334" data-name="長方形 1334" width="200" height="200" rx="10" transform="translate(200 715)" fill="#d8f5fa"/>
      <rect id="長方形_2728" data-name="長方形 2728" width="134" height="48" rx="10" transform="translate(200 691)" fill="#00a9c6"/>
      <rect id="長方形_2745" data-name="長方形 2745" width="134" height="48" rx="10" transform="translate(462 691)" fill="#00a9c6"/>
      <path id="パス_9450" data-name="パス 9450" d="M-58.333-2.9a3.681,3.681,0,0,0,1.178.58.9.9,0,0,1,.352.158.4.4,0,0,1,.07.264q0,.079-.009.2A3.44,3.44,0,0,1-57.48.58a3.511,3.511,0,0,1-2.241.536A5.273,5.273,0,0,1-61.708.844Q-62.262.6-62.262-.343V-4.43H-63.29A5.824,5.824,0,0,1-64.819-.5a7.684,7.684,0,0,1-3.445,1.784,1.823,1.823,0,0,1-.4.088q-.193,0-.466-.431A4.083,4.083,0,0,0-69.961-.07a8.73,8.73,0,0,0,3.683-1.521A3.9,3.9,0,0,0-65.1-4.43q-.624.009-1.125.026l-.352.009q-.141,0-.167-.035a.328.328,0,0,1-.026-.167l.035-2.188v-5.168l-.035-2.188a.32.32,0,0,1,.035-.193.3.3,0,0,1,.158-.026l2.25.035h3.735l2.259-.035q.149,0,.176.044a.355.355,0,0,1,.026.176l-.035,2.188v5.168l.035,2.188a.286.286,0,0,1-.031.171.286.286,0,0,1-.171.031l-2.145-.035v3.208q0,.475.193.554a2.336,2.336,0,0,0,.65.053,1.482,1.482,0,0,0,.94-.22,1.136,1.136,0,0,0,.272-.7Q-58.368-1.925-58.333-2.9Zm-1.644-3.059V-7.233H-64.96v1.274Zm0-6.75H-64.96v1.257h4.983ZM-64.96-8.728h4.983V-9.976H-64.96Zm-4.263-3.516h-.07v3.19l1.547-.035a.278.278,0,0,1,.176.035.3.3,0,0,1,.026.158v1.336q0,.141-.044.167a.275.275,0,0,1-.158.026L-69.293-7.4v2.988q1.222-.545,2-.984-.018.229-.018.5,0,.246.018.686.018.229.018.3a.428.428,0,0,1-.07.281,1.693,1.693,0,0,1-.378.246,33.484,33.484,0,0,1-4.14,1.854,3.86,3.86,0,0,0-.562.255.55.55,0,0,1-.281.123q-.167,0-.237-.22-.2-.6-.448-1.687a15.432,15.432,0,0,0,1.688-.448q.2-.062.6-.2V-7.4l-1.652.035q-.149,0-.176-.035a.3.3,0,0,1-.026-.158V-8.895q0-.141.035-.167a.328.328,0,0,1,.167-.026l1.652.035v-3.19h-.105l-1.767.044q-.132,0-.158-.044a.355.355,0,0,1-.026-.176v-1.318q0-.193.185-.193l1.767.035h2l1.749-.035q.141,0,.167.035a.3.3,0,0,1,.026.158v1.318a.32.32,0,0,1-.035.193.3.3,0,0,1-.158.026Zm28.582,9.149a5.159,5.159,0,0,0,1.3.571,1.165,1.165,0,0,1,.352.132.217.217,0,0,1,.07.185q0,.07-.026.281A6.072,6.072,0,0,1-39.3-.193,1.548,1.548,0,0,1-39.92.5a3.305,3.305,0,0,1-1.441.475,23.548,23.548,0,0,1-2.821.123,8.719,8.719,0,0,1-3.8-.5,1.96,1.96,0,0,1-.686-1.784V-6.8q-.475.167-1.055.387-.316.114-.387.132a.512.512,0,0,1-.123.026q-.079,0-.114-.167l-.229-1.406a.6.6,0,0,1-.018-.114q0-.062.158-.123.729-.176,1.767-.519v-1.978q.009-.237.009-.483a16.6,16.6,0,0,0-.114-2.074q.914.026,1.731.105.36.053.36.2a1,1,0,0,1-.114.378,6.84,6.84,0,0,0-.105,1.705v1.556l1.723-.58v-2.61a22.374,22.374,0,0,0-.141-2.558,13.924,13.924,0,0,1,1.837.149q.29.026.29.193a1.513,1.513,0,0,1-.114.36,6.653,6.653,0,0,0-.105,1.617v2.268l1.389-.466q.967-.316,1.828-.624.475-.176.527-.185h.044q.149,0,.149.185l-.053,2.3a17.731,17.731,0,0,1-.431,4.061A1.541,1.541,0,0,1-41.5-3.691a4.846,4.846,0,0,1-.668-.035q-.308-.026-.369-.114a1.681,1.681,0,0,1-.114-.483,4.066,4.066,0,0,0-.378-1.292,4.22,4.22,0,0,0,.949.123.408.408,0,0,0,.36-.141,1.178,1.178,0,0,0,.185-.527,19.813,19.813,0,0,0,.211-3.146l-2.083.721v3.129l.035,2.795A.264.264,0,0,1-43.4-2.5a.286.286,0,0,1-.171.031h-1.441q-.141,0-.167-.035a.3.3,0,0,1-.026-.158l.035-2.795V-7.989L-46.9-7.4v5.7q0,.642.343.817a8.772,8.772,0,0,0,2.584.193,15.567,15.567,0,0,0,2.127-.1,1.647,1.647,0,0,0,.773-.281,1.058,1.058,0,0,0,.316-.642A10.186,10.186,0,0,0-40.641-3.094Zm-9.044-1.925a4.877,4.877,0,0,0-.035.633q0,.237.009.483.018.229.018.3a.409.409,0,0,1-.07.277,1.95,1.95,0,0,1-.413.25q-1.424.712-3.586,1.529a2.381,2.381,0,0,0-.589.29.437.437,0,0,1-.308.123q-.176,0-.272-.22-.193-.51-.483-1.6A13.894,13.894,0,0,0-53.631-3.4l.413-.123V-8.64h-.149L-55-8.6q-.141,0-.158-.035a.394.394,0,0,1-.018-.158v-1.371a.324.324,0,0,1,.026-.176A.251.251,0,0,1-55-10.371l1.635.035h.149v-1.687a16.548,16.548,0,0,0-.149-2.646q1.037.026,1.863.123.29.026.29.22a1.513,1.513,0,0,1-.114.36,7.2,7.2,0,0,0-.105,1.705v1.925l1.477-.035q.176,0,.176.2V-8.8q0,.193-.176.193l-1.477-.035v4.447Q-50.651-4.509-49.685-5.019Zm24.363-10.529a1.983,1.983,0,0,1,1.529.677,1.971,1.971,0,0,1,.527,1.371,1.956,1.956,0,0,1-.677,1.521,2,2,0,0,1-1.38.527,1.956,1.956,0,0,1-1.521-.677,1.971,1.971,0,0,1-.527-1.371,1.956,1.956,0,0,1,.677-1.521A1.971,1.971,0,0,1-25.321-15.548Zm0,.879a1.106,1.106,0,0,0-.87.378,1.127,1.127,0,0,0-.3.791,1.133,1.133,0,0,0,.378.879,1.146,1.146,0,0,0,.791.29,1.133,1.133,0,0,0,.879-.378,1.146,1.146,0,0,0,.29-.791,1.133,1.133,0,0,0-.378-.879A1.146,1.146,0,0,0-25.321-14.669ZM-37.758-.536Q-34.69-5.3-34.189-13.175l2.118.272a42.444,42.444,0,0,1-1.5,8.095A23.07,23.07,0,0,1-35.9.431Zm7.849-12.41,2.065-.229q.791,7.822,3.656,12.542L-26.13.448a32.521,32.521,0,0,1-2.558-6.768A52.2,52.2,0,0,1-29.909-12.946Zm7.541,5.08h10.187v1.96H-22.368ZM-6.381-9.123a29.048,29.048,0,0,1,6.9,2.786L-.492-4.43A21.9,21.9,0,0,0-6.381-7.2V.773H-8.394V-14.4h2.013ZM9.914-10.6h4.447v1.705H9.914A22.026,22.026,0,0,1,9.58-5a8.3,8.3,0,0,1-.8,2.2A7.177,7.177,0,0,1,7.058-.7,12.674,12.674,0,0,1,4.4.932L2.936-.519A7.181,7.181,0,0,0,7-3.691a7,7,0,0,0,.668-2.18,22.4,22.4,0,0,0,.2-3.023H2.355V-10.6H7.866v-3.727H9.914Zm6.328,2.733H26.429v1.96H16.242Zm17.974-4.588q2.558-.114,4.658-.325l.07,1.564q-3.129.229-5.5.325a11.636,11.636,0,0,1-1.406,2.048l-.413.4.053.079.448-.325a2.655,2.655,0,0,1,1.547-.51,2.071,2.071,0,0,1,1.5.58A2.612,2.612,0,0,1,35.886-7.2q.729-.334,3.6-1.564l.7,1.688q-2.408.8-4.219,1.6v3.5H34.286v-2.7a9.5,9.5,0,0,0-2.18,1.441,1.527,1.527,0,0,0-.483,1.072,1.016,1.016,0,0,0,.686,1.028,7.473,7.473,0,0,0,2.514.29q2.03,0,4.667-.255L39.577.58Q37.16.756,34.611.756q-2.848,0-3.867-.817a2.367,2.367,0,0,1-.782-1.969,3.093,3.093,0,0,1,.949-2.232,12.68,12.68,0,0,1,3.357-2.145,2.023,2.023,0,0,0-.3-1.151.839.839,0,0,0-.659-.237,3.289,3.289,0,0,0-1.986.949A18.049,18.049,0,0,0,29.3-4.737L27.967-5.889a19.8,19.8,0,0,0,3.656-4.948q-.51.018-1.424.018-.58,0-1.767-.035v-1.582q1.134.053,2,.053,1.239,0,1.907-.018a21.889,21.889,0,0,0,.738-2.355l1.854.3Q34.62-13.438,34.216-12.454Zm15.592,7.8-2.452.035a.278.278,0,0,1-.176-.035.3.3,0,0,1-.026-.158V-5.889a.818.818,0,0,1-.264.176q-.756.325-1.151.475v.826l.053,3.6a2.113,2.113,0,0,1-.58,1.775,3.245,3.245,0,0,1-1.872.4h-.22q-.272,0-.343-.114a1.335,1.335,0,0,1-.123-.431,5.01,5.01,0,0,0-.431-1.31,10.6,10.6,0,0,0,1.354.07q.4,0,.4-.51V-4.579l-.668.22a3.189,3.189,0,0,0-.633.308.478.478,0,0,1-.308.105q-.158,0-.211-.22a14.106,14.106,0,0,1-.325-1.723,9.454,9.454,0,0,0,1.67-.325l.475-.123V-9.844h-.308l-1.547.035a.278.278,0,0,1-.176-.035A.3.3,0,0,1,41.915-10V-11.32q0-.141.035-.167a.328.328,0,0,1,.167-.026l1.547.035h.308v-.905a19.341,19.341,0,0,0-.149-2.558q1.011.035,1.846.132.29.026.29.193a1.274,1.274,0,0,1-.132.378,9.243,9.243,0,0,0-.088,1.819v.94l1-.035q.149,0,.176.035a.3.3,0,0,1,.026.158V-10q0,.141-.035.167a.328.328,0,0,1-.167.026l-.334-.009q-.316-.018-.668-.026V-6.97q.888-.343,1.582-.659a7.729,7.729,0,0,0-.088,1.292v.123a.3.3,0,0,1,.123-.018l2.452.035h1.758V-6.5a9.582,9.582,0,0,0-.123-1.775q.809.026,1.67.105a1.548,1.548,0,0,1-.229-.914v-1.2A11.568,11.568,0,0,0,52.77-12.2q.729,0,1.626.088.308.026.308.193a.767.767,0,0,1-.114.325,3.557,3.557,0,0,0-.07.993v.738q0,.431.088.5a1.488,1.488,0,0,0,.756.105,1.414,1.414,0,0,0,.905-.193,1.707,1.707,0,0,0,.264-1.1,3.28,3.28,0,0,0,1.1.413,1.415,1.415,0,0,1,.369.123.241.241,0,0,1,.079.2,2.125,2.125,0,0,1-.035.29,2.191,2.191,0,0,1-.624,1.38,3.426,3.426,0,0,1-2.127.448,5.459,5.459,0,0,1-1.784-.176.784.784,0,0,1-.105.255,2.835,2.835,0,0,0-.088.914v.5h2.18l2.461-.035a.278.278,0,0,1,.176.035.328.328,0,0,1,.026.167v1.222a.264.264,0,0,1-.031.163.286.286,0,0,1-.171.031l-2.461-.035H54.035a11.15,11.15,0,0,0,4.623,3.313,5.878,5.878,0,0,0-.9,1.283Q57.551.36,57.4.36a1.252,1.252,0,0,1-.431-.2,10.786,10.786,0,0,1-3.691-3.542l.07,4.605q0,.185-.2.185H51.732q-.2,0-.2-.185,0-.149.035-1.872.026-1.582.035-2.751A11.428,11.428,0,0,1,47.751.176a.931.931,0,0,1-.4.185q-.123,0-.36-.413A6.227,6.227,0,0,0,46.2-1.134a10.667,10.667,0,0,0,4.482-3.516Zm5.511-9.659,2.47-.035a.278.278,0,0,1,.176.035.328.328,0,0,1,.026.167l-.044.729v.58L57.99-11.2q0,.158-.044.193a.275.275,0,0,1-.158.026H56.531q-.149,0-.176-.044a.355.355,0,0,1-.026-.176v-1.6H49.1v1.6q0,.158-.044.193a.355.355,0,0,1-.176.026H47.619q-.123,0-.158-.044a.514.514,0,0,1-.018-.176l.035-1.635v-.448l-.035-.861q0-.2.176-.2l2.461.035Zm-5.036,2.083q1.2.237,1.626.36.255.07.255.22a.413.413,0,0,1-.114.272,1.755,1.755,0,0,0-.281.642,5.532,5.532,0,0,1-2.654,3.375,1.084,1.084,0,0,1-.448.176q-.149,0-.36-.343a4.069,4.069,0,0,0-.87-.958,4.106,4.106,0,0,0,2.646-2.593A4.4,4.4,0,0,0,50.282-12.226Zm18.65,1.494q-.018,1.362-.018,2.162,0,.9.018,1.582a5.609,5.609,0,0,1,.413,2.25,4.7,4.7,0,0,1-1.8,3.973A10.874,10.874,0,0,1,63.053.958L62.007-.756a8.42,8.42,0,0,0,4.553-1.5,2.72,2.72,0,0,0,1.028-1.775,2.662,2.662,0,0,1-2.109.87,3.057,3.057,0,0,1-2.3-.844,2.86,2.86,0,0,1-.738-2.074,2.807,2.807,0,0,1,1.037-2.329,3.406,3.406,0,0,1,2.171-.677,3.522,3.522,0,0,1,1.529.36l-.035-1.986q-3.349.079-6.952.325l-.018-1.617q3.437-.158,6.926-.22l-.018-2.268h1.916q0,.65-.044,2.232,1.441-.018,4.236-.018v1.626Q71.763-10.731,68.933-10.731ZM65.566-7.726a1.381,1.381,0,0,0-1.081.439,1.616,1.616,0,0,0-.4,1.151,1.459,1.459,0,0,0,.466,1.151,1.493,1.493,0,0,0,1.046.36,1.525,1.525,0,0,0,1.2-.466,1.542,1.542,0,0,0,.352-1.063A1.4,1.4,0,0,0,65.566-7.726Z" transform="translate(300 890)" fill="#333" stroke="rgba(0,0,0,0)" stroke-width="1"/>
      <path id="パス_9451" data-name="パス 9451" d="M-46.657-2.821a5.759,5.759,0,0,0,1.31.624A1.489,1.489,0,0,1-45-2.039a.232.232,0,0,1,.07.185q0,.062-.026.272a4.409,4.409,0,0,1-.3,1.441A1.612,1.612,0,0,1-45.8.51a5.483,5.483,0,0,1-3.006.536A9.081,9.081,0,0,1-51.508.791a1.246,1.246,0,0,1-.738-1.274V-4.21h-1.626A6.426,6.426,0,0,1-59.4,1.336a2.214,2.214,0,0,1-.378.053q-.185,0-.413-.448a4.054,4.054,0,0,0-.879-1.169Q-56.4-.809-55.85-4.21h-.035l-2.435.035A.3.3,0,0,1-58.5-4.21a.328.328,0,0,1-.026-.167l.035-2.188v-5.388l-.035-2.232q0-.141.035-.167a.387.387,0,0,1,.176-.026l2.47.035h5.8l2.452-.035q.149,0,.176.035a.3.3,0,0,1,.026.158l-.035,2.232v5.388l.035,2.188a.286.286,0,0,1-.031.171.286.286,0,0,1-.171.031l-2.452-.035h-.325v2.848q0,.519.325.589a6.482,6.482,0,0,0,1.4.088A3.084,3.084,0,0,0-47.1-.923Q-46.683-1.239-46.657-2.821ZM-49.3-5.757V-7.093h-7.339v1.336Zm0-6.952h-7.339v1.318H-49.3Zm-7.339,4.1H-49.3V-9.879h-7.339Zm30.173,8.5A4.755,4.755,0,0,0-27.154.958q-.193.413-.4.413a1.762,1.762,0,0,1-.466-.105A10.664,10.664,0,0,1-31.17-.36q-.088-.07-.088-.123t.167-.2l.861-.773h-3.762l-2.2.035q-.141,0-.167-.035a.3.3,0,0,1-.026-.158l.035-1.661V-6.1l-.035-1.644a.3.3,0,0,1,.035-.185.3.3,0,0,1,.158-.026l2.2.035h3.5l2.206-.035q.158,0,.193.044a.328.328,0,0,1,.026.167L-28.1-6.1v2.821l.035,1.661q0,.132-.035.163a.334.334,0,0,1-.185.031l-.519-.009q-.554-.018-1.222-.026A10.9,10.9,0,0,0-26.468-.105Zm-3.366-2.5v-.721h-4.808v.721Zm0-4.157h-4.808v.721h4.808Zm-4.808,2.426h4.808v-.694h-4.808Zm-3.683-10.67a10.455,10.455,0,0,1,1.081,1.081.466.466,0,0,1,.141.325q0,.167-.29.2a2.166,2.166,0,0,0-.571.176q-.431.185-1.046.4v2.681l1.336-.035q.176,0,.176.2V-8.71q0,.2-.176.2l-.378-.018q-.378-.009-.835-.026a8.94,8.94,0,0,0,1.969,2.707,5.672,5.672,0,0,0-.562,1.222q-.114.36-.237.36-.1,0-.281-.272a10.637,10.637,0,0,1-1.063-1.942l.105,7.708q0,.141-.035.167a.3.3,0,0,1-.158.026H-40.6q-.141,0-.167-.035a.3.3,0,0,1-.026-.158q0-.07.026-1.16.088-3.3.114-6.223A14.622,14.622,0,0,1-42.438-2.18q-.167.255-.281.255t-.2-.308a5.6,5.6,0,0,0-.571-1.459,14.91,14.91,0,0,0,2.514-4.86h-.229l-1.731.044q-.176,0-.176-.2V-9.984q0-.2.176-.2l1.731.035h.466v-2.162q-.686.176-1.116.255a2.269,2.269,0,0,1-.387.07.245.245,0,0,1-.22-.132,3.168,3.168,0,0,1-.149-.387,3.788,3.788,0,0,0-.5-1.011,13.9,13.9,0,0,0,4.069-1.063A3.61,3.61,0,0,0-38.325-15.012Zm7.866,4.395h-.993v.809h2.039l2.426-.035q.176,0,.176.193v.923q0,.193-.176.193l-2.426-.035h-5.2l-2.329.035q-.141,0-.167-.035a.3.3,0,0,1-.026-.158V-9.65q0-.141.035-.167a.3.3,0,0,1,.158-.026l2.329.035h1.4v-.809h-.721l-2.171.035a.278.278,0,0,1-.176-.035.3.3,0,0,1-.026-.158v-.853a.3.3,0,0,1,.035-.185.328.328,0,0,1,.167-.026l2.171.035h.721v-.817h-1.116l-2.338.044q-.158,0-.185-.044a.355.355,0,0,1-.026-.176v-.879q0-.149.035-.176a.355.355,0,0,1,.176-.026l2.338.035h1.116a9.388,9.388,0,0,0-.105-1.274q1.125.035,1.819.105.272.035.272.185a1.145,1.145,0,0,1-.105.316,1.5,1.5,0,0,0-.114.668h1.564l2.347-.035q.141,0,.167.035a.328.328,0,0,1,.026.167v.879a.32.32,0,0,1-.035.193.3.3,0,0,1-.158.026l-2.347-.044h-1.564v.817h.993l2.2-.035a.3.3,0,0,1,.185.035.355.355,0,0,1,.026.176v.853q0,.141-.035.167a.355.355,0,0,1-.176.026Zm-3.964,9.176a8.117,8.117,0,0,1,1.1.756q.22.167.22.255,0,.176-.22.237a3.213,3.213,0,0,0-.571.3,9.232,9.232,0,0,1-2.936,1.23,2.136,2.136,0,0,1-.431.088q-.185,0-.4-.431a3.639,3.639,0,0,0-.756-1.011,11.726,11.726,0,0,0,3.252-.94A3.1,3.1,0,0,0-34.422-1.441Zm12.929-7.2a1.738,1.738,0,0,1,1.336.6,1.726,1.726,0,0,1,.466,1.2,1.738,1.738,0,0,1-.6,1.336,1.747,1.747,0,0,1-1.2.466,1.721,1.721,0,0,1-1.336-.6,1.747,1.747,0,0,1-.466-1.2,1.721,1.721,0,0,1,.6-1.336A1.726,1.726,0,0,1-21.494-8.64Zm9.545,9.773h-1.608A.264.264,0,0,1-13.72,1.1.264.264,0,0,1-13.75.94l.035-6.407v-3.48l-.035-4.7a.3.3,0,0,1,.035-.185.328.328,0,0,1,.167-.026l2.479.035h6.179L-2.4-13.86q.141,0,.167.044a.328.328,0,0,1,.026.167l-.035,4.166v4L-2.21.844q0,.149-.035.176a.3.3,0,0,1-.158.026H-4q-.149,0-.176-.035A.328.328,0,0,1-4.206.844V-.035h-7.55V.94q0,.141-.035.167A.3.3,0,0,1-11.949,1.134Zm.193-2.953h7.55V-6.17h-7.55Zm0-10.222v4.1h7.55v-4.1ZM7.1-14.9a6.731,6.731,0,0,1,1.116,1.134.478.478,0,0,1,.149.3q0,.22-.325.22a2.09,2.09,0,0,0-.58.176q-.51.2-1.222.439v2.5l1.854-.035q.158,0,.185.035a.328.328,0,0,1,.026.167v1.274q0,.149-.035.176a.355.355,0,0,1-.176.026L7.871-8.5q-.615-.018-1.38-.026A9.3,9.3,0,0,0,8.556-5.563a5.987,5.987,0,0,0-.65,1.2q-.105.272-.211.272-.132,0-.308-.29a13.633,13.633,0,0,1-1.2-2.355q.009,2.883.07,5.8.018.5.044,1.626.009.457.009.554,0,.176-.193.176H4.663a.3.3,0,0,1-.185-.035.229.229,0,0,1-.026-.141q.123-2.558.141-7.172a14.642,14.642,0,0,1-1.8,3.639q-.2.29-.281.29-.105,0-.237-.29A5.217,5.217,0,0,0,1.551-3.56,14.888,14.888,0,0,0,4.3-8.525H3.924L2.052-8.49q-.141,0-.167-.035a.328.328,0,0,1-.026-.167V-9.967q0-.149.035-.176a.3.3,0,0,1,.158-.026l1.872.035h.6v-2.03q-.817.185-1.2.246a2.731,2.731,0,0,1-.4.062q-.193,0-.413-.492a4.839,4.839,0,0,0-.615-.967,16.878,16.878,0,0,0,4.465-1.151A4.509,4.509,0,0,0,7.1-14.9ZM10.208.826,7.756.861q-.141,0-.167-.035A.3.3,0,0,1,7.563.668V-.615a.264.264,0,0,1,.031-.163.264.264,0,0,1,.163-.031l2.452.035h1.854v-1.8H11.29L9.075-2.54q-.185,0-.185-.193V-3.92A.163.163,0,0,1,9.075-4.1l2.215.035h.773V-5.687H11.017l-2.3.035q-.158,0-.185-.035a.239.239,0,0,1-.035-.158v-1.23q0-.141.044-.167a.355.355,0,0,1,.176-.026l2.3.035h4.2l2.32-.035a.3.3,0,0,1,.185.035.3.3,0,0,1,.026.158v1.23a.264.264,0,0,1-.031.163.309.309,0,0,1-.18.031l-2.32-.035H13.847v1.617h1.046L17.108-4.1q.193,0,.193.185v1.187a.264.264,0,0,1-.031.163.264.264,0,0,1-.163.031l-2.215-.035H13.847v1.8h1.784l2.426-.035a.278.278,0,0,1,.176.035.3.3,0,0,1,.026.158V.668q0,.141-.044.167a.275.275,0,0,1-.158.026L15.631.826ZM14.761-14.2l2.171-.035a.278.278,0,0,1,.176.035.328.328,0,0,1,.026.167L17.1-12.454v2.2l.035,1.573q0,.149-.035.176a.328.328,0,0,1-.167.026l-2.171-.035H11.483L9.3-8.481q-.141,0-.167-.035a.328.328,0,0,1-.026-.167l.035-1.573v-2.2L9.11-14.036q0-.149.035-.176a.3.3,0,0,1,.158-.026l2.18.035Zm.571,4.14v-2.558H10.876v2.558Zm10.661-2.391q2.558-.114,4.658-.325l.07,1.564q-3.129.229-5.5.325a11.636,11.636,0,0,1-1.406,2.048l-.413.4.053.079.448-.325a2.655,2.655,0,0,1,1.547-.51,2.071,2.071,0,0,1,1.5.58A2.612,2.612,0,0,1,27.664-7.2q.729-.334,3.6-1.564l.7,1.688q-2.408.8-4.219,1.6v3.5H26.064v-2.7a9.5,9.5,0,0,0-2.18,1.441A1.527,1.527,0,0,0,23.4-2.162a1.016,1.016,0,0,0,.686,1.028,7.473,7.473,0,0,0,2.514.29q2.03,0,4.667-.255L31.355.58q-2.417.176-4.966.176-2.848,0-3.867-.817A2.367,2.367,0,0,1,21.74-2.03a3.093,3.093,0,0,1,.949-2.232,12.68,12.68,0,0,1,3.357-2.145,2.023,2.023,0,0,0-.3-1.151.839.839,0,0,0-.659-.237,3.289,3.289,0,0,0-1.986.949,18.049,18.049,0,0,0-2.021,2.109L19.745-5.889A19.8,19.8,0,0,0,23.4-10.837q-.51.018-1.424.018-.58,0-1.767-.035v-1.582q1.134.053,2,.053,1.239,0,1.907-.018a21.889,21.889,0,0,0,.738-2.355l1.854.3Q26.4-13.438,25.994-12.454ZM45.787-.712A7.221,7.221,0,0,0,46.9-.624a.815.815,0,0,0,.606-.167.806.806,0,0,0,.132-.527V-9.044H44.653l-1.978.035q-.141,0-.167-.035a.416.416,0,0,1-.026-.185l.035-1.485v-2.153L42.482-14.4q0-.149.035-.176a.3.3,0,0,1,.158-.026l1.978.035H47.3l2.013-.035q.149,0,.176.035a.328.328,0,0,1,.026.167l-.035,2.408v7.427l.053,3.577a2.347,2.347,0,0,1-.5,1.661,3.417,3.417,0,0,1-2.162.483q-.413,0-.492-.088a1.284,1.284,0,0,1-.141-.466A4.5,4.5,0,0,0,45.787-.712Zm1.854-12.533H44.275v.861h3.366Zm0,2.927v-.861H44.275v.861ZM38.4-.308a1.222,1.222,0,0,0-.554.149.458.458,0,0,1-.272.105q-.158,0-.237-.308-.114-.51-.229-1.371.325.018.58.018.457,0,.984-.035V-6.732q-.51.009-.932.026l-.29.009a.278.278,0,0,1-.176-.035.328.328,0,0,1-.026-.167V-7.928q0-.141.035-.167a.328.328,0,0,1,.167-.026l2.32.035h4.377l2.32-.035q.149,0,.176.035a.3.3,0,0,1,.026.158V-6.9q0,.149-.035.176a.328.328,0,0,1-.167.026L46.3-6.706q-.519-.018-1.116-.026v5.344L45.215.668a.3.3,0,0,1-.035.185.3.3,0,0,1-.158.026H43.756q-.141,0-.167-.035a.355.355,0,0,1-.026-.176q0-.018.009-.5.018-.5.026-1.046Q41.12-.545,38.4-.308ZM43.6-2.145V-2.83H40.241v.976Q41.41-1.934,43.6-2.145ZM40.241-3.981H43.6V-4.79H40.241Zm0-1.96H43.6v-.791H40.241Zm-1-8.622,1.819-.035q.176,0,.176.2L41.2-12.744v1.89l.035,1.626a.32.32,0,0,1-.035.193.229.229,0,0,1-.141.026l-1.819-.035H36.286v6.337l.035,3.867a.278.278,0,0,1-.035.176.3.3,0,0,1-.158.026H34.607a.264.264,0,0,1-.163-.031.286.286,0,0,1-.031-.171l.035-3.867v-7.787l-.035-3.9q0-.149.035-.176a.328.328,0,0,1,.167-.026l2.118.035Zm.193,1.318H36.286v.861h3.146Zm0,2.927v-.861H36.286v.861Zm19.406-4.228,1.7,1.187a74.611,74.611,0,0,1-5.7,5.854.835.835,0,0,0-.343.615q0,.211.536.624A54.043,54.043,0,0,1,61.308-.36L59.682.993a44.32,44.32,0,0,0-6.706-6.68,1.441,1.441,0,0,1-.6-1.169,1.533,1.533,0,0,1,.483-1.116q2.232-2.232,3.331-3.437Q57.511-12.85,58.838-14.546Z" transform="translate(562 890)" fill="#333" stroke="rgba(0,0,0,0)" stroke-width="1"/>
      <path id="パス_9448" data-name="パス 9448" d="M-37.932-.618V-4.211a6.905,6.905,0,0,0,2.123,1.23,6.823,6.823,0,0,0,2.313.41A5.13,5.13,0,0,0-32.3-2.7a2.8,2.8,0,0,0,.854-.343,1.494,1.494,0,0,0,.511-.517,1.289,1.289,0,0,0,.168-.646,1.4,1.4,0,0,0-.27-.842,2.9,2.9,0,0,0-.736-.685,7.686,7.686,0,0,0-1.106-.606q-.64-.292-1.381-.6a7.05,7.05,0,0,1-2.813-1.92A4.193,4.193,0,0,1-38-11.59a4.364,4.364,0,0,1,.505-2.162,4.292,4.292,0,0,1,1.376-1.488A6.169,6.169,0,0,1-34.1-16.1a10.358,10.358,0,0,1,2.426-.275,14.59,14.59,0,0,1,2.229.152,8.767,8.767,0,0,1,1.791.466V-12.4a5.416,5.416,0,0,0-.882-.494,6.985,6.985,0,0,0-.983-.354,7.5,7.5,0,0,0-1.005-.208,7.114,7.114,0,0,0-.949-.067A4.949,4.949,0,0,0-32.6-13.4a2.881,2.881,0,0,0-.854.331,1.648,1.648,0,0,0-.539.511,1.211,1.211,0,0,0-.191.668,1.276,1.276,0,0,0,.213.724,2.448,2.448,0,0,0,.606.606,6.436,6.436,0,0,0,.955.562q.562.275,1.269.567a14.141,14.141,0,0,1,1.735.859,6.168,6.168,0,0,1,1.32,1.028,4,4,0,0,1,.842,1.308,4.623,4.623,0,0,1,.292,1.713,4.588,4.588,0,0,1-.511,2.263A4.149,4.149,0,0,1-28.846-.781a6.014,6.014,0,0,1-2.038.814,11.78,11.78,0,0,1-2.454.247A13.645,13.645,0,0,1-35.86.056,7.611,7.611,0,0,1-37.932-.618Zm24.943-12.533h-4.593V0h-3.639V-13.151h-4.571V-16.1h12.8ZM-1.163,0h-9.658V-16.1h9.288v2.954h-5.66v3.583h5.267v2.942H-7.194v3.684h6.031Zm6.21-5.548V0H1.42V-16.1H7.1q6.087,0,6.087,5.132a4.924,4.924,0,0,1-1.746,3.925,6.918,6.918,0,0,1-4.666,1.5Zm0-7.771V-8.3H6.473q2.9,0,2.9-2.538,0-2.482-2.9-2.482Zm28.41-10.3V0H28.382V-17.886a6.078,6.078,0,0,1-.991.7,10.23,10.23,0,0,1-1.217.6,10.863,10.863,0,0,1-1.337.451,9.768,9.768,0,0,1-1.37.266v-4.286a21.173,21.173,0,0,0,3.738-1.482,21.274,21.274,0,0,0,3.174-1.982Z" transform="translate(265 729)" fill="#fff" stroke="rgba(0,0,0,0)" stroke-width="1"/>
      <path id="パス_9449" data-name="パス 9449" d="M-37.932-.618V-4.211a6.905,6.905,0,0,0,2.123,1.23,6.823,6.823,0,0,0,2.313.41A5.13,5.13,0,0,0-32.3-2.7a2.8,2.8,0,0,0,.854-.343,1.494,1.494,0,0,0,.511-.517,1.289,1.289,0,0,0,.168-.646,1.4,1.4,0,0,0-.27-.842,2.9,2.9,0,0,0-.736-.685,7.686,7.686,0,0,0-1.106-.606q-.64-.292-1.381-.6a7.05,7.05,0,0,1-2.813-1.92A4.193,4.193,0,0,1-38-11.59a4.364,4.364,0,0,1,.505-2.162,4.292,4.292,0,0,1,1.376-1.488A6.169,6.169,0,0,1-34.1-16.1a10.358,10.358,0,0,1,2.426-.275,14.59,14.59,0,0,1,2.229.152,8.767,8.767,0,0,1,1.791.466V-12.4a5.416,5.416,0,0,0-.882-.494,6.985,6.985,0,0,0-.983-.354,7.5,7.5,0,0,0-1.005-.208,7.114,7.114,0,0,0-.949-.067A4.949,4.949,0,0,0-32.6-13.4a2.881,2.881,0,0,0-.854.331,1.648,1.648,0,0,0-.539.511,1.211,1.211,0,0,0-.191.668,1.276,1.276,0,0,0,.213.724,2.448,2.448,0,0,0,.606.606,6.436,6.436,0,0,0,.955.562q.562.275,1.269.567a14.141,14.141,0,0,1,1.735.859,6.168,6.168,0,0,1,1.32,1.028,4,4,0,0,1,.842,1.308,4.623,4.623,0,0,1,.292,1.713,4.588,4.588,0,0,1-.511,2.263A4.149,4.149,0,0,1-28.846-.781a6.014,6.014,0,0,1-2.038.814,11.78,11.78,0,0,1-2.454.247A13.645,13.645,0,0,1-35.86.056,7.611,7.611,0,0,1-37.932-.618Zm24.943-12.533h-4.593V0h-3.639V-13.151h-4.571V-16.1h12.8ZM-1.163,0h-9.658V-16.1h9.288v2.954h-5.66v3.583h5.267v2.942H-7.194v3.684h6.031Zm6.21-5.548V0H1.42V-16.1H7.1q6.087,0,6.087,5.132a4.924,4.924,0,0,1-1.746,3.925,6.918,6.918,0,0,1-4.666,1.5Zm0-7.771V-8.3H6.473q2.9,0,2.9-2.538,0-2.482-2.9-2.482Zm21.917,9.1h9.8V0H21.388V-1.74a8.1,8.1,0,0,1,.6-3.182,10.561,10.561,0,0,1,1.5-2.53,13,13,0,0,1,1.974-1.982q1.072-.862,2.038-1.555,1.015-.725,1.781-1.386a10.146,10.146,0,0,0,1.289-1.313,4.993,4.993,0,0,0,.781-1.321,3.93,3.93,0,0,0,.258-1.426,2.866,2.866,0,0,0-.838-2.24,3.725,3.725,0,0,0-2.562-.757,8.605,8.605,0,0,0-5.7,2.369v-4.479a12.245,12.245,0,0,1,6.8-1.95,10.042,10.042,0,0,1,3.15.459,6.665,6.665,0,0,1,2.361,1.313,5.6,5.6,0,0,1,1.474,2.071,6.988,6.988,0,0,1,.508,2.715A7.656,7.656,0,0,1,36.3-14.1,8.714,8.714,0,0,1,35-11.843a11.839,11.839,0,0,1-1.877,1.861q-1.063.846-2.208,1.635-.773.548-1.49,1.088A14.13,14.13,0,0,0,28.156-6.2a5.773,5.773,0,0,0-.87,1.023A1.766,1.766,0,0,0,26.964-4.222Z" transform="translate(527 729)" fill="#fff" stroke="rgba(0,0,0,0)" stroke-width="1"/>
      <g id="矢印アイコン_下5" data-name="矢印アイコン　下5" transform="translate(420 818.199) rotate(-90)">
        <path id="パス_9241" data-name="パス 9241" d="M19.022,8.854A.976.976,0,0,0,18,8.465l-4.194.979V1.41A1.41,1.41,0,0,0,12.4,0H6.8a1.411,1.411,0,0,0-1.41,1.41V9.445L1.2,8.465A.976.976,0,0,0,.156,9.945L8.721,21.809a1.085,1.085,0,0,0,1.759,0L19.044,9.945A.974.974,0,0,0,19.022,8.854Z" transform="translate(0)" fill="#00a9c6"/>
      </g>
      <g id="STEP1" transform="translate(-35 -9)">
        <rect id="長方形_3114-2" data-name="長方形 3114" width="100" height="100" transform="translate(285 758)" fill="rgba(255,255,255,0)"/>
        <path id="パス_9417" data-name="パス 9417" d="M99.893,97.406,76.411,73.323a43.978,43.978,0,1,0-2.4,2.452L97.466,99.832ZM43.887,84.343A40.455,40.455,0,1,1,84.342,43.888,40.5,40.5,0,0,1,43.887,84.343" transform="translate(285.107 758)" fill="#00a9c6"/>
        <path id="パス_9422" data-name="パス 9422" d="M63.158,120.125A12.722,12.722,0,1,0,50.387,107.4,12.761,12.761,0,0,0,63.158,120.125Zm0-23.337A10.616,10.616,0,1,1,52.493,107.4,10.653,10.653,0,0,1,63.158,96.788ZM76.1,122.4H72.52a1.052,1.052,0,0,0-.968.64l-4.045,9.474-1.41-5.036,1.62-3.591a1.053,1.053,0,0,0-.96-1.486h-7.2a1.053,1.053,0,0,0-.96,1.486l1.62,3.591-1.41,5.036-4.045-9.474a1.053,1.053,0,0,0-.968-.64H50.22a11.7,11.7,0,0,0-11.712,11.667v14.893h2.106V134.072a9.6,9.6,0,0,1,9.606-9.561H53.1l9.09,21.288a1.053,1.053,0,0,0,1.937,0l9.09-21.288H76.1a9.6,9.6,0,0,1,9.606,9.561v14.893h2.106V134.072A11.7,11.7,0,0,0,76.1,122.4ZM63.158,142.7l-3.028-7.092,2.22-7.931a1.054,1.054,0,0,0-.054-.717l-1.107-2.453h3.939l-1.107,2.453a1.054,1.054,0,0,0-.054.717l2.22,7.931Z" transform="translate(266.842 676.816)" fill="#00a9c6"/>
      </g>
    </g>
    <rect id="長方形_3437" data-name="長方形 3437" width="580" height="130" transform="translate(200 873)" fill="#00a9c6"/>
    <g id="グループ_5451" data-name="グループ 5451" transform="translate(10 -145)">
      <g id="グループ_5423" data-name="グループ 5423" transform="translate(-385 -558)">
        <path id="パス_9447" data-name="パス 9447" d="M26.988-2.379Q26.77.027,25.867.725a5.019,5.019,0,0,1-3.1.725,12.465,12.465,0,0,1-2.9-.246q-1-.3-1-1.736V-6.973H16.6a8.849,8.849,0,0,1-2.68,6.016A14.048,14.048,0,0,1,8.176,1.791a1.3,1.3,0,0,1-.355.082q-.178,0-.479-.451a3.376,3.376,0,0,0-.82-.889q4.5-.971,6.33-2.666A7.008,7.008,0,0,0,14.9-6.973q-1.285.027-2.256.041l-.656.014a.193.193,0,0,1-.219-.219l.055-3.445v-7.67l-.055-3.4q0-.26.219-.26l3.5.055h5.141l3.473-.055q.232,0,.232.26l-.055,3.4v7.67l.055,3.445q0,.219-.232.219l-3.473-.055h-.109v5.66a2.152,2.152,0,0,0,.1.807.549.549,0,0,0,.438.273,9.525,9.525,0,0,0,1.736.109,3.458,3.458,0,0,0,1.955-.4,1.711,1.711,0,0,0,.629-1.189,16.4,16.4,0,0,0,.164-1.982,4.83,4.83,0,0,0,1.053.615q.424.191.424.424A2.22,2.22,0,0,1,26.988-2.379ZM22.654-8.395v-3.145H13.48v3.145Zm0-8.969v-2.98H13.48v2.98Zm0,4.4v-3.008H13.48v3.008Zm-12-6.891q0,.26-.232.26l-2.734-.055H7.068V-13.6h.355l2.557-.055a.193.193,0,0,1,.219.219v1.176q0,.232-.219.232l-2.557-.055H7.068v6.1a35.542,35.542,0,0,0,3.555-1.818,4.963,4.963,0,0,0-.041.643q0,.232.014.451t.014.287q0,.287-.437.547A52.865,52.865,0,0,1,3.732-2.885a3.964,3.964,0,0,0-1.039.479.463.463,0,0,1-.314.164q-.137,0-.246-.246a12.243,12.243,0,0,1-.561-1.627,15.57,15.57,0,0,0,2.57-.725q.424-.137,1.271-.479v-6.768H4.936l-2.529.055q-.219,0-.219-.232v-1.176a.193.193,0,0,1,.219-.219l2.529.055h.479v-6.043H4.73L2-19.592q-.205,0-.205-.26v-1.176q0-.219.205-.219l2.734.055H7.684l2.734-.055q.232,0,.232.219Zm43.969,16.6A9.638,9.638,0,0,1,54.1-.588,2.3,2.3,0,0,1,53.252.4a5.073,5.073,0,0,1-2.16.67,33.543,33.543,0,0,1-4.17.191q-4.266,0-5.441-.588a2.428,2.428,0,0,1-1.2-2.461v-9.27q-.246.1-3.035,1.2a.434.434,0,0,1-.123.027q-.1,0-.15-.191l-.287-1.2a.579.579,0,0,1-.027-.137q0-.1.178-.15.014,0,.41-.123,1.258-.383,3.035-1.025v-4.594a23.427,23.427,0,0,0-.178-3.24,14.315,14.315,0,0,1,1.736.137q.383.082.383.26a1.692,1.692,0,0,1-.164.52,15.989,15.989,0,0,0-.15,3.172v3.158l3.732-1.34v-4.566a25.737,25.737,0,0,0-.205-3.746,15.608,15.608,0,0,1,1.777.164q.328.055.328.246a1.9,1.9,0,0,1-.137.479,12.214,12.214,0,0,0-.164,2.666v4.17l2.406-.875q1.463-.533,2.8-1.066a7.159,7.159,0,0,1,.779-.3q.232,0,.232.219-.014.178-.041,1.49-.014.875-.055,1.764a39.249,39.249,0,0,1-.533,5.523,3.549,3.549,0,0,1-.9,2.064,2.073,2.073,0,0,1-1.395.424,9.169,9.169,0,0,1-1.148-.082q-.369-.041-.437-.137a1.442,1.442,0,0,1-.1-.479,3.671,3.671,0,0,0-.355-1.176,7.25,7.25,0,0,0,1.736.219.83.83,0,0,0,.779-.437,4.2,4.2,0,0,0,.369-1.381,47.942,47.942,0,0,0,.355-5.824l-4.5,1.654V-8.23L47.277-3.9q0,.232-.219.232H45.8q-.219,0-.219-.232l.055-4.334v-4.758L41.9-11.648V-2.3q0,1.258.738,1.613.752.4,4.5.4a25.73,25.73,0,0,0,3.623-.178,3.435,3.435,0,0,0,1.395-.52,1.941,1.941,0,0,0,.67-1.2,15.941,15.941,0,0,0,.232-2.352,4.337,4.337,0,0,0,1.135.615q.451.191.451.4A2.22,2.22,0,0,1,54.619-3.254ZM38.172-7.4a6,6,0,0,0-.055.793v.3q.014.15.014.246a.536.536,0,0,1-.082.342,1.5,1.5,0,0,1-.41.26q-2.215,1.025-5.824,2.57a3.673,3.673,0,0,0-1.039.588.6.6,0,0,1-.383.219q-.178,0-.314-.3a13.762,13.762,0,0,1-.615-1.545,15.07,15.07,0,0,0,2.666-.807l1.148-.451v-8.654h-.684l-2.6.055A.193.193,0,0,1,29.777-14v-1.176A.193.193,0,0,1,30-15.395l2.6.055h.684v-3.254a26.765,26.765,0,0,0-.205-3.855,12.154,12.154,0,0,1,1.791.164q.314.041.314.246a3.617,3.617,0,0,1-.123.506,14.722,14.722,0,0,0-.15,2.885v3.309h.355l2.611-.055a.193.193,0,0,1,.219.219V-14a.193.193,0,0,1-.219.219l-2.611-.055H34.9v8.012Q36.436-6.48,38.172-7.4ZM56.984-.533a28.509,28.509,0,0,0,3.91-8.928,67.459,67.459,0,0,0,1.723-10.979l2.229.219a66.818,66.818,0,0,1-2.27,12.674A29.487,29.487,0,0,1,58.857.506ZM68.934-20.275l2.133-.191Q72.42-8.6,76.891-.67L74.826.506A58.752,58.752,0,0,1,68.934-20.275Zm6.275-3.582a3.031,3.031,0,0,1,2.338,1.039,3.011,3.011,0,0,1,.807,2.092,3,3,0,0,1-1.039,2.338,3.028,3.028,0,0,1-2.105.807,2.989,2.989,0,0,1-2.324-1.039,3.028,3.028,0,0,1-.807-2.105A3.007,3.007,0,0,1,73.1-23.051,3.06,3.06,0,0,1,75.209-23.857Zm0,1.2a1.836,1.836,0,0,0-1.436.629,1.877,1.877,0,0,0-.492,1.3,1.852,1.852,0,0,0,.629,1.449,1.877,1.877,0,0,0,1.3.492,1.878,1.878,0,0,0,1.449-.629,1.894,1.894,0,0,0,.492-1.312,1.836,1.836,0,0,0-.629-1.436A1.894,1.894,0,0,0,75.209-22.654Zm4.785,11.17h15.23v2.078H79.994Zm23.816-.7v13.3h-2.16V-22.367h2.16v8.121A43.607,43.607,0,0,1,114.475-9.8l-1.066,2.023A35.391,35.391,0,0,0,103.811-12.182Zm24.746-4.088h7.109v1.9h-7.109q-.1,6.617-1.654,9.639-1.832,3.6-6.7,5.934L118.727-.273q4.566-2.119,6.18-5.414a12.491,12.491,0,0,0,1.176-3.924,36.952,36.952,0,0,0,.314-4.758h-8.764v-1.9H126.4v-6.07h2.16Zm10.035,4.785h15.23v2.078h-15.23Zm29.654,2.721v5.537h-1.873V-7.9q-.643.328-1.326.711-3.582,2.023-3.582,4.061a1.855,1.855,0,0,0,1.258,1.887,12.793,12.793,0,0,0,4.156.465q2.939,0,6.822-.342l.082,1.9q-5.1.26-6.768.26-4.389,0-5.934-1.025a3.543,3.543,0,0,1-1.408-3.2q0-2.926,3.76-5.1,1.422-.807,2.912-1.545-.137-2.625-1.818-2.625-2.352,0-6.453,4.73L156.625-9.01a32.7,32.7,0,0,0,5.8-8.271q-2.557.041-5.127,0V-18.99q2.953.055,5.906,0a25.02,25.02,0,0,0,1.258-3.746l2.023.369a28.752,28.752,0,0,1-1.176,3.295q3.938-.123,7.479-.479l.055,1.709q-4.594.369-8.285.479a28.594,28.594,0,0,1-2.352,3.979l-.711.725.082.109a4.983,4.983,0,0,1,3.336-1.422,3.042,3.042,0,0,1,2.229.848,3.963,3.963,0,0,1,1.053,2.434q2.187-1,5.688-2.475l.779,1.914Q170.105-9.584,168.246-8.764Zm34.139,2.912q0,.246-.219.246l-3.924-.055h-9.133l-3.91.055q-.232,0-.232-.246v-.957q0-.219.232-.219l3.91.055h.738V-9.5l-3.678.055q-.219,0-.219-.246v-.957a.193.193,0,0,1,.219-.219l3.678.055v-.164a9.072,9.072,0,0,0-.178-1.969,13.873,13.873,0,0,1,1.627.178q.342.041.342.219a.8.8,0,0,1-.137.424,1.828,1.828,0,0,0-.15.916v.4h4.2v-.109a9.538,9.538,0,0,0-.164-2.023q1.258.109,1.654.178.369.041.369.246a.963.963,0,0,1-.178.424,1.756,1.756,0,0,0-.137.807v.479h.109l3.787-.055a.193.193,0,0,1,.219.219v.957q0,.246-.219.246L197.2-9.5h-.109v2.529h1.148l3.924-.055a.193.193,0,0,1,.219.219Zm-6.836-1.121V-9.5h-4.2v2.529Zm7.957,6.193A2.51,2.51,0,0,0,203,.4a1,1,0,0,1-.164.506,1.073,1.073,0,0,1-.479.1q-5.455.342-9.939.342-5.018,0-6.891-.9a5.561,5.561,0,0,1-2.693-2.762A34.189,34.189,0,0,1,179.895.4a2.375,2.375,0,0,0-.588.588q-.164.246-.328.246t-.342-.246a11.162,11.162,0,0,1-.807-1.463,10.692,10.692,0,0,0,1.709-1.039,19,19,0,0,0,2.516-2.256v-6.945h-2.01l-1.914.055q-.219,0-.219-.26v-1.2a.193.193,0,0,1,.219-.219l1.914.055h1.422l2.023-.055a.193.193,0,0,1,.219.219l-.055,2.639v5.824A4.589,4.589,0,0,0,186.17-.9a16.473,16.473,0,0,0,5.605.67Q197.6-.232,203.506-.779Zm-1.258-14.67a2.2,2.2,0,0,1-.643,1.34q-.588.479-3.527.479-2.666,0-3.172-.424a1.438,1.438,0,0,1-.451-.67,4.616,4.616,0,0,1-.137-1.312v-1.381l-.055-1.094a.193.193,0,0,1,.219-.219l2.051.055H199.9v-2.051h-3.254l-2.352.055q-.246,0-.246-.219v-.971q0-.232.246-.232l2.352.055h2.379l2.229-.055a.193.193,0,0,1,.219.219l-.068,1.627v.957l.068,1.709a.193.193,0,0,1-.219.219l-2.229-.055h-3.158v1.066q0,1,.246,1.217a5.966,5.966,0,0,0,2.3.219,4.305,4.305,0,0,0,2.133-.287,2.5,2.5,0,0,0,.3-1.49,3.511,3.511,0,0,0,1.039.533q.41.164.41.369A2.824,2.824,0,0,1,202.248-15.449Zm-9.379,0a2.2,2.2,0,0,1-.643,1.34q-.588.479-3.309.479-2.611,0-3.1-.424a1.385,1.385,0,0,1-.492-.67,5.106,5.106,0,0,1-.123-1.312v-1.381l-.055-1.094q0-.219.246-.219l1.982.055h3.309v-2.051H187.5l-2.393.055a.193.193,0,0,1-.219-.219v-.971q0-.232.219-.232l2.393.055h2.324l2.215-.055a.193.193,0,0,1,.219.219l-.055,1.627v.957l.055,1.709a.193.193,0,0,1-.219.219l-2.215-.055h-3.09v1.039q0,1.025.26,1.244a4.865,4.865,0,0,0,2.037.219,4.223,4.223,0,0,0,2.215-.314q.246-.232.273-1.463a3.111,3.111,0,0,0,1.012.561q.369.137.369.355Q192.9-15.7,192.869-15.449Zm9.27,12.879a3.009,3.009,0,0,0-.615.861q-.246.438-.437.438a1.682,1.682,0,0,1-.41-.1,22.359,22.359,0,0,1-5.25-2.939q-.15-.1-.15-.164,0-.1.164-.26l.506-.479q.191-.191.287-.191a.467.467,0,0,1,.219.109A17.976,17.976,0,0,0,202.139-2.57ZM183.572-18.088a.337.337,0,0,1,.055.15q0,.1-.246.3l-.656.506a.886.886,0,0,1-.369.205q-.1,0-.191-.15a19.964,19.964,0,0,0-3.1-4.033.224.224,0,0,1-.082-.137q0-.082.273-.26l.629-.451a.988.988,0,0,1,.328-.164.276.276,0,0,1,.164.082A24.832,24.832,0,0,1,183.572-18.088Zm8.313,13.781q-.041.178-.369.273a1.833,1.833,0,0,0-.4.246,4.487,4.487,0,0,1-.41.26A19.121,19.121,0,0,1,186.99-1.6a1.627,1.627,0,0,1-.437.123q-.164,0-.465-.369a2.052,2.052,0,0,0-.752-.67,21.539,21.539,0,0,0,4.088-1.846A5.128,5.128,0,0,0,190.545-5.4a8.072,8.072,0,0,1,1.08.725q.26.178.26.328ZM220.6-23.051l1.436-.547a36.549,36.549,0,0,1,2.064,4.73l-1.5.615A30.246,30.246,0,0,0,220.6-23.051ZM211.08-1.846a11.793,11.793,0,0,0,4.143.7q2.8,0,2.8-2.461a5.56,5.56,0,0,0-.971-2.939,18.723,18.723,0,0,0-1.941-2.461q-2.434-2.68-2.434-4.238a4.278,4.278,0,0,1,.629-2.2,13.636,13.636,0,0,1,1.49-1.914l1.654,1.176q-1.818,1.654-1.818,2.748a2.76,2.76,0,0,0,.615,1.545q.41.574,1.6,1.9a17.569,17.569,0,0,1,2.42,3.213,7.261,7.261,0,0,1,.861,3.473,3.721,3.721,0,0,1-1.217,2.953A5.25,5.25,0,0,1,215.332.752a14.912,14.912,0,0,1-4.143-.643ZM208.455-10.5l1.9.725a44.445,44.445,0,0,1-2.666,9.434l-1.9-.779A37.75,37.75,0,0,0,208.455-10.5Zm12.7-.451,1.941-.615A44.479,44.479,0,0,1,226.037-1.34l-2.078.67A37.159,37.159,0,0,0,221.156-10.951Zm-10.691-9.3.643-1.709a87.869,87.869,0,0,1,9.352,1.627l-.725,1.791A69.517,69.517,0,0,0,210.465-20.248Zm13.3-3.746,1.395-.506a23.133,23.133,0,0,1,2,4.594l-1.463.588A26.976,26.976,0,0,0,223.768-23.994Z" transform="translate(745 1653)" fill="#fff"/>
      </g>
      <g id="STEP1-2" data-name="STEP1" transform="translate(230 1031)">
        <rect id="長方形_3911" data-name="長方形 3911" width="100" height="100" rx="50" transform="translate(0 2)" fill="#fff"/>
        <path id="パス_9240" data-name="パス 9240" d="M68.508,125.648a15.483,15.483,0,1,0-15.543-15.483A15.531,15.531,0,0,0,68.508,125.648Zm0-28.4a12.92,12.92,0,1,1-12.98,12.92A12.965,12.965,0,0,1,68.508,97.245Zm15.746,31.176H79.9a1.281,1.281,0,0,0-1.178.778L73.8,140.73,72.085,134.6l1.972-4.37a1.282,1.282,0,0,0-1.168-1.809H64.127a1.281,1.281,0,0,0-1.168,1.809l1.972,4.37-1.716,6.129L58.292,129.2a1.281,1.281,0,0,0-1.179-.778h-4.35a14.243,14.243,0,0,0-14.255,14.2v18.126h2.563V142.621a11.677,11.677,0,0,1,11.691-11.637h3.5l11.062,25.909a1.282,1.282,0,0,0,2.357,0l11.062-25.909h3.5a11.677,11.677,0,0,1,11.691,11.637v18.126h2.563V142.621A14.243,14.243,0,0,0,84.254,128.422ZM68.508,153.127,64.822,144.5l2.7-9.652a1.283,1.283,0,0,0-.066-.873l-1.347-2.986H70.9l-1.347,2.986a1.283,1.283,0,0,0-.066.873l2.7,9.652Z" transform="translate(-18.507 -75.681)" fill="#00a9c6"/>
      </g>
    </g>
  </g>
</svg>
