<svg xmlns="http://www.w3.org/2000/svg" xmlns:xlink="http://www.w3.org/1999/xlink" width="60" height="60" viewBox="0 0 60 60">
  <defs>
    <clipPath id="clip-path">
      <rect id="長方形_3941" data-name="長方形 3941" width="60" height="60" fill="none"/>
    </clipPath>
  </defs>
  <g id="グループ_5540" data-name="グループ 5540" clip-path="url(#clip-path)">
    <path id="パス_9456" data-name="パス 9456" d="M41.322,14.694A2.79,2.79,0,0,1,39,15.812a2.925,2.925,0,0,1-2.231-1.373L27.986,1.378a2.727,2.727,0,0,0-4.739,0L14.464,14.439a2.925,2.925,0,0,1-2.23,1.373,2.788,2.788,0,0,1-2.321-1.118L5.268,8.932A2.665,2.665,0,0,0,1.9,8.1,3.931,3.931,0,0,0,0,11.64V42.618c0,2.116,1.382,3.83,3.086,3.83H48.148c1.7,0,3.087-1.714,3.087-3.83V11.64A3.93,3.93,0,0,0,49.329,8.1a2.666,2.666,0,0,0-3.364.83Z" transform="translate(4.499 5.983)" fill="#ddca7c"/>
    <path id="パス_9457" data-name="パス 9457" d="M2.3-5.047h9.345v-2.5H8.722V-20.188H6.433a10.08,10.08,0,0,1-3.612,1.3v1.911H5.635v9.429H2.3Z" transform="translate(23.204 48.547)" fill="#fff"/>
  </g>
</svg>
