<svg xmlns="http://www.w3.org/2000/svg" xmlns:xlink="http://www.w3.org/1999/xlink" width="60" height="60" viewBox="0 0 60 60">
  <defs>
    <clipPath id="clip-path">
      <rect id="長方形_3944" data-name="長方形 3944" width="60" height="60" fill="none"/>
    </clipPath>
  </defs>
  <g id="グループ_5542" data-name="グループ 5542" clip-path="url(#clip-path)">
    <path id="パス_9460" data-name="パス 9460" d="M41.322,14.694A2.79,2.79,0,0,1,39,15.812a2.925,2.925,0,0,1-2.231-1.373L27.986,1.378a2.727,2.727,0,0,0-4.739,0L14.464,14.439a2.925,2.925,0,0,1-2.23,1.373,2.788,2.788,0,0,1-2.321-1.118L5.268,8.932A2.665,2.665,0,0,0,1.9,8.1,3.931,3.931,0,0,0,0,11.64V42.618c0,2.116,1.382,3.83,3.086,3.83H48.148c1.7,0,3.087-1.714,3.087-3.83V11.64A3.93,3.93,0,0,0,49.329,8.1a2.666,2.666,0,0,0-3.364.83Z" transform="translate(4.499 5.983)" fill="#c2a689"/>
    <path id="パス_9461" data-name="パス 9461" d="M5.936-4.851c2.961,0,5.46-1.617,5.46-4.389a3.811,3.811,0,0,0-3.087-3.738v-.1a3.6,3.6,0,0,0,2.583-3.423c0-2.6-2.037-4.074-5.04-4.074A6.916,6.916,0,0,0,1.19-18.648l1.575,1.89a4.251,4.251,0,0,1,2.94-1.386c1.323,0,2.079.693,2.079,1.869,0,1.3-.924,2.247-3.78,2.247V-11.8c3.381,0,4.284.9,4.284,2.373,0,1.3-1.071,2.058-2.646,2.058a4.937,4.937,0,0,1-3.465-1.6L.728-7.014A6.606,6.606,0,0,0,5.936-4.851Z" transform="translate(24.022 48.645)" fill="#fff"/>
  </g>
</svg>
