<svg xmlns="http://www.w3.org/2000/svg" xmlns:xlink="http://www.w3.org/1999/xlink" width="60" height="60" viewBox="0 0 60 60">
  <defs>
    <clipPath id="clip-path">
      <rect id="長方形_3942" data-name="長方形 3942" width="60" height="60" fill="none"/>
    </clipPath>
  </defs>
  <g id="グループ_5541" data-name="グループ 5541" clip-path="url(#clip-path)">
    <path id="パス_9458" data-name="パス 9458" d="M41.322,14.694A2.79,2.79,0,0,1,39,15.812a2.925,2.925,0,0,1-2.231-1.373L27.986,1.378a2.727,2.727,0,0,0-4.739,0L14.464,14.439a2.925,2.925,0,0,1-2.23,1.373,2.788,2.788,0,0,1-2.321-1.118L5.268,8.932A2.665,2.665,0,0,0,1.9,8.1,3.931,3.931,0,0,0,0,11.64V42.618c0,2.116,1.382,3.83,3.086,3.83H48.148c1.7,0,3.087-1.714,3.087-3.83V11.64A3.93,3.93,0,0,0,49.329,8.1a2.666,2.666,0,0,0-3.364.83Z" transform="translate(4.499 5.983)" fill="#bfbfbf"/>
    <path id="パス_9459" data-name="パス 9459" d="M1.155-5.145H11.571v-2.6h-3.4c-.735,0-1.764.084-2.541.168,2.772-2.9,5.208-5.628,5.208-8.274A4.532,4.532,0,0,0,5.943-20.58a6.258,6.258,0,0,0-4.935,2.373l1.68,1.68a4.093,4.093,0,0,1,2.856-1.617,2.19,2.19,0,0,1,2.331,2.457c0,2.247-2.667,4.893-6.72,8.757Z" transform="translate(23.743 48.645)" fill="#fff"/>
  </g>
</svg>
