<svg xmlns="http://www.w3.org/2000/svg" width="12" height="10.145" viewBox="0 0 12 10.145">
  <g id="旅行用スーツケースのアイコン1_1_" data-name="旅行用スーツケースのアイコン1 (1)" transform="translate(0 -39.564)">
    <path id="パス_9349" data-name="パス 9349" d="M0,124.3v6.542a.818.818,0,0,0,.819.818H1.841v-8.179H.819A.818.818,0,0,0,0,124.3Z" transform="translate(0 -81.952)" fill="#333"/>
    <path id="パス_9350" data-name="パス 9350" d="M434.49,123.483h-1.023v8.179h1.023a.818.818,0,0,0,.818-.818V124.3A.818.818,0,0,0,434.49,123.483Z" transform="translate(-423.308 -81.952)" fill="#333"/>
    <path id="パス_9351" data-name="パス 9351" d="M176.935,188.386a.205.205,0,1,0,.29,0A.205.205,0,0,0,176.935,188.386Z" transform="translate(-172.73 -145.276)" fill="#333"/>
    <path id="パス_9352" data-name="パス 9352" d="M119.117,40.232a.669.669,0,0,0-.668-.668H115.17a.669.669,0,0,0-.668.668v1.3h-1.033v8.179h6.682V41.531h-1.033ZM117.5,44.584,116.489,45.6a.274.274,0,0,1-.387,0l-1.57-1.57a.274.274,0,0,1-.08-.194V42.821a.274.274,0,0,1,.274-.274h1.013a.274.274,0,0,1,.194.08L117.5,44.2A.274.274,0,0,1,117.5,44.584Zm.8-3.053h-2.978V40.382H118.3Z" transform="translate(-110.81 0)" fill="#333"/>
  </g>
</svg>
