<svg xmlns="http://www.w3.org/2000/svg" xmlns:xlink="http://www.w3.org/1999/xlink" width="130" height="130" viewBox="0 0 130 130">
  <defs>
    <linearGradient id="linear-gradient" x1="0.241" y1="-0.119" x2="0.802" y2="1.108" gradientUnits="objectBoundingBox">
      <stop offset="0" stop-color="#3dcde6"/>
      <stop offset="1" stop-color="#68dcb6"/>
    </linearGradient>
    <filter id="Rectangle_2524" x="0" y="0" width="130" height="130" filterUnits="userSpaceOnUse">
      <feOffset input="SourceAlpha"/>
      <feGaussianBlur stdDeviation="5" result="blur"/>
      <feFlood flood-color="#333" flood-opacity="0.161"/>
      <feComposite operator="in" in2="blur"/>
      <feComposite in="SourceGraphic"/>
    </filter>
  </defs>
  <g id="Group_4577" data-name="Group 4577" transform="translate(-283 -3045)">
    <g transform="matrix(1, 0, 0, 1, 283, 3045)" filter="url(#Rectangle_2524)">
      <rect id="Rectangle_2524-2" data-name="Rectangle 2524" width="100" height="100" rx="50" transform="translate(15 15)" fill="url(#linear-gradient)"/>
    </g>
    <g id="Group_3640" data-name="Group 3640" transform="translate(319.111 3084.444)">
      <path id="Path_8860" data-name="Path 8860" d="M210.1,530.431l.023.031a2.1,2.1,0,0,0,1.729.9,3.545,3.545,0,0,0,1.343-.318l9.577-3.958-1.741,8.531-.837,1a.836.836,0,0,0-.18.378,1.489,1.489,0,0,0,2.107,1.629l2.445-1.17a2.324,2.324,0,0,0,1.049-1l7.666-13.771,6.662-2.7c.613-.26,3.677-1.646,3.761-3.433a1.649,1.649,0,0,0-.987-1.564.846.846,0,0,0-.184-.073l-1.955-.514c-2.926-1.06-4.416-.42-6.877.64l-.047.022-5.767,2.916-10.918-2.722a3.235,3.235,0,0,0-1.531,0l-1.886.462a1.121,1.121,0,0,0-.919,1.227c.111.733.839,1.091,2.165,1.059l5.525,3.8-8.195,4.144-3.028-2.052a.835.835,0,0,0-1.1.144l-.881,1.015a.836.836,0,0,0-.055,1.025Zm5.956-13.6a1.552,1.552,0,0,1,.515.035l9.037,2.253-3.585,1.813ZM211.6,527.6a.836.836,0,0,0,.846.054l21.942-11.1c2.355-1.013,3.338-1.43,5.656-.581.024.009.049.017.074.023l1.88.495.027.019a5.652,5.652,0,0,1-2.72,1.921l-7.954,3.227a.83.83,0,0,0-.206,1.423l-7,12.573a.661.661,0,0,1-.3.29l-1.515.725.117-.14a.839.839,0,0,0,.179-.37l2.008-9.843,4.6-1.9a.835.835,0,1,0-.638-1.544L212.562,529.5c-.794.326-.925.184-1.1-.041l-2.576-3.7Z" transform="translate(-188.579 -513.849)" fill="#fff"/>
      <path id="Path_8861" data-name="Path 8861" d="M213.993,582.272c-1.058-.636-2.485-.287-3.817.936-.284.261-.563.523-.838.781a12.549,12.549,0,0,1-3.752,2.805,2.442,2.442,0,0,1-.708.146.768.768,0,0,0,.093,1.533,4.012,4.012,0,0,0,1.137-.234,13.522,13.522,0,0,0,4.281-3.131c.27-.254.544-.511.824-.768.946-.867,1.647-.956,1.988-.751a.807.807,0,0,1,.3.878,42.123,42.123,0,0,1-5.7,6.185A70.043,70.043,0,0,1,194.7,595c-2.292.38-7.954-.355-11.2-.942a15.04,15.04,0,0,0-3.514-.171.742.742,0,0,0-.144.023l-3.912-6.256a21.012,21.012,0,0,1,4.17-2.1,13.922,13.922,0,0,1,4.855-.455c.812.092,1.711.226,2.579.355,1.087.162,2.114.315,2.934.383.892.073,3.441-.031,5.69-.122,1.4-.057,2.85-.117,3.168-.1,1.589.1,2.579.623,2.94,1.543a.277.277,0,1,1-.142.529,2.832,2.832,0,0,1-1.308.411,24.064,24.064,0,0,1-2.858.289c-.206.005-.525.01-.9.015a31.268,31.268,0,0,0-3.935.168,20.449,20.449,0,0,0-4.138,1.7l-.1.053a.77.77,0,0,0,.311,1.473,1.036,1.036,0,0,0,.487-.157,18.447,18.447,0,0,1,3.789-1.576c.369-.082,2.642-.115,3.613-.129.384-.006.709-.01.919-.016a25.824,25.824,0,0,0,3.067-.309,3.86,3.86,0,0,0,2.156-.851.768.768,0,0,0-.01-1.086.787.787,0,0,0-.065-.052.746.746,0,0,0,.117-.033.768.768,0,0,0,.434-1c-.411-1.047-1.485-2.333-4.269-2.514-.378-.026-1.457.017-3.331.094-2.1.085-4.7.192-5.5.126-.77-.063-1.773-.213-2.834-.371-.882-.131-1.794-.267-2.632-.362a15.251,15.251,0,0,0-5.376.485,20.985,20.985,0,0,0-4.636,2.294l-.185-.3a1.522,1.522,0,0,0-2.118-.471l-.881.549a.768.768,0,1,0,.812,1.3l.885-.567,6.447,10.284-1.943,1.146-7.945-13.242a.767.767,0,0,0-1.088-.242c-.036.024-3.708,2.491-11.6,7.145a.768.768,0,0,0,.78,1.323c6.019-3.551,9.6-5.84,11-6.749l7.543,12.571c-1.827,1.055-7.177,4.147-13.8,7.98a.768.768,0,0,0,.77,1.329c8.212-4.756,14.47-8.37,14.47-8.37a.765.765,0,0,0,.281-.287.754.754,0,0,0,.291-.094l2.014-1.188a1.522,1.522,0,0,0,.518-2.119l-.6-.962a12.671,12.671,0,0,1,2.456.172,65.721,65.721,0,0,0,9.837,1.068,12,12,0,0,0,1.886-.122c3.524-.583,12.285-3.669,13.681-4.568,1.317-.849,6.117-6.17,6.34-7.03A2.34,2.34,0,0,0,213.993,582.272Z" transform="translate(-157.13 -556.871)" fill="#fff"/>
    </g>
  </g>
</svg>
