<svg xmlns="http://www.w3.org/2000/svg" xmlns:xlink="http://www.w3.org/1999/xlink" width="130" height="130" viewBox="0 0 130 130">
  <defs>
    <linearGradient id="linear-gradient" x1="0.241" y1="-0.119" x2="0.802" y2="1.108" gradientUnits="objectBoundingBox">
      <stop offset="0" stop-color="#3dcde6"/>
      <stop offset="1" stop-color="#68dcb6"/>
    </linearGradient>
    <filter id="Rectangle_2524" x="0" y="0" width="130" height="130" filterUnits="userSpaceOnUse">
      <feOffset input="SourceAlpha"/>
      <feGaussianBlur stdDeviation="5" result="blur"/>
      <feFlood flood-color="#333" flood-opacity="0.161"/>
      <feComposite operator="in" in2="blur"/>
      <feComposite in="SourceGraphic"/>
    </filter>
  </defs>
  <g id="Group_4574" data-name="Group 4574" transform="translate(-283 -3045)">
    <g transform="matrix(1, 0, 0, 1, 283, 3045)" filter="url(#Rectangle_2524)">
      <rect id="Rectangle_2524-2" data-name="Rectangle 2524" width="100" height="100" rx="50" transform="translate(15 15)" fill="url(#linear-gradient)"/>
    </g>
    <g id="Group_3630" data-name="Group 3630" transform="translate(328.07 3073.77)">
      <path id="Path_8847" data-name="Path 8847" d="M204.795,538.028a20.616,20.616,0,0,0-6.884-4.432c-.433-.2-.872-.406-1.312-.617a14.9,14.9,0,0,0,1.763-7.362.7.7,0,0,0-.729-.686.707.707,0,0,0-.686.729,13.46,13.46,0,0,1-1.619,6.682c-.26-.138-.519-.279-.775-.427a.707.707,0,0,0-1.022.379l-4.058,11.557a.708.708,0,1,0,1.336.469l3.78-10.765c.915.488,1.833.913,2.727,1.326a19.227,19.227,0,0,1,6.443,4.111c2.882,3.123,2.861,9.012,2.843,13.744l0,.707a.708.708,0,0,0,.706.709h0a.708.708,0,0,0,.708-.706l0-.705C208.036,547.762,208.059,541.564,204.795,538.028Z" transform="translate(-167.929 -502.883)" fill="#fff"/>
      <path id="Path_8848" data-name="Path 8848" d="M134.851,490.963a.7.7,0,0,0,.352-.168l.557-.265c.871-.413,1.765-.838,2.648-1.312l3.695,10.575a.708.708,0,0,0,1.336-.467l-2.508-7.177a.7.7,0,0,0,.522.3,4.192,4.192,0,0,0,2.446-.561,4.139,4.139,0,0,0,1.111-.96,6.6,6.6,0,0,0,3.146,1.744.694.694,0,0,0,.162.019.708.708,0,0,0,.161-1.4,5.185,5.185,0,0,1-2.989-1.971.708.708,0,0,0-1.213.126,2.73,2.73,0,0,1-2.708,1.589.7.7,0,0,0-.763.648.673.673,0,0,0,0,.1l-1.341-3.837a.708.708,0,0,0-1.022-.38c-.608.351-1.234.674-1.861.984a21.243,21.243,0,0,0,1.866-4.439c1.846,2.6,4.428,4.1,6.554,4.1,3.439,0,7.124-3.529,8.413-7.968a3.165,3.165,0,0,0,2.161-1.264,4.82,4.82,0,0,0,.389-4.511,2.816,2.816,0,0,0-2.8-1.711.708.708,0,0,0,.027,1.415h.028c.009,0,1.124-.023,1.408.773a3.472,3.472,0,0,1-.188,3.184,1.78,1.78,0,0,1-1.532.724.713.713,0,0,0-.734.538c-.874,3.576-3.966,7.4-7.176,7.4-2.637,0-6.166-3.043-7.217-7.574a.707.707,0,0,0-1.147-.379,1.777,1.777,0,0,1-1.212-.713,3.473,3.473,0,0,1-.187-3.184,1.075,1.075,0,0,1,.82-.688.706.706,0,0,0-.2-1.385,13.961,13.961,0,0,1-.311-2.318l-.011-.135a9.455,9.455,0,0,1,7.839-10.161,8.692,8.692,0,0,1,10.112,6.346c0,.016.01.031.016.047a14.3,14.3,0,0,1,.968,4.6.708.708,0,0,0,1.414-.057,15.7,15.7,0,0,0-1.051-5.023,10.061,10.061,0,0,0-11.707-7.3,10.847,10.847,0,0,0-9,11.655l.013.154a13.753,13.753,0,0,0,.422,2.813,2.366,2.366,0,0,0-.656.983,4.82,4.82,0,0,0,.389,4.511,3.161,3.161,0,0,0,2.3,1.278,13.108,13.108,0,0,0,.791,2.044,19.9,19.9,0,0,1-3.112,7.356,19.948,19.948,0,0,0-6.211,4.187c-3.258,3.531-3.236,9.727-3.218,14.705l0,.6a.708.708,0,0,0,.708.706h0a.708.708,0,0,0,.706-.709l0-.6c-.017-4.731-.038-10.618,2.839-13.735A18.389,18.389,0,0,1,134.851,490.963Z" transform="translate(-124.841 -458.707)" fill="#fff"/>
      <path id="Path_8849" data-name="Path 8849" d="M172.269,480.454a.709.709,0,0,0-.544-.344.7.7,0,0,0-.6.238c-1.4,1.593-4.291,2.566-6.844,3.425-1.1.369-2.13.716-3,1.094a.708.708,0,1,0,.567,1.3c.809-.354,1.816-.692,2.882-1.05,2.4-.806,5.079-1.708,6.81-3.2a13.073,13.073,0,0,0,5.183,3.922.708.708,0,1,0,.591-1.287A10.95,10.95,0,0,1,172.269,480.454Z" transform="translate(-148.869 -472.982)" fill="#fff"/>
      <path id="Path_8850" data-name="Path 8850" d="M203.163,624.751a4.527,4.527,0,0,0-1.252-.952,1.492,1.492,0,0,0-1.945.309c-.244.263-.514.511-.8.773-.148.137-.3.272-.441.411l-8.316,7.975c-.009.008-.015.019-.023.028a.639.639,0,0,0-.065.078c-.009.013-.016.028-.025.042a.666.666,0,0,0-.043.086c0,.006-.007.012-.009.018l-1.256,3.416a.878.878,0,0,0,.073.739c0,.009.012.016.016.024a.855.855,0,0,0,.08.119l.008.008,0,.005c0,.005.011.009.016.014a.873.873,0,0,0,.421.245.863.863,0,0,0,.209.026.97.97,0,0,0,.219-.026l3.547-.914c.008,0,.015-.007.023-.009a.653.653,0,0,0,.109-.044c.011-.005.023-.01.034-.016a.67.67,0,0,0,.119-.085l0,0,0,0s1.208-1.141,2.594-2.458l.857-.815c.7-.666,1.391-1.327,1.952-1.867q1.372-1.322,2.742-2.646.569-.55,1.137-1.1c.057-.054.115-.106.172-.157a1.707,1.707,0,0,0,.737-1.42,1.559,1.559,0,0,0-.037-.245A3.333,3.333,0,0,0,203.163,624.751Zm-11.41,11.518-.77-.889.137-.372,1.055,1.153Zm10.686-9.3c-.071.064-.143.128-.213.2l-1.134,1.1q-1.369,1.324-2.74,2.644c-.559.539-1.249,1.2-1.946,1.861l-.856.815c-.843.8-1.62,1.536-2.1,1.989l-1.647-1.8,4.467-4.283h0l3.38-3.24c.138-.132.279-.262.421-.393.292-.269.593-.546.874-.848a.379.379,0,0,1,.127-.105.573.573,0,0,1,.248.085,3.262,3.262,0,0,1,.878.676,2.017,2.017,0,0,1,.53.933.214.214,0,0,1,.006.039C202.738,626.706,202.578,626.847,202.438,626.972Z" transform="translate(-167.599 -568.686)" fill="#fff"/>
      <path id="Path_8851" data-name="Path 8851" d="M151.366,603.776a.667.667,0,0,0-.667-.667h-4.314a.667.667,0,0,0-.667.667v18.866a.667.667,0,1,0,1.334,0v-18.2H150.7A.667.667,0,0,0,151.366,603.776Z" transform="translate(-138.767 -555.034)" fill="#fff"/>
      <path id="Path_8852" data-name="Path 8852" d="M200.51,612.989a.668.668,0,0,0,.667-.667v-8.545a.667.667,0,0,0-.667-.667h-4.2a.667.667,0,0,0,0,1.334h3.537v7.878A.667.667,0,0,0,200.51,612.989Z" transform="translate(-172.068 -555.034)" fill="#fff"/>
      <path id="Path_8853" data-name="Path 8853" d="M177.306,644.046a.667.667,0,0,0-.667-.667h-7.2a.667.667,0,1,0,0,1.334h7.2A.667.667,0,0,0,177.306,644.046Z" transform="translate(-154.143 -581.896)" fill="#fff"/>
      <path id="Path_8854" data-name="Path 8854" d="M169.434,630.368a.667.667,0,1,0,0,1.334h9.1a.667.667,0,0,0,0-1.334Z" transform="translate(-154.143 -573.217)" fill="#fff"/>
      <path id="Path_8855" data-name="Path 8855" d="M168.767,619.189a.667.667,0,0,0,.667.667h10.125a.667.667,0,0,0,0-1.334H169.434A.668.668,0,0,0,168.767,619.189Z" transform="translate(-154.143 -565.315)" fill="#fff"/>
      <path id="Path_8856" data-name="Path 8856" d="M172.986,603.921a.785.785,0,0,0,.841-.847v-1.41a.8.8,0,0,0-.882-.885H164.1a.817.817,0,0,0-.611.22.826.826,0,0,0-.243.611q0,.209,0,.417v.167l0,.892a.771.771,0,0,0,.839.835h8.9Zm-8.41-1.44v-.368h7.918v.474h-7.918Z" transform="translate(-150.456 -553.479)" fill="#fff"/>
      <path id="Path_8857" data-name="Path 8857" d="M157.575,614.8h-1.866a.667.667,0,0,0-.667.667v1.866a.667.667,0,0,0,.667.667h1.866a.667.667,0,0,0,.667-.667v-1.866A.667.667,0,0,0,157.575,614.8Zm-.667,1.866h-.532v-.532h.532Z" transform="translate(-144.987 -562.835)" fill="#fff"/>
      <path id="Path_8858" data-name="Path 8858" d="M157.575,627.69h-1.866a.667.667,0,0,0-.667.667v1.866a.668.668,0,0,0,.667.667h1.866a.667.667,0,0,0,.667-.667v-1.866A.667.667,0,0,0,157.575,627.69Zm-.667,1.866h-.532v-.532h.532Z" transform="translate(-144.987 -571.431)" fill="#fff"/>
      <path id="Path_8859" data-name="Path 8859" d="M157.575,640.576h-1.866a.667.667,0,0,0-.667.667v1.866a.667.667,0,0,0,.667.667h1.866a.667.667,0,0,0,.667-.667v-1.866A.667.667,0,0,0,157.575,640.576Zm-.667,1.866h-.532v-.532h.532Z" transform="translate(-144.987 -580.027)" fill="#fff"/>
    </g>
  </g>
</svg>
