<svg xmlns="http://www.w3.org/2000/svg" xmlns:xlink="http://www.w3.org/1999/xlink" width="130" height="130" viewBox="0 0 130 130">
  <defs>
    <linearGradient id="linear-gradient" x1="0.241" y1="-0.119" x2="0.802" y2="1.108" gradientUnits="objectBoundingBox">
      <stop offset="0" stop-color="#3dcde6"/>
      <stop offset="1" stop-color="#68dcb6"/>
    </linearGradient>
    <filter id="Rectangle_2524" x="0" y="0" width="130" height="130" filterUnits="userSpaceOnUse">
      <feOffset input="SourceAlpha"/>
      <feGaussianBlur stdDeviation="5" result="blur"/>
      <feFlood flood-color="#333" flood-opacity="0.161"/>
      <feComposite operator="in" in2="blur"/>
      <feComposite in="SourceGraphic"/>
    </filter>
  </defs>
  <g id="Group_4891" data-name="Group 4891" transform="translate(-230 -8291)">
    <g id="Group_4575" data-name="Group 4575" transform="translate(-53 5246)">
      <g transform="matrix(1, 0, 0, 1, 283, 3045)" filter="url(#Rectangle_2524)">
        <rect id="Rectangle_2524-2" data-name="Rectangle 2524" width="100" height="100" rx="50" transform="translate(15 15)" fill="url(#linear-gradient)"/>
      </g>
      <g id="Group_3639" data-name="Group 3639" transform="translate(316.75 3088.751)">
        <path id="線_1" data-name="線 1" d="M32.1.139H-.556A.694.694,0,0,1-1.25-.556.694.694,0,0,1-.556-1.25H32.1a.694.694,0,0,1,.694.694A.694.694,0,0,1,32.1.139Z" transform="translate(4.053 32.761)" fill="#fff"/>
        <path id="パス_8862" data-name="パス 8862" d="M1266.854,888.526a20.1,20.1,0,0,1-4.639-.546,19.489,19.489,0,0,1-9.573-5.412,20,20,0,0,1-5.056-9.356,19.412,19.412,0,0,1,.473-10.622,19.97,19.97,0,0,1,5.7-8.53,19.51,19.51,0,0,1,9.179-4.575,19.879,19.879,0,0,1,10.332.776,19.5,19.5,0,0,1,8.548,5.855,17.583,17.583,0,0,1,1.731,2.353.694.694,0,0,1-.575,1.053l-1.093.031h-30.895a17.834,17.834,0,0,0-2.043,13.346,18.608,18.608,0,0,0,4.7,8.706,18.1,18.1,0,0,0,8.893,5.025,18.311,18.311,0,0,0,10.214-.475,18.621,18.621,0,0,0,12.087-14.226.694.694,0,0,1,1.368.239,20.029,20.029,0,0,1-13,15.3A19.449,19.449,0,0,1,1266.854,888.526ZM1251.9,858.163h29.776c-.292-.4-.592-.761-.923-1.156a18.553,18.553,0,0,0-17.55-6.158,18.121,18.121,0,0,0-8.523,4.252A18.872,18.872,0,0,0,1251.9,858.163Z" transform="translate(-1247.063 -845.631)" fill="#fff"/>
        <path id="パス_8863" data-name="パス 8863" d="M1262.412,927.385c-4.112,0-8.247-.028-11.963-.083a.694.694,0,0,1,.01-1.389h.01c7.418.111,16.514.111,23.738,0h.011a.694.694,0,0,1,.01,1.389C1270.611,927.357,1266.523,927.385,1262.412,927.385Z" transform="translate(-1249.103 -903.6)" fill="#fff"/>
        <path id="パス_8864" data-name="パス 8864" d="M1311.628,888.526a.694.694,0,0,1-.619-.379,42.594,42.594,0,0,1,0-38.679.694.694,0,1,1,1.237.63,41.206,41.206,0,0,0,0,37.418.694.694,0,0,1-.618,1.01Z" transform="translate(-1291.835 -845.6)" fill="#fff"/>
        <path id="パス_8865" data-name="パス 8865" d="M1283.107,888.53a.7.7,0,0,1-.215-.034,21.35,21.35,0,0,1-6.249-3.213,19.774,19.774,0,0,1-4.475-4.684,20.4,20.4,0,0,1-2.683-5.654,21.5,21.5,0,0,1,0-12.262,20.4,20.4,0,0,1,2.683-5.654,19.782,19.782,0,0,1,4.476-4.684,21.353,21.353,0,0,1,6.249-3.213.694.694,0,0,1,.429,1.321,19.965,19.965,0,0,0-5.844,3,18.4,18.4,0,0,0-4.162,4.356,19.01,19.01,0,0,0-2.5,5.269,20.108,20.108,0,0,0,0,11.466,19.007,19.007,0,0,0,2.5,5.269,18.4,18.4,0,0,0,4.162,4.356,19.968,19.968,0,0,0,5.844,3,.695.695,0,0,1-.214,1.355Z" transform="translate(-1263.317 -845.606)" fill="#fff"/>
        <path id="パス_8866" data-name="パス 8866" d="M1325.7,963.521a.695.695,0,0,1-.561-1.1A31.787,31.787,0,0,0,1330.763,949a.695.695,0,0,1,1.37.227,33.19,33.19,0,0,1-5.866,14A.694.694,0,0,1,1325.7,963.521Z" transform="translate(-1305.911 -920.595)" fill="#fff"/>
        <path id="パス_8867" data-name="パス 8867" d="M1331.535,864.746a.694.694,0,0,1-.686-.593,31.77,31.77,0,0,0-5.705-13.96.694.694,0,1,1,1.123-.817,33.153,33.153,0,0,1,5.956,14.573.694.694,0,0,1-.585.789A.718.718,0,0,1,1331.535,864.746Z" transform="translate(-1305.911 -845.601)" fill="#fff"/>
        <path id="パス_8868" data-name="パス 8868" d="M1325.714,962.008a.695.695,0,0,1-.2-1.358,19.2,19.2,0,0,0,12.78-13.685.695.695,0,1,1,1.355.3,19.8,19.8,0,0,1-4.963,9.163,21.105,21.105,0,0,1-4.042,3.351,19.449,19.449,0,0,1-4.723,2.194A.691.691,0,0,1,1325.714,962.008Z" transform="translate(-1305.918 -919.084)" fill="#fff"/>
        <path id="パス_8869" data-name="パス 8869" d="M1337.645,860.872a.694.694,0,0,1-.626-.394,19.683,19.683,0,0,0-4.663-6.247,17.377,17.377,0,0,0-6.832-3.772.694.694,0,0,1,.38-1.336,18.754,18.754,0,0,1,7.374,4.07,21.066,21.066,0,0,1,4.992,6.684.695.695,0,0,1-.626,1Z" transform="translate(-1305.918 -845.606)" fill="#fff"/>
        <g id="Group_3632" data-name="Group 3632" transform="translate(27.38 0)">
          <path id="パス_8870" data-name="パス 8870" d="M1370.072,834.849a2.9,2.9,0,0,1,1.985,1,11.7,11.7,0,0,1,1.751,2.4,48.908,48.908,0,0,1,3.443,7.9l13.158-.6h.054a2.71,2.71,0,0,1,2.474,1.472l.791,1.6,0,.006a1.555,1.555,0,0,1-.031,1.407,1.764,1.764,0,0,1-1.09.877l-.017,0c-.086.022-8.405,2.144-12.674,3.329l2.437,8.2,3.56.214a.694.694,0,0,1,.647.6l.236,1.809a.7.7,0,0,1-.5.757l-3.916,1.123-.274,1.429a.694.694,0,0,1-1.128.4l-1.111-.93-3.737,1.62a.7.7,0,0,1-.823-.209l-1.156-1.479a.694.694,0,0,1,.079-.94l2.884-2.634-3.579-7.681c-4.043,1.794-11.843,5.453-11.924,5.491l-.016.007a1.813,1.813,0,0,1-.723.152,1.708,1.708,0,0,1-.677-.138,1.554,1.554,0,0,1-.916-1.066v-.006l-.4-1.737a2.708,2.708,0,0,1,1-2.725l.02-.015,10.54-7.9a46.107,46.107,0,0,1-2.429-8.753,9.134,9.134,0,0,1-.029-3,2.325,2.325,0,0,1,1.357-1.841c.024-.009.047-.016.066-.022l.061-.024A1.854,1.854,0,0,1,1370.072,834.849Zm6.762,12.709a.694.694,0,0,1-.579-.312l-.146-.22a.7.7,0,0,1-.076-.153,48.46,48.46,0,0,0-3.427-7.924,10.375,10.375,0,0,0-1.528-2.114,1.707,1.707,0,0,0-1.007-.6.452.452,0,0,0-.129.019l-.047.02q-.03.012-.061.021l-.042.012c-.213.092-.367.363-.457.806a7.979,7.979,0,0,0,.043,2.533,46.361,46.361,0,0,0,2.454,8.73.7.7,0,0,1,.039.165l.028.263a.694.694,0,0,1-.274.629l-10.888,8.159a1.331,1.331,0,0,0-.509,1.321l.4,1.734a.18.18,0,0,0,.111.115.381.381,0,0,0,.29-.006c.331-.155,8.459-3.966,12.324-5.668a.681.681,0,0,1,.095-.034l.259-.072a.694.694,0,0,1,.815.376l4.066,8.725a.7.7,0,0,1-.161.806l-2.785,2.544.429.549,3.637-1.577a.7.7,0,0,1,.722.1l.534.447.132-.688a.694.694,0,0,1,.491-.537l3.752-1.076-.084-.647-3.473-.209a.7.7,0,0,1-.624-.5L1378.4,854a.694.694,0,0,1,.383-.832l.246-.109a.7.7,0,0,1,.094-.034c4.066-1.142,12.763-3.362,13.118-3.452a.381.381,0,0,0,.228-.178.185.185,0,0,0,.015-.161l-.789-1.595a1.333,1.333,0,0,0-1.228-.7h-.005l-13.591.616Z" transform="translate(-1358.809 -834.849)" fill="#fff"/>
          <path id="線_2" data-name="線 2" d="M.7,3.936a.7.7,0,0,1-.659-.477l-1.254-3.8a.694.694,0,0,1,.442-.877A.694.694,0,0,1,.1-.773l1.254,3.8a.695.695,0,0,1-.66.912Z" transform="translate(19.622 15.89)" fill="#fff"/>
          <path id="線_3" data-name="線 3" d="M1.121,4.2a.7.7,0,0,1-.642-.429L-1.2-.29A.694.694,0,0,1-.821-1.2a.694.694,0,0,1,.907.376L1.763,3.235a.695.695,0,0,1-.641.96Z" transform="translate(14.05 17.482)" fill="#fff"/>
        </g>
      </g>
    </g>
  </g>
</svg>
