<svg id="グループ_4888" data-name="グループ 4888" xmlns="http://www.w3.org/2000/svg" width="38" height="38" viewBox="0 0 38 38">
  <g id="Dark_Blue" data-name="Dark Blue">
    <circle id="楕円形_1" data-name="楕円形 1" cx="19" cy="19" r="19" fill="#1da1f2"/>
  </g>
  <g id="Logo_FIXED" data-name="Logo — FIXED" transform="translate(8.521 10.877)">
    <path id="パス_543" data-name="パス 543" d="M96.7,132.645a12.946,12.946,0,0,0,13.034-13.034c0-.2,0-.4-.01-.589a9.385,9.385,0,0,0,2.289-2.375,9.3,9.3,0,0,1-2.631.722,4.578,4.578,0,0,0,2.014-2.537,9.276,9.276,0,0,1-2.907,1.112,4.584,4.584,0,0,0-7.923,3.135,4.2,4.2,0,0,0,.123,1.045,13,13,0,0,1-9.443-4.788,4.579,4.579,0,0,0,1.425,6.108,4.5,4.5,0,0,1-2.071-.57v.057a4.586,4.586,0,0,0,3.676,4.493,4.567,4.567,0,0,1-1.206.161,4.373,4.373,0,0,1-.865-.086,4.574,4.574,0,0,0,4.275,3.183,9.208,9.208,0,0,1-5.69,1.957,8.327,8.327,0,0,1-1.092-.066,12.763,12.763,0,0,0,7,2.071" transform="translate(-89.7 -114.5)" fill="#fff"/>
  </g>
</svg>
