<svg id="yarukoto" xmlns="http://www.w3.org/2000/svg" width="120" height="120" viewBox="0 0 120 120">
  <rect id="長方形_2726" data-name="長方形 2726" width="120" height="120" rx="60" fill="#fff"/>
  <g id="グループ_4162" data-name="グループ 4162" transform="translate(20 27)">
    <path id="パス_9205" data-name="パス 9205" d="M58.763,71.361a7.374,7.374,0,1,0-7.374-7.374A7.383,7.383,0,0,0,58.763,71.361Zm0-12.454a5.08,5.08,0,1,1-5.08,5.08A5.085,5.085,0,0,1,58.763,58.907Z" transform="translate(-46.201 -56.612)" fill="#3dcde6"/>
    <path id="パス_9206" data-name="パス 9206" d="M101.38,94.156a1.147,1.147,0,0,0-1.046-.07l-16.863,7.292a4.592,4.592,0,0,0-4.213-2.73c-.141,0-.284.006-.425.02l-10.4.951c-3.884-1.108-12.5-3.53-13.664-3.53-.143,0-.286.006-.441.018a5.287,5.287,0,0,0-5.5,4.831L47.062,122.5c-.011.137-.017.286-.017.426a5.273,5.273,0,0,0,5.267,5.267H67.989L71.7,143.179c0,.012.006.023.009.035a4.809,4.809,0,0,0,5.671,3.4,4.811,4.811,0,0,0,3.668-5.717l-3.92-19.229a5.148,5.148,0,0,0-5-4.016H59.057l.941-9.03c2.2.452,5.827,1.174,6.639,1.174a4.8,4.8,0,0,0,.716-.054l12.593-1.9a4.639,4.639,0,0,0,3.908-4.131l15.92-6.884L102.5,130.55a1.147,1.147,0,0,0,1.142,1.055c.031,0,.062,0,.094,0a1.147,1.147,0,0,0,1.051-1.236l-2.857-35.318A1.146,1.146,0,0,0,101.38,94.156ZM79.6,105.574l-12.59,1.9a2.478,2.478,0,0,1-.373.029c-.558-.007-4.207-.709-7.413-1.385a1.147,1.147,0,0,0-1.378,1l-1.2,11.56a1.147,1.147,0,0,0,1.141,1.266H72.132a2.834,2.834,0,0,1,2.752,2.2l3.92,19.23a2.519,2.519,0,0,1-2.458,3.06,2.532,2.532,0,0,1-2.422-1.828L70,126.767a1.147,1.147,0,0,0-1.113-.872H52.312a2.976,2.976,0,0,1-2.973-2.972c0-.081,0-.168.01-.243l1.761-21.555a2.987,2.987,0,0,1,2.958-2.73c.061,0,.123,0,.2.007a1.421,1.421,0,0,0,.2,0c.1-.01.195-.014.27-.014.9.058,8.3,2.082,13.262,3.5a1.144,1.144,0,0,0,.419.039l10.616-.971a2.329,2.329,0,0,1,.558,4.622Z" transform="translate(-43.39 -80.796)" fill="#3dcde6"/>
    <path id="パス_9207" data-name="パス 9207" d="M59.377,194.038H37.839a1.147,1.147,0,1,0,0,2.295h.682l8.438,8.169-5.15,4.986a1.147,1.147,0,1,0,1.6,1.649l5.2-5.038,5.2,5.038a1.147,1.147,0,0,0,1.6-1.649l-5.15-4.986,8.438-8.169h.682a1.147,1.147,0,1,0,0-2.295Zm-10.769,8.867-6.789-6.573H55.4Z" transform="translate(-36.692 -145.524)" fill="#3dcde6"/>
    <rect id="長方形_2717" data-name="長方形 2717" width="8.872" height="2.295" transform="translate(44.368 46.678)" fill="#3dcde6"/>
    <rect id="長方形_2718" data-name="長方形 2718" width="14.07" height="2.295" transform="translate(65.93 50.09)" fill="#3dcde6"/>
    <rect id="長方形_2719" data-name="長方形 2719" width="9.08" height="2.295" transform="translate(46.985 55.436)" fill="#3dcde6"/>
    <rect id="長方形_2720" data-name="長方形 2720" width="8.462" height="2.295" transform="translate(61.812 57.059)" fill="#3dcde6"/>
    <rect id="長方形_2721" data-name="長方形 2721" width="7.963" height="2.295" transform="translate(65.146 42.599)" fill="#3dcde6"/>
  </g>
</svg>
